<svg xmlns="http://www.w3.org/2000/svg" width="24" height="24" viewBox="0 0 24 24" fill="none">
  <path d="M20.449 20.4496H16.8928V14.8805C16.8928 13.5525 16.8691 11.8429 15.0432 11.8429C13.1911 11.8429 12.9077 13.2899 12.9077 14.7838V20.4492H9.35149V8.99689H12.7654V10.562H12.8132C13.1549 9.97782 13.6486 9.49726 14.2417 9.17149C14.8349 8.84572 15.5053 8.68693 16.1816 8.71203C19.7859 8.71203 20.4505 11.0828 20.4505 14.167L20.449 20.4496ZM5.33895 7.43144C4.93079 7.43151 4.53177 7.31055 4.19235 7.08385C3.85294 6.85715 3.58839 6.53489 3.43213 6.15783C3.27587 5.78077 3.23491 5.36584 3.31447 4.96551C3.39403 4.56517 3.59052 4.19743 3.87908 3.90876C4.16764 3.6201 4.53532 3.42348 4.93562 3.34378C5.33592 3.26408 5.75086 3.30488 6.12798 3.46101C6.5051 3.61713 6.82745 3.88158 7.05427 4.22091C7.28109 4.56025 7.4022 4.95922 7.40227 5.36738C7.40232 5.63839 7.34898 5.90675 7.24532 6.15715C7.14165 6.40754 6.9897 6.63507 6.7981 6.82674C6.6065 7.0184 6.37902 7.17045 6.12866 7.27421C5.8783 7.37796 5.60996 7.43139 5.33895 7.43144ZM7.11703 20.4496H3.55716V8.99689H7.11703V20.4496ZM22.2219 0.00163516H1.77019C1.306 -0.00360329 0.858692 0.175663 0.526603 0.500042C0.194514 0.824421 0.00481076 1.26737 -0.000854492 1.73156V22.2681C0.00461686 22.7325 0.194209 23.1758 0.526287 23.5005C0.858364 23.8252 1.30577 24.0048 1.77019 23.9999H22.2219C22.6872 24.0057 23.1359 23.8266 23.4693 23.5019C23.8026 23.1772 23.9935 22.7334 23.9999 22.2681V1.73008C23.9933 1.26497 23.8023 0.821515 23.4689 0.497144C23.1355 0.172773 22.687 -0.00598143 22.2219 0.000152822" fill="#707A75" />
</svg>
