<svg xmlns="http://www.w3.org/2000/svg" xmlns:xlink="http://www.w3.org/1999/xlink" version="1.1" id="Layer_1" x="0px" y="0px" style="enable-background:new 0 0 2100 2000;" xml:space="preserve" viewBox="455.7 389.29 1188.6 1221.42">
<g>
	<g>
		<path id="_x33__1_" d="M455.7,552.52h56.56c41.38,0,87.82-23.91,87.82-79.55c0-59.77-46.44-80.01-87.82-80.01H455.7V552.52z     M483.75,528.15V417.33h23.91c29.43,0,62.07,9.66,62.07,55.64c0,43.22-32.65,55.18-62.07,55.18H483.75z"/>
		<polygon id="_x34__1_" points="673.65,552.52 783.54,552.52 783.54,527.69 702.16,527.69 702.16,482.63 775.27,482.63     775.27,458.72 702.16,458.72 702.16,417.79 779.4,417.79 779.4,392.96 673.65,392.96   "/>
		<path id="_x35__1_" d="M857.11,552.52h28.51v-65.75h21.61c34.03,0,62.07-12.41,62.07-47.36c0-33.57-23.45-46.44-60.23-46.44    h-51.96V552.52z M885.62,462.85v-45.98h20.69c17.47,0,34.49,3.68,34.49,22.53c0,18.85-17.01,23.45-35.4,23.45H885.62z"/>
		<polygon id="_x31_2_1_" points="1079.45,552.52 1107.95,552.52 1107.95,417.79 1156.69,417.79 1156.69,392.96 1030.71,392.96     1030.71,417.79 1079.45,417.79   "/>
		<path id="_x31_3_1_" d="M1296.23,472.51c0,49.66,36.32,84.14,85.52,84.14c49.66,0,85.98-34.49,85.98-84.14    c0-51.04-36.32-83.22-85.98-83.22C1332.55,389.29,1296.23,421.47,1296.23,472.51z M1327.49,472.51c0-33.11,21.61-58.4,54.72-58.4    s54.72,25.29,54.72,58.4c0,34.03-22.07,58.86-54.72,58.86S1327.49,506.54,1327.49,472.51z"/>
		<polygon id="_x31_4_1_" points="1541.3,552.52 1569.81,552.52 1569.81,485.38 1640.16,485.38 1640.16,461.48 1569.81,461.48     1569.81,417.79 1644.3,417.79 1644.3,392.96 1541.3,392.96   "/>
	</g>
	<g>
		<polygon points="916.32,1353.35 730.34,1053.7 916.32,754.05 827.2,754.05 685.87,982.04 544.37,754.05 455.7,754.05     641.45,1053.7 455.7,1353.35 544.37,1353.35 685.87,1125.36 827.2,1353.35   "/>
		<polygon points="1249.16,959.58 1050.21,1281.49 905.4,1048.24 860.84,1119.63 1005.77,1353.41 846.75,1610.71 935.41,1610.71     1337.83,959.58   "/>
		<polygon points="1644.3,754.05 1576.09,754.05 1074.1,754.05 1027.26,829.99 1508.34,829.99 1219.61,1295.6 1183.68,1353.35     1251.44,1353.35 1529.26,1353.35 1576.09,1277.42 1319.64,1277.42 1608.38,811.8   "/>
	</g>
</g>
</svg>