<svg width="118" height="47" viewBox="0 0 118 47" fill="none" xmlns="http://www.w3.org/2000/svg">
    <path d="M40.7755 22.9024C45.4462 19.44 50.0028 16.0639 54.5595 12.6878C52.3019 12.7569 50.134 11.7765 48.1077 13.3403C43.7443 16.7095 39.2428 19.8957 34.7932 23.151C34.2719 23.5307 33.7265 23.8724 32.9187 24.411V0.391658H29.6116V39.5481H32.9739C32.9739 36.2756 32.9463 33.117 33.0015 29.9584C33.0119 29.3992 33.2087 28.6501 33.5988 28.3256C35.0003 27.1622 36.5192 26.1404 38.0346 25.0392C38.3211 25.2912 38.5559 25.4569 38.7388 25.664C42.1771 29.6097 45.7775 33.4311 48.981 37.5598C50.7485 39.8381 52.7093 39.8795 55.2741 39.4826C50.3791 33.8868 45.6222 28.4464 40.7755 22.899V22.9024ZM0.0449219 12.8673V15.5599C4.9986 14.7936 9.15486 12.7914 12.524 9.02521V36.8314H0.0449219V39.562H26.0353V36.7485H16.1452V0.433083C13.6874 0.125851 13.7012 0.132755 12.7381 1.93817C11.2157 4.79991 9.53458 7.59952 6.76259 9.38767C4.67756 10.7305 2.35088 11.6936 0.0449219 12.8673ZM67.4322 46.0104C61.4291 40.3352 59.9654 33.0997 61.1012 25.3292C62.6373 14.8005 68.0674 6.78829 77.6571 1.81045C77.9885 1.63784 78.1404 1.12004 78.3752 0.764478C77.9368 0.729958 77.4431 0.547 77.0668 0.685082C65.7994 4.83098 57.19 16.889 57.0416 28.7605C56.9518 36.0305 59.8308 41.8783 65.5957 46.3142C66.3552 46.8975 66.9455 47.1634 67.4287 46.0104H67.4322ZM106.668 0.719602C113.638 8.31064 114.553 16.8406 112.126 25.9747C109.692 35.1295 104.079 41.8127 95.5145 46.2486C96.0772 46.5523 96.6882 46.7526 97.1163 46.5558C109.029 41.067 116.265 32.071 117.007 18.7185C117.414 11.3622 114.276 5.32808 108.297 0.916368C107.914 0.633301 107.22 0.778287 106.672 0.723054L106.668 0.719602ZM99.4153 27.649C98.5454 29.2714 97.855 30.7282 97.0127 32.0917C96.1428 33.5036 95.2349 35.0881 93.2293 34.8637C91.3617 34.6566 91.1926 32.865 90.6679 31.5463C88.538 26.1749 86.5185 20.7587 84.4024 15.3839C83.0389 11.918 80.8503 11.5003 78.6582 14.545C76.6319 17.3619 75.0819 20.524 73.3352 23.5376C73.2903 23.6135 73.3628 23.7551 73.3904 23.9484C73.746 24.1141 74.1395 24.297 74.426 24.4317C75.8448 22.3639 77.0599 20.2754 78.5926 18.4458C80.1357 16.6059 81.6477 16.9649 82.6799 19.1777C83.0665 20.0062 83.3668 20.8761 83.7051 21.7253C85.8005 26.9862 87.7992 32.2885 90.0362 37.4873C91.2375 40.28 92.9324 40.4284 95.0451 38.2433C95.5215 37.7496 95.9875 37.218 96.3258 36.6312C97.8619 33.9593 99.3498 31.2598 100.903 28.4844C100.313 28.1495 99.8745 27.9044 99.4119 27.6421L99.4153 27.649ZM84.4162 28.9366C83.0665 30.8007 81.8134 32.6199 80.4706 34.3735C78.6755 36.714 78.3406 36.6622 76.9426 34.0732C76.3454 32.9651 75.8138 31.8052 74.2638 31.7362C71.9854 31.6361 70.2905 32.9686 70.0661 35.1295C69.8383 37.2905 71.4538 39.4308 73.5872 39.7208C75.4824 39.9762 77.3637 39.7208 78.7135 38.3227C80.7329 36.2307 82.5314 33.9317 84.4646 31.7569C85.3034 30.811 85.155 29.9618 84.4128 28.9366H84.4162ZM89.7013 23.686C91.5102 21.2765 93.25 18.7945 95.1624 16.4609C96.702 14.5795 97.2406 14.7176 98.359 16.8717C99.2151 18.5252 100.327 19.043 101.853 18.5045C103.423 17.9487 104.214 16.4644 103.834 14.7901C103.454 13.1159 102.319 12.0181 100.71 12.1493C99.077 12.2805 97.0818 12.5808 95.9737 13.5992C93.6366 15.7429 91.7863 18.4148 89.7082 20.8484C88.8625 21.8426 88.9004 22.7712 89.7013 23.6895V23.686Z" fill="white"/>
    <path d="M40.7752 22.9014C45.6253 28.4454 50.3788 33.8858 55.2738 39.485C52.7089 39.882 50.7482 39.8405 48.9807 37.5622C45.7772 33.4336 42.1768 29.6087 38.7385 25.6665C38.5556 25.4559 38.3208 25.2936 38.0343 25.0416C36.5189 26.1463 35 27.1646 33.5984 28.328C33.2084 28.6525 33.0116 29.4016 33.0012 29.9608C32.946 33.1194 32.9736 36.278 32.9736 39.5506H29.6113V0.390625H32.9184V24.4134C33.7262 23.8714 34.2716 23.5331 34.7928 23.1534C39.2425 19.8981 43.744 16.7119 48.1074 13.3427C50.1303 11.7789 52.3016 12.7593 54.5592 12.6902C50.0025 16.0663 45.4458 19.4424 40.7752 22.9048V22.9014Z" fill="black"/>
    <path d="M0.0449219 12.8673C2.35088 11.6902 4.67756 10.7271 6.76259 9.38767C9.53803 7.60297 11.2157 4.79991 12.7381 1.93817C13.7012 0.132755 13.6874 0.125851 16.1452 0.433083V36.752H26.0353V39.5654H0.0449219V36.8348H12.524V9.02521C9.15486 12.7914 4.9986 14.7936 0.0449219 15.5599V12.8673Z" fill="black"/>
    <path d="M67.4322 46.009C66.9489 47.1585 66.3552 46.8962 65.5992 46.3128C59.8343 41.8769 56.9553 36.0291 57.045 28.7591C57.1934 16.891 65.7994 4.82959 77.0703 0.683692C77.4466 0.545611 77.9402 0.728569 78.3786 0.763089C78.1439 1.11865 77.992 1.63646 77.6606 1.80906C68.0708 6.7869 62.6408 14.7991 61.1046 25.3278C59.9723 33.0984 61.4325 40.3338 67.4356 46.009H67.4322Z" fill="black"/>
    <path d="M106.669 0.722202C107.218 0.777435 107.915 0.632449 108.295 0.915516C114.277 5.32722 117.415 11.3648 117.004 18.7177C116.262 32.0702 109.023 41.0662 97.1135 46.5549C96.6854 46.7517 96.0744 46.5549 95.5117 46.2477C104.076 41.8153 109.689 35.1321 112.123 25.9739C114.553 16.8398 113.635 8.30979 106.665 0.71875L106.669 0.722202Z" fill="black"/>
    <path d="M99.4157 27.6429C99.8782 27.9053 100.317 28.1504 100.907 28.4852C99.3535 31.2607 97.8657 33.9602 96.3295 36.632C95.9912 37.2223 95.5252 37.754 95.0488 38.2441C92.9362 40.4293 91.2412 40.2808 90.0399 37.4881C87.803 32.2894 85.8077 26.9836 83.7089 21.7261C83.3706 20.8769 83.0703 20.007 82.6836 19.1785C81.6515 16.9658 80.1395 16.6068 78.5964 18.4467C77.0637 20.2728 75.8486 22.3648 74.4298 24.4325C74.1433 24.2979 73.7463 24.1149 73.3942 23.9492C73.3631 23.7525 73.2941 23.6109 73.339 23.5384C75.0891 20.5248 76.6357 17.3627 78.662 14.5459C80.854 11.5012 83.0426 11.9154 84.4062 15.3847C86.5223 20.763 88.5452 26.1758 90.6716 31.5472C91.1964 32.8659 91.3655 34.6575 93.2331 34.8646C95.2352 35.089 96.1431 33.5045 97.0165 32.0926C97.8588 30.729 98.5492 29.2723 99.4191 27.6498L99.4157 27.6429Z" fill="black"/>
    <path d="M84.417 28.9375C85.1591 29.9628 85.3076 30.8154 84.4687 31.7578C82.5356 33.9326 80.7371 36.2351 78.7176 38.3236C77.3644 39.7251 75.4865 39.9771 73.5914 39.7217C71.458 39.4317 69.8424 37.2914 70.0703 35.1305C70.2981 32.9695 71.9896 31.6335 74.2679 31.7371C75.8179 31.8061 76.3495 32.966 76.9467 34.0741C78.3414 36.6632 78.6797 36.7149 80.4747 34.3745C81.8176 32.6208 83.0707 30.8051 84.4204 28.9375H84.417Z" fill="black"/>
    <path d="M89.7013 23.6836C88.9005 22.7653 88.859 21.8367 89.7082 20.8426C91.7829 18.4089 93.6332 15.737 95.9737 13.5933C97.0853 12.5749 99.0771 12.2746 100.71 12.1434C102.319 12.0122 103.454 13.11 103.834 14.7842C104.214 16.455 103.423 17.9428 101.853 18.4986C100.327 19.0371 99.2186 18.5193 98.359 16.8658C97.2406 14.7117 96.7021 14.5737 95.1625 16.455C93.25 18.792 91.5102 21.2706 89.7013 23.6801V23.6836Z" fill="black"/>
    </svg>
    
