<?xml version="1.0" encoding="utf-8"?>
<!-- Generator: Adobe Illustrator 19.1.0, SVG Export Plug-In . SVG Version: 6.00 Build 0)  -->
<svg version="1.1" id="Layer_1" xmlns="http://www.w3.org/2000/svg" xmlns:xlink="http://www.w3.org/1999/xlink" x="0px" y="0px"
	 viewBox="66 -6 170 30" style="enable-background:new 66 -6 170 30;" xml:space="preserve">
<style type="text/css">
	.st0{fill:#000;}
</style>
<g>
	<path class="st0" d="M66-6h3.6V4.1h0.1c0.2-0.2,0.4-0.5,0.7-0.7c0.3-0.3,0.6-0.5,1-0.7s0.9-0.4,1.4-0.5C73.3,2,73.9,2,74.6,2
		c1,0,2,0.2,2.8,0.6C78.3,3,79,3.5,79.6,4.2c0.6,0.7,1.1,1.5,1.4,2.4s0.5,1.9,0.5,3s-0.2,2.1-0.5,3s-0.8,1.7-1.4,2.4
		c-0.6,0.7-1.4,1.2-2.3,1.6c-0.9,0.4-1.9,0.6-3,0.6c-1,0-2-0.2-2.9-0.6s-1.6-1-2.1-1.9h0.1v2.2H66V-6z M78.4,9.5
		c0-0.6-0.1-1.1-0.3-1.6c-0.2-0.5-0.5-1-0.8-1.4c-0.4-0.4-0.8-0.7-1.3-1c-0.5-0.2-1.1-0.4-1.8-0.4c-0.7,0-1.3,0.1-1.8,0.4
		c-0.5,0.2-1,0.6-1.3,1c-0.4,0.4-0.7,0.9-0.8,1.4C70,8.4,69.9,9,69.9,9.5c0,0.6,0.1,1.1,0.3,1.6c0.2,0.5,0.5,1,0.8,1.4
		c0.4,0.4,0.8,0.7,1.3,1c0.5,0.2,1.1,0.4,1.8,0.4c0.7,0,1.2-0.1,1.8-0.4c0.5-0.2,1-0.6,1.3-1c0.4-0.4,0.6-0.9,0.8-1.4
		C78.3,10.6,78.4,10.1,78.4,9.5z"/>
	<path class="st0" d="M83.5,2.3h3.6v2.3h0.1c0.4-0.8,1-1.5,1.7-2C89.6,2.2,90.4,2,91.4,2c0.2,0,0.4,0,0.6,0.1c0.2,0,0.4,0.1,0.6,0.1
		v3.5c-0.3-0.1-0.6-0.1-0.9-0.2c-0.3-0.1-0.6-0.1-0.9-0.1c-0.8,0-1.5,0.2-2,0.5S87.9,6.6,87.6,7c-0.3,0.4-0.4,0.8-0.5,1.2
		S87,8.9,87,9.1v7.7h-3.6L83.5,2.3L83.5,2.3z"/>
	<path class="st0" d="M97.2,10.8c0.1,1.1,0.5,1.9,1.3,2.5c0.7,0.6,1.6,0.9,2.6,0.9c0.9,0,1.7-0.2,2.3-0.6c0.6-0.4,1.1-0.8,1.6-1.4
		l2.6,2c-0.8,1-1.8,1.8-2.8,2.2c-1,0.4-2.1,0.7-3.3,0.7c-1.1,0-2.1-0.2-3.1-0.5c-1-0.4-1.8-0.9-2.5-1.5c-0.7-0.7-1.3-1.5-1.7-2.4
		s-0.6-2-0.6-3.1s0.2-2.2,0.6-3.1c0.4-0.9,1-1.7,1.7-2.4c0.7-0.7,1.5-1.2,2.5-1.5c1-0.4,2-0.5,3.1-0.5c1,0,1.9,0.2,2.8,0.5
		c0.8,0.4,1.5,0.9,2.1,1.5c0.6,0.7,1.1,1.5,1.4,2.5c0.3,1,0.5,2.1,0.5,3.4v1H97.2V10.8z M104.6,8c0-1.1-0.4-1.8-1-2.4
		C103,5,102.1,4.7,101,4.7S99.1,5,98.4,5.6c-0.6,0.6-1,1.3-1.2,2.4H104.6z"/>
	<path class="st0" d="M108.1,2.3h4l4,10h0.1l3.6-10h3.8l-6.8,17.6c-0.3,0.7-0.5,1.3-0.9,1.8c-0.3,0.5-0.7,0.9-1.1,1.3
		s-0.9,0.6-1.5,0.8c-0.6,0.1-1.3,0.2-2.1,0.2c-0.9,0-1.9-0.1-2.8-0.4l0.5-3.3c0.3,0.1,0.6,0.2,0.9,0.3c0.3,0.1,0.6,0.1,0.9,0.1
		c0.4,0,0.8,0,1.1-0.1s0.6-0.2,0.8-0.4c0.2-0.2,0.4-0.4,0.5-0.7c0.1-0.3,0.3-0.6,0.4-1l0.7-1.7L108.1,2.3z"/>
	<path class="st0" d="M127.1,10.8c0.1,1.1,0.5,1.9,1.3,2.5c0.7,0.6,1.6,0.9,2.6,0.9c0.9,0,1.7-0.2,2.3-0.6c0.6-0.4,1.1-0.8,1.6-1.4
		l2.6,2c-0.8,1-1.8,1.8-2.8,2.2c-1,0.4-2.1,0.7-3.3,0.7c-1.1,0-2.1-0.2-3.1-0.5c-1-0.4-1.8-0.9-2.5-1.5c-0.7-0.7-1.3-1.5-1.7-2.4
		c-0.4-0.9-0.6-2-0.6-3.1s0.2-2.2,0.6-3.1c0.4-0.9,1-1.7,1.7-2.4s1.5-1.2,2.5-1.5c1-0.4,2-0.5,3.1-0.5c1,0,1.9,0.2,2.8,0.5
		c0.8,0.4,1.5,0.9,2.1,1.5c0.6,0.7,1.1,1.5,1.4,2.5s0.5,2.1,0.5,3.4v1h-11.1V10.8z M134.5,8c0-1.1-0.4-1.8-1-2.4
		c-0.6-0.6-1.5-0.9-2.7-0.9c-1.1,0-1.9,0.3-2.6,0.9c-0.6,0.6-1,1.3-1.2,2.4H134.5z"/>
	<path class="st0" d="M140,2.3h3.6v2.3h0.1c0.4-0.8,1-1.5,1.7-2c0.7-0.4,1.6-0.6,2.5-0.6c0.2,0,0.4,0,0.6,0.1c0.2,0,0.4,0.1,0.6,0.1
		v3.5c-0.3-0.1-0.6-0.1-0.9-0.2c-0.3-0.1-0.6-0.1-0.9-0.1c-0.8,0-1.5,0.2-2,0.5s-0.9,0.7-1.2,1.1c-0.3,0.4-0.5,0.8-0.5,1.2
		c-0.1,0.4-0.1,0.7-0.1,0.9v7.7H140V2.3z"/>
	<path class="st0" d="M163.6,14.6c-0.7,0.9-1.5,1.5-2.4,1.9s-1.9,0.6-3,0.6s-2.2-0.2-3.1-0.6c-1-0.4-1.8-0.9-2.4-1.6
		c-0.7-0.7-1.2-1.5-1.6-2.4c-0.4-0.9-0.6-2-0.6-3.1s0.2-2.2,0.6-3.1c0.4-0.9,0.9-1.8,1.6-2.4c0.7-0.7,1.5-1.2,2.4-1.6
		c1-0.4,2-0.6,3.1-0.6s2.1,0.2,3,0.7c0.9,0.4,1.7,1.1,2.5,1.9l-1.5,1.1c-0.6-0.6-1.2-1.1-1.8-1.4c-0.7-0.3-1.4-0.5-2.1-0.5
		c-0.9,0-1.7,0.2-2.4,0.5c-0.7,0.3-1.3,0.7-1.8,1.3c-0.5,0.5-0.9,1.2-1.2,1.9c-0.3,0.7-0.4,1.5-0.4,2.3c0,0.8,0.1,1.6,0.4,2.3
		c0.3,0.7,0.7,1.4,1.2,1.9s1.1,1,1.8,1.3c0.7,0.3,1.5,0.5,2.4,0.5c0.8,0,1.5-0.2,2.2-0.6c0.7-0.4,1.2-0.9,1.7-1.5L163.6,14.6z"/>
	<path class="st0" d="M177.6,10.6c0,0.7,0,1.4,0,1.9c0,0.6,0,1.1,0,1.6s0,0.9,0.1,1.4c0,0.4,0.1,0.8,0.1,1.3H176
		c-0.1-0.7-0.2-1.5-0.2-2.4h-0.1c-0.5,1-1.2,1.6-2,2.1c-0.8,0.4-1.8,0.7-3.1,0.7c-0.6,0-1.3-0.1-1.9-0.2c-0.6-0.2-1.2-0.4-1.7-0.8
		c-0.5-0.3-0.9-0.8-1.2-1.3s-0.5-1.2-0.5-2c0-1.1,0.3-2,0.9-2.7c0.6-0.7,1.3-1.1,2.1-1.5c0.8-0.3,1.7-0.5,2.7-0.6
		c0.9-0.1,1.8-0.1,2.5-0.1h2.2V7c0-1.3-0.4-2.2-1.2-2.7c-0.8-0.5-1.8-0.8-2.9-0.8c-1.7,0-3.2,0.5-4.5,1.6L166,3.8
		c0.7-0.7,1.6-1.2,2.6-1.5s2-0.5,3-0.5c1.8,0,3.2,0.4,4.3,1.3c1.1,0.8,1.6,2.2,1.6,4v3.5H177.6z M173.8,9.4c-0.8,0-1.6,0.1-2.3,0.2
		c-0.8,0.1-1.4,0.3-2,0.5c-0.6,0.3-1.1,0.6-1.4,1c-0.4,0.4-0.5,1-0.5,1.6c0,0.4,0.1,0.8,0.3,1.2c0.2,0.3,0.5,0.6,0.8,0.9
		c0.3,0.2,0.7,0.4,1.1,0.5s0.8,0.2,1.2,0.2c1,0,1.8-0.1,2.5-0.4s1.2-0.7,1.6-1.2c0.4-0.5,0.7-1,0.8-1.6s0.2-1.2,0.2-1.8v-1h-2.3V9.4
		z"/>
	<path class="st0" d="M180.7,2.1h1.9v2.6h0.1c0.3-0.5,0.7-0.9,1.1-1.3c0.4-0.4,0.9-0.7,1.4-0.9s1.1-0.4,1.6-0.5
		c0.6-0.1,1.1-0.2,1.7-0.2c1.1,0,1.6,0.2,2.6,0.6c0.9,0.4,1.6,0.9,2.3,1.6c0.7,0.7,1.2,1.5,1.6,2.4c0.4,0.9,0.6,2,0.6,3.1
		s-0.2,2.2-0.6,3.1c-0.4,0.9-0.9,1.8-1.6,2.4c-0.7,0.7-1.3,1.2-2.3,1.6c-0.9,0.4-1.4,0.6-2.6,0.6c-0.6,0-1.1-0.1-1.7-0.2
		s-1.1-0.3-1.6-0.5s-1-0.6-1.4-0.9c-0.4-0.4-0.8-0.8-1.1-1.3h-0.1V24h-1.9C180.7,24,180.7,2.1,180.7,2.1z M182.4,9.4
		c0,0.8,0.2,1.6,0.5,2.3c0.3,0.7,0.7,1.4,1.2,1.9s1.1,1,1.8,1.3c0.7,0.3,1.5,0.5,2.3,0.5c0.8,0,1.6-0.2,2.3-0.5
		c0.7-0.3,1.3-0.7,1.8-1.3c0.5-0.5,0.9-1.2,1.1-1.9c0.3-0.7,0.4-1.5,0.4-2.3s-0.1-1.6-0.4-2.3s-0.6-1.4-1.1-1.9s-1.1-1-1.8-1.3
		c-0.7-0.3-1.4-0.5-2.3-0.5c-0.8,0-1.6,0.2-2.3,0.5c-0.7,0.3-1.3,0.7-1.8,1.3c-0.5,0.5-0.9,1.2-1.2,1.9
		C182.6,7.8,182.4,8.6,182.4,9.4z"/>
	<path class="st0" d="M197.4-1.5c0-0.4,0.1-0.7,0.4-1c0.3-0.3,0.6-0.4,1-0.4s0.7,0.1,1,0.4s0.4,0.6,0.4,1s-0.1,0.7-0.4,1
		c-0.3,0.3-0.6,0.4-1,0.4s-0.7-0.1-1-0.4C197.5-0.8,197.4-1.1,197.4-1.5z M197.9,2.1h1.9v14.7h-1.9V2.1z"/>
	<path class="st0" d="M212,3.8h-4.2v9.5c0,0.7,0.2,1.2,0.5,1.5c0.4,0.4,0.9,0.5,1.5,0.5c0.4,0,0.7,0,1.1-0.1
		c0.4-0.1,0.7-0.2,1.1-0.4l0.2,1.7c-0.4,0.1-0.8,0.2-1.2,0.3c-0.5,0.1-0.9,0.2-1.2,0.2c-0.7,0-1.3-0.1-1.7-0.3
		c-0.5-0.2-0.9-0.5-1.2-0.8s-0.5-0.7-0.6-1.2s-0.2-0.9-0.2-1.5V3.8h-3.2V2.1h3.2v-4.2h1.9v4.2h4.2v1.7H212z"/>
	<path class="st0" d="M226.1,10.6c0,0.7,0,1.4,0,1.9c0,0.6,0,1.1,0,1.6s0,0.9,0.1,1.4c0,0.4,0.1,0.8,0.1,1.3h-1.8
		c-0.1-0.7-0.2-1.5-0.2-2.4h-0.1c-0.5,1-1.2,1.6-2,2.1c-0.8,0.4-1.8,0.7-3.1,0.7c-0.6,0-1.3-0.1-1.9-0.2c-0.6-0.2-1.2-0.4-1.6-0.8
		c-0.5-0.3-0.9-0.8-1.2-1.3s-0.5-1.2-0.5-2c0-1.1,0.3-2,0.9-2.7c0.6-0.7,1.3-1.1,2.1-1.5c0.8-0.3,1.7-0.5,2.7-0.6
		c0.9-0.1,1.8-0.1,2.5-0.1h2.2V7c0-1.3-0.4-2.2-1.2-2.7s-1.8-0.8-3-0.8c-1.7,0-3.2,0.5-4.5,1.6l-1.1-1.3c0.7-0.7,1.6-1.2,2.6-1.5
		s2-0.5,3-0.5c1.8,0,3.2,0.4,4.3,1.3c1.1,0.8,1.6,2.2,1.6,4L226.1,10.6L226.1,10.6z M222.3,9.4c-0.8,0-1.6,0.1-2.3,0.2
		c-0.7,0.1-1.4,0.3-2,0.5c-0.6,0.3-1.1,0.6-1.4,1c-0.4,0.4-0.5,1-0.5,1.6c0,0.4,0.1,0.8,0.3,1.2c0.2,0.3,0.5,0.6,0.8,0.9
		c0.3,0.2,0.7,0.4,1.1,0.5c0.4,0.1,0.8,0.2,1.2,0.2c1,0,1.9-0.1,2.5-0.4c0.7-0.3,1.2-0.7,1.6-1.2c0.4-0.5,0.7-1,0.8-1.6
		s0.2-1.2,0.2-1.8v-1h-2.3V9.4z"/>
	<path class="st0" d="M229.2-6h1.9v22.8h-1.9V-6z"/>
</g>
</svg>
