<svg width="154" height="56" viewBox="0 0 154 56" fill="none" xmlns="http://www.w3.org/2000/svg">
<g clip-path="url(#clip0_559_28)">
<path d="M3.51807e-05 21.854C3.51807e-05 19.9084 0.823368 18.3878 2.47003 17.2923C4.1167 16.1967 6.77362 15.4605 10.4408 15.0837C10.3903 14.2619 10.1408 13.6073 9.692 13.12C9.24325 12.6326 8.51968 12.3882 7.52129 12.3868C6.70281 12.3888 5.8915 12.5396 5.12695 12.8318C4.24551 13.1706 3.3943 13.5834 2.58241 14.0657L0.636449 10.4408C1.82367 9.72112 3.08436 9.13031 4.39708 8.67842C5.74039 8.22587 7.1497 8.00026 8.56715 8.01085C10.963 8.01085 12.7906 8.69066 14.0501 10.0503C15.3096 11.4099 15.9401 13.5238 15.9415 16.3922V27.0198H11.451L11.0394 25.1117H10.9281C10.1638 25.787 9.31432 26.3593 8.40137 26.814C7.49835 27.2541 6.50531 27.4781 5.50079 27.4682C4.71877 27.48 3.94248 27.3332 3.21882 27.0365C2.56592 26.7643 1.9787 26.3558 1.4965 25.8382C1.01887 25.3203 0.644289 24.7162 0.392787 24.0581C0.125999 23.3542 -0.00719504 22.6067 3.51807e-05 21.854ZM5.23933 21.4423C5.23933 22.0424 5.43255 22.4852 5.819 22.7708C6.20544 23.0563 6.72466 23.1999 7.37665 23.2014C8.02494 23.2014 8.57383 23.0641 9.02332 22.7897C9.53945 22.4595 10.0152 22.07 10.4408 21.6292V18.3737C8.46924 18.6489 7.10963 19.0483 6.36195 19.572C5.61428 20.0957 5.24007 20.7191 5.23933 21.4423Z" fill="white"/>
<path d="M20.6567 8.4559H25.145L25.5189 11.7114H25.6691C26.3426 10.4401 27.1533 9.50473 28.1012 8.9054C29.0492 8.30607 29.9979 8.00789 30.9473 8.01086C31.3798 8.00381 31.8121 8.03509 32.239 8.10432C32.5547 8.15964 32.8626 8.25304 33.1558 8.38247L32.2579 13.1356C31.9378 13.0432 31.6128 12.969 31.2844 12.913C30.9377 12.8596 30.5871 12.8347 30.2363 12.8385C29.5376 12.8385 28.8081 13.0877 28.0478 13.5862C27.2875 14.0846 26.6574 14.9706 26.1575 16.2442V27.0221H20.6567V8.4559Z" fill="white"/>
<path d="M35.5502 8.45591H40.0407L40.4156 11.7114H40.5647C41.239 10.4401 42.0497 9.50473 42.9969 8.9054C43.9441 8.30608 44.8917 8.0079 45.8396 8.01086C46.2717 8.00381 46.7036 8.03508 47.1302 8.10432C47.4461 8.1602 47.754 8.25435 48.047 8.3847L47.1492 13.1378C46.8291 13.0455 46.504 12.9712 46.1756 12.9153C45.8292 12.8619 45.4791 12.837 45.1286 12.8407C44.4284 12.8407 43.6986 13.0899 42.939 13.5884C42.1795 14.0868 41.5516 14.9721 41.0554 16.2442V27.0221H35.5502V8.45591Z" fill="white"/>
<path d="M50.4436 8.45581H55.9455V27.0186H50.4436V8.45581Z" fill="white"/>
<path d="M60.772 8.45591H65.2625L65.6363 10.8135H65.7865C66.5853 10.065 67.4635 9.40616 68.4056 8.84866C69.3535 8.29013 70.4639 8.01086 71.7368 8.01086C73.7573 8.01086 75.223 8.67101 76.1338 9.99131C77.0447 11.3116 77.4997 13.1452 77.499 15.4921V27.0187H71.9982V16.2041C71.9982 14.8571 71.8176 13.934 71.4564 13.4348C71.0952 12.9357 70.5147 12.6853 69.7152 12.6838C69.0842 12.6656 68.4611 12.8281 67.9194 13.1522C67.3272 13.5381 66.7755 13.9828 66.2727 14.4796V27.0187H60.772V8.45591Z" fill="white"/>
<path d="M81.0171 30.1997C81.0171 28.7021 81.9027 27.4545 83.674 26.4568V26.3078C83.1791 25.9887 82.7581 25.5676 82.439 25.0728C82.1141 24.5743 81.9517 23.9379 81.9517 23.1635C81.9575 22.4758 82.1678 21.8054 82.5558 21.2376C82.9508 20.6277 83.4587 20.099 84.0523 19.6799V19.5297C83.404 19.0802 82.824 18.4379 82.3122 17.6027C81.8004 16.7675 81.5448 15.8006 81.5456 14.7021C81.5456 13.5791 81.7574 12.6 82.1809 11.7648C82.5877 10.9519 83.1676 10.2379 83.8798 9.67309C84.6084 9.10324 85.4393 8.678 86.3276 8.42029C87.2639 8.14426 88.2354 8.00633 89.2115 8.01085C90.3093 8.01085 91.2698 8.1592 92.0931 8.45589H98.8667V12.4613H95.9072C96.103 12.7868 96.2482 13.1402 96.3378 13.5094C96.4535 13.9619 96.51 14.4275 96.5058 14.8946C96.5058 15.9671 96.3203 16.8943 95.9495 17.6761C95.5918 18.439 95.0579 19.106 94.3918 19.6221C93.6993 20.1491 92.9111 20.5368 92.0709 20.7636C91.1395 21.0195 90.1774 21.146 89.2115 21.1397C88.4485 21.1332 87.6912 21.0071 86.9673 20.7658C86.7518 20.9255 86.573 21.1296 86.4433 21.3644C86.3337 21.6113 86.2823 21.88 86.2931 22.1499C86.2832 22.3657 86.3363 22.5797 86.4459 22.7658C86.5556 22.9519 86.717 23.1021 86.9106 23.198C87.3223 23.4205 88.0521 23.5318 89.1002 23.5318H92.0931C94.3881 23.5318 96.1408 23.8997 97.3514 24.6355C98.5619 25.3713 99.1668 26.5752 99.166 28.247C99.1761 29.1919 98.9235 30.1211 98.4361 30.9307C97.9131 31.7783 97.2029 32.495 96.36 33.0257C95.461 33.6117 94.3759 34.0734 93.1045 34.4109C91.6976 34.7634 90.2512 34.9332 88.8009 34.916C87.7773 34.923 86.7554 34.8291 85.7501 34.6357C84.8909 34.474 84.0592 34.1903 83.2801 33.7934C82.6089 33.4565 82.0345 32.9541 81.6112 32.3337C81.2151 31.7343 81.0171 31.023 81.0171 30.1997ZM85.5443 29.3385C85.5443 30.0372 85.9189 30.5676 86.6681 30.9295C87.4172 31.2915 88.4148 31.4725 89.661 31.4725C90.9086 31.4725 91.9314 31.2541 92.7296 30.8172C93.5277 30.3803 93.9267 29.8373 93.9267 29.1883C93.9267 28.6157 93.6838 28.2292 93.198 28.029C92.7121 27.8287 92.0075 27.7289 91.084 27.7297H89.1748C88.5261 27.7297 88.001 27.7108 87.6026 27.674C87.2496 27.6436 86.8993 27.5871 86.5546 27.5049C85.8818 28.1035 85.5451 28.7147 85.5443 29.3385ZM89.2159 17.813C89.5557 17.8207 89.8932 17.7563 90.2062 17.624C90.5192 17.4916 90.8006 17.2944 91.0317 17.0453C91.5176 16.5349 91.7605 15.7561 91.7605 14.7088C91.7605 13.7364 91.5176 12.9946 91.0317 12.4836C90.8004 12.2347 90.519 12.0376 90.206 11.9052C89.8931 11.7729 89.5556 11.7084 89.2159 11.7158C88.8775 11.7067 88.541 11.7683 88.2277 11.8967C87.9145 12.025 87.6315 12.2173 87.3968 12.4613C86.9139 12.9605 86.6725 13.7089 86.6725 14.7065C86.6725 15.7546 86.9154 16.5335 87.4013 17.043C87.6315 17.2919 87.9119 17.4892 88.2239 17.6219C88.5359 17.7546 88.8725 17.8197 89.2115 17.813H89.2159Z" fill="white"/>
<path d="M102.908 12.7606H100.363V8.67839L103.208 8.45587L103.843 3.51587H108.405V8.45587H112.856V12.7595H108.405V20.2062C108.405 21.2542 108.623 22.009 109.059 22.4703C109.495 22.9332 110.076 23.1624 110.799 23.1624C111.108 23.1614 111.416 23.1241 111.716 23.0511C112.003 22.9839 112.284 22.8962 112.559 22.7885L113.419 26.7939C112.92 26.9423 112.334 27.0906 111.66 27.239C110.884 27.3984 110.094 27.473 109.303 27.4615C108.155 27.4615 107.175 27.2872 106.365 26.9386C105.595 26.6201 104.915 26.1191 104.382 25.4788C103.849 24.8136 103.466 24.0413 103.259 23.2147C103.012 22.2554 102.893 21.2678 102.903 20.2774L102.908 12.7606Z" fill="white"/>
<path d="M115.033 17.7373C115.033 16.1907 115.283 14.8126 115.782 13.6028C116.236 12.4611 116.917 11.4235 117.784 10.5531C118.614 9.73352 119.601 9.09014 120.685 8.66168C121.768 8.2283 122.923 8.00623 124.09 8.00747C125.25 8.00508 126.4 8.22723 127.476 8.66168C128.554 9.09343 129.533 9.73656 130.358 10.5531C131.225 11.4239 131.906 12.4613 132.361 13.6028C132.859 14.8133 133.108 16.1915 133.108 17.7373C133.108 19.283 132.859 20.6616 132.361 21.8728C131.906 23.0145 131.225 24.052 130.358 24.9225C129.534 25.7393 128.554 26.3825 127.476 26.8139C126.4 27.2484 125.25 27.4706 124.09 27.4682C122.923 27.4694 121.768 27.2473 120.685 26.8139C119.6 26.3859 118.614 25.7425 117.784 24.9225C116.917 24.0523 116.236 23.0147 115.782 21.8728C115.283 20.6638 115.033 19.2853 115.033 17.7373ZM120.684 17.7373C120.684 19.3594 120.965 20.6445 121.526 21.5925C122.088 22.5404 122.941 23.0144 124.085 23.0144C125.208 23.0144 126.056 22.5404 126.63 21.5925C127.203 20.6445 127.49 19.3594 127.491 17.7373C127.491 16.1166 127.204 14.8319 126.63 13.8832C126.056 12.9345 125.209 12.4605 124.089 12.4613C122.942 12.4613 122.089 12.9352 121.53 13.8832C120.97 14.8311 120.688 16.1158 120.684 17.7373Z" fill="white"/>
<path d="M136.887 8.45591H141.377L141.752 10.8135H141.902C142.701 10.0653 143.579 9.40644 144.521 8.84866C145.469 8.29013 146.579 8.01086 147.852 8.01086C149.872 8.01086 151.338 8.67176 152.249 9.99354C153.16 11.3153 153.615 13.1489 153.615 15.4943V27.021H148.113V16.2064C148.113 14.8594 147.932 13.9363 147.57 13.4371C147.208 12.9379 146.629 12.6868 145.831 12.6838C145.2 12.6655 144.576 12.828 144.034 13.1522C143.442 13.5384 142.891 13.9831 142.388 14.4796V27.0187H136.887V8.45591Z" fill="white"/>
<path d="M53.194 5.7255C52.2713 5.7255 51.5106 5.45736 50.912 4.92109C50.3135 4.38481 50.0142 3.69239 50.0142 2.84384C50.0142 1.99603 50.3135 1.30992 50.912 0.785506C51.5106 0.261095 52.2713 -0.00074017 53.194 1.57149e-06C54.142 1.57149e-06 54.9093 0.261836 55.496 0.785506C56.0827 1.30918 56.3757 1.99529 56.375 2.84384C56.375 3.69239 56.082 4.38481 55.496 4.92109C54.91 5.45736 54.1427 5.7255 53.194 5.7255Z" fill="white"/>
<path d="M8.49591 56C3.6349 56 0 52.1815 0 46.5929C0 40.8841 3.74617 37.2369 8.56711 37.2369C10.7756 37.2369 13.1611 38.1426 14.4773 39.8527L11.8905 42.77C11.1762 41.664 9.90559 41.1355 8.70174 41.1355C6.04816 41.1355 4.15227 43.4498 4.15227 46.5873C4.15227 49.8328 6.00254 52.0458 8.63387 52.0458C9.29989 52.0552 9.95719 51.8936 10.5429 51.5765C11.1287 51.2594 11.6233 50.7973 11.9795 50.2345L14.6331 53.0516C13.2456 54.8685 11.1495 56 8.49591 56Z" fill="white"/>
<path d="M35.6559 55.5193L34.4321 52.0235H28.3194L27.16 55.5193H23.0122L29.6356 37.7175H33.3372L39.8928 55.5193H35.6559ZM31.4191 42.4684L29.4164 48.58H33.3784L31.4191 42.4684Z" fill="white"/>
<path d="M56.7276 48.8069H54.8362V55.5193H51.0188V37.7175H56.8166C60.2735 37.7175 62.9938 39.125 62.9938 43.2005C62.9938 47.3227 60.0276 48.8069 56.7276 48.8069ZM56.5051 41.1855H54.8362V45.3857H56.4417C57.868 45.3857 59.1843 44.9083 59.1843 43.2227C59.1809 41.5127 57.8647 41.1855 56.5051 41.1855Z" fill="white"/>
<path d="M75.9915 55.5193V37.7175H79.8266V55.5193H75.9915Z" fill="white"/>
<path d="M101.213 41.3891V55.5193H97.4003V41.3891H92.9409V37.7175H105.674V41.3891H101.213Z" fill="white"/>
<path d="M128.373 55.5193L127.149 52.0235H121.039L119.877 55.5193H115.729L122.353 37.7175H126.059L132.614 55.5193H128.373ZM124.136 42.4684L122.134 48.58H126.103L124.136 42.4684Z" fill="white"/>
<path d="M143.514 55.5193V37.7175H147.349V51.7743H153.459V55.5193H143.514Z" fill="white"/>
</g>
<defs>
<clipPath id="clip0_559_28">
<rect width="153.615" height="56" fill="white"/>
</clipPath>
</defs>
</svg>
