<svg width="182" height="31" viewBox="0 0 182 31" fill="none" xmlns="http://www.w3.org/2000/svg">
<path d="M166.18 24.2678C162.316 24.2678 158.882 21.4683 157.998 17.603H180.939C180.939 17.603 181.062 16.2025 181.062 15.707C181.062 7.5032 174.388 0.827187 166.184 0.827187C157.98 0.827187 151.306 7.50182 151.306 15.707C151.306 23.9124 157.943 30.4319 166.184 30.4319C174.425 30.4319 179.237 24.3606 180.438 19.9653H173.445C173.445 19.9653 171.221 24.2678 166.18 24.2678ZM166.184 6.98839C169.889 6.98839 173.105 9.43515 174.206 13.0818H158.161C159.259 9.43515 162.477 6.98839 166.184 6.98839Z" fill="white"/>
<path d="M78.6378 30.4319C70.434 30.4319 63.9988 23.8265 63.9988 15.707C63.9988 7.58762 70.6734 0.827187 78.8771 0.827187C87.0812 0.827187 93.7557 7.76476 93.7557 15.6282C93.7557 18.9786 93.7557 29.6943 93.7557 29.6943H87.9792V25L87.5586 24.8893C86.5414 27.3832 82.8559 30.4319 78.6365 30.4319H78.6378ZM78.8771 6.98839C74.2438 6.98839 70.4727 10.8786 70.4727 15.6614C70.4727 20.4442 74.2426 24.2694 78.8771 24.2694C83.512 24.2694 87.2818 20.4082 87.2818 15.6614C87.2818 10.9146 83.512 6.98839 78.8771 6.98839Z" fill="white"/>
<path d="M110.239 30.4319C102.035 30.4319 95.6 23.8265 95.6 15.707C95.6 7.58762 102.275 0.827187 110.479 0.827187C118.682 0.827187 125.357 7.76476 125.357 15.6282C125.357 18.9786 125.357 29.6943 125.357 29.6943H119.581V25L119.16 24.8893C118.143 27.3832 114.457 30.4319 110.238 30.4319H110.239ZM110.479 6.98839C105.845 6.98839 102.074 10.8786 102.074 15.6614C102.074 20.4442 105.844 24.2694 110.479 24.2694C115.113 24.2694 118.883 20.4082 118.883 15.6614C118.883 10.9146 115.113 6.98839 110.479 6.98839Z" fill="white"/>
<path d="M135.054 29.6911L123.198 1.56712H129.684L138.374 22.2843L147.065 1.56712H153.55L141.696 29.6911H135.054Z" fill="white"/>
<path d="M22.0296 30.3878C25.2557 30.3878 27.8711 27.7724 27.8711 24.5461C27.8711 21.32 25.2557 18.7047 22.0296 18.7047C18.8034 18.7047 16.1881 21.32 16.1881 24.5461C16.1881 27.7724 18.8034 30.3878 22.0296 30.3878Z" fill="white"/>
<path d="M37.2975 30.3878C40.5237 30.3878 43.1391 27.7724 43.1391 24.5461C43.1391 21.32 40.5237 18.7047 37.2975 18.7047C34.0714 18.7047 31.4561 21.32 31.4561 24.5461C31.4561 27.7724 34.0714 30.3878 37.2975 30.3878Z" fill="white"/>
<path d="M29.6537 0.431881C13.7927 0.431881 0.933349 13.5362 0.937501 29.6962H8.27363C8.27363 17.5855 17.7701 7.76662 29.6537 7.76662C41.5374 7.76662 51.0339 17.5855 51.0339 29.6962H58.3699C58.3727 13.5362 45.5134 0.431881 29.6537 0.431881Z" fill="white"/>
</svg>
