<svg width="180" height="31" viewBox="0 0 180 31" fill="none" xmlns="http://www.w3.org/2000/svg">
<path d="M47.0274 11.7003H37.3642C34.4463 11.7003 34.0674 13.0547 34.0674 15.5001C34.0674 17.9455 34.4084 19.2999 37.3642 19.2999H47.0274V21.9333H37.3642C32.9684 21.9333 31.4526 19.7513 31.4526 15.5377C31.4526 11.3241 32.9684 9.14209 37.3642 9.14209H47.0274V11.7003Z" fill="white"/>
<path d="M51.9537 11.9261V21.8958H49.4526V9.10449H51.9537C52.9011 9.10449 53.3179 9.59357 53.6969 10.0826L58.7747 16.6288L63.8526 10.0826C64.2316 9.59357 64.6484 9.10449 65.5958 9.10449H68.0969V21.8958H65.5958V11.9261L59.7221 19.2623H57.7516L51.9537 11.9261Z" fill="white"/>
<path d="M75.9789 21.8958V11.5123H69.9158V9.10449H84.6189V11.5123H78.5558V21.8958H75.9789Z" fill="white"/>
<path d="M15.7263 9.7439H23.9494V11.8883H22.1684H22.0547H15.7263C13.68 11.8883 11.9747 13.506 11.9747 15.5C11.9747 17.4939 13.6421 19.1116 15.7263 19.1116H16.56H16.6736H19.0231V21.256H15.7263C12.4673 21.256 9.8147 18.6602 9.8147 15.5C9.8147 12.3021 12.4673 9.7439 15.7263 9.7439Z" fill="white"/>
<path d="M1.09895 9.85671H3.78947H5.87368H6.55579C8.48842 6.80938 11.9368 4.77783 15.8779 4.77783H19.0232V7.1856H15.8779C12.3537 7.1856 9.3221 9.29239 8.03368 12.2645H5.41895H3.44842H2.88C2.61474 13.3179 2.46316 14.3713 2.46316 15.4999C2.46316 22.7232 8.48842 28.5921 15.8779 28.5921H21.4484V26.222H15.8779C9.81473 26.222 4.88842 21.4065 4.88842 15.4999C4.88842 15.1989 4.88842 14.9356 4.92632 14.6346H7.38947C7.35158 14.898 7.35158 15.1989 7.35158 15.4999C7.35158 20.0897 11.1789 23.8142 15.8779 23.8142H21.4484H23.9116V26.222V28.5921V30.9999H21.4484H15.8779C7.12421 30.9999 0 24.04 0 15.4999C0 13.506 0.41684 11.5873 1.09895 9.85671Z" fill="white"/>
<path d="M21.4863 2.40778H23.9495V0H21.4863H15.9158C10.1558 0 5.1158 2.97209 2.34949 7.44903H5.34317C7.80633 4.36408 11.6337 2.40778 15.9158 2.40778H20.8042H21.4863Z" fill="white"/>
<path d="M23.9495 4.77783H21.4863V7.1856H23.9495V4.77783Z" fill="white"/>
<path d="M23.9495 19.0364H21.4863V21.4441H23.9495V19.0364Z" fill="white"/>
<path d="M86.5895 9.29248H97.2758C101.937 9.29248 103.528 11.5121 103.528 15.7257C103.528 19.9769 101.937 22.159 97.2758 22.159H86.5895V9.29248ZM97.2758 11.8884H89.3179V19.5255H97.2758C100.383 19.5255 100.762 18.1711 100.762 15.7257C100.762 13.2803 100.383 11.8884 97.2758 11.8884Z" fill="white"/>
<path d="M108.114 9.29248V22.1966H105.385V9.29248H108.114Z" fill="white"/>
<path d="M126.531 15.1614V22.1966H116.261C111.6 22.1966 110.008 19.9769 110.008 15.7257C110.008 11.5121 111.6 9.29248 116.261 9.29248H126.379V11.926H116.261C113.154 11.926 112.775 13.2803 112.775 15.7257C112.775 18.2087 113.154 19.5631 116.261 19.5631H123.84V15.1614H126.531Z" fill="white"/>
<path d="M131.381 9.29248V22.1966H128.653V9.29248H131.381Z" fill="white"/>
<path d="M139.036 22.1588V11.7H132.594V9.25464H148.206V11.7H141.764V22.1588H139.036Z" fill="white"/>
<path d="M164.691 22.1589H161.773L160.105 18.9611H150.556L148.888 22.1589H145.971L151.276 11.813C152.11 10.1953 153.095 9.06665 155.293 9.06665C157.491 9.06665 158.476 10.1953 159.31 11.813L164.691 22.1589ZM156.695 12.3773C156.392 11.813 156.051 11.4744 155.331 11.4744C154.611 11.4744 154.27 11.813 153.966 12.3773L151.768 16.5909H158.855L156.695 12.3773Z" fill="white"/>
<path d="M167.798 9.29248V16.8544C167.798 18.9612 168.632 19.5631 171.36 19.5631H180V22.1966H171.36C167.078 22.1966 165.107 20.7294 165.107 16.8544V9.29248H167.798Z" fill="white"/>
</svg>
