<svg width="180" height="33" viewBox="0 0 180 33" fill="none" xmlns="http://www.w3.org/2000/svg">
<mask id="mask0_538_630" style="mask-type:alpha" maskUnits="userSpaceOnUse" x="4" y="7" width="28" height="26">
<path d="M27.552 7.40484L25.994 8.95825C25.7599 9.19167 25.7276 9.56192 25.9052 9.83558C26.4784 10.7048 26.9304 11.6385 27.2614 12.6124C27.6812 13.8519 27.8991 15.1719 27.8991 16.5C27.8991 23.2127 22.4259 28.6778 15.6934 28.6778C13.6671 28.6778 11.7217 28.1948 9.96987 27.2612L12.6016 24.6373C13.5864 25.0075 14.6358 25.2007 15.6934 25.2007C20.5046 25.2007 24.4118 21.297 24.4118 16.508C24.4118 16.2102 24.3956 15.9043 24.3634 15.6066C24.2584 14.6004 23.9759 13.6185 23.5399 12.717C23.3301 12.2824 22.7569 12.1858 22.4178 12.5238L20.8437 14.0934C20.6741 14.2624 20.6015 14.5119 20.658 14.7453L20.7872 15.3088C20.876 15.7032 20.9244 16.1056 20.9244 16.5C20.9244 19.3734 18.5753 21.7156 15.6934 21.7156C14.7811 21.7156 13.8932 21.4741 13.102 21.0314L12.4078 20.637C12.1333 20.4841 11.7943 20.5243 11.5683 20.7497L5.13437 27.1646C4.83569 27.4624 4.86798 27.9534 5.20703 28.2109L6.15155 28.9353C8.91235 31.0441 12.2141 32.1629 15.6934 32.1629C24.3472 32.1629 31.3946 25.1443 31.3946 16.508C31.3946 13.7795 30.6842 11.0992 29.328 8.749L28.6499 7.56583C28.5207 7.34043 28.2786 7.21167 28.0444 7.21167C27.8669 7.21167 27.6893 7.27608 27.552 7.41291" fill="white"/>
</mask>
<g mask="url(#mask0_538_630)">
<path d="M18.1267 -6.0343L-7.66296 19.6792L18.1267 45.3927L43.9163 19.6792L18.1267 -6.0343Z" fill="white"/>
</g>
<mask id="mask1_538_630" style="mask-type:alpha" maskUnits="userSpaceOnUse" x="0" y="0" width="27" height="26">
<path d="M15.7013 0.845086C7.04738 0.845086 0 7.86363 0 16.5C0 19.2285 0.710393 21.9087 2.06659 24.259L2.74469 25.4421C2.97072 25.8365 3.51966 25.909 3.84257 25.587L5.40058 24.0336C5.63468 23.8002 5.66697 23.43 5.48938 23.1563C4.9243 22.287 4.46416 21.3534 4.13318 20.3795C3.7134 19.14 3.49544 17.82 3.49544 16.4919C3.49544 9.77922 8.96868 4.32215 15.7093 4.32215C17.7355 4.32215 19.6811 4.80509 21.4328 5.73874L18.8011 8.36263C17.8162 7.99238 16.7668 7.79922 15.7093 7.79922C10.898 7.79922 6.99089 11.7029 6.99089 16.4919C6.99089 16.6368 7.03125 17.2968 7.03934 17.4095C7.14428 18.4075 7.42683 19.3814 7.86271 20.2829C8.07264 20.7175 8.64578 20.8141 8.98481 20.476L10.559 18.9065C10.7285 18.7375 10.8012 18.488 10.7446 18.2546L10.6155 17.6912C10.5267 17.2968 10.4783 16.8944 10.4783 16.5C10.4783 13.6265 12.8274 11.2844 15.7093 11.2844C16.6134 11.2844 17.5095 11.5178 18.3006 11.9685L18.9949 12.3629C19.2693 12.5158 19.6084 12.4756 19.8344 12.2502L26.2683 5.83533C26.567 5.53752 26.5347 5.04655 26.1957 4.78899L25.2512 4.06459C22.4903 1.95581 19.1886 0.837036 15.7093 0.837036L15.7013 0.845086Z" fill="white"/>
</mask>
<g mask="url(#mask1_538_630)">
<path d="M26.5508 0.845093H0V25.9171H26.5508V0.845093Z" fill="white"/>
</g>
<path d="M42.1391 33C41.7112 33 41.3722 32.6539 41.3722 32.2353V0.764634C41.3722 0.338048 41.7193 0 42.1391 0C42.5589 0 42.906 0.346098 42.906 0.764634V32.2353C42.906 32.6619 42.5589 33 42.1391 33Z" fill="white"/>
<path d="M60.1703 24.9684C60.243 25.1136 60.4132 25.2346 60.5827 25.2346H60.8256C61.02 25.2346 61.1653 25.1136 61.238 24.9684L68.6161 8.67886C68.7614 8.36418 68.5676 8.04956 68.2037 8.04956H67.2329C67.0385 8.04956 66.8683 8.19476 66.8199 8.3158L60.7771 21.8702H60.6802L54.637 8.3158C54.5885 8.19476 54.4429 8.04956 54.2244 8.04956H53.2537C52.8897 8.04956 52.6955 8.36418 52.8411 8.67886L60.1703 24.9684Z" fill="white"/>
<path d="M72.2334 24.5326C72.2334 24.7747 72.4278 24.9925 72.6949 24.9925H82.2568C82.5238 24.9925 82.7176 24.7747 82.7176 24.5326V23.8307C82.7176 23.5887 82.5238 23.3709 82.2568 23.3709H74.1023V17.1988H81.0674C81.3102 17.1988 81.5288 17.0051 81.5288 16.7389V16.037C81.5288 15.7949 81.3102 15.5771 81.0674 15.5771H74.1023V9.67122H82.2568C82.5238 9.67122 82.7176 9.45342 82.7176 9.21134V8.50944C82.7176 8.26736 82.5238 8.04956 82.2568 8.04956H72.6949C72.4278 8.04956 72.2334 8.26736 72.2334 8.50944V24.5326Z" fill="white"/>
<path d="M87.5669 24.5325C87.5669 24.7746 87.7849 24.9924 88.0278 24.9924H88.8774C89.1445 24.9924 89.3383 24.7746 89.3383 24.5325V11.3654H89.3625L100.502 25.2345H100.939C101.182 25.2345 101.4 25.0409 101.4 24.7988V8.50933C101.4 8.26725 101.182 8.04945 100.939 8.04945H100.09C99.8225 8.04945 99.6287 8.26725 99.6287 8.50933V21.4102C99.6039 21.4102 99.6039 21.4102 99.5797 21.4102L88.6346 7.80737H88.0278C87.7849 7.80737 87.5669 8.00101 87.5669 8.24309V24.5325Z" fill="white"/>
<path d="M109.734 24.5326C109.734 24.7747 109.953 24.9925 110.196 24.9925H111.118C111.36 24.9925 111.579 24.7747 111.579 24.5326V9.67122H115.802C116.069 9.67122 116.263 9.45342 116.263 9.21134V8.50944C116.263 8.26736 116.069 8.04956 115.802 8.04956H105.511C105.245 8.04956 105.05 8.26736 105.05 8.50944V9.21134C105.05 9.45342 105.245 9.67122 105.511 9.67122H109.734V24.5326Z" fill="white"/>
<path d="M119.674 18.7479C119.674 22.4269 122.27 25.2346 126.08 25.2346C129.915 25.2346 132.536 22.4269 132.536 18.7479V8.50944C132.536 8.26736 132.317 8.04956 132.075 8.04956H131.153C130.886 8.04956 130.691 8.26736 130.691 8.50944V18.651C130.691 21.4103 128.944 23.5161 126.08 23.5161C123.241 23.5161 121.518 21.3619 121.518 18.6026V8.50944C121.518 8.26736 121.324 8.04956 121.057 8.04956H120.134C119.892 8.04956 119.674 8.26736 119.674 8.50944V18.7479Z" fill="white"/>
<path d="M138.235 24.5326C138.235 24.7747 138.429 24.9925 138.696 24.9925H139.642C139.885 24.9925 140.104 24.7747 140.104 24.5326V18.3606H144.739L147.967 24.7747C148.016 24.8715 148.137 24.9925 148.355 24.9925H149.593C150.006 24.9925 150.175 24.6053 150.006 24.2906L146.681 18.1427C148.792 17.2956 150.273 15.4318 150.273 13.205C150.273 10.3247 147.894 8.04956 144.981 8.04956H138.696C138.429 8.04956 138.235 8.26736 138.235 8.50944V24.5326ZM140.152 16.7631V9.81647H144.86C146.729 9.81647 148.355 11.3897 148.355 13.2293C148.355 15.214 146.729 16.7631 144.86 16.7631H140.152Z" fill="white"/>
<path d="M155.25 24.5326C155.25 24.7747 155.445 24.9925 155.712 24.9925H165.274C165.541 24.9925 165.735 24.7747 165.735 24.5326V23.8307C165.735 23.5887 165.541 23.3709 165.274 23.3709H157.119V17.1988H164.084C164.327 17.1988 164.545 17.0051 164.545 16.7389V16.037C164.545 15.7949 164.327 15.5771 164.084 15.5771H157.119V9.67122H165.274C165.541 9.67122 165.735 9.45342 165.735 9.21134V8.50944C165.735 8.26736 165.541 8.04956 165.274 8.04956H155.712C155.445 8.04956 155.25 8.26736 155.25 8.50944V24.5326Z" fill="white"/>
<path d="M169.637 23.2739C169.953 23.5644 171.895 25.2345 174.758 25.2345C177.598 25.2345 180 23.395 180 20.8777C180 18.07 177.889 16.8356 174.613 15.5043C172.574 14.6572 171.336 13.7133 171.336 12.0915C171.336 11.075 172.113 9.42909 174.685 9.42909C176.166 9.42909 177.694 10.4457 177.865 10.5425C178.253 10.7603 178.496 10.6635 178.714 10.3246C178.811 10.1794 178.908 10.01 179.005 9.86475C179.296 9.40487 179.005 9.11441 178.86 9.04181C178.86 9.04181 177.088 7.80737 174.709 7.80737C170.85 7.80737 169.54 10.4699 169.54 12.1158C169.54 14.875 171.142 15.9643 173.811 17.126C176.603 18.2879 178.058 19.2802 178.058 20.9503C178.058 22.3784 176.772 23.6128 174.806 23.6128C172.647 23.6128 170.875 21.9185 170.705 21.7733C170.365 21.4828 170.098 21.6764 169.855 21.9911C169.734 22.1363 169.613 22.3057 169.492 22.451C169.2 22.9109 169.443 23.1045 169.637 23.2739Z" fill="white"/>
</svg>
