<svg xmlns:inkscape="http://www.inkscape.org/namespaces/inkscape" xmlns:sodipodi="http://sodipodi.sourceforge.net/DTD/sodipodi-0.dtd" xmlns="http://www.w3.org/2000/svg" xmlns:svg="http://www.w3.org/2000/svg" version="1.1" id="svg2" sodipodi:docname="DIGITAL_LOGO_BLACK.eps" viewBox="236 357.07 584 101.86">
  <defs id="defs6"/>
  <sodipodi:namedview id="namedview4" pagecolor="#ffffff" bordercolor="#000000" borderopacity="0.25" inkscape:showpageshadow="2" inkscape:pageopacity="0.0" inkscape:pagecheckerboard="0" inkscape:deskcolor="#d1d1d1"/>
  <g id="g8" inkscape:groupmode="layer" inkscape:label="ink_ext_XXXXXX" transform="matrix(1.3333333,0,0,-1.3333333,0,816)">
    <g id="g10" transform="scale(0.1)">
      <path d="m 2920.64,3153.76 h -236.62 c -71.74,0 -80.48,-33.28 -80.48,-93.76 0,-60.5 8.74,-93.27 80.48,-93.27 h 236.62 v -64.67 h -236.62 c -107.61,0 -144.34,54.02 -144.34,157.94 0,103.92 36.73,157.94 144.34,157.94 h 236.62 v -64.18" style="fill:#231f20;fill-opacity:1;fill-rule:nonzero;stroke:none" id="path12"/>
      <path d="m 3041.32,3148.19 v -246.13 h -61.26 v 315.88 h 60.82 c 23.16,0 33.22,-12.47 42.41,-24.46 l 124.24,-161.21 124.21,161.21 c 9.18,11.99 19.25,24.46 42.45,24.46 H 3435 v -315.88 h -61.28 v 246.13 l -142.13,-181 h -48.12 l -142.15,181" style="fill:#231f20;fill-opacity:1;fill-rule:nonzero;stroke:none" id="path14"/>
      <path d="m 3629.11,2902.06 v 256.3 h -148.73 v 59.58 h 359.97 v -59.58 h -148.68 v -256.3 h -62.56" style="fill:#231f20;fill-opacity:1;fill-rule:nonzero;stroke:none" id="path16"/>
      <path d="m 2154.42,3202.24 h 201.33 v -53.23 h -201.33 c -50.51,0 -91.59,-39.92 -91.59,-88.98 0,-49.09 41.08,-89.07 91.59,-89.07 h 20.44 3.23 57.71 v -53.23 h -81.38 c -79.86,0 -144.82,63.85 -144.82,142.3 0,78.38 64.96,142.21 144.82,142.21" style="fill:#231f20;fill-opacity:1;fill-rule:nonzero;stroke:none" id="path18"/>
      <path d="m 1796.86,3199.2 h 134.02 c 47.49,74.8 131.82,124.86 228.02,124.86 h 76.9 v -59.09 h -76.9 c -86.15,0 -160.26,-51.54 -192.08,-124.88 h -64.04 -48.08 -13.9 c -6.71,-25.67 -10.64,-52.39 -10.64,-80.09 0,-178.03 147.48,-322.91 328.74,-322.91 h 136.7 v 58.84 h -136.7 c -148.25,0 -268.85,118.47 -268.85,264.07 0,7.07 0.32,14.07 0.87,21.04 h 60.37 c -0.71,-6.91 -1.08,-13.93 -1.08,-21.04 0,-113.06 93.62,-204.97 208.69,-204.97 h 136.7 60.15 v -59.1 -58.84 -59.05 h -60.15 -136.7 v -0.03 c -214.46,0 -388.9,171.37 -388.9,381.99 0,49.09 9.58,96.03 26.86,139.2" style="fill:#231f20;fill-opacity:1;fill-rule:nonzero;stroke:none" id="path20"/>
      <path d="m 2295.6,3382.88 h 60.15 v 59.11 h -60.15 v -0.03 h -136.7 c -140.6,0 -263.98,-73.64 -332.28,-183.7 h 73.53 c 60.13,75.72 153.61,124.62 258.75,124.62 h 119.82 16.88" style="fill:#231f20;fill-opacity:1;fill-rule:nonzero;stroke:none" id="path22"/>
      <path d="m 2295.78,3264.97 h 59.97 v 59.09 h -59.97 v -59.09" style="fill:#231f20;fill-opacity:1;fill-rule:nonzero;stroke:none" id="path24"/>
      <path d="m 2295.78,2914.17 h 59.97 v 59.1 h -59.97 v -59.1" style="fill:#231f20;fill-opacity:1;fill-rule:nonzero;stroke:none" id="path26"/>
      <path d="m 4139.47,3153.97 h -193.3 v -186.84 h 193.3 c 75.21,0 84.44,32.75 84.44,93.19 0,60.44 -9.23,93.65 -84.44,93.65 z m -259.27,64.14 h 259.27 c 113.04,0 151.79,-53.98 151.79,-157.79 0,-103.81 -38.75,-157.78 -151.79,-157.78 H 3880.2 v 315.57" style="fill:#231f20;fill-opacity:1;fill-rule:nonzero;stroke:none" id="path28"/>
      <path d="m 4402.9,3218.11 v -315.57 h -65.98 v 315.57 h 65.98" style="fill:#231f20;fill-opacity:1;fill-rule:nonzero;stroke:none" id="path30"/>
      <path d="m 4850.41,3074.62 v -172.08 h -250.06 c -113.03,0 -151.79,54.43 -151.79,158.24 0,103.35 38.76,157.33 151.79,157.33 h 246.37 v -64.14 h -246.37 c -75.19,0 -84.42,-32.75 -84.42,-93.19 0,-60.9 9.23,-93.65 84.42,-93.65 h 184.08 v 107.49 h 65.98" style="fill:#231f20;fill-opacity:1;fill-rule:nonzero;stroke:none" id="path32"/>
      <path d="m 4968.5,3218.11 v -315.57 h -65.97 v 315.57 h 65.97" style="fill:#231f20;fill-opacity:1;fill-rule:nonzero;stroke:none" id="path34"/>
      <path d="m 5154.88,2902.54 v 256.05 h -156.86 v 59.52 h 379.69 v -59.52 h -156.86 v -256.05 h -65.97" style="fill:#231f20;fill-opacity:1;fill-rule:nonzero;stroke:none" id="path36"/>
      <path d="m 5583.47,3142.44 c -6.92,13.38 -15.69,21.69 -32.76,21.69 -17.07,0 -25.83,-8.31 -32.75,-21.69 l -53.52,-103.34 h 172.08 z m 194.69,-239.9 h -71.04 l -40.15,77.97 h -232.52 l -40.13,-77.97 h -70.59 l 129.18,253.28 c 19.83,39.21 43.83,66.89 97.8,66.89 53.99,0 77.51,-27.68 97.82,-66.89 l 129.63,-253.28" style="fill:#231f20;fill-opacity:1;fill-rule:nonzero;stroke:none" id="path38"/>
      <path d="M 5853.35,3218.11 V 3033.1 c 0,-51.67 19.83,-65.97 86.27,-65.97 H 6150 v -64.59 h -210.38 c -104.27,0 -152.25,35.99 -152.25,130.56 v 185.01 h 65.98" style="fill:#231f20;fill-opacity:1;fill-rule:nonzero;stroke:none" id="path40"/>
    </g>
  </g>
</svg>