<svg width="181" height="26" viewBox="0 0 181 26" fill="none" xmlns="http://www.w3.org/2000/svg">
<path fill-rule="evenodd" clip-rule="evenodd" d="M114.939 0.663574C115.152 0.663574 115.324 0.830943 115.324 1.0374V24.9624C115.324 25.1689 115.152 25.3362 114.939 25.3362C114.726 25.3362 114.553 25.1689 114.553 24.9624V1.0374C114.553 0.830943 114.726 0.663574 114.939 0.663574Z" fill="white"/>
<path d="M180.185 6.85059V20.6822H178.591V6.85059H180.185Z" fill="white"/>
<path d="M171.267 20.8983C170.402 20.8983 169.639 20.6799 168.977 20.2432C168.315 19.8019 167.798 19.1806 167.424 18.3791C167.05 17.5732 166.863 16.6209 166.863 15.5223C166.863 14.4327 167.05 13.4872 167.424 12.6857C167.798 11.8843 168.318 11.2652 168.984 10.8285C169.65 10.3917 170.42 10.1733 171.294 10.1733C171.969 10.1733 172.503 10.2859 172.894 10.511C173.291 10.7317 173.592 10.9838 173.799 11.2674C174.011 11.5466 174.175 11.7762 174.292 11.9563H174.428V10.3084H176.021V20.6822H174.481V19.0883H174.292C174.175 19.2774 174.009 19.516 173.793 19.8042C173.577 20.0878 173.268 20.3422 172.867 20.5673C172.467 20.788 171.933 20.8983 171.267 20.8983ZM171.483 19.4665C172.122 19.4665 172.663 19.2999 173.104 18.9667C173.545 18.629 173.88 18.163 174.11 17.5687C174.34 16.9698 174.455 16.2787 174.455 15.4953C174.455 14.7208 174.342 14.0432 174.117 13.4624C173.892 12.8771 173.559 12.4223 173.117 12.0982C172.676 11.7695 172.131 11.6051 171.483 11.6051C170.808 11.6051 170.245 11.7785 169.794 12.1252C169.349 12.4674 169.013 12.9334 168.788 13.5232C168.568 14.1085 168.457 14.7659 168.457 15.4953C168.457 16.2337 168.57 16.9046 168.795 17.5079C169.024 18.1067 169.362 18.584 169.808 18.9397C170.258 19.2909 170.817 19.4665 171.483 19.4665Z" fill="white"/>
<path d="M165.634 10.3081V11.6589H160.258V10.3081H165.634ZM161.825 7.82275H163.418V17.7102C163.418 18.1605 163.484 18.4982 163.614 18.7233C163.75 18.9439 163.921 19.0925 164.128 19.169C164.339 19.2411 164.562 19.2771 164.796 19.2771C164.972 19.2771 165.116 19.2681 165.229 19.2501C165.341 19.2276 165.431 19.2096 165.499 19.196L165.823 20.6278C165.715 20.6684 165.564 20.7089 165.37 20.7494C165.177 20.7944 164.931 20.8169 164.634 20.8169C164.184 20.8169 163.743 20.7201 163.311 20.5265C162.883 20.3329 162.527 20.038 162.243 19.6418C161.964 19.2456 161.825 18.7458 161.825 18.1425V7.82275Z" fill="white"/>
<path d="M157.18 20.6819V10.3081H158.774V20.6819H157.18ZM157.99 8.57917C157.679 8.57917 157.411 8.47336 157.186 8.26174C156.966 8.05012 156.855 7.79573 156.855 7.49855C156.855 7.2014 156.966 6.94699 157.186 6.7354C157.411 6.52378 157.679 6.41797 157.99 6.41797C158.301 6.41797 158.566 6.52378 158.787 6.7354C159.012 6.94699 159.125 7.2014 159.125 7.49855C159.125 7.79573 159.012 8.05012 158.787 8.26174C158.566 8.47336 158.301 8.57917 157.99 8.57917Z" fill="white"/>
<path d="M150.348 24.7884C149.578 24.7884 148.916 24.6894 148.363 24.4913C147.809 24.2976 147.347 24.041 146.978 23.7213C146.614 23.4062 146.323 23.0685 146.107 22.7083L147.377 21.8168C147.521 22.0059 147.703 22.222 147.924 22.4651C148.144 22.7128 148.446 22.9266 148.829 23.1068C149.216 23.2913 149.722 23.3837 150.348 23.3837C151.186 23.3837 151.877 23.181 152.422 22.7758C152.967 22.3706 153.239 21.7357 153.239 20.8713V18.7641H153.104C152.987 18.9532 152.82 19.1873 152.604 19.4665C152.392 19.7411 152.086 19.9865 151.686 20.2026C151.289 20.4142 150.754 20.5201 150.078 20.5201C149.241 20.5201 148.489 20.322 147.822 19.9257C147.161 19.5295 146.636 18.9532 146.249 18.1968C145.866 17.4404 145.675 16.5219 145.675 15.4413C145.675 14.3787 145.862 13.4534 146.235 12.6655C146.609 11.873 147.129 11.2607 147.795 10.8285C148.462 10.3917 149.232 10.1733 150.105 10.1733C150.781 10.1733 151.316 10.2859 151.713 10.511C152.113 10.7317 152.419 10.9838 152.631 11.2674C152.847 11.5466 153.014 11.7762 153.131 11.9563H153.293V10.3084H154.833V20.9793C154.833 21.8708 154.63 22.5957 154.225 23.154C153.824 23.7168 153.284 24.1288 152.604 24.39C151.929 24.6556 151.177 24.7884 150.348 24.7884ZM150.294 19.0883C150.934 19.0883 151.474 18.9419 151.915 18.6493C152.356 18.3566 152.692 17.9356 152.922 17.3863C153.151 16.837 153.266 16.1797 153.266 15.4143C153.266 14.6668 153.153 14.0072 152.928 13.4354C152.703 12.8636 152.37 12.4156 151.929 12.0914C151.488 11.7672 150.943 11.6051 150.294 11.6051C149.619 11.6051 149.056 11.7762 148.606 12.1184C148.16 12.4606 147.825 12.9199 147.6 13.4962C147.379 14.0725 147.269 14.7119 147.269 15.4143C147.269 16.1346 147.381 16.7717 147.606 17.3255C147.836 17.8749 148.174 18.3071 148.619 18.6223C149.07 18.9329 149.628 19.0883 150.294 19.0883Z" fill="white"/>
<path d="M142.218 20.6819V10.3081H143.812V20.6819H142.218ZM143.029 8.57917C142.718 8.57917 142.45 8.47336 142.225 8.26174C142.004 8.05012 141.894 7.79573 141.894 7.49855C141.894 7.2014 142.004 6.94699 142.225 6.7354C142.45 6.52378 142.718 6.41797 143.029 6.41797C143.339 6.41797 143.605 6.52378 143.825 6.7354C144.051 6.94699 144.163 7.2014 144.163 7.49855C144.163 7.79573 144.051 8.05012 143.825 8.26174C143.605 8.47336 143.339 8.57917 143.029 8.57917Z" fill="white"/>
<path d="M133.604 20.6822H129.335V6.85059H133.793C135.135 6.85059 136.283 7.12749 137.237 7.68128C138.192 8.23059 138.923 9.02078 139.432 10.0518C139.941 11.0784 140.195 12.3076 140.195 13.7394C140.195 15.1802 139.939 16.4206 139.426 17.4607C138.912 18.4963 138.165 19.2932 137.183 19.8515C136.202 20.4053 135.008 20.6822 133.604 20.6822ZM131.01 19.1964H133.496C134.639 19.1964 135.587 18.9758 136.339 18.5345C137.091 18.0933 137.651 17.4652 138.021 16.6502C138.39 15.8353 138.574 14.865 138.574 13.7394C138.574 12.6228 138.392 11.6615 138.027 10.8555C137.663 10.0451 137.118 9.42374 136.393 8.99151C135.668 8.55477 134.765 8.3364 133.685 8.3364H131.01V19.1964Z" fill="white"/>
<mask id="mask0_1594_3578" style="mask-type:luminance" maskUnits="userSpaceOnUse" x="0" y="0" width="103" height="26">
<path d="M102.217 0.663574H0.185059V25.3363H102.217V0.663574Z" fill="white"/>
</mask>
<g mask="url(#mask0_1594_3578)">
<path d="M21.531 24.0725L15.5642 14.72C16.611 14.2475 17.545 13.5305 18.2731 12.6279C19.3227 11.3275 19.9002 9.68879 19.9002 8.01505C19.9002 3.96118 16.6026 0.663574 12.5487 0.663574H1.00708C0.55364 0.663574 0.185059 1.03216 0.185059 1.48559V24.5142C0.185059 24.9677 0.55364 25.3362 1.00708 25.3362H20.8383C21.139 25.3362 21.4153 25.1724 21.5596 24.9088C21.7038 24.6452 21.6927 24.3244 21.5315 24.0719L21.531 24.0725ZM12.5487 2.25457C15.7249 2.25457 18.3092 4.83888 18.3092 8.01505C18.3092 9.34617 17.8685 10.5956 17.0348 11.6293C16.4143 12.3983 15.6034 12.9954 14.6971 13.3613L7.61079 2.25457H12.5487ZM9.59157 13.61L11.2775 10.9595L12.9687 13.61H9.59211H9.59157ZM10.4942 15.201V23.7452H3.14591L8.58022 15.201H10.4947H10.4942ZM1.77606 2.25457H5.72384L10.3335 9.47982L7.70624 13.6106H1.77606V2.25457ZM6.69435 15.201L1.77606 22.9349V15.2016H6.69435V15.201ZM12.0852 23.7452V15.201H13.9838L19.4351 23.7452H12.0852Z" fill="white"/>
<path fill-rule="evenodd" clip-rule="evenodd" d="M31.587 13.4754H33.8116C34.422 13.4754 34.9162 13.3911 35.2981 13.2267C35.6801 13.0575 35.9584 12.8141 36.1383 12.4975C36.3233 12.1745 36.4177 11.7757 36.4177 11.2979C36.4177 10.82 36.3233 10.4165 36.1383 10.0845C35.9538 9.74929 35.6721 9.49527 35.2912 9.32186H35.2907C34.9095 9.14419 34.413 9.05298 33.799 9.05298H31.5875V13.4754H31.587ZM28.9771 20.6816V6.85156H34.1796C35.2393 6.85156 36.1334 7.03558 36.8584 7.40734C37.587 7.77859 38.1386 8.2999 38.511 8.97185C38.8875 9.63847 39.0746 10.4143 39.0746 11.2979C39.0746 12.1814 38.8854 12.9599 38.504 13.6181C38.127 14.2725 37.5706 14.7779 36.8376 15.1354C36.7731 15.1667 36.7068 15.1963 36.6395 15.225L39.621 20.6821H36.7058L34.0126 15.6641H31.5885V20.6821H28.9789L28.9771 20.6816Z" fill="white"/>
<path fill-rule="evenodd" clip-rule="evenodd" d="M42.5099 14.4461H47.209C47.1964 14.0176 47.0988 13.6368 46.9168 13.3022C46.7259 12.9463 46.4598 12.6668 46.1178 12.4632C45.7808 12.2601 45.3868 12.1577 44.933 12.1577C44.4488 12.1577 44.026 12.2755 43.6628 12.5088C43.2974 12.7395 43.0126 13.0439 42.8083 13.422C42.6402 13.7365 42.541 14.0775 42.5109 14.4456L42.5099 14.4461ZM42.3246 20.2325C41.569 19.7934 40.9871 19.173 40.5806 18.3727C40.1737 17.5682 39.9712 16.6231 39.9712 15.5402C39.9712 14.4572 40.1732 13.5371 40.58 12.7284C40.991 11.9153 41.5654 11.2816 42.303 10.8292C43.0417 10.3715 43.9078 10.144 44.899 10.144C45.539 10.144 46.1442 10.248 46.7138 10.4553C47.2887 10.659 47.7963 10.9761 48.2353 11.4062C48.6801 11.8374 49.0281 12.3852 49.2805 13.0481C49.5342 13.7084 49.6593 14.4928 49.6593 15.3991V16.2052H42.5014C42.5156 16.7419 42.6227 17.2033 42.8206 17.591C43.0337 18.0041 43.3308 18.3207 43.7122 18.5419C44.0933 18.7588 44.5416 18.868 45.0586 18.868C45.4048 18.868 45.7168 18.8198 45.9942 18.7243C46.2715 18.6246 46.5118 18.4793 46.7143 18.2894C46.9163 18.1006 47.0692 17.8657 47.173 17.5846L47.1905 17.5379L49.5732 17.8058L49.5563 17.8758C49.4111 18.4835 49.1343 19.0149 48.7254 19.4694C48.3211 19.9191 47.8043 20.2681 47.1756 20.5163C46.5472 20.7608 45.8297 20.8822 45.0247 20.8822C43.9851 20.8822 43.0841 20.6664 42.3231 20.2315L42.3246 20.2325Z" fill="white"/>
<path fill-rule="evenodd" clip-rule="evenodd" d="M57.9715 17.1778C58.1555 16.682 58.2483 16.1161 58.2483 15.4803C58.2483 14.8444 58.1576 14.2896 57.9779 13.8028C57.7986 13.317 57.5331 12.9394 57.1825 12.6668C56.834 12.3958 56.3981 12.2585 55.8697 12.2585C55.3416 12.2585 54.9386 12.3911 54.5901 12.6536C54.24 12.9171 53.9722 13.2884 53.7882 13.7694C53.6086 14.2515 53.5178 14.821 53.5178 15.4797C53.5178 16.1384 53.6106 16.7127 53.7946 17.2033C53.983 17.6939 54.2513 18.0736 54.597 18.3467C54.946 18.6135 55.3686 18.7481 55.8692 18.7481C56.3699 18.7481 56.826 18.6087 57.1745 18.334C57.5256 18.0524 57.7914 17.6679 57.9705 17.1773L57.9715 17.1778ZM51.0156 24.5367V10.2777H53.5253V11.9774H53.5628C53.689 11.7329 53.862 11.4757 54.0809 11.2047C54.3148 10.9109 54.6304 10.6627 55.0244 10.4591C55.4243 10.2474 55.9309 10.144 56.5397 10.144C57.3452 10.144 58.0728 10.3498 58.7215 10.7629C59.3753 11.1718 59.8914 11.7769 60.2704 12.5756C60.6549 13.3716 60.8454 14.3448 60.8454 15.4935C60.8454 16.6422 60.6593 17.5973 60.2838 18.3976C59.9094 19.1963 59.3982 19.8083 58.7485 20.2304C58.0998 20.6526 57.3647 20.8631 56.5459 20.8631C55.9504 20.8631 55.4513 20.764 55.0522 20.5619C54.6579 20.3625 54.3387 20.1212 54.0959 19.8374V19.8364C53.8725 19.567 53.696 19.3103 53.5656 19.0664V24.5362H51.0161L51.0156 24.5367Z" fill="white"/>
<path fill-rule="evenodd" clip-rule="evenodd" d="M68.7769 10.2773H71.3262V20.6819H68.8507V18.8555H68.8502C68.6119 19.425 68.228 19.8917 67.6993 20.2561C67.1604 20.6305 66.498 20.8161 65.7157 20.8161C65.0326 20.8161 64.4255 20.6644 63.8974 20.3595H63.8966C63.3723 20.0493 62.9629 19.6001 62.6679 19.0151C62.3726 18.4243 62.2261 17.7137 62.2261 16.8853V10.2779H64.7756V16.5109C64.7756 17.1499 64.9506 17.6506 65.2937 18.0197C65.6373 18.3888 66.0881 18.5749 66.6522 18.5749C66.9987 18.5749 67.3338 18.4906 67.66 18.3209C67.9835 18.1528 68.2498 17.9019 68.4582 17.5673C68.6687 17.2321 68.7764 16.8095 68.7764 16.2961V10.2773H68.7769Z" fill="white"/>
<path fill-rule="evenodd" clip-rule="evenodd" d="M80.1878 17.1777C80.3718 16.6818 80.4646 16.1159 80.4646 15.4801C80.4646 14.8442 80.3739 14.2895 80.194 13.8026C80.0149 13.3169 79.7491 12.9393 79.3986 12.6667C79.0501 12.3957 78.6142 12.2583 78.086 12.2583C77.5579 12.2583 77.1546 12.3909 76.8064 12.6534C76.4563 12.917 76.1885 13.2882 76.0045 13.7692C75.8246 14.2513 75.7339 14.8209 75.7339 15.4795C75.7339 16.1382 75.8267 16.7126 76.0107 17.2031C76.1991 17.6937 76.4674 18.0734 76.8131 18.3465C77.1621 18.6133 77.5849 18.748 78.0855 18.748C78.5862 18.748 79.0426 18.6085 79.3906 18.3338C79.7417 18.0522 80.0074 17.6677 80.1865 17.1777H80.1878ZM73.2319 20.6821V6.85156H75.7812V11.9725C75.9069 11.7296 76.0793 11.4734 76.2967 11.2045C76.5306 10.9107 76.846 10.6625 77.2402 10.4589C77.6399 10.2473 78.1464 10.1439 78.7553 10.1439C79.5607 10.1439 80.2886 10.3496 80.937 10.7628C81.5911 11.1716 82.1069 11.7768 82.4862 12.5754C82.8707 13.3715 83.0612 14.3446 83.0612 15.4933C83.0612 16.642 82.8748 17.5972 82.4993 18.3974C82.1249 19.1961 81.6137 19.8081 80.964 20.2303C80.3156 20.6524 79.5805 20.863 78.7617 20.863C78.166 20.863 77.6671 20.7638 77.2677 20.5617C76.8737 20.3623 76.5543 20.121 76.3114 19.8373V19.8362C76.0873 19.5652 75.9099 19.3075 75.7796 19.063H75.7413V20.6821H73.2319Z" fill="white"/>
<path fill-rule="evenodd" clip-rule="evenodd" d="M94.9934 20.1971C94.2514 19.74 93.6793 19.1089 93.2774 18.3044C92.8795 17.4956 92.6816 16.5665 92.6816 15.5191C92.6816 14.4717 92.8844 13.5356 93.2905 12.7274C93.6973 11.9144 94.2717 11.2806 95.0137 10.8282C95.7614 10.3706 96.6429 10.1431 97.6563 10.1431C98.4985 10.1431 99.2461 10.2985 99.8984 10.6108C100.555 10.9184 101.079 11.3565 101.469 11.9234C101.86 12.4866 102.082 13.1448 102.136 13.8952L102.141 13.9636H99.7044L99.6949 13.9116C99.6036 13.429 99.3867 13.0286 99.0446 12.7083H99.0441C98.7105 12.3869 98.2613 12.2236 97.6897 12.2236C97.2065 12.2236 96.785 12.354 96.4221 12.6134C96.059 12.869 95.7737 13.2376 95.5678 13.7239C95.3669 14.2091 95.2651 14.7941 95.2651 15.4793C95.2651 16.1645 95.3669 16.7669 95.5678 17.2617C95.7693 17.7523 96.0505 18.1278 96.4095 18.3919C96.7722 18.6507 97.198 18.7811 97.6902 18.7811C98.0392 18.7811 98.3484 18.7159 98.6193 18.5865C98.895 18.4528 99.1258 18.2609 99.3114 18.0106C99.4964 17.7608 99.6249 17.4553 99.6949 17.0931L99.7049 17.0416H102.141L102.136 17.1106C102.077 17.8472 101.86 18.5027 101.483 19.0744C101.106 19.6419 100.593 20.0863 99.9462 20.4077C99.2983 20.7253 98.5388 20.8829 97.6701 20.8829C96.6349 20.8829 95.7413 20.6553 94.9934 20.1976V20.1971Z" fill="white"/>
<path fill-rule="evenodd" clip-rule="evenodd" d="M89.0237 8.54788C88.7351 8.27743 88.5889 7.95072 88.5889 7.57102C88.5889 7.19129 88.7346 6.86037 89.0242 6.59414C89.3126 6.3242 89.6585 6.18896 90.0579 6.18896C90.4571 6.18896 90.8071 6.3242 91.0913 6.59414C91.3805 6.85983 91.5262 7.18651 91.5262 7.57048C91.5262 7.95445 91.38 8.27689 91.0913 8.54682C90.8071 8.81252 90.4614 8.94565 90.0579 8.94565C89.6542 8.94565 89.3131 8.81252 89.0242 8.54736L89.0237 8.54788ZM88.7755 20.6819V10.2773H91.3247V20.6819H88.7755Z" fill="white"/>
<path fill-rule="evenodd" clip-rule="evenodd" d="M86.9775 6.85156V20.6821H84.4282V6.85156H86.9775Z" fill="white"/>
</g>
</svg>
