<svg width="24" height="16" viewBox="0 0 24 16" fill="none" xmlns="http://www.w3.org/2000/svg">
<g clip-path="url(#clip0_1930_898)">
<path d="M5.31632 10.257V5.82778C5.31632 5.53086 5.51377 5.3329 5.80994 5.3329H9.79836V0.799805H5.69147C2.86798 0.799805 0.399902 2.99707 0.399902 5.90696V10.3361C0.399902 13.2262 2.53233 15.1998 5.37556 15.1998C7.17232 15.1998 8.81113 14.3744 10.5289 12.7115L17.5185 5.88222C17.8147 5.5853 18.0318 5.3329 18.2886 5.3329C18.5255 5.3329 18.6834 5.52591 18.6834 5.76345V10.1718C18.6834 10.4688 18.486 10.6667 18.1898 10.6667H14.2015V15.1998H18.3281C21.1319 15.1998 23.5999 13.0025 23.5999 10.0729V5.68427C23.5999 2.79417 21.4675 0.799805 18.6242 0.799805C16.8473 0.799805 15.1887 1.64605 13.4709 3.30884L6.48126 10.1382C6.18509 10.4351 5.9679 10.6667 5.71122 10.6667C5.47428 10.6667 5.31632 10.4945 5.31632 10.257Z" fill="#090A0A"/>
</g>
<defs>
<clipPath id="clip0_1930_898">
<rect width="24" height="16" fill="white"/>
</clipPath>
</defs>
</svg>
