<?xml version="1.0" encoding="utf-8"?>
<!-- Generator: Adobe Illustrator 26.0.1, SVG Export Plug-In . SVG Version: 6.00 Build 0)  -->
<svg version="1.1" xmlns="http://www.w3.org/2000/svg" xmlns:xlink="http://www.w3.org/1999/xlink" x="0px" y="0px"
    viewBox="0 0 278 50" style="enable-background:new 0 0 278 50;" xml:space="preserve">
    <style type="text/css">
        .st0 {
            fill-rule: evenodd;
            clip-rule: evenodd;
            fill: #000000;
        }

        .st1 {
            filter: url(#Adobe_OpacityMaskFilter);
        }

        .st2 {
            mask: url(#b_00000090254324876057637160000012052692841657732789_);
            fill-rule: evenodd;
            clip-rule: evenodd;
            fill: #000000;
        }

        .st3 {
            filter: url(#Adobe_OpacityMaskFilter_00000137126572915002439670000003119108968474049945_);
        }

        .st4 {
            mask: url(#b_00000080906579915466666910000008762772929048678547_);
            fill-rule: evenodd;
            clip-rule: evenodd;
            fill: #000000;
        }
    </style>
    <g id="Layer_2">
    </g>
    <g id="Layer_1">
        <g>
            <path class="st0" d="M61.9,43.4h3l0.6,1.9H67l-2.7-8.1h-1.6l-2.8,8.1h1.4L61.9,43.4L61.9,43.4z M64.5,42.1h-2.2l1.1-3.2L64.5,42.1
			z M73.3,45.3h3.3c2.9,0,3.8-1.9,3.8-4.1c0-2.3-1.2-4-3.8-4h-3.3V45.3z M74.8,38.4h1.9c1.4,0,2.2,1,2.2,2.7c0,1.9-0.8,2.8-2.2,2.8
			h-1.9V38.4z M88.4,41.4c0.9-0.2,1.5-0.8,1.5-2c0-1.6-1.3-2.3-2.8-2.3h-3.8v8.1h1.5v-3.3h1.8c1.2,0,1.5,0.5,1.6,1.7
			c0.1,1,0.2,1.4,0.3,1.7H90v0c-0.2-0.3-0.3-0.8-0.4-1.8C89.6,42.3,89.1,41.7,88.4,41.4L88.4,41.4z M84.7,40.6v-2.2h2.4
			c0.7,0,1.3,0.3,1.3,1c0,0.8-0.5,1.1-1.4,1.1C87,40.6,84.7,40.6,84.7,40.6z M97.4,39.1l1.7,6.1h1.5l2.3-8.1h-1.5L99.8,43l-1.6-5.9
			h-1.6L95,43l-1.5-5.9h-1.6l2.2,8.1h1.6C95.7,45.3,97.4,39.1,97.4,39.1z M116.1,43.2l-1.3-0.7c-0.3,0.9-0.9,1.5-2.1,1.5
			c-1.8,0-2.4-1.1-2.4-2.9c0-1.7,0.7-2.9,2.4-2.9c1.2,0,1.7,0.7,2,1.6l1.3-0.7c-0.5-1.4-1.6-2.2-3.3-2.2c-2.6,0-4,1.8-4,4.2
			c0,2.5,1.3,4.2,3.9,4.2C114.7,45.4,115.7,44.4,116.1,43.2z M118.3,41.2c0,2.5,1.6,4.2,4.1,4.2c2.6,0,4-1.8,4-4.2
			c0-2.4-1.6-4.2-4.1-4.2C119.9,37,118.3,38.8,118.3,41.2L118.3,41.2z M122.4,38.3c1.6,0,2.5,1.1,2.5,2.8c0,2-0.8,2.9-2.5,2.9
			c-1.6,0-2.5-1.1-2.5-2.9C119.9,39.5,120.8,38.3,122.4,38.3z M137.3,37.1h-2l-2.1,5.6l-2-5.6h-2.1v8.1h1.3v-6.1l2.2,6.1h1l2.2-6.1
			v6.1h1.4V37.1z M144.9,37.1h-4.1v8.1h1.5v-3.4h2.6c1.6,0,2.7-0.8,2.7-2.4C147.6,37.9,146.3,37.1,144.9,37.1L144.9,37.1z
			 M142.3,40.6v-2.1h2.5c0.7,0,1.2,0.3,1.2,1c0,0.8-0.5,1.1-1.2,1.1C144.8,40.6,142.3,40.6,142.3,40.6z M150.7,43.4h3l0.6,1.9h1.5
			l-2.7-8.1h-1.6l-2.8,8.1h1.4L150.7,43.4L150.7,43.4z M153.3,42.1h-2.1l1.1-3.2L153.3,42.1z M163.6,42.7l-3.5-5.6h-1.7v8.1h1.3
			v-6.1l3.8,6.1h1.5v-8.1h-1.3L163.6,42.7L163.6,42.7z M170.3,42.2v3h1.5v-3.1l2.8-5H173l-1.9,3.5l-2-3.5h-1.7L170.3,42.2
			L170.3,42.2z M68.1,25.5c4.7,0,7.1-2.2,8.7-5L72.6,18c-0.8,1.9-2.3,3.2-4.5,3.2c-2.9,0-4.9-1.9-4.9-5.6c0-3.6,1.9-5.5,4.8-5.5
			c2.2,0,3.5,1,4.4,3.1l4-2.4C74.9,8,72.5,6,68,6c-5.8,0-9.8,4.1-9.8,9.7S61.6,25.5,68.1,25.5L68.1,25.5z M89.4,25.5
			c5.5,0,9-2.5,9-8.1v-11h-4.8v10.7c0,3-0.9,4.1-4.1,4.1c-3.2,0-4.1-1.2-4.1-4.1V6.3h-4.8v11C80.4,22.8,83.5,25.5,89.4,25.5
			L89.4,25.5z M103.4,25.1h4.4V12.5l4.8,12.5h3.4l4.8-12.5v12.5h4.7V6.3h-6.6l-4.5,12.3L110,6.3h-6.6V25.1z M130.7,25.1h10.9
			c5.3,0,6.9-2.2,6.9-5.4c0-2.5-1.1-3.6-2.8-4.3c1.7-0.8,2.4-1.9,2.4-4c0-2.4-1.5-5.1-6.6-5.1h-10.9L130.7,25.1L130.7,25.1z
			 M135.6,17.3h5.7c2,0,2.6,0.6,2.6,1.9s-0.5,1.9-2.4,1.9h-5.9L135.6,17.3L135.6,17.3z M135.6,13.6v-3.2h5.7c1.8,0,2.3,0.5,2.3,1.6
			c0,1.3-0.6,1.6-2.3,1.6L135.6,13.6L135.6,13.6z M153.1,25.1h16.6v-3.8H158v-4h8.5v-3.7H158V10h11.3V6.3h-16.2L153.1,25.1
			L153.1,25.1z M178.7,18.3h4.2c2.4,0,3.3,0.8,3.3,3c0.1,2.4,0.2,3.2,0.4,3.8h5v-0.2c-0.2-0.2-0.3-0.7-0.4-1.5
			c-0.2-1.7-0.2-3.6-0.7-5c-0.3-0.8-1.3-1.6-2.4-1.8c1.8-0.5,3.4-1.8,3.4-4.6c0-3.6-2.1-5.5-7.1-5.5h-10.5v18.7h4.9L178.7,18.3
			L178.7,18.3z M178.7,14.4v-4.1h5.3c1.9,0,2.6,0.6,2.6,1.9c0,1.4-0.7,2.2-2.6,2.2H178.7z M196,25.1h13.2l1.4-3.9h-9.8V6.3H196
			L196,25.1L196,25.1z M218.7,21.6h7.7l1.2,3.5h5.1l-7.1-18.7h-5.8l-7.1,18.7h4.7L218.7,21.6z M225,18h-5.1l2.5-7.2L225,18L225,18z
			 M236.1,25.1h4.6l-0.2-13.2l8,13.2h5.7V6.3h-4.6l0.2,12.5l-7.5-12.5h-6.1L236.1,25.1L236.1,25.1z M259.4,25.1h8.1
			c6.7,0,10.2-3.9,10.2-9.5c0-5.8-3.9-9.2-10.1-9.2h-8.2V25.1z M264.3,21.1V10.3h3.6c2.8,0,4.8,1.6,4.8,5.3c0,3.7-1.9,5.4-4.8,5.4
			H264.3L264.3,21.1z" />
            <defs>
                <filter id="Adobe_OpacityMaskFilter" filterUnits="userSpaceOnUse" x="4.2" y="4.3" width="33.3"
                    height="41.6">
                    <feColorMatrix type="matrix" values="1 0 0 0 0  0 1 0 0 0  0 0 1 0 0  0 0 0 1 0" />
                </filter>
            </defs>

            <!-- <mask maskUnits="userSpaceOnUse" x="4.2" y="4.3" width="33.3" height="41.6" id="b_00000090254324876057637160000012052692841657732789_">
			<g class="st1">
				<path id="a_00000111905447931818926140000017459723285861941660_" class="st0" d="M0,0.1h41.6v49.8H0V0.1z"/>
			</g>
		</mask> -->
            <path class="st2" d="M4.6,29.2h16.2L10.1,39.9c2.9,3,6.6,5.1,10.6,6V35.4h2.1l4.2,4.2l-4.2,4.2h3.4c1-0.5,1.9-1.1,2.8-1.8v-6.5H27
			v-2.1h-4.2l4.2-4.2l-4.2-4.2h0h6.2v10.4h2.1l2.2,2.2c1-1.3,1.8-2.7,2.4-4.2l-4.5,0l4.2-4.2l-4.2-4.2h6.2v-4.2H20.8L37.4,4.3H20.8
			v10.4h-2.1l-4.2-4.2l4.2-4.2h-4.2V4.3h-2.1v10.4h2.1v2.1h4.2l-4.2,4.2l4.2,4.2h-6.2V14.7h-2.1l-4.2-4.2l4.2-4.2H6.2V4.3H4.2v10.4
			h2.1v2.1h4.2l-4.2,4.2l4.2,4.2h0H4.2C4.2,26.5,4.3,27.9,4.6,29.2" />
            <defs>

                <filter id="Adobe_OpacityMaskFilter_00000140714479621537518710000018295262377303668129_"
                    filterUnits="userSpaceOnUse" x="0" y="0.1" width="41.6" height="49.8">
                    <feColorMatrix type="matrix" values="1 0 0 0 0  0 1 0 0 0  0 0 1 0 0  0 0 0 1 0" />
                </filter>
            </defs>

            <!-- <mask maskUnits="userSpaceOnUse" x="0" y="0.1" width="41.6" height="49.8" id="b_00000080906579915466666910000008762772929048678547_">
			<g style="filter:url(#Adobe_OpacityMaskFilter_00000140714479621537518710000018295262377303668129_);">
				<path id="a_00000035518428326823873270000018346979732545814677_" class="st0" d="M0,0.1h41.6v49.8H0V0.1z"/>
			</g>
		</mask> -->
            <path class="st4" d="M39.5,25.1c0,11.3-8,20.7-18.7,22.8C10.1,45.7,2.1,36.3,2.1,25.1V2.2h37.4V25.1z M0,0.1v24.9
			C0,31,2.1,36.7,5.8,41.2c1.8,2.2,4,4.1,6.5,5.5c2.5,1.5,5.2,2.6,8.1,3.1l0.4,0.1l0.4-0.1c2.9-0.6,5.6-1.6,8.1-3.1
			c2.4-1.5,4.6-3.3,6.5-5.5c3.8-4.5,5.8-10.3,5.8-16.2V0.1H0z" />
        </g>
    </g>
</svg>