<svg width="180" height="28" viewBox="0 0 180 28" fill="none" xmlns="http://www.w3.org/2000/svg">
<path d="M2.33655 3.02877V6.923H17.6539C18.2596 6.923 18.7789 6.57685 19.0385 5.97108L20.1635 3.02877H2.33655ZM2.33655 10.5576V24.7499H6.75001V15.1442C6.75001 14.8845 6.83655 14.7115 7.00963 14.6249C7.1827 14.4518 7.35578 14.3653 7.52886 14.3653H13.6731C14.2789 14.3653 14.7981 14.0192 15.0577 13.3268L16.0096 10.5576H2.33655ZM36.4327 4.49992C35.9135 3.46146 35.2212 2.94223 34.1827 2.94223H30.7212L21.9808 24.6634H26.5673L33.1442 7.35569L39.6346 24.6634H44.3942L36.4327 4.49992ZM56.5096 20.7692V4.58646C56.5096 4.15377 56.3366 3.80762 56.0769 3.46146C55.8173 3.20185 55.3846 3.02877 55.0385 3.02877H52.1827V24.7499H65.6827C66.2885 24.7499 66.7212 24.4038 67.0673 23.798L68.1923 20.8557L56.5096 20.7692ZM91.0385 19.0384C90.7789 19.0384 90.4327 19.1249 90.1731 19.3845C88.875 20.423 87.4039 20.9422 85.7596 20.9422C83.7692 20.9422 82.125 20.2499 80.8269 18.8653C79.5289 17.4807 78.8365 15.8365 78.8365 13.8461C78.8365 11.8557 79.5289 10.1249 80.8269 8.74031C82.125 7.35569 83.7692 6.74993 85.6731 6.74993C87.3173 6.74993 88.875 7.26916 90.2596 8.39416C90.5193 8.56723 90.8654 8.74031 91.125 8.74031C91.3846 8.74031 91.7308 8.65377 91.9904 8.48069L94.4135 6.74993C93.4616 5.53839 92.1635 4.58646 90.6058 3.80762C89.0481 3.02877 87.4039 2.68262 85.5866 2.68262C83.5096 2.68262 81.6058 3.20185 79.875 4.15377C78.1442 5.10569 76.7596 6.49031 75.8077 8.13454C74.7692 9.86531 74.25 11.7692 74.25 13.8461C74.25 15.8365 74.7692 17.7403 75.7212 19.3845C76.6731 21.1153 77.9712 22.4134 79.7019 23.4518C81.4327 24.4903 83.3366 25.0095 85.5866 25.0095C87.2308 25.0095 88.875 24.6634 90.4327 23.8845C91.9904 23.1922 93.2885 22.1538 94.3269 20.9422L91.9904 19.2115C91.6442 19.1249 91.3846 19.0384 91.0385 19.0384ZM121.846 8.048C120.808 6.40377 119.423 5.01916 117.779 4.06723C116.567 3.37492 115.356 2.94223 114.058 2.76916V7.00954C115.183 7.26916 116.221 7.87492 117 8.82685C118.298 10.2115 118.904 11.8557 118.904 13.8461C118.904 15.8365 118.298 17.5672 117 18.8653C116.135 19.7307 115.183 20.3365 114.058 20.6826V24.923C115.442 24.7499 116.74 24.2307 117.952 23.5384C119.683 22.4999 120.981 21.2018 121.933 19.4711C122.885 17.7403 123.404 15.923 123.404 13.8461C123.404 11.6826 122.885 9.69223 121.846 8.048ZM102.462 8.22108C101.51 9.95185 100.99 11.7692 100.99 13.8461C100.99 16.0095 101.51 17.9999 102.548 19.6442C103.587 21.3749 104.971 22.673 106.702 23.6249C107.913 24.3172 109.125 24.7499 110.423 24.923V20.6826C109.298 20.423 108.346 19.8172 107.481 18.8653C106.183 17.4807 105.577 15.8365 105.577 13.8461C105.577 11.8557 106.183 10.1249 107.481 8.82685C108.346 7.96146 109.298 7.35569 110.423 7.00954V2.76916C109.038 2.94223 107.74 3.46146 106.529 4.15377C104.798 5.19223 103.413 6.57685 102.462 8.22108ZM149.192 3.02877H145.038V18.6922C142.875 15.5768 138.115 8.30762 135.865 4.93262C135.087 3.80762 133.788 3.11531 132.404 3.02877H130.327V24.7499H134.481V10.2115L142.615 22.8461C143.394 24.0576 144.692 24.7499 146.077 24.7499H149.192V3.02877ZM162.779 3.02877H157.587L165.115 14.0192L157.846 24.6634H163.038L170.221 14.0192L162.779 3.02877ZM172.558 3.02877L169.529 7.52877L172.038 11.2499L177.663 3.02877H172.558ZM172.038 16.5288L169.529 20.2499L172.558 24.7499H177.663L172.038 16.5288Z" fill="white"/>
</svg>
