<svg width="117" height="40" viewBox="0 0 117 40" fill="none" xmlns="http://www.w3.org/2000/svg">
<g clip-path="url(#clip0_1590_3535)">
<path d="M48.0791 31.3543V3.4385C48.0791 2.85017 48.2837 2.35137 48.6909 1.9421C49.098 1.53496 49.5968 1.33032 50.1873 1.33032C50.7777 1.33032 51.2552 1.53496 51.6645 1.9421C52.0716 2.35137 52.2763 2.85017 52.2763 3.4385V19.1038L64.2859 11.2914C64.6205 11.0783 64.9957 10.9695 65.4114 10.9695C65.7055 10.9695 65.9805 11.0228 66.2342 11.1294C66.4878 11.236 66.7095 11.3873 66.8971 11.5813C67.0847 11.7753 67.236 11.9991 67.349 12.2549C67.462 12.5086 67.5196 12.7772 67.5196 13.0585C67.5196 13.8089 67.251 14.3631 66.7159 14.7255L58.3003 20.1888L66.9355 29.9091C67.3234 30.3375 67.5174 30.8257 67.5174 31.3756C67.5174 31.657 67.4599 31.9256 67.3469 32.1792C67.2339 32.4329 67.0826 32.6589 66.895 32.8528C66.7074 33.0468 66.4857 33.1982 66.232 33.3047C65.9784 33.4113 65.7034 33.4646 65.4092 33.4646C64.8465 33.4646 64.3775 33.2834 64.0045 32.9232L54.7255 22.4995L52.2763 24.1068V31.3564C52.2763 31.932 52.0716 32.4286 51.6645 32.8422C51.2552 33.2578 50.7628 33.4646 50.1873 33.4646C49.6117 33.4646 49.1002 33.2578 48.6909 32.8422C48.2816 32.4265 48.0791 31.932 48.0791 31.3564V31.3543Z" fill="white"/>
<path d="M73.9867 13.4592C75.9819 11.7987 78.331 10.9695 81.036 10.9695C84.1162 10.9695 86.7658 12.0673 88.9891 14.2628C90.0869 15.3478 90.9097 16.5565 91.4597 17.8887C92.0075 19.221 92.2825 20.6641 92.2825 22.2159C92.2825 25.3494 91.1847 27.9991 88.9891 30.1691C86.7658 32.3646 84.1162 33.4624 81.036 33.4624C77.9558 33.4624 75.2785 32.3646 73.0829 30.1691C70.8873 27.9735 69.7896 25.3217 69.7896 22.2159V3.41712C69.7896 2.81387 69.9878 2.3172 70.3821 1.92072C70.7765 1.52637 71.2753 1.32812 71.8786 1.32812C72.4818 1.32812 72.9657 1.52637 73.375 1.92072C73.7842 2.31507 73.9867 2.81387 73.9867 3.41712V13.4592ZM81.036 29.2652C82.0123 29.2652 82.931 29.0777 83.788 28.7025C84.6449 28.3273 85.3909 27.82 86.0262 27.1762C86.6614 26.5346 87.1645 25.7886 87.5332 24.9359C87.902 24.0854 88.0853 23.1794 88.0853 22.2138C88.0853 21.2482 87.902 20.3422 87.5332 19.4917C87.1645 18.6412 86.6614 17.8951 86.0262 17.2514C85.3909 16.6098 84.6427 16.1003 83.788 15.7251C82.931 15.35 82.0123 15.1624 81.036 15.1624C80.0597 15.1624 79.1218 15.35 78.2649 15.7251C77.408 16.1003 76.6641 16.6055 76.0352 17.2407C75.4064 17.876 74.9076 18.6242 74.5388 19.4811C74.17 20.338 73.9867 21.2482 73.9867 22.2117C73.9867 23.1752 74.17 24.0854 74.5388 24.9423C74.9076 25.7992 75.4064 26.5453 76.0352 27.1805C76.6641 27.8157 77.408 28.3209 78.2649 28.6961C79.1218 29.0713 80.0448 29.2588 81.036 29.2588V29.2652Z" fill="white"/>
<path d="M97.8886 10.9695C97.3131 10.9695 96.8207 11.1741 96.4135 11.5813C96.0043 11.9905 95.8018 12.4893 95.8018 13.0777V31.3542C95.8018 31.9426 96.0064 32.4414 96.4135 32.8506C96.8228 33.2599 97.3131 33.4624 97.8886 33.4624C98.4642 33.4624 98.9566 33.2578 99.3658 32.8506C99.773 32.4414 99.9861 31.9426 99.9989 31.3542V13.0777C99.9861 12.4893 99.7751 11.9905 99.3658 11.5813C98.9566 11.172 98.4663 10.9695 97.8886 10.9695Z" fill="white"/>
<path d="M97.8998 9.44331C98.5819 9.44331 99.1638 9.20244 99.6477 8.72069C100.129 8.23894 100.37 7.65701 100.37 6.97275C100.37 6.2885 100.129 5.70657 99.6477 5.22482C99.1659 4.74307 98.5819 4.5022 97.8998 4.5022C97.2176 4.5022 96.6336 4.74307 96.1518 5.22482C95.6701 5.70657 95.4292 6.2885 95.4292 6.97275C95.4292 7.65701 95.6701 8.23894 96.1518 8.72069C96.6336 9.20244 97.2155 9.44331 97.8998 9.44331Z" fill="white"/>
<path d="M105.46 10.9695H106.405V3.41712C106.405 2.84158 106.609 2.34917 107.017 1.9399C107.426 1.53276 107.925 1.32812 108.513 1.32812C109.101 1.32812 109.581 1.53276 109.988 1.9399C110.397 2.34917 110.602 2.84158 110.602 3.41712V10.9695H113.113C113.689 10.9695 114.179 11.1741 114.58 11.5813C114.98 11.9905 115.183 12.4808 115.183 13.0563C115.183 13.6319 114.982 14.1435 114.58 14.5527C114.179 14.962 113.689 15.1645 113.113 15.1645H110.602V25.2663C110.602 27.9308 111.941 29.2631 114.618 29.2631C115.193 29.2631 115.682 29.4677 116.084 29.877C116.485 30.2863 116.688 30.7766 116.688 31.3521C116.688 31.9276 116.487 32.4392 116.084 32.8485C115.684 33.2578 115.193 33.4603 114.618 33.4603C109.142 33.4603 106.403 30.7297 106.403 25.2663V15.1645H105.458C104.896 15.1645 104.412 14.9599 104.002 14.5527C103.593 14.1456 103.391 13.6447 103.391 13.0563C103.391 12.468 103.595 11.9884 104.002 11.5813C104.412 11.172 104.896 10.9695 105.458 10.9695H105.46Z" fill="white"/>
<path d="M19.9989 40C8.97202 40 0 31.028 0 19.9989C0 8.96989 8.97202 0 19.9989 0C31.0258 0 40 8.97202 40 19.9989C40 31.0258 31.028 40 19.9989 40ZM19.9989 2.81801C10.526 2.81801 2.81588 10.526 2.81588 19.9989C2.81588 29.4719 10.5238 37.182 19.9989 37.182C29.474 37.182 37.182 29.474 37.182 19.9989C37.182 10.5238 29.474 2.81801 19.9989 2.81801Z" fill="white"/>
<path d="M19.9988 4.60425C11.4957 4.60425 4.60205 11.4979 4.60205 20.001C4.60205 28.5041 11.4957 35.3977 19.9988 35.3977C28.5019 35.3977 35.3956 28.5041 35.3956 20.001C35.3956 11.4979 28.5019 4.60425 19.9988 4.60425ZM25.5624 7.92959C27.1312 7.92959 28.4017 9.20004 28.4017 10.7689C28.4017 12.3378 27.1291 13.6082 25.5624 13.6082C23.9956 13.6082 22.723 12.3378 22.723 10.7689C22.723 9.20004 23.9935 7.92959 25.5624 7.92959ZM14.4374 19.9989C14.4374 16.9272 16.9271 14.4353 19.9988 14.4353C23.0705 14.4353 25.5624 16.9251 25.5624 19.9989C25.5624 23.0727 23.0726 25.5603 19.9988 25.5603C16.925 25.5603 14.4374 23.0705 14.4374 19.9989ZM25.5624 32.8973C23.5373 32.8973 21.8938 31.256 21.8938 29.2288C21.8938 27.2016 23.5352 25.5603 25.5624 25.5603C27.5895 25.5603 29.2309 27.2016 29.2309 29.2288C29.2309 31.256 27.5895 32.8973 25.5624 32.8973Z" fill="white"/>
</g>
<defs>
<clipPath id="clip0_1590_3535">
<rect width="116.687" height="40" fill="white"/>
</clipPath>
</defs>
</svg>
