<svg width="180" height="10" viewBox="0 0 180 10" fill="none" xmlns="http://www.w3.org/2000/svg">
<g clip-path="url(#clip0_1594_4401)">
<path d="M28.6686 7.88831C28.0165 6.96028 27.728 5.78143 27.728 4.65275C27.728 2.25743 28.9194 0.0251465 31.5906 0.0251465C32.782 0.0251465 33.7351 0.413915 34.4625 1.40465C35.1021 2.28251 35.4407 3.56169 35.4407 4.65275C35.4407 5.68111 35.1648 6.92266 34.5879 7.78798C33.8856 8.81634 32.8196 9.31798 31.6032 9.31798C30.3616 9.30544 29.3709 8.89159 28.6686 7.88831ZM30.2111 2.77161C29.9979 3.31087 29.9227 4.08841 29.9227 4.65275C29.9227 5.78143 30.0857 7.58733 31.5781 7.58733C32.3055 7.58733 32.6942 7.23618 32.9325 6.57151C33.1457 6.01971 33.2084 5.26726 33.2084 4.67783C33.2084 4.0257 33.1457 3.24817 32.8824 2.6462C32.619 2.04424 32.2428 1.76834 31.5781 1.76834C30.8633 1.7558 30.4619 2.11948 30.2111 2.77161Z" fill="white"/>
<path d="M53.788 9.18002H51.7187L50.2389 3.21053H50.2138L48.7967 9.18002H46.74L44.4199 0.163086H46.577L47.9565 6.2329H47.9815L49.4363 0.163086H51.3801L52.8976 6.2329H52.9227L52.9979 5.84413L54.3147 0.163086H56.0454L53.788 9.18002Z" fill="white"/>
<path d="M90.5332 9.18002H89.4045V1.14128H86.8462V0.163086H93.1041V1.14128H90.5332V9.18002Z" fill="white"/>
<path d="M106.109 9.18002L104.441 5.27979H101.945V9.18002H100.816V0.163086H104.202C104.942 0.163086 105.645 0.250872 106.259 0.714887C106.861 1.1789 107.212 1.91882 107.212 2.68381C107.212 3.74979 106.585 4.71544 105.532 5.00389L107.313 9.18002H106.109ZM104.065 4.35176C104.666 4.35176 105.168 4.31413 105.62 3.85012C105.933 3.5366 106.084 3.09766 106.084 2.67127C106.084 2.14455 105.883 1.70562 105.457 1.41718C105.068 1.14128 104.679 1.12874 104.202 1.12874H101.958V4.35176H104.065Z" fill="white"/>
<path d="M121.998 9.18002H120.844L119.941 6.54642H116.605L115.803 9.18002H114.862L117.784 0.163086H119.089L121.998 9.18002ZM118.299 1.36702L116.906 5.69364H119.678L118.299 1.36702Z" fill="white"/>
<path d="M130.426 0.163086H133.273C134.564 0.163086 135.517 0.426445 136.37 1.44226C137.148 2.34521 137.461 3.48643 137.461 4.65274C137.461 5.75634 137.173 6.8474 136.521 7.75035C135.793 8.76617 134.865 9.18002 133.636 9.18002H130.426V0.163086ZM133.222 8.21436C134.263 8.21436 135.091 7.97609 135.68 7.07314C136.132 6.38339 136.333 5.45536 136.333 4.6402C136.333 3.72471 136.094 2.75906 135.505 2.01914C134.89 1.24161 134.163 1.10366 133.21 1.10366H131.554V8.21436H133.222Z" fill="white"/>
<path d="M151.921 9.18002H146.089V0.163086H151.795V1.12874H147.218V4.00061H150.842V4.90356H147.218V8.21436H151.921V9.18002Z" fill="white"/>
<path d="M165.428 9.18002L163.76 5.27979H161.264V9.18002H160.135V0.163086H163.509C164.249 0.163086 164.951 0.250872 165.553 0.714887C166.155 1.1789 166.519 1.91882 166.519 2.68381C166.519 3.74979 165.892 4.71544 164.838 5.00389L166.619 9.18002H165.428ZM163.383 4.35176C163.985 4.35176 164.487 4.31413 164.938 3.85012C165.252 3.5366 165.402 3.09766 165.402 2.67127C165.402 2.14455 165.202 1.70562 164.775 1.41718C164.387 1.14128 163.998 1.12874 163.534 1.12874H161.289V4.35176H163.383Z" fill="white"/>
<path d="M174.005 6.52126C174.369 7.77535 175.41 8.35223 176.676 8.35223C177.216 8.35223 177.868 8.22683 178.294 7.90076C178.633 7.6374 178.846 7.17339 178.846 6.747C178.846 5.84405 178.094 5.46782 177.304 5.27971L175.799 4.91602C175.197 4.77807 174.645 4.62758 174.168 4.18865C173.692 3.76225 173.428 3.14775 173.428 2.5207C173.428 0.790054 174.933 0.0375977 176.488 0.0375977C178.043 0.0375977 179.21 0.790054 179.699 2.2448L178.67 2.5207C178.47 1.52997 177.416 0.928004 176.463 0.928004C175.61 0.928004 174.532 1.37948 174.532 2.35767C174.532 3.33586 175.322 3.59922 176.162 3.78734L177.517 4.1134C178.106 4.25135 178.696 4.41438 179.16 4.81569C179.724 5.27971 180 5.89421 180 6.5965C180 7.41167 179.649 8.15158 178.984 8.65322C178.332 9.15485 177.441 9.30535 176.626 9.30535C174.783 9.30535 173.579 8.49019 172.964 6.747L174.005 6.52126Z" fill="white"/>
<path d="M76.6 0H67.5454V9.05455H76.6V0Z" fill="white"/>
<path d="M2.10688 1.90628V3.96299H5.54309V5.65601H2.10688V9.18002H0V0.163086H6.42096V1.90628H2.10688Z" fill="white"/>
<path d="M20.0906 7.38666V9.18002H14.3594V0.163086H16.4663V7.38666H20.0906Z" fill="white"/>
</g>
<defs>
<clipPath id="clip0_1594_4401">
<rect width="180" height="9.31791" fill="white"/>
</clipPath>
</defs>
</svg>
