<svg width="148" height="36" viewBox="0 0 148 36" fill="none" xmlns="http://www.w3.org/2000/svg">
<g clip-path="url(#clip0_1589_3463)">
<path d="M148 33.7309C147.456 33.7309 146.979 33.7309 146.505 33.7309C143.992 33.7309 141.483 33.7286 138.97 33.7355C138.723 33.7355 138.577 33.7054 138.473 33.429C137.186 29.982 135.871 26.5468 134.592 23.0976C134.283 22.2614 134.086 21.3835 133.833 20.5147C133.801 20.8608 133.739 21.2161 133.736 21.5739C133.731 25.4598 133.731 29.3457 133.751 33.2316C133.751 33.6682 133.625 33.7541 133.199 33.7495C130.604 33.7286 128.008 33.7332 125.413 33.7611C124.947 33.7657 125.005 33.5103 125.005 33.2268C125.005 26.7512 125.008 20.2755 125.005 13.7974C125.005 9.78618 125.005 5.77254 124.996 1.76124C124.996 1.49181 125.033 1.35244 125.357 1.35476C128.571 1.37334 131.782 1.35476 134.996 1.38728C137.13 1.40819 139.23 1.73336 141.161 2.68567C144.129 4.14897 145.803 6.61103 146.385 9.85352C146.667 11.4214 146.682 12.9823 146.34 14.5454C145.777 17.1143 144.27 18.9306 141.96 20.0989C141.62 20.2709 141.591 20.4079 141.749 20.7331C143.698 24.7351 145.634 28.7463 147.569 32.7553C147.715 33.055 147.838 33.3662 147.997 33.7309H148ZM133.78 12.52C133.78 12.52 133.771 12.52 133.766 12.52C133.766 13.6581 133.766 14.7963 133.766 15.9344C133.766 16.1318 133.725 16.3339 134.033 16.3478C134.852 16.385 135.622 16.2479 136.297 15.7439C137.621 14.7521 137.903 13.3585 137.827 11.8092C137.769 10.6479 137.356 9.70952 136.315 9.11956C135.656 8.7456 134.935 8.71308 134.199 8.71075C133.856 8.71075 133.771 8.82689 133.775 9.14511C133.789 10.2693 133.78 11.3935 133.78 12.52Z" fill="white"/>
<path d="M0 33.6948C0.180586 32.926 0.354227 32.1757 0.532498 31.4278C1.9795 25.361 3.42651 19.294 4.87583 13.2272C5.7695 9.48295 6.67011 5.74108 7.55915 1.99688C7.70733 1.37439 7.69111 1.36743 8.33475 1.36743C11.5483 1.36743 14.7594 1.37673 17.973 1.36975C18.3272 1.36975 18.4777 1.4766 18.554 1.8459C19.1005 4.48682 19.6792 7.12077 20.2372 9.76168C21.0337 13.5407 21.8185 17.3244 22.615 21.1057C23.4739 25.189 24.3421 29.2701 25.2056 33.3534C25.2288 33.4626 25.2312 33.574 25.2496 33.7342C25.0112 33.7342 24.7936 33.7342 24.576 33.7342C21.9529 33.7342 19.3297 33.7296 16.7066 33.7413C16.38 33.7413 16.2412 33.6739 16.1903 33.3232C16.0305 32.2106 15.836 31.1027 15.63 29.9971C15.6068 29.867 15.4285 29.6695 15.322 29.6672C13.5139 29.6556 11.7034 29.6695 9.89289 29.6788C9.85121 29.6788 9.81185 29.6952 9.73313 29.7091C9.51319 30.9261 9.28166 32.1525 9.07561 33.3836C9.03162 33.6437 8.95523 33.7365 8.68434 33.7365C5.8922 33.7296 3.10006 33.7365 0.310238 33.7365C0.229205 33.7365 0.148173 33.7157 0.00231521 33.6948H0ZM12.9699 9.80116C12.3076 14.0703 11.6455 18.3371 10.981 22.6364H14.5835C13.8912 18.3556 13.3101 14.1005 12.972 9.80116H12.9699Z" fill="white"/>
<path d="M123.172 33.7304C122.365 33.7304 121.624 33.7304 120.883 33.7304C118.82 33.7304 116.759 33.7165 114.696 33.742C114.282 33.7466 114.12 33.612 114.062 33.2334C113.9 32.1626 113.713 31.0964 113.564 30.0234C113.527 29.754 113.444 29.668 113.178 29.6703C111.425 29.6796 109.67 29.675 107.918 29.6703C107.693 29.6703 107.598 29.7447 107.561 29.9722C107.36 31.2056 107.144 32.4367 106.929 33.7049H97.895C98.1659 32.5575 98.4253 31.4379 98.6915 30.3207C100.064 24.5976 101.442 18.8768 102.81 13.1536C103.683 9.50698 104.547 5.85569 105.41 2.20673C105.607 1.37288 105.6 1.36824 106.464 1.37056C109.578 1.37056 112.692 1.37288 115.805 1.37985C116.401 1.37985 116.377 1.41005 116.491 1.97679C116.776 3.42383 117.1 4.86158 117.401 6.30397C118.477 11.4464 119.547 16.589 120.626 21.7313C121.29 24.8925 121.964 28.0538 122.635 31.2126C122.781 31.9001 122.939 32.583 123.089 33.2705C123.119 33.4053 123.138 33.5446 123.17 33.735L123.172 33.7304ZM112.4 22.6697C111.853 18.2845 111.316 13.9921 110.781 9.70209C110.694 9.7648 110.68 9.82054 110.68 9.87629C110.575 12.6659 110.001 15.395 109.589 18.1428C109.381 19.5318 109.11 20.9092 108.885 22.2957C108.867 22.4096 108.992 22.6535 109.052 22.6535C110.17 22.6744 111.288 22.6697 112.402 22.6697H112.4Z" fill="white"/>
<path d="M71.6866 9.06083V13.6087C71.844 13.618 71.9923 13.6342 72.1404 13.6365C74.1038 13.6389 76.0694 13.6458 78.0327 13.6365C78.3197 13.6365 78.4633 13.6806 78.4633 14.0221C78.4633 16.2612 78.4772 18.498 78.4933 20.7371C78.4933 21.0297 78.3545 21.0784 78.0998 21.0784C76.1364 21.0715 74.1709 21.0877 72.2076 21.0668C71.8094 21.0622 71.6705 21.1552 71.6774 21.5732C71.7006 23.0202 71.6866 24.465 71.6866 25.9538H79.1555C79.1717 26.0723 79.1903 26.1513 79.1903 26.2302C79.1903 28.5947 79.1856 30.9616 79.1972 33.3261C79.1972 33.6512 79.1208 33.7535 78.7735 33.7535C73.6384 33.7465 68.5032 33.7535 63.3681 33.7674C63.0463 33.7674 62.9491 33.6605 62.9584 33.3563C62.9722 32.8918 62.9561 32.4273 62.9561 31.9626C62.9561 22.0936 62.9561 12.222 62.9561 2.35287C62.9561 1.36804 62.9561 1.37036 63.9516 1.3727C68.8761 1.3727 73.8004 1.37966 78.7272 1.36572C79.1254 1.36572 79.2203 1.47489 79.2157 1.86045C79.1926 4.09955 79.1856 6.33863 79.1972 8.57538C79.1972 8.97489 79.0676 9.07709 78.6879 9.07245C76.5139 9.05619 74.3376 9.06547 72.1636 9.06547C72.0107 9.06547 71.858 9.06547 71.6843 9.06547L71.6866 9.06083Z" fill="white"/>
<path d="M89.8042 1.41038V25.9427H96.3563C96.3678 26.1215 96.3817 26.2563 96.3817 26.391C96.3817 28.7137 96.3771 31.0365 96.3817 33.3591C96.3817 33.6355 96.3238 33.7493 96.009 33.7493C91.2235 33.7354 86.4402 33.7331 81.6547 33.7285C81.4741 33.7285 81.2912 33.7285 81.0481 33.7285C81.0481 33.5473 81.0481 33.3846 81.0481 33.2221C81.0481 22.7747 81.0481 12.3271 81.0435 1.87957C81.0435 1.566 81.0458 1.35463 81.4694 1.35695C84.1783 1.37786 86.8847 1.37322 89.5935 1.38018C89.6468 1.38018 89.7 1.39412 89.8042 1.40574V1.41038Z" fill="white"/>
<path d="M56.4999 4.80762C57.8405 6.11529 59.1833 7.42762 60.5075 8.72137C57.5789 11.6294 54.6756 14.5119 51.8325 17.3363C54.8099 20.379 57.6807 23.3126 60.5284 26.223C59.174 27.6003 57.8381 28.9613 56.3935 30.4294C55.8147 29.8022 55.2613 29.1705 54.6686 28.5736C51.7491 25.6306 48.8228 22.697 45.8916 19.7634C45.3013 19.1712 44.9424 18.4836 44.9124 17.6382C44.8822 16.751 45.2504 16.0309 45.8616 15.4177C49.2534 12.015 52.6474 8.6122 56.0415 5.21177C56.1689 5.08402 56.3148 4.9702 56.4999 4.80762Z" fill="white"/>
<path d="M51.6858 0C53.0447 1.34484 54.3899 2.67576 55.7536 4.02524C55.6609 4.13209 55.5846 4.22964 55.4965 4.31558C52.0839 7.73692 48.6691 11.1583 45.2564 14.5819C44.4414 15.3995 43.4922 15.8734 42.3369 15.5597C41.8461 15.4273 41.3321 15.1534 40.9733 14.7979C37.461 11.3162 33.979 7.80428 30.49 4.29932C30.4136 4.22267 30.3511 4.12977 30.27 4.02989C31.6198 2.69433 32.9534 1.37271 34.324 0.0162589C34.5694 0.248529 34.8379 0.492413 35.0927 0.750232C37.5815 3.24946 40.0657 5.75333 42.5545 8.25024C42.9851 8.68226 42.9944 8.67065 43.4366 8.22933C46.1153 5.54197 48.7917 2.85693 51.4727 0.17188C51.5399 0.104522 51.621 0.0510994 51.6835 0.0023227L51.6858 0Z" fill="white"/>
<path d="M29.4508 30.3713C28.1381 28.9963 26.8369 27.6351 25.501 26.2346C28.3557 23.4125 31.266 20.5323 34.1646 17.6662C33.5627 17.0366 33.0717 16.5025 32.5579 15.9892C30.3121 13.7454 28.0593 11.5063 25.809 9.26494C25.3806 8.83988 25.3783 8.83291 25.7858 8.41947C26.8508 7.33942 27.9205 6.26169 28.9925 5.18627C29.1383 5.03994 29.3026 4.91219 29.4647 4.77051C30.363 5.66707 31.2381 6.53808 32.1133 7.41142C34.6786 9.97103 37.2438 12.533 39.8068 15.095C40.0451 15.3318 40.2767 15.5804 40.4828 15.8475C41.2792 16.8834 41.3024 18.1539 40.5291 19.2084C40.3068 19.5127 40.0406 19.7891 39.7743 20.0585C36.3964 23.4566 33.0138 26.8502 29.6314 30.2436C29.6037 30.2714 29.5642 30.29 29.4508 30.3667V30.3713Z" fill="white"/>
<path d="M30.1815 31.0433C33.689 27.557 37.1318 24.1263 40.5861 20.7096C40.9311 20.3683 41.3061 20.0198 41.7321 19.7991C42.8434 19.2184 44.0265 19.4043 44.948 20.2916C46.3927 21.6852 47.8095 23.1113 49.2357 24.5258C51.3981 26.6744 53.5559 28.8252 55.753 31.0132C55.5678 31.2245 55.422 31.4057 55.2599 31.5706C54.1624 32.6786 53.0511 33.7726 51.9654 34.8921C51.7176 35.1475 51.5787 35.1034 51.3588 34.8804C48.6639 32.1513 45.9643 29.4267 43.2648 26.7022C43.1884 26.6255 43.1028 26.5559 43.0078 26.4699C41.8548 27.6034 40.7065 28.716 39.5744 29.8448C37.8842 31.5335 36.2103 33.236 34.5202 34.9223C34.4439 34.9989 34.2054 35.0431 34.1521 34.9896C32.8302 33.6936 31.5243 32.3813 30.1792 31.0364L30.1815 31.0433Z" fill="white"/>
</g>
<defs>
<clipPath id="clip0_1589_3463">
<rect width="148" height="35.0662" fill="white"/>
</clipPath>
</defs>
</svg>
