<svg width="180" height="24" viewBox="0 0 180 24" fill="none" xmlns="http://www.w3.org/2000/svg">
<path d="M0 23.741V11.1798H5.90449C6.46889 11.1798 6.98987 11.2661 7.46744 11.3956C7.94501 11.5683 8.33576 11.7841 8.63966 12.0431C8.94357 12.3453 9.20405 12.6474 9.37772 13.0791C9.55138 13.4676 9.63821 13.8992 9.63821 14.3741C9.63821 14.7625 9.5948 15.151 9.46455 15.4532C9.3343 15.7985 9.16064 16.0575 8.94356 16.3165C8.72649 16.5755 8.466 16.7482 8.20551 16.9208C7.94502 17.0935 7.64111 17.1798 7.3372 17.2661C7.68453 17.3093 8.03184 17.4388 8.33575 17.6115C8.63966 17.7841 8.90015 18.0431 9.16064 18.3021C9.37772 18.5611 9.5948 18.9064 9.72505 19.2517C9.85529 19.5971 9.94212 19.9856 9.94212 20.3309C9.94212 20.8489 9.85529 21.2805 9.68163 21.7122C9.50797 22.1438 9.24747 22.4892 8.94356 22.7913C8.59624 23.0935 8.20551 23.3093 7.72794 23.482C7.25037 23.6546 6.72938 23.741 6.12156 23.741H0ZM5.64399 16.6618C6.38205 16.6618 6.98988 16.4892 7.3372 16.1007C7.72794 15.7122 7.9016 15.2374 7.9016 14.6762C7.9016 14.1151 7.72794 13.6402 7.3372 13.2517C6.94646 12.8633 6.38205 12.6474 5.64399 12.6474H1.64979V16.705H5.64399V16.6618ZM5.73083 22.3597C6.51231 22.3597 7.12013 22.187 7.55428 21.7985C7.98843 21.41 8.20551 20.892 8.20551 20.2014C8.20551 19.8992 8.16208 19.6402 8.03184 19.3813C7.94501 19.1223 7.77136 18.9064 7.55428 18.6906C7.3372 18.4748 7.0767 18.3453 6.77279 18.2158C6.46889 18.0863 6.12156 18.0431 5.68741 18.0431H1.60637V22.3597H5.73083Z" fill="white"/>
<path d="M18.4949 23.741V11.1798H20.1447V22.3597H26.3096V23.741H18.4949Z" fill="white"/>
<path d="M40.0289 24C39.0304 24 38.1621 23.8273 37.3372 23.5251C36.5123 23.1798 35.8177 22.7482 35.2533 22.1438C34.6889 21.5395 34.2113 20.8921 33.9074 20.0719C33.6035 19.2949 33.4298 18.4316 33.4298 17.482C33.4298 16.5323 33.6035 15.7122 33.9074 14.8921C34.2113 14.1151 34.6889 13.4244 35.2533 12.8201C35.8177 12.2158 36.5123 11.7841 37.3372 11.4388C38.1621 11.0935 39.0304 10.964 40.0289 10.964C41.0275 10.964 41.8958 11.1367 42.7207 11.4388C43.5456 11.7841 44.2402 12.2158 44.8046 12.8201C45.369 13.4244 45.8466 14.0719 46.1505 14.8921C46.4544 15.669 46.6281 16.5323 46.6281 17.482C46.6281 18.4316 46.4544 19.2518 46.1505 20.0719C45.8466 20.8489 45.369 21.5395 44.8046 22.1438C44.2402 22.7482 43.5456 23.1798 42.7207 23.5251C41.8958 23.8273 41.0275 24 40.0289 24ZM40.0289 22.5755C40.767 22.5755 41.4617 22.446 42.0261 22.187C42.6339 21.928 43.1549 21.5827 43.5456 21.1079C43.9797 20.6331 44.2836 20.1151 44.5441 19.4676C44.7612 18.8633 44.8915 18.1726 44.8915 17.4388C44.8915 16.705 44.7612 16.0143 44.5441 15.41C44.3271 14.7625 43.9797 14.2446 43.5456 13.7697C43.1114 13.3381 42.5905 12.9496 42.0261 12.6906C41.4182 12.4316 40.767 12.3021 40.0289 12.3021C39.2909 12.3021 38.5962 12.4316 37.9884 12.6906C37.3806 12.9496 36.8596 13.2949 36.4255 13.7697C35.9913 14.2014 35.6874 14.7625 35.4703 15.41C35.2533 16.0575 35.123 16.705 35.123 17.4388C35.123 18.1726 35.2533 18.8201 35.4703 19.4676C35.6874 20.0719 36.0347 20.6331 36.4255 21.1079C36.8596 21.5827 37.3806 21.928 37.9884 22.187C38.5962 22.446 39.2909 22.5755 40.0289 22.5755Z" fill="white"/>
<path d="M61.5195 24C60.5644 24 59.6527 23.8273 58.8278 23.5251C58.0029 23.223 57.2648 22.7482 56.657 22.187C56.0492 21.6259 55.5716 20.9352 55.1809 20.1151C54.8336 19.3381 54.6599 18.4316 54.6599 17.482C54.6599 16.5323 54.8336 15.6259 55.1809 14.8489C55.5282 14.0719 56.0058 13.3812 56.657 12.7769C57.2648 12.2158 58.0029 11.7841 58.8278 11.4388C59.6527 11.1367 60.5644 10.964 61.5195 10.964C62.0839 10.964 62.6483 11.0072 63.1259 11.1366C63.6035 11.2661 64.081 11.4388 64.5152 11.6546C64.9494 11.8705 65.2967 12.1295 65.644 12.4316C65.9913 12.7338 66.2952 13.0791 66.5557 13.4244L65.1664 14.1582C64.7757 13.6402 64.2547 13.2086 63.6035 12.8633C62.9522 12.5179 62.2576 12.3453 61.5195 12.3453C60.7815 12.3453 60.1302 12.4748 59.479 12.7338C58.8712 12.9928 58.3068 13.3381 57.8726 13.7697C57.3951 14.2014 57.0477 14.7625 56.7872 15.3669C56.5268 15.9712 56.3965 16.6618 56.3965 17.4388C56.3965 18.1726 56.5268 18.8633 56.7872 19.5108C57.0477 20.1582 57.3951 20.6762 57.8726 21.151C58.3502 21.5827 58.8712 21.9712 59.479 22.187C60.0868 22.446 60.7815 22.5755 61.5195 22.5755C62.2576 22.5755 62.9956 22.4028 63.6035 22.0575C64.2547 21.7122 64.7757 21.2805 65.1664 20.7194L66.5991 21.4532C66.0347 22.187 65.3401 22.7482 64.5152 23.223C63.6903 23.741 62.6917 24 61.5195 24Z" fill="white"/>
<path d="M82.7062 23.741L77.67 18.0863L76.3241 19.5107V23.741H74.6743V11.1798H76.3241V17.6546L82.1852 11.1798H84.2691L78.7119 17.1798L84.7467 23.7841H82.7062V23.741Z" fill="white"/>
<path d="M95.9045 23.741V12.5611H91.6932V11.1798H101.766V12.5611H97.5543V23.741H95.9045Z" fill="white"/>
<path d="M115.485 24C114.486 24 113.618 23.8273 112.793 23.5251C111.968 23.1798 111.273 22.7482 110.709 22.1438C110.145 21.5395 109.667 20.8921 109.363 20.0719C109.059 19.2949 108.886 18.4316 108.886 17.482C108.886 16.5323 109.059 15.7122 109.363 14.8921C109.667 14.1151 110.145 13.4244 110.709 12.8201C111.273 12.2158 111.968 11.7841 112.793 11.4388C113.618 11.0935 114.486 10.964 115.485 10.964C116.483 10.964 117.352 11.1367 118.177 11.4388C119.001 11.7841 119.696 12.2158 120.26 12.8201C120.825 13.4244 121.302 14.0719 121.606 14.8921C121.91 15.669 122.084 16.5323 122.084 17.482C122.084 18.4316 121.91 19.2518 121.606 20.0719C121.302 20.8489 120.825 21.5395 120.26 22.1438C119.696 22.7482 119.001 23.1798 118.177 23.5251C117.352 23.8273 116.44 24 115.485 24ZM115.485 22.5755C116.223 22.5755 116.917 22.446 117.482 22.187C118.09 21.928 118.611 21.5827 119.001 21.1079C119.436 20.6331 119.739 20.1151 120 19.4676C120.217 18.8633 120.347 18.1726 120.347 17.4388C120.347 16.705 120.217 16.0143 120 15.41C119.783 14.7625 119.436 14.2446 119.001 13.7697C118.567 13.3381 118.046 12.9496 117.482 12.6906C116.874 12.4316 116.223 12.3021 115.485 12.3021C114.747 12.3021 114.052 12.4316 113.444 12.6906C112.836 12.9496 112.315 13.2949 111.881 13.7697C111.447 14.2014 111.143 14.7625 110.926 15.41C110.709 16.0575 110.579 16.705 110.579 17.4388C110.579 18.1726 110.709 18.8201 110.926 19.4676C111.143 20.0719 111.491 20.6331 111.881 21.1079C112.315 21.5827 112.836 21.928 113.444 22.187C114.052 22.446 114.747 22.5755 115.485 22.5755Z" fill="white"/>
<path d="M140.405 23.741L137.496 13.5971L134.588 23.741H132.808L129.03 11.1798H130.854L133.806 21.6258L136.845 11.1798H138.234L141.274 21.6258L144.182 11.1798H146.006L142.229 23.741H140.405Z" fill="white"/>
<path d="M150.564 23.741H162.547V22.3597H150.955L150.564 23.741Z" fill="white"/>
<path d="M152.258 18.1727H162.547V16.7914H152.648L152.258 18.1727Z" fill="white"/>
<path d="M154.342 11.223L153.907 12.6043H162.547V11.223H154.342Z" fill="white"/>
<path d="M177.959 23.741L174.573 18.7338H171.925V23.741H170.275V11.1798H175.615C176.223 11.1798 176.787 11.2661 177.308 11.4388C177.829 11.6115 178.263 11.8705 178.611 12.2158C179.001 12.5611 179.262 12.9496 179.479 13.4244C179.696 13.8992 179.783 14.4172 179.783 14.9784C179.783 15.5395 179.696 16.0575 179.522 16.4892C179.349 16.9208 179.088 17.3093 178.784 17.6115C178.48 17.9136 178.09 18.1295 177.699 18.3453C177.265 18.5179 176.831 18.6474 176.396 18.6474L180 23.7841H177.959V23.741ZM175.398 17.3956C176.179 17.3956 176.831 17.1798 177.308 16.7482C177.786 16.3165 178.046 15.7122 178.046 15.0215C178.046 14.2877 177.786 13.7266 177.308 13.2949C176.831 12.8633 176.179 12.6474 175.398 12.6474H171.925V17.4388H175.398V17.3956Z" fill="white"/>
<path d="M162.504 5.61157H142.402V6.99286H162.504V5.61157Z" fill="white"/>
<path d="M162.547 0H128.9V1.38129H162.547V0Z" fill="white"/>
<path d="M126.382 0H120.912V1.38129H126.382V0Z" fill="white"/>
<path d="M139.928 5.61157H136.802V6.99286H139.928V5.61157Z" fill="white"/>
<path d="M118.437 0H115.311V1.38129H118.437V0Z" fill="white"/>
</svg>
