<svg width="168" height="39" viewBox="0 0 168 39" fill="none" xmlns="http://www.w3.org/2000/svg">
<path d="M59.0674 6.63796C59.0106 6.06505 58.7667 5.61997 58.3359 5.30273C57.905 4.9855 57.3202 4.82688 56.5816 4.82688C56.0797 4.82688 55.6559 4.8979 55.3103 5.03995C54.9646 5.17726 54.6995 5.36902 54.5148 5.61523C54.3349 5.86145 54.2449 6.1408 54.2449 6.4533C54.2355 6.71372 54.2899 6.94099 54.4083 7.13512C54.5314 7.32925 54.6995 7.49734 54.9126 7.63938C55.1256 7.77669 55.3718 7.89743 55.6512 8.0016C55.9305 8.10103 56.2288 8.18626 56.5461 8.25728L57.8529 8.56978C58.4874 8.71183 59.0698 8.90122 59.6001 9.13796C60.1304 9.3747 60.5896 9.6659 60.9779 10.0116C61.3662 10.3572 61.6668 10.7644 61.8799 11.2332C62.0977 11.7019 62.209 12.2393 62.2137 12.8454C62.209 13.7355 61.9817 14.5073 61.5319 15.1607C61.0868 15.8094 60.4429 16.3136 59.6001 16.6735C58.762 17.0286 57.7511 17.2062 56.5674 17.2062C55.3931 17.2062 54.3704 17.0262 53.4992 16.6664C52.6327 16.3065 51.9556 15.7739 51.468 15.0684C50.985 14.3582 50.7317 13.4798 50.708 12.4334H53.6839C53.717 12.9211 53.8567 13.3283 54.1029 13.655C54.3538 13.977 54.6876 14.2208 55.1043 14.3866C55.5257 14.5475 56.0016 14.628 56.5319 14.628C57.0527 14.628 57.5049 14.5523 57.8884 14.4008C58.2767 14.2493 58.5773 14.0386 58.7904 13.7687C59.0035 13.4988 59.11 13.1886 59.11 12.8383C59.11 12.5116 59.0129 12.2369 58.8188 12.0144C58.6294 11.7919 58.3501 11.6025 57.9807 11.4462C57.6162 11.29 57.1687 11.1479 56.6384 11.0201L55.0546 10.6224C53.8283 10.3241 52.86 9.85766 52.1498 9.22319C51.4395 8.58872 51.0868 7.73408 51.0915 6.65927C51.0868 5.77859 51.3212 5.00917 51.7947 4.35103C52.2729 3.69289 52.9287 3.17915 53.762 2.80984C54.5953 2.44052 55.5423 2.25586 56.6029 2.25586C57.6824 2.25586 58.6247 2.44052 59.4296 2.80984C60.2393 3.17915 60.869 3.69289 61.3188 4.35103C61.7686 5.00917 62.0006 5.77148 62.0148 6.63796H59.0674ZM70.228 6.09109V8.36381H63.6584V6.09109H70.228ZM65.1498 3.47745H68.1754V13.6479C68.1754 13.9273 68.218 14.1451 68.3033 14.3013C68.3885 14.4529 68.5069 14.5594 68.6584 14.6209C68.8146 14.6825 68.9945 14.7133 69.1981 14.7133C69.3402 14.7133 69.4822 14.7014 69.6243 14.6778C69.7663 14.6493 69.8752 14.628 69.951 14.6138L70.4268 16.8653C70.2753 16.9126 70.0622 16.9671 69.7876 17.0286C69.513 17.0949 69.1792 17.1351 68.7862 17.1493C68.057 17.1778 67.4178 17.0807 66.8686 16.8582C66.3241 16.6356 65.9003 16.29 65.5973 15.8212C65.2943 15.3525 65.1451 14.7606 65.1498 14.0457V3.47745ZM77.2533 17.2133C76.1311 17.2133 75.1652 16.986 74.3555 16.5314C73.5506 16.0722 72.9303 15.4235 72.4947 14.5854C72.0591 13.7426 71.8413 12.7459 71.8413 11.5954C71.8413 10.4732 72.0591 9.48834 72.4947 8.6408C72.9303 7.79327 73.5435 7.13275 74.3342 6.65927C75.1297 6.18578 76.0624 5.94904 77.1325 5.94904C77.8522 5.94904 78.5222 6.06505 79.1425 6.29705C79.7675 6.52433 80.312 6.8676 80.776 7.32688C81.2447 7.78616 81.6093 8.36381 81.8697 9.05984C82.1301 9.75113 82.2604 10.5608 82.2604 11.4888V12.3198H73.0487V10.4448H79.4123C79.4123 10.0092 79.3176 9.62328 79.1283 9.28711C78.9389 8.95094 78.6761 8.68815 78.3399 8.49876C78.0085 8.30463 77.6226 8.20756 77.1822 8.20756C76.723 8.20756 76.3158 8.3141 75.9606 8.52717C75.6103 8.7355 75.3356 9.01722 75.1368 9.37234C74.9379 9.72272 74.8361 10.1134 74.8314 10.5442V12.3269C74.8314 12.8667 74.9308 13.3331 75.1297 13.7261C75.3333 14.119 75.6197 14.4221 75.989 14.6351C76.3584 14.8482 76.7963 14.9547 77.303 14.9547C77.6391 14.9547 77.9469 14.9074 78.2263 14.8127C78.5056 14.718 78.7447 14.576 78.9436 14.3866C79.1425 14.1972 79.294 13.9652 79.3981 13.6905L82.1964 13.8752C82.0544 14.5475 81.7632 15.1347 81.3229 15.6366C80.8873 16.1337 80.3238 16.522 79.6325 16.8013C78.946 17.076 78.1529 17.2133 77.2533 17.2133ZM87.5456 17.2062C86.8496 17.2062 86.2293 17.0854 85.6848 16.8439C85.1403 16.5977 84.7094 16.2355 84.3922 15.7573C84.0797 15.2743 83.9234 14.673 83.9234 13.9533C83.9234 13.3473 84.0347 12.8383 84.2572 12.4263C84.4798 12.0144 84.7828 11.683 85.1663 11.432C85.5498 11.1811 85.9855 10.9917 86.4731 10.8638C86.9656 10.736 87.4817 10.646 88.0214 10.5939C88.6559 10.5277 89.1673 10.4661 89.5555 10.4093C89.9438 10.3477 90.2255 10.2578 90.4007 10.1394C90.5759 10.021 90.6635 9.84582 90.6635 9.61381V9.5712C90.6635 9.12139 90.5214 8.77338 90.2373 8.52717C89.958 8.28095 89.5603 8.15785 89.0442 8.15785C88.4997 8.15785 88.0664 8.27859 87.7444 8.52006C87.4225 8.75681 87.2094 9.0551 87.1052 9.41495L84.3069 9.18768C84.449 8.5248 84.7284 7.95188 85.145 7.46893C85.5617 6.98124 86.0991 6.60718 86.7572 6.34677C87.4201 6.08162 88.1872 5.94904 89.0584 5.94904C89.6644 5.94904 90.2445 6.02006 90.7984 6.16211C91.3571 6.30416 91.8519 6.52433 92.2828 6.82262C92.7184 7.12092 93.0617 7.50444 93.3126 7.97319C93.5636 8.4372 93.6891 8.99355 93.6891 9.64222V17.0002H90.8197V15.4874H90.7345C90.5593 15.8283 90.3249 16.129 90.0314 16.3894C89.7378 16.6451 89.3851 16.8463 88.9731 16.9931C88.5612 17.1351 88.0854 17.2062 87.5456 17.2062ZM88.4121 15.1181C88.8571 15.1181 89.2501 15.0305 89.591 14.8553C89.932 14.6754 90.1995 14.4339 90.3936 14.1309C90.5877 13.8279 90.6848 13.4846 90.6848 13.1011V11.9434C90.5901 12.0049 90.4599 12.0618 90.2942 12.1138C90.1332 12.1612 89.9509 12.2062 89.7473 12.2488C89.5437 12.2867 89.3401 12.3222 89.1365 12.3553C88.9329 12.3837 88.7482 12.4098 88.5825 12.4334C88.2274 12.4855 87.9173 12.5684 87.6521 12.682C87.387 12.7957 87.181 12.9495 87.0342 13.1437C86.8874 13.3331 86.8141 13.5698 86.8141 13.8539C86.8141 14.2658 86.9632 14.5807 87.2615 14.7985C87.5645 15.0116 87.948 15.1181 88.4121 15.1181ZM98.9778 13.861L98.9849 10.2317H99.4253L102.919 6.09109H106.392L101.698 11.5741H100.98L98.9778 13.861ZM96.2364 17.0002V2.45472H99.2619V17.0002H96.2364ZM103.054 17.0002L99.8443 12.2488L101.861 10.111L106.598 17.0002H103.054ZM111.102 10.6934V17.0002H108.077V2.45472H111.017V8.0158H111.145C111.391 7.37186 111.789 6.8676 112.338 6.50302C112.887 6.1337 113.576 5.94904 114.405 5.94904C115.162 5.94904 115.823 6.11476 116.386 6.4462C116.955 6.7729 117.395 7.24402 117.707 7.85955C118.025 8.47035 118.181 9.20188 118.176 10.0542V17.0002H115.151V10.5939C115.155 9.92158 114.985 9.39838 114.639 9.02433C114.298 8.65027 113.82 8.46325 113.205 8.46325C112.793 8.46325 112.428 8.55084 112.111 8.72603C111.798 8.90122 111.552 9.1569 111.372 9.49308C111.197 9.82452 111.107 10.2246 111.102 10.6934ZM125.686 17.2133C124.583 17.2133 123.629 16.9789 122.824 16.5101C122.024 16.0367 121.406 15.3785 120.97 14.5357C120.535 13.6882 120.317 12.7057 120.317 11.5883C120.317 10.4614 120.535 9.4765 120.97 8.6337C121.406 7.78616 122.024 7.12802 122.824 6.65927C123.629 6.18578 124.583 5.94904 125.686 5.94904C126.789 5.94904 127.741 6.18578 128.541 6.65927C129.346 7.12802 129.967 7.78616 130.402 8.6337C130.838 9.4765 131.056 10.4614 131.056 11.5883C131.056 12.7057 130.838 13.6882 130.402 14.5357C129.967 15.3785 129.346 16.0367 128.541 16.5101C127.741 16.9789 126.789 17.2133 125.686 17.2133ZM125.7 14.8695C126.202 14.8695 126.621 14.7275 126.958 14.4434C127.294 14.1546 127.547 13.7616 127.717 13.2644C127.893 12.7672 127.98 12.2014 127.98 11.567C127.98 10.9325 127.893 10.3667 127.717 9.8695C127.547 9.37234 127.294 8.97934 126.958 8.69052C126.621 8.40169 126.202 8.25728 125.7 8.25728C125.194 8.25728 124.768 8.40169 124.422 8.69052C124.081 8.97934 123.823 9.37234 123.648 9.8695C123.477 10.3667 123.392 10.9325 123.392 11.567C123.392 12.2014 123.477 12.7672 123.648 13.2644C123.823 13.7616 124.081 14.1546 124.422 14.4434C124.768 14.7275 125.194 14.8695 125.7 14.8695ZM140.219 12.3553V6.09109H143.244V17.0002H140.339V15.0187H140.226C139.98 15.6579 139.57 16.1716 138.997 16.5599C138.429 16.9481 137.735 17.1422 136.916 17.1422C136.187 17.1422 135.545 16.9765 134.991 16.6451C134.437 16.3136 134.004 15.8425 133.692 15.2317C133.384 14.6209 133.228 13.8894 133.223 13.0371V6.09109H136.248V12.4974C136.253 13.1413 136.426 13.6503 136.767 14.0243C137.108 14.3984 137.565 14.5854 138.138 14.5854C138.502 14.5854 138.843 14.5026 139.16 14.3368C139.478 14.1664 139.733 13.9154 139.927 13.584C140.126 13.2526 140.223 12.843 140.219 12.3553ZM154.941 9.20188L152.171 9.37234C152.124 9.13559 152.022 8.92253 151.866 8.73313C151.709 8.539 151.503 8.38512 151.248 8.27148C150.997 8.15311 150.696 8.09393 150.346 8.09393C149.877 8.09393 149.482 8.19336 149.16 8.39222C148.838 8.58635 148.677 8.84677 148.677 9.17347C148.677 9.43389 148.781 9.65406 148.989 9.83399C149.198 10.0139 149.555 10.1583 150.062 10.2672L152.036 10.665C153.097 10.8828 153.887 11.2332 154.408 11.7161C154.929 12.1991 155.19 12.8335 155.19 13.6195C155.19 14.3345 154.979 14.9618 154.557 15.5016C154.141 16.0414 153.568 16.4628 152.839 16.7658C152.114 17.0641 151.279 17.2133 150.332 17.2133C148.887 17.2133 147.737 16.9126 146.88 16.3113C146.028 15.7052 145.528 14.8814 145.381 13.8397L148.357 13.6834C148.447 14.1238 148.665 14.46 149.011 14.692C149.356 14.9192 149.799 15.0329 150.339 15.0329C150.869 15.0329 151.295 14.9311 151.617 14.7275C151.944 14.5191 152.11 14.2516 152.114 13.9249C152.11 13.6503 151.994 13.4254 151.766 13.2502C151.539 13.0703 151.189 12.933 150.715 12.8383L148.826 12.4618C147.761 12.2488 146.968 11.8795 146.447 11.3539C145.931 10.8283 145.673 10.1583 145.673 9.34393C145.673 8.64317 145.862 8.03948 146.241 7.53285C146.624 7.02622 147.162 6.63559 147.853 6.36097C148.549 6.08635 149.363 5.94904 150.296 5.94904C151.674 5.94904 152.758 6.24023 153.549 6.82262C154.344 7.40501 154.808 8.19809 154.941 9.20188ZM162.266 17.2133C161.144 17.2133 160.178 16.986 159.369 16.5314C158.564 16.0722 157.943 15.4235 157.508 14.5854C157.072 13.7426 156.854 12.7459 156.854 11.5954C156.854 10.4732 157.072 9.48834 157.508 8.6408C157.943 7.79327 158.557 7.13275 159.347 6.65927C160.143 6.18578 161.076 5.94904 162.146 5.94904C162.865 5.94904 163.535 6.06505 164.156 6.29705C164.781 6.52433 165.325 6.8676 165.789 7.32688C166.258 7.78616 166.622 8.36381 166.883 9.05984C167.143 9.75113 167.273 10.5608 167.273 11.4888V12.3198H158.062V10.4448H164.425C164.425 10.0092 164.331 9.62328 164.141 9.28711C163.952 8.95094 163.689 8.68815 163.353 8.49876C163.022 8.30463 162.636 8.20756 162.195 8.20756C161.736 8.20756 161.329 8.3141 160.974 8.52717C160.623 8.7355 160.349 9.01722 160.15 9.37234C159.951 9.72272 159.849 10.1134 159.844 10.5442V12.3269C159.844 12.8667 159.944 13.3331 160.143 13.7261C160.346 14.119 160.633 14.4221 161.002 14.6351C161.371 14.8482 161.809 14.9547 162.316 14.9547C162.652 14.9547 162.96 14.9074 163.239 14.8127C163.519 14.718 163.758 14.576 163.957 14.3866C164.156 14.1972 164.307 13.9652 164.411 13.6905L167.21 13.8752C167.067 14.5475 166.776 15.1347 166.336 15.6366C165.9 16.1337 165.337 16.522 164.646 16.8013C163.959 17.076 163.166 17.2133 162.266 17.2133ZM51.1768 37.0002V22.4547H60.8074V24.9903H54.252V28.4562H60.1682V30.9917H54.252V37.0002H51.1768ZM63.0192 37.0002V26.0911H66.0447V37.0002H63.0192ZM64.539 24.6849C64.0892 24.6849 63.7033 24.5357 63.3814 24.2374C63.0641 23.9344 62.9055 23.5722 62.9055 23.1508C62.9055 22.7341 63.0641 22.3766 63.3814 22.0783C63.7033 21.7753 64.0892 21.6238 64.539 21.6238C64.9889 21.6238 65.3724 21.7753 65.6896 22.0783C66.0116 22.3766 66.1726 22.7341 66.1726 23.1508C66.1726 23.5722 66.0116 23.9344 65.6896 24.2374C65.3724 24.5357 64.9889 24.6849 64.539 24.6849ZM71.6939 30.6934V37.0002H68.6684V26.0911H71.5519V28.0158H71.6797C71.9212 27.3814 72.3261 26.8795 72.8942 26.5101C73.4624 26.1361 74.1513 25.9491 74.961 25.9491C75.7186 25.9491 76.3791 26.1148 76.9425 26.4462C77.506 26.7777 77.944 27.2511 78.2565 27.8667C78.569 28.4775 78.7252 29.2066 78.7252 30.0542V37.0002H75.6996V30.5939C75.7044 29.9263 75.5339 29.4055 75.1883 29.0314C74.8426 28.6527 74.3668 28.4633 73.7607 28.4633C73.3535 28.4633 72.9937 28.5509 72.6812 28.7261C72.3734 28.9012 72.1319 29.1569 71.9567 29.4931C71.7863 29.8245 71.6987 30.2246 71.6939 30.6934ZM84.4206 37.2062C83.7246 37.2062 83.1043 37.0854 82.5598 36.8439C82.0153 36.5977 81.5844 36.2355 81.2672 35.7573C80.9547 35.2743 80.7984 34.673 80.7984 33.9533C80.7984 33.3473 80.9097 32.8383 81.1322 32.4263C81.3548 32.0144 81.6578 31.683 82.0413 31.432C82.4248 31.1811 82.8605 30.9917 83.3481 30.8638C83.8406 30.736 84.3567 30.646 84.8964 30.5939C85.5309 30.5277 86.0423 30.4661 86.4305 30.4093C86.8188 30.3477 87.1005 30.2578 87.2757 30.1394C87.4509 30.021 87.5385 29.8458 87.5385 29.6138V29.5712C87.5385 29.1214 87.3964 28.7734 87.1123 28.5272C86.833 28.281 86.4353 28.1579 85.9192 28.1579C85.3747 28.1579 84.9414 28.2786 84.6194 28.5201C84.2975 28.7568 84.0844 29.0551 83.9802 29.415L81.1819 29.1877C81.324 28.5248 81.6033 27.9519 82.02 27.4689C82.4367 26.9813 82.9741 26.6072 83.6322 26.3468C84.2951 26.0816 85.0622 25.9491 85.9334 25.9491C86.5394 25.9491 87.1194 26.0201 87.6734 26.1621C88.2321 26.3042 88.7269 26.5243 89.1578 26.8226C89.5934 27.1209 89.9367 27.5045 90.1876 27.9732C90.4386 28.4372 90.5641 28.9936 90.5641 29.6422V37.0002H87.6947V35.4874H87.6095C87.4343 35.8283 87.1999 36.129 86.9064 36.3894C86.6128 36.6451 86.2601 36.8463 85.8481 36.9931C85.4362 37.1351 84.9604 37.2062 84.4206 37.2062ZM85.2871 35.1181C85.7321 35.1181 86.1251 35.0305 86.466 34.8553C86.8069 34.6754 87.0745 34.4339 87.2686 34.1309C87.4627 33.8279 87.5598 33.4846 87.5598 33.1011V31.9434C87.4651 32.0049 87.3349 32.0618 87.1692 32.1138C87.0082 32.1612 86.8259 32.2062 86.6223 32.2488C86.4187 32.2867 86.2151 32.3222 86.0115 32.3553C85.8079 32.3837 85.6232 32.4098 85.4575 32.4334C85.1024 32.4855 84.7923 32.5684 84.5271 32.682C84.262 32.7957 84.056 32.9495 83.9092 33.1437C83.7624 33.3331 83.689 33.5698 83.689 33.8539C83.689 34.2658 83.8382 34.5807 84.1365 34.7985C84.4395 35.0116 84.823 35.1181 85.2871 35.1181ZM96.1369 30.6934V37.0002H93.1114V26.0911H95.9949V28.0158H96.1227C96.3642 27.3814 96.769 26.8795 97.3372 26.5101C97.9054 26.1361 98.5943 25.9491 99.404 25.9491C100.161 25.9491 100.822 26.1148 101.385 26.4462C101.949 26.7777 102.387 27.2511 102.699 27.8667C103.012 28.4775 103.168 29.2066 103.168 30.0542V37.0002H100.142V30.5939C100.147 29.9263 99.9769 29.4055 99.6312 29.0314C99.2856 28.6527 98.8097 28.4633 98.2037 28.4633C97.7965 28.4633 97.4366 28.5509 97.1241 28.7261C96.8164 28.9012 96.5749 29.1569 96.3997 29.4931C96.2293 29.8245 96.1417 30.2246 96.1369 30.6934ZM110.682 37.2133C109.564 37.2133 108.603 36.9765 107.798 36.503C106.998 36.0248 106.382 35.3619 105.951 34.5144C105.525 33.6669 105.312 32.6915 105.312 31.5883C105.312 30.4708 105.528 29.4907 105.959 28.6479C106.394 27.8004 107.012 27.1399 107.812 26.6664C108.612 26.1882 109.564 25.9491 110.667 25.9491C111.619 25.9491 112.452 26.1219 113.167 26.4675C113.882 26.8132 114.448 27.2985 114.865 27.9235C115.281 28.5485 115.511 29.2824 115.554 30.1252H112.699C112.618 29.5807 112.405 29.1427 112.059 28.8113C111.718 28.4751 111.271 28.307 110.717 28.307C110.248 28.307 109.839 28.4349 109.488 28.6905C109.143 28.9415 108.873 29.3084 108.679 29.7914C108.485 30.2743 108.388 30.8591 108.388 31.5457C108.388 32.2417 108.482 32.8335 108.672 33.3212C108.866 33.8089 109.138 34.1806 109.488 34.4363C109.839 34.692 110.248 34.8198 110.717 34.8198C111.063 34.8198 111.373 34.7488 111.647 34.6067C111.927 34.4647 112.156 34.2587 112.336 33.9888C112.521 33.7142 112.642 33.3851 112.699 33.0016H115.554C115.506 33.835 115.279 34.5689 114.872 35.2033C114.469 35.8331 113.913 36.3255 113.203 36.6806C112.493 37.0357 111.652 37.2133 110.682 37.2133ZM117.691 37.0002V26.0911H120.716V37.0002H117.691ZM119.211 24.6849C118.761 24.6849 118.375 24.5357 118.053 24.2374C117.736 23.9344 117.577 23.5722 117.577 23.1508C117.577 22.7341 117.736 22.3766 118.053 22.0783C118.375 21.7753 118.761 21.6238 119.211 21.6238C119.661 21.6238 120.044 21.7753 120.361 22.0783C120.683 22.3766 120.844 22.7341 120.844 23.1508C120.844 23.5722 120.683 23.9344 120.361 24.2374C120.044 24.5357 119.661 24.6849 119.211 24.6849ZM126.451 37.2062C125.755 37.2062 125.135 37.0854 124.59 36.8439C124.046 36.5977 123.615 36.2355 123.297 35.7573C122.985 35.2743 122.829 34.673 122.829 33.9533C122.829 33.3473 122.94 32.8383 123.163 32.4263C123.385 32.0144 123.688 31.683 124.072 31.432C124.455 31.1811 124.891 30.9917 125.378 30.8638C125.871 30.736 126.387 30.646 126.927 30.5939C127.561 30.5277 128.073 30.4661 128.461 30.4093C128.849 30.3477 129.131 30.2578 129.306 30.1394C129.481 30.021 129.569 29.8458 129.569 29.6138V29.5712C129.569 29.1214 129.427 28.7734 129.143 28.5272C128.863 28.281 128.466 28.1579 127.949 28.1579C127.405 28.1579 126.972 28.2786 126.65 28.5201C126.328 28.7568 126.115 29.0551 126.011 29.415L123.212 29.1877C123.354 28.5248 123.634 27.9519 124.05 27.4689C124.467 26.9813 125.004 26.6072 125.663 26.3468C126.325 26.0816 127.092 25.9491 127.964 25.9491C128.57 25.9491 129.15 26.0201 129.704 26.1621C130.262 26.3042 130.757 26.5243 131.188 26.8226C131.624 27.1209 131.967 27.5045 132.218 27.9732C132.469 28.4372 132.594 28.9936 132.594 29.6422V37.0002H129.725V35.4874H129.64C129.465 35.8283 129.23 36.129 128.937 36.3894C128.643 36.6451 128.29 36.8463 127.878 36.9931C127.466 37.1351 126.991 37.2062 126.451 37.2062ZM127.317 35.1181C127.762 35.1181 128.155 35.0305 128.496 34.8553C128.837 34.6754 129.105 34.4339 129.299 34.1309C129.493 33.8279 129.59 33.4846 129.59 33.1011V31.9434C129.495 32.0049 129.365 32.0618 129.199 32.1138C129.038 32.1612 128.856 32.2062 128.653 32.2488C128.449 32.2867 128.245 32.3222 128.042 32.3553C127.838 32.3837 127.654 32.4098 127.488 32.4334C127.133 32.4855 126.823 32.5684 126.557 32.682C126.292 32.7957 126.086 32.9495 125.939 33.1437C125.793 33.3331 125.719 33.5698 125.719 33.8539C125.719 34.2658 125.868 34.5807 126.167 34.7985C126.47 35.0116 126.853 35.1181 127.317 35.1181ZM138.167 22.4547V37.0002H135.142V22.4547H138.167Z" fill="white"/>
<mask id="mask0_1594_3579" style="mask-type:luminance" maskUnits="userSpaceOnUse" x="0" y="0" width="47" height="39">
<path d="M45.6884 1.21109L37.0997 9.79985C36.1327 10.7669 34.9522 11.4696 33.6676 11.8631C32.889 12.1021 32.0724 12.2257 31.2432 12.2257H15.2477C14.4185 12.2257 13.602 12.1021 12.8234 11.8631C11.5388 11.4696 10.3581 10.7669 9.39124 9.79985C6.52698 6.93553 3.66543 4.07403 0.802548 1.20971C0.535535 0.942761 0.267013 0.674303 0 0.407227C0.0604962 0.993322 0.14753 1.623 0.272673 2.2877C0.508746 3.55963 0.878451 4.96229 1.45184 6.43521C1.68226 7.02973 1.93248 7.59897 2.19666 8.14287C2.86715 9.52296 3.63166 10.7458 4.42722 11.8224C5.92535 13.8504 7.95763 15.3683 10.2527 16.2537C11.7622 16.8356 13.3841 17.1448 15.0425 17.1448H31.4484C33.1068 17.1448 34.7288 16.8356 36.2382 16.2537C38.5333 15.3683 40.5656 13.8504 42.0638 11.8224C42.8578 10.7471 43.6238 9.52296 44.2928 8.14425C44.5585 7.60035 44.8086 7.02973 45.0391 6.43521C45.6125 4.96229 45.9822 3.55963 46.2183 2.2877C46.3433 1.623 46.4305 0.993322 46.491 0.407227C46.2225 0.675686 45.9554 0.942761 45.6884 1.21109ZM1.7835 18.6478L7.43486 24.3005H16.3806L11.9084 28.7727L15.3869 32.2512L23.3376 24.3005H38.8776L44.5318 18.6478C42.6106 16.728 39.4961 16.7266 37.5748 18.6478L36.8426 19.3815H9.47281L8.73918 18.6478C7.77923 17.6879 6.51994 17.2072 5.26203 17.2072C4.00275 17.2072 2.74346 17.6879 1.7835 18.6478ZM24.577 26.5366L17.0482 33.9125L20.2919 37.1562C21.8743 38.7386 24.44 38.7386 26.0224 37.1562L36.6419 26.5366H24.577Z" fill="white"/>
</mask>
<g mask="url(#mask0_1594_3579)">
<path d="M46.5788 0.416504H-0.0878906V38.3332H46.5788V0.416504Z" fill="white"/>
</g>
</svg>
