<svg width="180" height="47" viewBox="0 0 180 47" fill="none" xmlns="http://www.w3.org/2000/svg">
<g clip-path="url(#clip0_1589_3473)">
<path fill-rule="evenodd" clip-rule="evenodd" d="M90.495 22.5309C90.495 20.055 88.8651 18.3218 86.678 18.3218C84.4909 18.3218 82.8609 20.055 82.8609 22.5309C82.8609 25.0068 84.4909 26.74 86.678 26.74C88.8444 26.74 90.495 24.9862 90.495 22.5309ZM79.6216 22.5309C79.6216 18.5075 82.6959 15.4126 86.678 15.4126C90.6601 15.4126 93.7344 18.5075 93.7344 22.5309C93.7344 26.5543 90.6601 29.6492 86.678 29.6492C82.6959 29.6492 79.6216 26.5543 79.6216 22.5309Z" fill="white"/>
<path fill-rule="evenodd" clip-rule="evenodd" d="M98.212 22.4898C98.212 25.007 99.8832 26.7401 102.008 26.7401C104.134 26.7401 105.805 25.0276 105.805 22.4898C105.805 19.9519 104.134 18.2394 102.008 18.2394C99.8832 18.26 98.212 19.9726 98.212 22.4898ZM98.3151 27.8336H98.2532V34.4774H95.1377V15.5984H98.2532V17.1665H98.3151C99.2023 16.2793 100.543 15.3508 102.627 15.3508C106.217 15.3508 109.024 18.2188 109.024 22.5104C109.024 26.802 106.217 29.67 102.627 29.67C100.564 29.6493 99.2023 28.7208 98.3151 27.8336Z" fill="white"/>
<path fill-rule="evenodd" clip-rule="evenodd" d="M113.666 22.4898C113.666 25.007 115.337 26.7401 117.462 26.7401C119.587 26.7401 121.258 25.0276 121.258 22.4898C121.258 19.9519 119.587 18.2394 117.462 18.2394C115.337 18.2394 113.666 19.9726 113.666 22.4898ZM113.769 27.8336H113.707V34.4774H110.591V15.5984H113.707V17.1665H113.769C114.656 16.2793 115.997 15.3508 118.081 15.3508C121.671 15.3508 124.477 18.2188 124.477 22.5104C124.477 26.802 121.671 29.67 118.081 29.67C116.018 29.6493 114.656 28.7208 113.769 27.8336Z" fill="white"/>
<path fill-rule="evenodd" clip-rule="evenodd" d="M128.955 21.1072H135.722C135.392 19.3741 133.989 18.1155 132.339 18.1155C130.688 18.1155 129.285 19.3741 128.955 21.1072ZM135.619 24.9656L138.879 25.3989C137.579 28.5557 135.31 29.6492 132.524 29.6492C128.542 29.6492 125.612 26.7812 125.612 22.4896C125.612 18.198 128.542 15.3301 132.297 15.3301C136.052 15.3301 139.189 17.9298 139.189 23.5006H128.996C129.223 25.7083 130.791 26.8844 132.566 26.8844C133.989 26.8844 135.083 26.1623 135.619 24.9656Z" fill="white"/>
<path fill-rule="evenodd" clip-rule="evenodd" d="M143.79 15.5983V17.1664H143.852C144.553 16.2792 145.564 15.4951 147.421 15.4951C147.648 15.4951 148.123 15.557 148.432 15.6602V18.7757C148.019 18.6726 147.462 18.6107 147.112 18.6107C144.78 18.6107 143.81 19.6217 143.81 21.8706V29.3809H140.695V15.5983H143.79Z" fill="white"/>
<path fill-rule="evenodd" clip-rule="evenodd" d="M74.7316 24.6767C74.1539 25.9972 73.0397 26.7812 71.5748 26.8019C70.2543 26.7812 69.202 26.121 68.583 25.0068C68.4592 24.7592 68.3354 24.4704 68.2529 24.1609H68.2323C68.0879 23.6657 68.0053 23.1086 68.0053 22.4896C68.0053 21.8706 68.0879 21.3136 68.2323 20.8184H68.2529C68.3354 20.5089 68.4592 20.2407 68.583 19.9724C69.202 18.8583 70.2543 18.198 71.5748 18.1774C73.0191 18.198 74.1539 19.0027 74.7316 20.3232C74.7935 20.4676 74.8554 20.6327 74.8967 20.8184C74.8967 20.839 74.8967 20.8596 74.9173 20.8596H78.2185C78.136 20.4057 78.0122 19.9518 77.8471 19.5392C76.8774 16.9807 74.6284 15.3713 71.7192 15.3713H71.4304C68.8719 15.3713 66.8293 16.6299 65.7151 18.7138C65.1167 19.7867 64.7866 21.066 64.7866 22.5309C64.7866 23.9958 65.1167 25.2751 65.7151 26.348C66.8293 28.4319 68.8719 29.6905 71.4304 29.6905H71.7192C74.6284 29.6905 76.8568 28.0605 77.8265 25.4814C77.9297 25.2338 78.0122 24.9656 78.0741 24.718H74.7316V24.6767Z" fill="white"/>
<path fill-rule="evenodd" clip-rule="evenodd" d="M146.142 27.5241C146.142 26.4512 147.111 25.4402 148.226 25.4402C149.34 25.4402 150.309 26.4512 150.309 27.5241C150.309 28.597 149.319 29.608 148.226 29.608C147.132 29.608 146.142 28.6176 146.142 27.5241Z" fill="white"/>
<path fill-rule="evenodd" clip-rule="evenodd" d="M176.781 22.5309C176.781 20.055 175.151 18.3218 172.964 18.3218C170.777 18.3218 169.147 20.055 169.147 22.5309C169.147 25.0068 170.777 26.74 172.964 26.74C175.151 26.74 176.781 24.9862 176.781 22.5309ZM165.887 22.5309C165.887 18.5075 168.961 15.4126 172.944 15.4126C176.926 15.4126 180 18.5075 180 22.5309C180 26.5543 176.926 29.6492 172.944 29.6492C168.961 29.6492 165.887 26.5543 165.887 22.5309Z" fill="white"/>
<path fill-rule="evenodd" clip-rule="evenodd" d="M160.915 24.6767C160.337 25.9972 159.223 26.7812 157.758 26.8019C156.437 26.7812 155.385 26.121 154.766 25.0068C154.642 24.7592 154.519 24.4704 154.436 24.1609H154.415C154.271 23.6657 154.188 23.1086 154.188 22.4896C154.188 21.8706 154.271 21.3136 154.415 20.8184H154.436C154.519 20.5089 154.642 20.2407 154.766 19.9724C155.385 18.8583 156.437 18.198 157.758 18.1774C159.202 18.198 160.337 19.0027 160.915 20.3232C160.977 20.4676 161.039 20.6327 161.08 20.8184C161.08 20.839 161.08 20.8596 161.1 20.8596H164.402C164.319 20.4057 164.195 19.9518 164.03 19.5392C163.04 16.9807 160.812 15.3713 157.902 15.3713H157.613C155.055 15.3713 153.012 16.6299 151.898 18.7138C151.3 19.7867 150.97 21.066 150.97 22.5309C150.97 23.9958 151.3 25.2751 151.898 26.348C153.012 28.4319 155.055 29.6905 157.613 29.6905H157.902C160.812 29.6905 163.04 28.0605 164.01 25.4814C164.113 25.2338 164.195 24.9656 164.257 24.718H160.915V24.6767Z" fill="white"/>
<path fill-rule="evenodd" clip-rule="evenodd" d="M43.4113 36.7675C41.2036 39.2641 38.7483 40.5433 37.077 41.1829C32.414 42.9367 27.6891 42.8748 23.0674 40.9766C18.3425 39.0371 14.1128 35.0138 12.0495 30.4952C11.121 28.4732 10.6259 26.348 10.564 24.1816C10.5433 23.7276 10.5433 23.2118 10.5433 23.1087V22.4278C10.6052 19.3329 11.8432 16.3411 13.989 14.0303C14.9587 12.9986 16.0729 12.1939 17.3521 11.6369C18.6107 11.0798 19.9931 10.7909 21.4787 10.7497C20.9629 11.1623 20.4883 11.5956 20.0344 12.0908C17.4553 14.8556 16.0316 18.652 16.0316 22.7992C16.0316 26.9464 17.4553 30.7428 20.0344 33.5076C21.5199 35.0963 23.2944 36.2723 25.3164 36.9739C26.74 37.469 28.2875 37.7166 29.8968 37.7166C32.5997 37.7166 36.4993 36.9945 39.6974 33.5282C40.7909 32.3521 41.6781 30.9697 42.3384 29.4429H47.6204C46.7125 32.1871 45.2889 34.7043 43.4113 36.7675ZM8.21183 36.7675C4.78679 33.1155 2.88858 28.1431 2.88858 22.7579C2.88858 17.3728 4.78679 12.359 8.21183 8.66575C11.6781 4.93122 16.4856 2.88858 21.7056 2.88858C23.0055 2.88858 24.3054 3.01238 25.5433 3.25997C32.1458 4.6011 37.3453 9.44979 39.4498 16.1142H34.1678C33.5076 14.5873 32.6204 13.2256 31.5268 12.0289C30.0619 10.4402 28.3081 9.28473 26.3067 8.58322C24.8831 8.08803 23.3356 7.84044 21.7263 7.84044C19.7455 7.84044 17.8886 8.21183 16.1761 8.97524C14.5461 9.69739 13.1018 10.729 11.8638 12.0495C11.5543 12.3796 11.2655 12.7098 10.9972 13.0605C9.2641 14.9794 8.14993 17.5172 7.77854 20.6534C7.69601 21.2105 7.65474 21.7675 7.65474 22.3246V22.7579V22.9023V22.9849V23.0261C7.65474 23.3769 7.65475 23.7276 7.67538 24.0578V24.2022C7.73728 26.7607 8.31499 29.2779 9.40853 31.6506C11.3686 35.9422 15.0206 39.8212 19.271 42.2765C14.9794 41.7813 11.121 39.8624 8.21183 36.7675ZM41.7607 7.09766C44.5667 9.44979 46.5062 12.5447 47.4553 16.1348H42.4415C40.9147 10.5433 37.5103 5.98349 32.9505 3.15681C36.2517 3.65199 39.2641 4.99312 41.7607 7.09766ZM31.5062 33.4869C32.5997 32.3109 33.4869 30.9285 34.1472 29.4016H39.099C38.6657 30.1857 38.1499 30.8872 37.5516 31.5268C35.1376 34.1265 32.2077 34.7455 30.1032 34.7868C30.5983 34.4154 31.0729 33.9615 31.5062 33.4869ZM50.9422 26.5337H32.1458L31.795 27.5034C31.238 29.0509 30.4333 30.4127 29.381 31.5475C28.3287 32.6823 27.1114 33.5282 25.729 34.0646C24.3466 33.5076 23.1293 32.6616 22.0977 31.5475C20.0138 29.3191 18.879 26.2036 18.879 22.7992C18.879 19.3948 20.0138 16.2999 22.0977 14.0509C23.0674 13.0193 24.1816 12.2146 25.4608 11.6575C25.564 11.6162 25.6878 11.5543 25.7909 11.5131C27.1527 12.0702 28.3494 12.8955 29.381 14.0096C30.4333 15.1444 31.238 16.5062 31.795 18.0536L32.1458 19.0234H50.9629C50.9629 13.3494 47.3521 8.0055 43.6382 4.88996C39.8212 1.69188 35.055 0.0206327 29.8556 0.0206327C28.4938 0.0206327 27.1527 0.144429 25.8322 0.392022C24.4911 0.144429 23.1087 0 21.7056 0C15.6809 0 10.1307 2.37276 6.10729 6.70564C2.16644 10.9354 0 16.63 0 22.7579C0 28.8858 2.16644 34.5598 6.10729 38.7276C10.11 42.978 15.6396 45.3301 21.685 45.3301C23.0674 45.3301 25.0894 45.3301 26.5956 45C27.8336 45.227 29.0715 45.3301 30.3095 45.3301C32.9092 45.3301 35.4883 44.8349 38.088 43.8652C40.0688 43.1224 42.9574 41.6162 45.5364 38.6864L45.5571 38.6657C48.1568 35.8391 50.6327 31.63 50.9422 26.5337Z" fill="white"/>
</g>
<defs>
<clipPath id="clip0_1589_3473">
<rect width="180" height="46.5268" fill="white"/>
</clipPath>
</defs>
</svg>
