<svg width="180" height="52" viewBox="0 0 180 52" fill="none" xmlns="http://www.w3.org/2000/svg">
<g clip-path="url(#clip0_543_69)">
<path d="M76.1712 45.2747C71.1524 45.3592 67.1886 43.2139 66.8089 38.502C66.808 38.463 66.815 38.4243 66.8295 38.3881C66.8441 38.3519 66.8658 38.319 66.8934 38.2915C66.921 38.264 66.954 38.2424 66.9902 38.228C67.0264 38.2135 67.0652 38.2066 67.1042 38.2077H70.3109C70.4798 38.2077 70.6062 38.3336 70.6487 38.502C71.028 41.2365 73.2208 42.4998 76.2571 42.4998C79.7996 42.4998 82.2453 40.3964 82.2453 35.5162V33.0765C80.8535 35.4752 78.5343 36.9044 75.499 36.9044C69.4264 36.9044 66.2217 32.3194 66.2217 26.1354C66.2217 19.9933 69.5109 15.0295 75.3726 15.0295C78.4089 15.0295 80.7281 16.3333 82.1623 18.7315L82.0354 15.6602C82.0345 15.6212 82.0415 15.5825 82.0561 15.5463C82.0706 15.5101 82.0924 15.4772 82.12 15.4497C82.1476 15.4222 82.1805 15.4006 82.2167 15.3861C82.253 15.3717 82.2917 15.3648 82.3307 15.3659H85.5789C85.6179 15.3648 85.6567 15.3717 85.6929 15.3861C85.7291 15.4006 85.7621 15.4222 85.7897 15.4497C85.8173 15.4772 85.839 15.5101 85.8536 15.5463C85.8681 15.5825 85.8751 15.6212 85.8743 15.6602L85.7898 24.0315L85.8318 35.5586C85.8703 41.7847 82.3697 45.2747 76.1712 45.2747ZM76.3396 34.1694C79.8821 34.1694 82.2013 31.6448 82.2433 26.3023C82.2858 21.1282 80.2614 18.0154 76.6769 17.7625H75.9578C72.0784 17.889 70.0965 21.0857 70.0965 26.0079C70.0985 31.2255 72.2069 34.2124 76.3396 34.1704V34.1694Z" fill="white"/>
<path d="M104.745 37.0293C104.706 37.0303 104.667 37.0233 104.631 37.0089C104.595 36.9945 104.562 36.9728 104.534 36.9453C104.507 36.9178 104.485 36.885 104.471 36.8488C104.456 36.8127 104.449 36.7739 104.45 36.735L104.534 33.5368C103.058 35.9769 100.736 37.4496 97.5758 37.4496C91.714 37.4496 88.5933 32.5273 88.5933 26.2593C88.5933 19.9913 91.9249 14.9431 97.6602 14.9431C100.739 14.9431 103.057 16.2474 104.492 18.6451L104.407 15.6582C104.407 15.6192 104.414 15.5805 104.428 15.5443C104.443 15.5081 104.464 15.4753 104.492 15.4477C104.52 15.4202 104.553 15.3986 104.589 15.3842C104.625 15.3698 104.664 15.3629 104.703 15.3639H107.99C108.029 15.3629 108.068 15.3698 108.104 15.3842C108.14 15.3986 108.173 15.4202 108.201 15.4477C108.228 15.4753 108.25 15.5081 108.265 15.5443C108.279 15.5805 108.286 15.6192 108.285 15.6582L108.159 26.007L108.29 36.7365C108.291 36.7758 108.283 36.8147 108.268 36.8511C108.253 36.8874 108.231 36.9202 108.203 36.9477C108.175 36.9751 108.142 36.9965 108.105 37.0105C108.068 37.0246 108.029 37.031 107.99 37.0293H104.745ZM98.5482 34.6307C102.301 34.6307 104.579 31.8542 104.621 26.3853C104.663 21.1267 102.639 18.0139 99.0544 17.7611H98.3373C94.3735 17.8875 92.5181 21.2091 92.5181 25.9645C92.5156 31.1411 94.455 34.6307 98.5452 34.6307H98.5482Z" fill="white"/>
<path d="M112.241 37.0295C112.202 37.0305 112.164 37.0235 112.127 37.0091C112.091 36.9946 112.058 36.973 112.031 36.9455C112.003 36.9179 111.982 36.8851 111.967 36.849C111.952 36.8128 111.945 36.7741 111.946 36.7352L112.073 22.1378L111.946 7.87671C111.945 7.83777 111.952 7.79906 111.967 7.76291C111.982 7.72677 112.003 7.69394 112.031 7.66642C112.058 7.6389 112.091 7.61727 112.127 7.60282C112.164 7.58837 112.202 7.58142 112.241 7.58237H115.489C115.528 7.58135 115.567 7.58825 115.603 7.60267C115.64 7.61709 115.673 7.63871 115.7 7.66624C115.728 7.69376 115.75 7.72661 115.764 7.76279C115.779 7.79897 115.786 7.83773 115.785 7.87671L115.658 22.0958L115.785 36.7377C115.786 36.7767 115.779 36.8154 115.764 36.8516C115.75 36.8878 115.728 36.9206 115.7 36.9482C115.673 36.9757 115.64 36.9973 115.603 37.0117C115.567 37.0261 115.528 37.033 115.489 37.032L112.241 37.0295Z" fill="white"/>
<path d="M134.684 37.0293C134.645 37.0303 134.606 37.0233 134.57 37.0089C134.534 36.9945 134.501 36.9728 134.474 36.9453C134.446 36.9178 134.424 36.885 134.41 36.8488C134.395 36.8127 134.388 36.774 134.389 36.735L134.473 33.5368C132.998 35.9769 130.678 37.4496 127.515 37.4496C121.653 37.4496 118.533 32.5273 118.533 26.2593C118.533 19.9913 121.864 14.9431 127.6 14.9431C130.678 14.9431 132.997 16.2474 134.431 18.6451L134.347 15.6582C134.346 15.6192 134.353 15.5805 134.367 15.5443C134.382 15.5081 134.404 15.4753 134.431 15.4477C134.459 15.4202 134.492 15.3986 134.528 15.3842C134.564 15.3698 134.603 15.3629 134.642 15.3639H137.931C137.97 15.3629 138.009 15.3698 138.045 15.3842C138.082 15.3986 138.114 15.4202 138.142 15.4477C138.17 15.4753 138.191 15.5081 138.206 15.5443C138.221 15.5805 138.228 15.6192 138.227 15.6582L138.1 26.007L138.227 36.7345C138.227 36.7735 138.22 36.8122 138.206 36.8483C138.191 36.8845 138.17 36.9173 138.142 36.9448C138.114 36.9723 138.081 36.994 138.045 37.0084C138.009 37.0228 137.97 37.0298 137.931 37.0288L134.684 37.0293ZM128.488 34.6307C132.24 34.6307 134.518 31.8542 134.56 26.3853C134.602 21.1267 132.578 18.0139 128.994 17.7611H128.277C124.312 17.8875 122.457 21.2091 122.457 25.9645C122.455 31.1411 124.394 34.6307 128.485 34.6307H128.488Z" fill="white"/>
<path d="M155.469 37.0294C155.3 37.0294 155.089 36.9449 155.005 36.7795L149.608 27.9454L144.209 36.7795C144.125 36.9474 143.914 37.0294 143.745 37.0294H140.33C140.3 37.0303 140.271 37.0229 140.246 37.0079C140.22 36.9929 140.2 36.971 140.187 36.9447C140.173 36.9185 140.168 36.889 140.171 36.8597C140.174 36.8304 140.185 36.8026 140.203 36.7795L147.246 25.5472L140.793 15.6183C140.774 15.5952 140.762 15.5671 140.759 15.5374C140.756 15.5077 140.761 15.4777 140.774 15.451C140.788 15.4243 140.809 15.402 140.835 15.3869C140.86 15.3718 140.89 15.3645 140.92 15.3659H144.673C144.842 15.3659 145.053 15.4498 145.137 15.6183L150.029 23.5688L154.752 15.6183C154.804 15.5426 154.873 15.4803 154.954 15.4365C155.034 15.3926 155.124 15.3684 155.216 15.3659H158.505C158.535 15.3645 158.564 15.3718 158.59 15.3869C158.616 15.402 158.637 15.4243 158.65 15.451C158.664 15.4777 158.669 15.5077 158.666 15.5374C158.662 15.5671 158.65 15.5952 158.631 15.6183L152.39 25.6727L159.349 36.7795C159.367 36.8026 159.378 36.8304 159.381 36.8597C159.384 36.889 159.378 36.9185 159.365 36.9447C159.352 36.971 159.331 36.9929 159.306 37.0079C159.281 37.0229 159.251 37.0303 159.222 37.0294H155.469Z" fill="white"/>
<path d="M170.072 43.8876C170.048 43.9709 169.999 44.0445 169.93 44.0975C169.862 44.1506 169.778 44.1804 169.692 44.1825H166.613C166.579 44.181 166.544 44.1716 166.514 44.155C166.483 44.1384 166.456 44.1149 166.436 44.0865C166.416 44.0581 166.402 44.0254 166.396 43.9909C166.391 43.9565 166.393 43.9211 166.403 43.8876L168.764 37.0729L160.246 15.6603C160.161 15.4919 160.246 15.366 160.414 15.366H164.167C164.254 15.368 164.337 15.3977 164.406 15.4507C164.474 15.5037 164.524 15.5771 164.547 15.6603L170.746 32.0667L175.975 15.6603C175.999 15.5772 176.048 15.5038 176.117 15.4508C176.185 15.3979 176.268 15.3681 176.355 15.366H179.729C179.897 15.366 179.982 15.4919 179.939 15.6603L170.072 43.8876Z" fill="white"/>
<path d="M7.63321 7.58329H44.2494V44.1969C48.9343 39.512 51.8327 33.0406 51.8327 25.8916C51.8327 11.5936 40.2406 0 25.9415 0C11.6425 0 0.0499268 11.5936 0.0499268 25.8916C0.0499268 33.0376 2.94832 39.5061 7.63321 44.1904V7.58329Z" fill="white"/>
<path d="M7.6418 44.1995H7.6333V51.5224H44.2495V44.1995H44.247H7.6418Z" fill="white"/>
</g>
<defs>
<clipPath id="clip0_543_69">
<rect width="180" height="51.5224" fill="white"/>
</clipPath>
</defs>
</svg>
