<svg width="180" height="27" viewBox="0 0 180 27" fill="none" xmlns="http://www.w3.org/2000/svg">
<path d="M17.5503 13.2727C17.5503 15.6349 15.6351 17.55 13.2728 17.55C10.9106 17.55 8.99548 15.6349 8.99548 13.2727C8.99548 10.9104 10.9106 8.99533 13.2728 8.99533C15.6351 8.99533 17.5503 10.9104 17.5503 13.2727Z" fill="white"/>
<path fill-rule="evenodd" clip-rule="evenodd" d="M13.2644 1.93205C14.5035 1.93205 15.6399 1.49112 16.5248 0.75755C17.4589 -0.016718 18.9607 -0.349877 19.8271 0.499484C21.9116 2.54232 23.9719 4.61287 26.0161 6.6961C26.8683 7.56467 26.5374 9.07478 25.7631 10.0136C25.0344 10.8972 24.5966 12.0296 24.5966 13.2642C24.5966 14.5051 25.0387 15.6428 25.7741 16.5283C26.5517 17.4645 26.8875 18.9734 26.0359 19.8428C23.9938 21.9277 21.9278 23.9935 19.8429 26.0357C18.9736 26.8871 17.4646 26.5513 16.5285 25.7738C15.6429 25.0386 14.5052 24.5964 13.2644 24.5964C12.0297 24.5964 10.8974 25.0341 10.0138 25.7627C9.07498 26.537 7.56467 26.8679 6.6962 26.0157C4.61297 23.9715 2.54243 21.9113 0.499476 19.827C-0.349816 18.9606 -0.0168162 17.4588 0.757621 16.5247C1.49113 15.6397 1.93207 14.5034 1.93207 13.2642C1.93207 12.0313 1.49547 10.9001 0.76865 10.0171C-0.00261487 9.08045 -0.330772 7.5775 0.519196 6.71181C2.56414 4.62948 4.62948 2.56404 6.71191 0.519284C7.5775 -0.330833 9.08045 -0.00259667 10.0173 0.768569C10.9003 1.49555 12.0314 1.93205 13.2644 1.93205ZM15.686 4.47792C14.3549 3.14692 12.1971 3.14692 10.8661 4.47792L4.46539 10.8786C3.13442 12.2095 3.13442 14.3674 4.46539 15.6984L10.8661 22.099C12.1971 23.4299 14.3549 23.4299 15.686 22.099L22.0867 15.6984C23.4177 14.3674 23.4177 12.2095 22.0867 10.8786L15.686 4.47792Z" fill="white"/>
<path d="M95.6884 10.3033H97.8384V19.4595H95.6884V10.3033Z" fill="white"/>
<path d="M96.7594 8.9904C96.4252 8.9904 96.1428 8.87524 95.9121 8.64482C95.6824 8.4145 95.567 8.13814 95.567 7.81563C95.567 7.48735 95.6824 7.21099 95.9121 6.98643C96.1428 6.75601 96.4252 6.64085 96.7594 6.64085C97.0985 6.64085 97.3839 6.75601 97.6146 6.98643C97.8444 7.21099 97.9597 7.48735 97.9597 7.81563C97.9597 8.13814 97.8444 8.4145 97.6146 8.64482C97.3839 8.87524 97.0985 8.9904 96.7594 8.9904Z" fill="white"/>
<path d="M33.8247 6.99493V19.4595H35.8287V10.5884H35.8998L39.4912 19.4595H41.0028L44.5944 10.5884H44.6654V19.4595H46.6693V6.99493H44.0952L40.2773 16.5226H40.2168L36.3988 6.99493H33.8247Z" fill="white"/>
<path fill-rule="evenodd" clip-rule="evenodd" d="M50.7203 19.0708C51.3826 19.4509 52.1629 19.6409 53.0612 19.6409C53.9596 19.6409 54.7398 19.4509 55.4021 19.0708C56.0644 18.6907 56.5768 18.1465 56.9396 17.4382C57.3082 16.7241 57.4925 15.8718 57.4925 14.8815V14.8641C57.4925 13.8794 57.3082 13.0329 56.9396 12.3246C56.5711 11.6163 56.0528 11.0721 55.3849 10.692C54.7225 10.3062 53.9452 10.1132 53.0526 10.1132C52.1657 10.1132 51.3911 10.3062 50.7289 10.692C50.0667 11.0721 49.5513 11.6192 49.1827 12.3332C48.8142 13.0416 48.6299 13.8852 48.6299 14.8641V14.8815C48.6299 15.8661 48.8113 16.7156 49.1741 17.4296C49.5426 18.1379 50.058 18.6849 50.7203 19.0708ZM54.2532 17.5505C53.9192 17.7866 53.5248 17.9047 53.0698 17.9047C52.6149 17.9047 52.2175 17.7866 51.8778 17.5505C51.5438 17.3144 51.2817 16.9717 51.0917 16.5226C50.9074 16.0677 50.8153 15.5206 50.8153 14.8815V14.8641C50.8153 14.2307 50.9074 13.6894 51.0917 13.2402C51.2817 12.7911 51.5438 12.4484 51.8778 12.2123C52.2175 11.9762 52.6092 11.8581 53.0526 11.8581C53.5075 11.8581 53.902 11.9762 54.2359 12.2123C54.5757 12.4484 54.8377 12.7911 55.0221 13.2402C55.2063 13.6894 55.2984 14.2307 55.2984 14.8641V14.8815C55.2984 15.5206 55.2063 16.0677 55.0221 16.5226C54.8435 16.9717 54.5873 17.3144 54.2532 17.5505Z" fill="white"/>
<path d="M62.3465 19.6409C61.6727 19.6409 61.0998 19.5055 60.6275 19.2348C60.1611 18.9585 59.804 18.564 59.5565 18.0515C59.3089 17.539 59.1851 16.9314 59.1851 16.2289V10.3033H61.3273V15.797C61.3273 16.4477 61.4798 16.9516 61.785 17.3086C62.0902 17.6599 62.551 17.8355 63.1671 17.8355C63.576 17.8355 63.9302 17.7434 64.2296 17.5591C64.5348 17.3691 64.7709 17.1071 64.9379 16.7731C65.105 16.4391 65.1884 16.0503 65.1884 15.607V10.3033H67.3393V19.4595H65.1884V18.0256H65.1452C64.9092 18.515 64.5578 18.9067 64.0914 19.2003C63.625 19.494 63.0433 19.6409 62.3465 19.6409Z" fill="white"/>
<path d="M71.6062 10.3033H69.4639V19.4595H71.6062V14.1472C71.6062 13.7038 71.6896 13.3179 71.8567 12.9897C72.0236 12.6557 72.2597 12.3966 72.5649 12.2123C72.8701 12.0222 73.2272 11.9273 73.6361 11.9273C74.2465 11.9273 74.7043 12.1058 75.0095 12.4628C75.3147 12.814 75.4673 13.3151 75.4673 13.9658V19.4595H77.6182V13.5339C77.6182 12.4743 77.3418 11.6394 76.789 11.029C76.2418 10.4184 75.4644 10.1132 74.4566 10.1132C73.7657 10.1132 73.184 10.2601 72.7118 10.5538C72.2453 10.8475 71.8941 11.242 71.658 11.7372H71.6062V10.3033Z" fill="white"/>
<path d="M83.0944 19.6409C82.1442 19.6409 81.4359 19.4336 80.9694 19.019C80.5088 18.6044 80.2784 17.9248 80.2784 16.9804V11.9618H78.9827V10.3033H80.2784V7.9797H82.4638V10.3033H84.1655V11.9618H82.4638V16.8077C82.4638 17.2511 82.5617 17.5592 82.7575 17.7319C82.9591 17.8989 83.2527 17.9824 83.6386 17.9824C83.748 17.9824 83.8431 17.9795 83.9236 17.9738C84.01 17.9622 84.0907 17.9536 84.1655 17.9478V19.5631C84.0388 19.5804 83.8833 19.5978 83.6991 19.615C83.5206 19.6323 83.319 19.6409 83.0944 19.6409Z" fill="white"/>
<path fill-rule="evenodd" clip-rule="evenodd" d="M86.9725 19.2695C87.439 19.4998 87.9745 19.615 88.5792 19.615C88.9823 19.615 89.3595 19.5516 89.7108 19.4249C90.0678 19.2982 90.3845 19.1168 90.661 18.8807C90.9374 18.6446 91.1619 18.3683 91.3347 18.0515H91.3866V19.4595H93.5284V13.1625C93.5284 12.5463 93.3732 12.0107 93.062 11.5558C92.7567 11.1009 92.3224 10.7467 91.758 10.4933C91.1994 10.2399 90.5372 10.1132 89.7712 10.1132C88.9996 10.1132 88.3315 10.2371 87.7672 10.4847C87.2087 10.7323 86.771 11.0721 86.4543 11.504C86.1375 11.9301 85.9561 12.4139 85.9101 12.9552L85.9014 13.0588H87.8881L87.9054 12.9811C87.9803 12.6413 88.1703 12.3649 88.4755 12.1518C88.7807 11.933 89.1867 11.8236 89.6935 11.8236C90.2405 11.8236 90.6581 11.9589 90.946 12.2296C91.2397 12.4945 91.3866 12.8573 91.3866 13.3179V13.9476L88.9939 14.0953C87.8881 14.1587 87.0301 14.4294 86.4197 14.9073C85.815 15.3795 85.5127 16.0216 85.5127 16.8336V16.8508C85.5127 17.3922 85.6394 17.873 85.8928 18.2934C86.1519 18.708 86.5118 19.0334 86.9725 19.2695ZM91.3866 15.3734V16.0648C91.3866 16.4276 91.2915 16.753 91.1014 17.0409C90.9114 17.3289 90.6523 17.5563 90.3241 17.7233C90.0016 17.8902 89.633 17.9738 89.2184 17.9738C88.7462 17.9738 88.3661 17.8673 88.0781 17.6541C87.796 17.4354 87.6549 17.1388 87.6549 16.7645V16.7558C87.6549 16.3931 87.796 16.1023 88.0781 15.8834C88.3604 15.6646 88.7663 15.5379 89.2962 15.5033L91.3866 15.3734Z" fill="white"/>
<path d="M102.167 10.3033H100.024V19.4595H102.167V14.1472C102.167 13.7038 102.25 13.3179 102.417 12.9897C102.584 12.6557 102.82 12.3966 103.125 12.2123C103.43 12.0222 103.788 11.9273 104.196 11.9273C104.807 11.9273 105.264 12.1058 105.57 12.4628C105.875 12.814 106.027 13.3151 106.027 13.9658V19.4595H108.178V13.5339C108.178 12.4743 107.902 11.6394 107.349 11.029C106.802 10.4184 106.024 10.1132 105.017 10.1132C104.326 10.1132 103.744 10.2601 103.272 10.5538C102.805 10.8475 102.454 11.242 102.218 11.7372H102.167V10.3033Z" fill="white"/>
<path fill-rule="evenodd" clip-rule="evenodd" d="M116.617 19.4595V15.3392H119.191C120.032 15.3392 120.769 15.1664 121.402 14.821C122.041 14.4696 122.539 13.983 122.896 13.3611C123.253 12.7335 123.432 12.005 123.432 11.1757V11.1584C123.432 10.3234 123.253 9.59499 122.896 8.97304C122.539 8.34533 122.041 7.85874 121.402 7.51325C120.769 7.16777 120.032 6.99493 119.191 6.99493H114.388V19.4595H116.617ZM118.638 13.5425H116.617V8.80896H118.638C119.444 8.80896 120.066 9.01332 120.503 9.42225C120.947 9.83108 121.169 10.4127 121.169 11.1671V11.1844C121.169 11.933 120.947 12.5146 120.503 12.9292C120.066 13.3381 119.444 13.5425 118.638 13.5425Z" fill="white"/>
<path d="M127.344 10.3033H125.202V19.4595H127.344V14.1472C127.344 13.6923 127.422 13.3064 127.578 12.9897C127.733 12.673 127.958 12.4341 128.251 12.2727C128.546 12.1058 128.894 12.0222 129.297 12.0222C129.482 12.0222 129.651 12.0338 129.807 12.0568C129.968 12.0798 130.091 12.1087 130.178 12.1432V10.1997C130.097 10.1766 129.997 10.1565 129.875 10.1392C129.755 10.1219 129.628 10.1132 129.496 10.1132C128.965 10.1132 128.517 10.2717 128.148 10.5884C127.785 10.8994 127.534 11.3313 127.396 11.8841H127.344V10.3033Z" fill="white"/>
<path fill-rule="evenodd" clip-rule="evenodd" d="M135.343 19.6409C134.445 19.6409 133.664 19.4509 133.002 19.0708C132.34 18.6849 131.825 18.1379 131.456 17.4296C131.094 16.7156 130.912 15.8661 130.912 14.8815V14.8641C130.912 13.8852 131.097 13.0416 131.465 12.3332C131.833 11.6192 132.349 11.0721 133.011 10.692C133.673 10.3062 134.448 10.1132 135.334 10.1132C136.227 10.1132 137.005 10.3062 137.667 10.692C138.334 11.0721 138.853 11.6163 139.221 12.3246C139.59 13.0329 139.774 13.8794 139.774 14.8641V14.8815C139.774 15.8718 139.59 16.7241 139.221 17.4382C138.858 18.1465 138.346 18.6907 137.684 19.0708C137.022 19.4509 136.242 19.6409 135.343 19.6409ZM135.352 17.9047C135.806 17.9047 136.201 17.7866 136.535 17.5505C136.87 17.3144 137.125 16.9717 137.304 16.5226C137.488 16.0677 137.581 15.5206 137.581 14.8815V14.8641C137.581 14.2307 137.488 13.6894 137.304 13.2402C137.12 12.7911 136.858 12.4484 136.517 12.2123C136.184 11.9762 135.79 11.8581 135.334 11.8581C134.892 11.8581 134.5 11.9762 134.16 12.2123C133.825 12.4484 133.564 12.7911 133.374 13.2402C133.189 13.6894 133.097 14.2307 133.097 14.8641V14.8815C133.097 15.5206 133.189 16.0677 133.374 16.5226C133.564 16.9717 133.825 17.3144 134.16 17.5505C134.5 17.7866 134.896 17.9047 135.352 17.9047Z" fill="white"/>
<path d="M142.78 19.019C143.247 19.4336 143.955 19.6409 144.905 19.6409C145.13 19.6409 145.331 19.6323 145.509 19.615C145.694 19.5978 145.85 19.5804 145.976 19.5631V17.9478C145.901 17.9536 145.821 17.9622 145.734 17.9738C145.654 17.9795 145.558 17.9824 145.449 17.9824C145.063 17.9824 144.77 17.8989 144.568 17.7319C144.373 17.5592 144.274 17.2511 144.274 16.8077V11.9618H145.976V10.3033H144.274V7.9797H142.089V10.3033H140.794V11.9618H142.089V16.9804C142.089 17.9248 142.319 18.6044 142.78 19.019Z" fill="white"/>
<path fill-rule="evenodd" clip-rule="evenodd" d="M151.685 19.6409C150.787 19.6409 150.007 19.4509 149.344 19.0708C148.683 18.6849 148.167 18.1379 147.799 17.4296C147.436 16.7156 147.254 15.8661 147.254 14.8815V14.8641C147.254 13.8852 147.439 13.0416 147.807 12.3332C148.176 11.6192 148.691 11.0721 149.353 10.692C150.016 10.3062 150.79 10.1132 151.677 10.1132C152.569 10.1132 153.347 10.3062 154.009 10.692C154.678 11.0721 155.196 11.6163 155.564 12.3246C155.933 13.0329 156.117 13.8794 156.117 14.8641V14.8815C156.117 15.8718 155.933 16.7241 155.564 17.4382C155.202 18.1465 154.689 18.6907 154.026 19.0708C153.364 19.4509 152.584 19.6409 151.685 19.6409ZM151.694 17.9047C152.15 17.9047 152.544 17.7866 152.878 17.5505C153.212 17.3144 153.468 16.9717 153.646 16.5226C153.83 16.0677 153.923 15.5206 153.923 14.8815V14.8641C153.923 14.2307 153.83 13.6894 153.646 13.2402C153.462 12.7911 153.2 12.4484 152.861 12.2123C152.527 11.9762 152.132 11.8581 151.677 11.8581C151.234 11.8581 150.842 11.9762 150.502 12.2123C150.169 12.4484 149.906 12.7911 149.716 13.2402C149.532 13.6894 149.44 14.2307 149.44 14.8641V14.8815C149.44 15.5206 149.532 16.0677 149.716 16.5226C149.906 16.9717 150.169 17.3144 150.502 17.5505C150.842 17.7866 151.24 17.9047 151.694 17.9047Z" fill="white"/>
<path d="M159.546 19.0621C160.208 19.448 160.992 19.6409 161.896 19.6409C162.667 19.6409 163.344 19.494 163.925 19.2004C164.507 18.9009 164.97 18.4978 165.317 17.9911C165.662 17.4843 165.864 16.9142 165.921 16.2808L165.929 16.2203H163.899L163.883 16.298C163.784 16.776 163.565 17.1647 163.226 17.4641C162.892 17.7579 162.451 17.9047 161.905 17.9047C161.455 17.9047 161.06 17.7866 160.721 17.5505C160.387 17.3087 160.124 16.9632 159.934 16.514C159.75 16.0648 159.658 15.5235 159.658 14.89V14.8815C159.658 14.2537 159.75 13.7153 159.934 13.2661C160.118 12.8169 160.378 12.4714 160.712 12.2296C161.052 11.982 161.446 11.8581 161.896 11.8581C162.465 11.8581 162.915 12.0165 163.243 12.3332C163.577 12.6442 163.787 13.0214 163.874 13.4648L163.89 13.5339H165.912V13.4735C165.867 12.8631 165.676 12.3045 165.342 11.7977C165.008 11.2909 164.547 10.885 163.96 10.5798C163.372 10.2688 162.675 10.1132 161.87 10.1132C160.983 10.1132 160.208 10.3062 159.546 10.692C158.889 11.0779 158.38 11.6278 158.017 12.3419C157.654 13.0502 157.473 13.891 157.473 14.8641V14.8728C157.473 15.8518 157.651 16.6983 158.008 17.4123C158.371 18.1264 158.883 18.6764 159.546 19.0621Z" fill="white"/>
<path fill-rule="evenodd" clip-rule="evenodd" d="M171.622 19.6409C170.724 19.6409 169.943 19.4509 169.281 19.0708C168.618 18.6849 168.103 18.1379 167.734 17.4296C167.371 16.7156 167.19 15.8661 167.19 14.8815V14.8641C167.19 13.8852 167.374 13.0416 167.743 12.3332C168.112 11.6192 168.627 11.0721 169.29 10.692C169.952 10.3062 170.726 10.1132 171.613 10.1132C172.506 10.1132 173.283 10.3062 173.945 10.692C174.613 11.0721 175.131 11.6163 175.5 12.3246C175.869 13.0329 176.053 13.8794 176.053 14.8641V14.8815C176.053 15.8718 175.869 16.7241 175.5 17.4382C175.137 18.1465 174.625 18.6907 173.963 19.0708C173.3 19.4509 172.52 19.6409 171.622 19.6409ZM171.631 17.9047C172.085 17.9047 172.48 17.7866 172.814 17.5505C173.147 17.3144 173.404 16.9717 173.583 16.5226C173.767 16.0677 173.859 15.5206 173.859 14.8815V14.8641C173.859 14.2307 173.767 13.6894 173.583 13.2402C173.398 12.7911 173.136 12.4484 172.796 12.2123C172.462 11.9762 172.068 11.8581 171.613 11.8581C171.169 11.8581 170.778 11.9762 170.438 12.2123C170.104 12.4484 169.842 12.7911 169.653 13.2402C169.468 13.6894 169.376 14.2307 169.376 14.8641V14.8815C169.376 15.5206 169.468 16.0677 169.653 16.5226C169.842 16.9717 170.104 17.3144 170.438 17.5505C170.778 17.7866 171.175 17.9047 171.631 17.9047Z" fill="white"/>
<path d="M177.849 6.99493V19.4595H180V6.99493H177.849Z" fill="white"/>
</svg>
