<svg width="180" height="33" viewBox="0 0 180 33" fill="none" xmlns="http://www.w3.org/2000/svg">
<path d="M0 0H3.92489V11.11H4.03392C4.25196 10.89 4.47002 10.56 4.79709 10.34C5.12417 10.01 5.45124 9.79 5.88734 9.57C6.32344 9.35 6.86857 9.13 7.41369 9.02C7.95882 8.8 8.61296 8.8 9.37613 8.8C10.4664 8.8 11.5566 9.02 12.4288 9.46C13.4101 9.9 14.1732 10.45 14.8274 11.22C15.4815 11.99 16.0266 12.87 16.3537 13.86C16.6808 14.85 16.8988 15.95 16.8988 17.16C16.8988 18.37 16.6808 19.47 16.3537 20.46C16.0266 21.45 15.4815 22.33 14.8274 23.1C14.1732 23.87 13.301 24.42 12.3198 24.86C11.3386 25.3 10.2483 25.52 9.04906 25.52C7.95882 25.52 6.86857 25.3 5.88734 24.86C4.90612 24.42 4.14295 23.76 3.59782 22.77H3.70685V25.19H0V0ZM13.5191 17.05C13.5191 16.39 13.4101 15.84 13.192 15.29C12.974 14.74 12.6469 14.19 12.3198 13.75C11.8837 13.31 11.4476 12.98 10.9025 12.65C10.3574 12.43 9.70321 12.21 8.94003 12.21C8.17686 12.21 7.52271 12.32 6.97759 12.65C6.43247 12.87 5.88734 13.31 5.56026 13.75C5.12417 14.19 4.7971 14.74 4.68807 15.29C4.361 15.84 4.25197 16.5 4.25197 17.05C4.25197 17.71 4.36099 18.26 4.57904 18.81C4.79709 19.36 5.12417 19.91 5.45124 20.35C5.88734 20.79 6.32344 21.12 6.86857 21.45C7.41369 21.67 8.06783 21.89 8.83101 21.89C9.59418 21.89 10.1393 21.78 10.7935 21.45C11.3386 21.23 11.8837 20.79 12.2108 20.35C12.6469 19.91 12.8649 19.36 13.083 18.81C13.4101 18.26 13.5191 17.71 13.5191 17.05Z" fill="white"/>
<path d="M19.0794 9.13005H23.0043V11.66H23.1133C23.5494 10.78 24.2035 10.01 24.9667 9.46005C25.7299 9.02005 26.6021 8.80005 27.6923 8.80005C27.9104 8.80005 28.1284 8.80005 28.3465 8.91005C28.5645 8.91005 28.7826 9.02005 29.0006 9.02005V12.87C28.6735 12.76 28.3465 12.76 28.0194 12.65C27.6923 12.54 27.3653 12.54 27.0382 12.54C26.166 12.54 25.4028 12.76 24.8577 13.09C24.3126 13.42 23.8765 13.86 23.5494 14.3C23.2223 14.74 23.1133 15.18 23.0043 15.62C22.8952 16.06 22.8952 16.39 22.8952 16.61V25.08H18.9703L19.0794 9.13005Z" fill="white"/>
<path d="M34.0157 18.48C34.1247 19.69 34.5608 20.57 35.433 21.23C36.1962 21.89 37.1774 22.22 38.2677 22.22C39.2489 22.22 40.1211 22 40.7753 21.56C41.4294 21.12 41.9745 20.68 42.5197 20.02L45.3543 22.22C44.4821 23.32 43.3919 24.2 42.3016 24.64C41.2114 25.08 40.0121 25.41 38.7038 25.41C37.5045 25.41 36.4143 25.19 35.324 24.86C34.2338 24.42 33.3616 23.87 32.5984 23.21C31.8352 22.44 31.1811 21.56 30.745 20.57C30.3089 19.58 30.0908 18.37 30.0908 17.16C30.0908 15.95 30.3089 14.74 30.745 13.75C31.1811 12.76 31.8352 11.88 32.5984 11.11C33.3616 10.34 34.2338 9.79003 35.324 9.46003C36.4143 9.02003 37.5045 8.91003 38.7038 8.91003C39.794 8.91003 40.7753 9.13003 41.7565 9.46003C42.6287 9.90003 43.3919 10.45 44.046 11.11C44.7002 11.88 45.2453 12.76 45.5724 13.86C45.8994 14.96 46.1175 16.17 46.1175 17.6V18.7H34.0157V18.48ZM42.0836 15.4C42.0836 14.19 41.6475 13.42 40.9933 12.76C40.3392 12.1 39.3579 11.77 38.1587 11.77C36.9594 11.77 36.0872 12.1 35.324 12.76C34.6699 13.42 34.2338 14.19 34.0157 15.4H42.0836Z" fill="white"/>
<path d="M45.8994 9.13H50.2604L54.6214 20.13H54.7304L58.6553 9.13H62.7983L55.3846 28.49C55.0575 29.26 54.8395 29.92 54.4034 30.47C54.0763 31.02 53.6402 31.46 53.2041 31.9C52.768 32.34 52.2229 32.56 51.5687 32.78C50.9146 32.89 50.1514 33 49.2792 33C48.298 33 47.2077 32.89 46.2265 32.56L46.7716 28.93C47.0987 29.04 47.4258 29.15 47.7528 29.26C48.0799 29.37 48.407 29.37 48.7341 29.37C49.1702 29.37 49.6063 29.37 49.9333 29.26C50.2604 29.15 50.5875 29.04 50.8055 28.82C51.0236 28.6 51.2416 28.38 51.3507 28.05C51.4597 27.72 51.6777 27.39 51.7868 26.95L52.5499 25.08L45.8994 9.13Z" fill="white"/>
<path d="M66.6142 18.48C66.7232 19.69 67.1593 20.57 68.0315 21.23C68.7947 21.89 69.7759 22.22 70.8662 22.22C71.8474 22.22 72.7196 22 73.3738 21.56C74.0279 21.12 74.573 20.68 75.1182 20.02L77.9528 22.22C77.0806 23.32 75.9904 24.2 74.9001 24.64C73.8099 25.08 72.6106 25.41 71.3023 25.41C70.103 25.41 69.0128 25.19 67.9225 24.86C66.8323 24.42 65.9601 23.87 65.1969 23.21C64.4337 22.44 63.7796 21.56 63.3435 20.57C62.9074 19.58 62.6893 18.37 62.6893 17.16C62.6893 15.95 62.9074 14.74 63.3435 13.75C63.7796 12.76 64.4337 11.88 65.1969 11.11C65.9601 10.34 66.8323 9.79003 67.9225 9.46003C69.0128 9.02003 70.103 8.91003 71.3023 8.91003C72.3925 8.91003 73.3738 9.13003 74.355 9.46003C75.2272 9.90003 75.9904 10.45 76.6445 11.11C77.2987 11.88 77.8438 12.76 78.1709 13.86C78.4979 14.96 78.716 16.17 78.716 17.6V18.7H66.6142V18.48ZM74.6821 15.4C74.6821 14.19 74.246 13.42 73.5918 12.76C72.9377 12.1 71.9564 11.77 70.6481 11.77C69.4489 11.77 68.5767 12.1 67.8135 12.76C67.1593 13.42 66.7232 14.19 66.5052 15.4H74.6821Z" fill="white"/>
<path d="M80.6783 9.13005H84.6032V11.66H84.7123C85.1484 10.78 85.8025 10.01 86.5657 9.46005C87.3289 9.02005 88.3101 8.80005 89.2913 8.80005C89.5093 8.80005 89.7274 8.80005 89.9455 8.91005C90.1635 8.91005 90.3816 9.02005 90.5996 9.02005V12.87C90.2725 12.76 89.9455 12.76 89.6184 12.65C89.2913 12.54 88.9642 12.54 88.6372 12.54C87.765 12.54 87.0018 12.76 86.4567 13.09C85.9115 13.42 85.4754 13.86 85.1484 14.3C84.8213 14.74 84.6032 15.18 84.6032 15.62C84.4942 16.06 84.4942 16.39 84.4942 16.61V25.08H80.6783V9.13005Z" fill="white"/>
<path d="M106.408 22.66C105.645 23.65 104.773 24.31 103.792 24.75C102.81 25.19 101.72 25.41 100.521 25.41C99.3216 25.41 98.1223 25.19 97.1411 24.75C96.0509 24.31 95.1787 23.76 94.5245 22.99C93.7613 22.22 93.2162 21.34 92.7801 20.35C92.344 19.36 92.126 18.15 92.126 16.94C92.126 15.73 92.344 14.52 92.7801 13.53C93.2162 12.54 93.7613 11.55 94.5245 10.89C95.2877 10.12 96.1599 9.56997 97.1411 9.12997C98.2314 8.68997 99.3216 8.46997 100.521 8.46997C101.72 8.46997 102.81 8.68997 103.792 9.23997C104.773 9.67997 105.645 10.45 106.517 11.33L104.882 12.54C104.228 11.88 103.574 11.33 102.919 11C102.156 10.67 101.393 10.45 100.63 10.45C99.6487 10.45 98.7765 10.67 98.0133 11C97.2501 11.33 96.596 11.77 96.0509 12.43C95.5058 12.98 95.0696 13.75 94.7426 14.52C94.4155 15.29 94.3065 16.17 94.3065 17.05C94.3065 17.93 94.4155 18.81 94.7426 19.58C95.0696 20.35 95.5058 21.12 96.0509 21.67C96.596 22.22 97.2501 22.77 98.0133 23.1C98.7765 23.43 99.6487 23.65 100.63 23.65C101.502 23.65 102.265 23.43 103.028 22.99C103.792 22.55 104.337 22 104.882 21.34L106.408 22.66Z" fill="white"/>
<path d="M121.672 18.26C121.672 19.03 121.672 19.8 121.672 20.35C121.672 21.01 121.672 21.56 121.672 22.11C121.672 22.66 121.672 23.1 121.781 23.65C121.781 24.09 121.89 24.53 121.89 25.08H119.927C119.818 24.31 119.709 23.43 119.709 22.44H119.6C119.055 23.54 118.292 24.2 117.42 24.75C116.548 25.19 115.457 25.52 114.04 25.52C113.386 25.52 112.623 25.41 111.969 25.3C111.314 25.08 110.66 24.86 110.115 24.42C109.57 24.09 109.134 23.54 108.807 22.99C108.48 22.44 108.262 21.67 108.262 20.79C108.262 19.58 108.589 18.59 109.243 17.82C109.897 17.05 110.66 16.61 111.532 16.17C112.405 15.84 113.386 15.62 114.476 15.51C115.457 15.4 116.439 15.4 117.202 15.4H119.6V14.3C119.6 12.87 119.164 11.88 118.292 11.33C117.42 10.78 116.33 10.45 115.13 10.45C113.277 10.45 111.641 11 110.224 12.21L109.025 10.78C109.788 10.01 110.769 9.45996 111.86 9.12996C112.95 8.79996 114.04 8.57996 115.13 8.57996C117.093 8.57996 118.619 9.01996 119.818 10.01C121.018 10.89 121.563 12.43 121.563 14.41V18.26H121.672ZM117.529 16.94C116.657 16.94 115.784 17.05 115.021 17.16C114.149 17.27 113.495 17.49 112.841 17.71C112.187 18.04 111.641 18.37 111.314 18.81C110.878 19.25 110.769 19.91 110.769 20.57C110.769 21.01 110.878 21.45 111.096 21.89C111.314 22.22 111.641 22.55 111.969 22.88C112.296 23.1 112.732 23.32 113.168 23.43C113.604 23.54 114.04 23.65 114.476 23.65C115.566 23.65 116.439 23.54 117.202 23.21C117.965 22.88 118.51 22.44 118.946 21.89C119.382 21.34 119.709 20.79 119.818 20.13C119.927 19.47 120.036 18.81 120.036 18.15V17.05H117.529V16.94Z" fill="white"/>
<path d="M125.052 8.90996H127.123V11.77H127.232C127.559 11.22 127.995 10.78 128.431 10.34C128.867 9.89996 129.413 9.56996 129.958 9.34996C130.503 9.12996 131.157 8.90996 131.702 8.79996C132.356 8.68996 132.901 8.57996 133.555 8.57996C134.755 8.57996 135.3 8.79996 136.39 9.23996C137.371 9.67996 138.134 10.23 138.898 11C139.661 11.77 140.206 12.65 140.642 13.64C141.078 14.63 141.296 15.84 141.296 17.05C141.296 18.26 141.078 19.47 140.642 20.46C140.206 21.45 139.661 22.44 138.898 23.1C138.134 23.87 137.48 24.42 136.39 24.86C135.409 25.3 134.864 25.52 133.555 25.52C132.901 25.52 132.356 25.41 131.702 25.3C131.048 25.19 130.503 24.97 129.958 24.75C129.413 24.53 128.867 24.09 128.431 23.76C127.995 23.32 127.559 22.88 127.232 22.33H127.123V33H125.052V8.90996ZM126.905 16.94C126.905 17.82 127.123 18.7 127.45 19.47C127.777 20.24 128.213 21.01 128.758 21.56C129.303 22.11 129.958 22.66 130.721 22.99C131.484 23.32 132.356 23.54 133.228 23.54C134.101 23.54 134.973 23.32 135.736 22.99C136.499 22.66 137.153 22.22 137.698 21.56C138.244 21.01 138.68 20.24 138.898 19.47C139.225 18.7 139.334 17.82 139.334 16.94C139.334 16.06 139.225 15.18 138.898 14.41C138.571 13.64 138.244 12.87 137.698 12.32C137.153 11.77 136.499 11.22 135.736 10.89C134.973 10.56 134.21 10.34 133.228 10.34C132.356 10.34 131.484 10.56 130.721 10.89C129.958 11.22 129.303 11.66 128.758 12.32C128.213 12.87 127.777 13.64 127.45 14.41C127.123 15.18 126.905 16.06 126.905 16.94Z" fill="white"/>
<path d="M143.259 4.95003C143.259 4.51003 143.368 4.18003 143.695 3.85003C144.022 3.52003 144.349 3.41003 144.785 3.41003C145.221 3.41003 145.548 3.52003 145.875 3.85003C146.202 4.18003 146.311 4.51003 146.311 4.95003C146.311 5.39003 146.202 5.72003 145.875 6.05003C145.548 6.38003 145.221 6.49003 144.785 6.49003C144.349 6.49003 144.022 6.38003 143.695 6.05003C143.368 5.72003 143.259 5.39003 143.259 4.95003ZM143.804 8.91003H145.875V25.08H143.804V8.91003Z" fill="white"/>
<path d="M159.176 10.78H154.597V21.23C154.597 22 154.815 22.55 155.142 22.88C155.578 23.32 156.124 23.43 156.778 23.43C157.214 23.43 157.541 23.43 157.977 23.32C158.413 23.21 158.74 23.1 159.176 22.88L159.394 24.75C158.958 24.86 158.522 24.97 158.086 25.08C157.541 25.19 157.105 25.3 156.778 25.3C156.015 25.3 155.36 25.19 154.924 24.97C154.379 24.75 153.943 24.42 153.616 24.09C153.289 23.76 153.071 23.32 152.962 22.77C152.853 22.22 152.744 21.78 152.744 21.12V10.78H149.255V8.91004H152.744V4.29004H154.815V8.91004H159.394V10.78H159.176Z" fill="white"/>
<path d="M174.549 18.26C174.549 19.03 174.549 19.8 174.549 20.35C174.549 21.01 174.549 21.56 174.549 22.11C174.549 22.66 174.549 23.1 174.658 23.65C174.658 24.09 174.767 24.53 174.767 25.08H172.804C172.695 24.31 172.586 23.43 172.586 22.44H172.477C171.932 23.54 171.169 24.2 170.297 24.75C169.425 25.19 168.334 25.52 166.917 25.52C166.263 25.52 165.5 25.41 164.846 25.3C164.191 25.08 163.537 24.86 163.101 24.42C162.556 24.09 162.12 23.54 161.793 22.99C161.466 22.44 161.248 21.67 161.248 20.79C161.248 19.58 161.575 18.59 162.229 17.82C162.883 17.05 163.646 16.61 164.518 16.17C165.391 15.84 166.372 15.62 167.462 15.51C168.443 15.4 169.425 15.4 170.188 15.4H172.586V14.3C172.586 12.87 172.15 11.88 171.278 11.33C170.406 10.78 169.316 10.45 168.007 10.45C166.154 10.45 164.518 11 163.101 12.21L161.902 10.78C162.665 10.01 163.646 9.45996 164.736 9.12996C165.827 8.79996 166.917 8.57996 168.007 8.57996C169.97 8.57996 171.496 9.01996 172.695 10.01C173.895 10.89 174.44 12.43 174.44 14.41L174.549 18.26ZM170.406 16.94C169.534 16.94 168.661 17.05 167.898 17.16C167.135 17.27 166.372 17.49 165.718 17.71C165.064 18.04 164.518 18.37 164.191 18.81C163.755 19.25 163.646 19.91 163.646 20.57C163.646 21.01 163.755 21.45 163.973 21.89C164.191 22.22 164.518 22.55 164.846 22.88C165.173 23.1 165.609 23.32 166.045 23.43C166.481 23.54 166.917 23.65 167.353 23.65C168.443 23.65 169.425 23.54 170.079 23.21C170.842 22.88 171.387 22.44 171.823 21.89C172.259 21.34 172.586 20.79 172.695 20.13C172.804 19.47 172.913 18.81 172.913 18.15V17.05H170.406V16.94Z" fill="white"/>
<path d="M177.928 0H180V25.08H177.928V0Z" fill="white"/>
</svg>
