<svg width="160" height="37" viewBox="0 0 160 37" fill="none" xmlns="http://www.w3.org/2000/svg">
<g clip-path="url(#clip0_589_104)">
<path d="M31.2771 5.84989L22.1412 0L13.0071 5.84989L22.1412 11.7015L31.2771 5.84989Z" fill="white"/>
<path d="M13.0071 30.836L22.1412 36.6876L31.2771 30.836L22.1412 24.9861L13.0071 30.836Z" fill="white"/>
<path d="M9.13589 16.6581L0 22.508L9.13589 28.3579L18.2701 22.508L9.13589 16.6581Z" fill="white"/>
<path d="M35.1486 16.6581L26.0144 22.508L35.1486 28.3579L44.2845 22.508L35.1486 16.6581Z" fill="white"/>
<path d="M62.1987 8.77563C60.7498 8.77563 59.6149 9.07758 58.7941 9.68147C57.9732 10.2854 57.5637 11.1218 57.5637 12.1907C57.5637 12.6228 57.6435 13.0272 57.8015 13.402C57.9611 13.7769 58.1919 14.1013 58.4973 14.3755C58.8028 14.6497 59.181 14.8614 59.6322 15.0142C60.0834 15.1668 60.6075 15.2432 61.2061 15.2432C62.0703 15.2432 62.8599 15.0592 63.5714 14.6897C64.2829 14.3218 64.8434 13.8307 65.2494 13.2215V15.0332H67.2329V8.6611C67.2329 8.03811 67.1306 7.47239 66.9275 6.96395C66.7245 6.4555 66.4243 6.01993 66.0304 5.65724C65.6365 5.29456 65.1488 5.01517 64.5709 4.81734C63.9913 4.61952 63.3337 4.52234 62.5962 4.52234C61.489 4.52234 60.5381 4.74446 59.745 5.19044C58.9502 5.63642 58.2978 6.19519 57.7892 6.8685L59.6201 7.93746C59.9134 7.42901 60.3073 7.02468 60.8036 6.7262C61.2999 6.42772 61.8916 6.27849 62.577 6.27849C63.4933 6.27849 64.1666 6.4954 64.5987 6.92751C65.0308 7.3596 65.2477 7.92011 65.2477 8.60557V8.77736H62.1953L62.1987 8.77563ZM65.2512 11.2745C65.0864 11.6181 64.8729 11.9235 64.6126 12.1907C64.3523 12.458 64.0625 12.6836 63.7449 12.8675C63.4274 13.0515 63.0908 13.1955 62.7332 13.2961C62.3775 13.3986 62.0148 13.4489 61.6451 13.4489C60.958 13.4489 60.4565 13.3222 60.1389 13.0671C59.8213 12.8137 59.6618 12.4632 59.6618 12.0173C59.6618 11.5087 59.8682 11.1148 60.2812 10.8338C60.6942 10.5543 61.3779 10.4138 62.3323 10.4138H65.2512V11.2728V11.2745Z" fill="white"/>
<path d="M76.3532 7.11492C76.7974 7.63725 77.0212 8.33659 77.0212 9.21293V15.0315H79.1002V9.06196C79.1002 8.36261 79.0012 7.72923 78.8052 7.16351C78.6074 6.59779 78.3279 6.12058 77.9653 5.7336C77.6026 5.34662 77.1567 5.04641 76.6291 4.83644C76.1016 4.62646 75.5132 4.52234 74.8643 4.52234C74.1389 4.52234 73.5003 4.67158 72.9467 4.97005C72.3931 5.26853 71.9385 5.66592 71.5827 6.16223V4.55878L69.561 5.42644V15.0332H71.6209V9.34829C71.6209 8.89016 71.6904 8.47368 71.8309 8.09885C71.9714 7.72402 72.164 7.40646 72.4122 7.14442C72.6603 6.88412 72.9519 6.68282 73.2903 6.54399C73.627 6.40343 73.9931 6.33402 74.387 6.33402C75.2512 6.33402 75.9071 6.59432 76.3515 7.11665L76.3532 7.11492Z" fill="white"/>
<path d="M89.4966 11.217C89.2414 11.8157 88.8579 12.3138 88.3425 12.7146C87.8272 13.1155 87.2007 13.315 86.4632 13.315C85.979 13.315 85.5313 13.2265 85.1183 13.0478C84.7054 12.8691 84.3461 12.6244 84.0407 12.3138C83.7353 12.0014 83.4975 11.637 83.3257 11.217C83.154 10.797 83.0689 10.3528 83.0689 9.88081C83.0689 9.4088 83.154 8.96455 83.3257 8.54634C83.4975 8.1264 83.7335 7.76198 84.032 7.44962C84.3305 7.13899 84.6827 6.89431 85.0906 6.71558C85.4983 6.53683 85.9426 6.44833 86.4267 6.44833C87.1261 6.44833 87.7404 6.62707 88.268 6.98282C88.7954 7.33856 89.1929 7.83486 89.4601 8.46999L91.31 7.66827C91.1191 7.21014 90.8623 6.78845 90.5377 6.39974C90.2132 6.01277 89.8419 5.67785 89.4219 5.39846C89.002 5.11907 88.5404 4.90215 88.0389 4.74945C87.5356 4.59674 86.9995 4.52039 86.4267 4.52039C85.6753 4.52039 84.9743 4.65748 84.3183 4.92992C83.6641 5.20411 83.095 5.5824 82.6108 6.06482C82.1266 6.54898 81.7466 7.1147 81.4655 7.76198C81.1861 8.41098 81.0455 9.11727 81.0455 9.87907C81.0455 10.6409 81.1826 11.3281 81.455 11.977C81.7292 12.6261 82.1075 13.1918 82.59 13.6743C83.0723 14.1583 83.6451 14.5385 84.3062 14.8195C84.9674 15.099 85.6788 15.2395 86.4424 15.2395C87.638 15.2395 88.6549 14.9376 89.4949 14.3336C90.3347 13.7298 90.9577 12.9506 91.3638 11.9962L89.4949 11.2135L89.4966 11.217Z" fill="white"/>
<path d="M99.9786 7.11484C100.418 7.63718 100.636 8.33652 100.636 9.21286V15.0314H102.734V9.06188C102.734 8.36255 102.635 7.72915 102.44 7.16343C102.241 6.59772 101.962 6.1205 101.599 5.73352C101.237 5.34655 100.791 5.04634 100.263 4.83636C99.7356 4.62638 99.1473 4.52226 98.4983 4.52226C97.799 4.52226 97.1726 4.66456 96.619 4.95089C96.0654 5.23722 95.6055 5.62246 95.2359 6.10489V0L93.1952 0.874606V15.0314H95.255V9.34821C95.255 8.89009 95.3244 8.47361 95.465 8.09878C95.6055 7.72394 95.7982 7.40638 96.0462 7.14435C96.2944 6.88405 96.586 6.68275 96.9244 6.54392C97.261 6.40336 97.6203 6.33395 98.002 6.33395C98.8801 6.33395 99.5378 6.59425 99.9768 7.11659L99.9786 7.11484Z" fill="white"/>
<path d="M113.836 6.08564C113.352 5.60323 112.786 5.22145 112.129 4.94033C111.473 4.66094 110.777 4.52039 110.04 4.52039C109.302 4.52039 108.591 4.66094 107.942 4.94033C107.293 5.21972 106.727 5.60149 106.245 6.08564C105.761 6.5698 105.381 7.13725 105.1 7.79321C104.82 8.44916 104.68 9.14503 104.68 9.88255C104.68 10.6201 104.82 11.3315 105.1 11.9805C105.379 12.6296 105.761 13.1953 106.245 13.6777C106.727 14.1618 107.295 14.5419 107.942 14.823C108.591 15.1024 109.29 15.243 110.04 15.243C110.789 15.243 111.473 15.1024 112.129 14.823C112.784 14.5437 113.352 14.1618 113.836 13.6777C114.319 13.1953 114.701 12.6279 114.982 11.9805C115.261 11.3315 115.402 10.6322 115.402 9.88255C115.402 9.13288 115.261 8.44916 114.982 7.79321C114.703 7.13899 114.32 6.5698 113.836 6.08564ZM113.103 11.2274C112.931 11.6404 112.695 12.0031 112.396 12.3155C112.098 12.6279 111.747 12.8725 111.347 13.0496C110.946 13.2282 110.51 13.3168 110.04 13.3168C109.569 13.3168 109.134 13.2282 108.734 13.0496C108.332 12.8708 107.982 12.6261 107.683 12.3155C107.384 12.0031 107.152 11.6422 106.988 11.2274C106.823 10.8144 106.739 10.3667 106.739 9.88255C106.739 9.39839 106.823 8.96629 106.988 8.54807C107.152 8.12813 107.384 7.76371 107.683 7.45135C107.982 7.14073 108.332 6.89605 108.734 6.71731C109.134 6.53857 109.569 6.45007 110.04 6.45007C110.51 6.45007 110.93 6.53857 111.337 6.71731C111.744 6.89605 112.097 7.14073 112.394 7.45135C112.693 7.76371 112.929 8.12813 113.101 8.54807C113.273 8.96803 113.357 9.41227 113.357 9.88255C113.357 10.3528 113.273 10.8144 113.101 11.2274H113.103Z" fill="white"/>
<path d="M122.192 4.57905C121.531 4.57905 120.952 4.74043 120.457 5.06494C119.96 5.38944 119.605 5.87533 119.388 6.52435V4.55823L117.367 5.42589V15.0327H119.426V9.23494C119.426 8.30653 119.643 7.64537 120.075 7.25146C120.507 6.85753 121.092 6.65971 121.829 6.65971C122.389 6.65971 122.822 6.76209 123.126 6.96513L123.928 4.98165C123.725 4.85496 123.473 4.75605 123.174 4.68664C122.876 4.61722 122.548 4.58252 122.192 4.58252V4.57905Z" fill="white"/>
<path d="M133.139 5.65528C132.745 5.2926 132.258 5.01322 131.68 4.81539C131.1 4.61756 130.443 4.52039 129.705 4.52039C128.598 4.52039 127.647 4.7425 126.853 5.18848C126.059 5.63446 125.406 6.19324 124.898 6.86655L126.729 7.93551C127.021 7.42706 127.416 7.02272 127.91 6.72425C128.407 6.42577 128.999 6.27653 129.685 6.27653C130.601 6.27653 131.273 6.49345 131.705 6.92554C132.138 7.35764 132.355 7.91815 132.355 8.60361V8.77541H129.302C127.853 8.77541 126.717 9.07735 125.898 9.68124C125.077 10.2851 124.667 11.1216 124.667 12.1906C124.667 12.6227 124.747 13.0269 124.905 13.4018C125.065 13.7766 125.295 14.1011 125.601 14.3753C125.907 14.6495 126.285 14.8612 126.736 15.0139C127.187 15.1667 127.712 15.243 128.31 15.243C129.174 15.243 129.964 15.059 130.675 14.6894C131.386 14.3215 131.947 13.8304 132.354 13.2213V15.0329H134.337V8.66087C134.337 8.03789 134.234 7.47217 134.031 6.96372C133.828 6.45527 133.528 6.01971 133.134 5.65702L133.139 5.65528ZM132.357 11.2725C132.192 11.6162 131.979 11.9215 131.718 12.1888C131.458 12.456 131.167 12.6817 130.85 12.8656C130.532 13.0496 130.194 13.1936 129.838 13.2942C129.483 13.3966 129.12 13.4469 128.751 13.4469C128.063 13.4469 127.562 13.3202 127.244 13.0652C126.927 12.8118 126.767 12.4612 126.767 12.0153C126.767 11.5068 126.974 11.1128 127.386 10.8318C127.799 10.5523 128.483 10.4118 129.438 10.4118H132.357V11.2708V11.2725Z" fill="white"/>
<path d="M144.988 6.21949C144.593 5.68501 144.082 5.26853 143.452 4.97005C142.822 4.67158 142.164 4.52234 141.477 4.52234C140.79 4.52234 140.132 4.64901 139.502 4.90411C138.872 5.1592 138.319 5.52189 137.843 5.99216C137.366 6.46244 136.988 7.02642 136.708 7.68064C136.429 8.3366 136.288 9.07064 136.288 9.88451C136.288 10.6983 136.43 11.4168 136.716 12.078C137.003 12.7391 137.385 13.3048 137.862 13.7751C138.339 14.2453 138.889 14.608 139.512 14.8631C140.136 15.1182 140.785 15.245 141.457 15.245C142.131 15.245 142.825 15.0888 143.46 14.7781C144.096 14.4658 144.61 14.0371 145.005 13.4905V14.2922C145.005 14.7625 144.924 15.1912 144.767 15.5799C144.607 15.9668 144.385 16.3018 144.099 16.5811C143.813 16.8606 143.469 17.0774 143.068 17.2301C142.667 17.3829 142.22 17.4592 141.723 17.4592C140.884 17.4592 140.203 17.3291 139.682 17.0688C139.16 16.8085 138.697 16.3972 138.291 15.8384L136.632 17.1937C137.19 17.893 137.874 18.4276 138.683 18.7955C139.489 19.1634 140.517 19.349 141.763 19.349C142.501 19.349 143.19 19.2258 143.833 18.9777C144.475 18.7295 145.035 18.379 145.511 17.9278C145.988 17.4765 146.363 16.9352 146.637 16.307C146.912 15.677 147.047 14.9811 147.047 14.2176V4.73058H144.988V6.21776V6.21949ZM144.845 11.2277C144.674 11.6546 144.437 12.0225 144.139 12.3348C143.84 12.6472 143.484 12.8953 143.07 13.0793C142.657 13.2632 142.207 13.3552 141.725 13.3552C141.242 13.3552 140.793 13.2667 140.38 13.0879C139.967 12.9092 139.608 12.6628 139.302 12.3435C138.997 12.0259 138.759 11.6546 138.588 11.2277C138.415 10.8025 138.331 10.3479 138.331 9.86368C138.331 9.37952 138.415 8.92661 138.588 8.49971C138.759 8.07456 138.997 7.70493 139.302 7.39258C139.608 7.08195 139.967 6.83726 140.38 6.65853C140.793 6.47979 141.24 6.39129 141.725 6.39129C142.209 6.39129 142.657 6.48326 143.07 6.66721C143.482 6.85115 143.839 7.09931 144.139 7.41166C144.437 7.72402 144.674 8.09191 144.845 8.5188C145.017 8.9457 145.102 9.39341 145.102 9.86368C145.102 10.334 145.017 10.8025 144.845 11.2277Z" fill="white"/>
<path d="M159.675 9.78536C159.675 9.02182 159.541 8.31901 159.274 7.67694C159.007 7.03487 158.637 6.47783 158.168 6.00756C157.697 5.53728 157.14 5.17113 156.498 4.91083C155.856 4.65054 155.153 4.52039 154.39 4.52039C153.627 4.52039 152.92 4.66094 152.272 4.94033C151.624 5.21972 151.057 5.60149 150.575 6.08564C150.091 6.5698 149.713 7.13725 149.44 7.79321C149.166 8.44916 149.031 9.15717 149.031 9.92072C149.031 10.6843 149.161 11.3698 149.422 12.0187C149.682 12.6677 150.054 13.2299 150.538 13.7072C151.02 14.1844 151.595 14.5593 152.264 14.8334C152.931 15.1059 153.678 15.243 154.506 15.243C155.625 15.243 156.566 15.0174 157.329 14.5662C158.093 14.115 158.721 13.5146 159.217 12.7632L157.521 11.7515C157.215 12.2478 156.817 12.6486 156.328 12.9523C155.839 13.2578 155.232 13.4104 154.506 13.4104C153.551 13.4104 152.77 13.1588 152.16 12.6573C151.549 12.1558 151.167 11.4842 151.015 10.6444H159.675V9.78536ZM151.091 8.8882C151.294 8.13854 151.688 7.52424 152.274 7.04702C152.859 6.5698 153.565 6.33206 154.391 6.33206C155.217 6.33206 155.951 6.55419 156.519 7.00016C157.084 7.44614 157.444 8.07433 157.597 8.8882H151.092H151.091Z" fill="white"/>
<path d="M65.2129 23.503C64.819 22.9945 64.307 22.5937 63.6771 22.3004C63.0472 22.0088 62.3895 21.8614 61.7023 21.8614C61.0151 21.8614 60.3574 21.9881 59.7275 22.2431C59.0976 22.4982 58.544 22.8609 58.0685 23.3312C57.5913 23.8015 57.213 24.3654 56.9336 25.0197C56.6542 25.6756 56.5137 26.4097 56.5137 27.2235C56.5137 28.0374 56.6559 28.7559 56.9423 29.417C57.2287 30.0781 57.6104 30.6439 58.0876 31.1142C58.5648 31.5844 59.1149 31.9471 59.7379 32.2022C60.3609 32.4573 61.0099 32.584 61.6832 32.584C62.3565 32.584 63.0281 32.4313 63.658 32.1258C64.2879 31.8204 64.805 31.4004 65.2129 30.866V32.3723H67.2345V17.3408L65.2129 18.2085V23.503ZM64.9838 28.5684C64.812 28.9953 64.576 29.3632 64.2775 29.6756C63.979 29.988 63.6233 30.2361 63.2086 30.4201C62.7956 30.604 62.3461 30.6959 61.8637 30.6959C61.3812 30.6959 60.9318 30.6075 60.5188 30.4287C60.1058 30.25 59.7466 30.0035 59.4412 29.6843C59.1357 29.3667 58.898 28.9953 58.7263 28.5684C58.5544 28.1433 58.4693 27.6886 58.4693 27.2045C58.4693 26.7203 58.5544 26.2674 58.7263 25.8405C58.898 25.4153 59.1357 25.0457 59.4412 24.7333C59.7466 24.4227 60.1058 24.178 60.5188 23.9993C60.9318 23.8206 61.3795 23.7321 61.8637 23.7321C62.3479 23.7321 62.7956 23.8241 63.2086 24.008C63.6215 24.1919 63.9773 24.44 64.2775 24.7524C64.576 25.0648 64.812 25.4326 64.9838 25.8595C65.1556 26.2865 65.2406 26.7341 65.2406 27.2045C65.2406 27.6748 65.1556 28.1433 64.9838 28.5684Z" fill="white"/>
<path d="M70.5767 17.6951C70.2019 17.6951 69.8912 17.82 69.6466 18.0699C69.4019 18.3198 69.2804 18.6321 69.2804 19.0087C69.2804 19.3853 69.4001 19.6976 69.6396 19.9475C69.8791 20.1974 70.1915 20.3223 70.5784 20.3223C70.9655 20.3223 71.2813 20.1974 71.526 19.9475C71.7707 19.6976 71.8921 19.3853 71.8921 19.0087C71.8921 18.6321 71.7689 18.3215 71.526 18.0699C71.2813 17.82 70.9655 17.6951 70.5784 17.6951H70.5767Z" fill="white"/>
<path d="M87.7033 17.6951C87.3285 17.6951 87.0177 17.82 86.7731 18.0699C86.5285 18.3198 86.407 18.6321 86.407 19.0087C86.407 19.3853 86.5267 19.6976 86.7661 19.9475C87.0056 20.1974 87.318 20.3223 87.7049 20.3223C88.092 20.3223 88.4078 20.1974 88.6525 19.9475C88.8972 19.6976 89.0186 19.3853 89.0186 19.0087C89.0186 18.6321 88.8954 18.3215 88.6525 18.0699C88.4078 17.82 88.092 17.6951 87.7049 17.6951H87.7033Z" fill="white"/>
<path d="M71.6238 22.0721H69.5449V32.3731H71.6238V22.0721Z" fill="white"/>
<path d="M82.2673 23.5603C81.8734 23.0257 81.3615 22.6092 80.7315 22.3107C80.1016 22.0123 79.444 21.863 78.7568 21.863C78.0696 21.863 77.4119 21.9897 76.782 22.2448C76.1521 22.5 75.5985 22.8626 75.123 23.3329C74.6458 23.8031 74.2674 24.3672 73.9881 25.0214C73.7087 25.6774 73.5681 26.4113 73.5681 27.2252C73.5681 28.0391 73.7104 28.7575 73.9968 29.4187C74.2831 30.0798 74.6649 30.6455 75.1421 31.1158C75.6193 31.5861 76.1694 31.9487 76.7924 32.2039C77.4154 32.459 78.0643 32.5857 78.7376 32.5857C79.411 32.5857 80.1051 32.4295 80.7403 32.1188C81.3754 31.8082 81.8908 31.3778 82.2847 30.8312V31.6329C82.2847 32.1032 82.2049 32.5319 82.047 32.9206C81.8873 33.3075 81.6651 33.6425 81.3789 33.9218C81.0925 34.2013 80.749 34.4181 80.348 34.5709C79.9472 34.7236 79.4995 34.7999 79.0032 34.7999C78.1633 34.7999 77.483 34.6698 76.9625 34.4095C76.4401 34.1492 75.9768 33.7379 75.5707 33.1791L73.9118 34.5327C74.4705 35.232 75.1543 35.7665 75.9629 36.1344C76.7698 36.5023 77.7971 36.688 79.0431 36.688C79.7806 36.688 80.4695 36.5648 81.1134 36.3166C81.7554 36.0685 82.3159 35.7179 82.7915 35.2668C83.2686 34.8156 83.6434 34.2741 83.9159 33.646C84.1901 33.0161 84.3254 32.3201 84.3254 31.5566V22.0765H82.2656V23.5637L82.2673 23.5603ZM82.1251 28.5684C81.9532 28.9953 81.7172 29.3632 81.4187 29.6755C81.1203 29.9879 80.7646 30.236 80.3498 30.42C79.9368 30.6039 79.4873 30.6959 79.005 30.6959C78.5225 30.6959 78.0731 30.6074 77.66 30.4286C77.247 30.2499 76.8879 30.0035 76.5824 29.6842C76.277 29.3666 76.0393 28.9953 75.8674 28.5684C75.6956 28.1432 75.6106 27.6886 75.6106 27.2044C75.6106 26.7202 75.6956 26.2673 75.8674 25.8404C76.0393 25.4152 76.277 25.0456 76.5824 24.7333C76.8879 24.4226 77.247 24.1779 77.66 23.9993C78.0731 23.8205 78.5208 23.732 79.005 23.732C79.489 23.732 79.9368 23.824 80.3498 24.008C80.7628 24.1919 81.1186 24.4401 81.4187 24.7524C81.7172 25.0648 81.9532 25.4327 82.1251 25.8596C82.2969 26.2864 82.3819 26.7342 82.3819 27.2044C82.3819 27.6747 82.2969 28.1432 82.1251 28.5684Z" fill="white"/>
<path d="M88.7143 22.0721H86.6354V32.3731H88.7143V22.0721Z" fill="white"/>
<path d="M95.7941 30.6184C95.3864 30.6184 95.0601 30.4917 94.8119 30.2366C94.5638 29.9815 94.4405 29.5685 94.4405 28.9959V23.9218H97.3213V22.0719H94.4405V18.5232L92.4189 19.3909V22.0719H90.3782V23.9218H92.4189V29.015C92.4189 30.287 92.6983 31.1963 93.2588 31.7429C93.8176 32.2895 94.6124 32.5638 95.6432 32.5638C96.0753 32.5638 96.4726 32.5099 96.8353 32.4023C97.198 32.2947 97.5243 32.1386 97.8176 31.9356L96.844 30.2193C96.5386 30.4865 96.1897 30.6201 95.7941 30.6201V30.6184Z" fill="white"/>
<path d="M107.236 22.996C106.841 22.6333 106.354 22.3539 105.776 22.156C105.196 21.9582 104.539 21.8611 103.801 21.8611C102.693 21.8611 101.743 22.0831 100.95 22.5291C100.155 22.9752 99.5027 23.5339 98.9942 24.2072L100.825 25.2762C101.118 24.7677 101.512 24.3634 102.009 24.0649C102.505 23.7664 103.096 23.6172 103.782 23.6172C104.698 23.6172 105.372 23.8341 105.804 24.2662C106.236 24.6983 106.453 25.2588 106.453 25.9442V26.1161H103.4C101.952 26.1161 100.816 26.418 99.9955 27.022C99.1747 27.6258 98.7651 28.4623 98.7651 29.5312C98.7651 29.9633 98.845 30.3676 99.0029 30.7424C99.1626 31.1172 99.3933 31.4418 99.6987 31.716C100.004 31.9902 100.382 32.2019 100.834 32.3545C101.285 32.5073 101.809 32.5836 102.407 32.5836C103.271 32.5836 104.061 32.3997 104.772 32.0301C105.485 31.6622 106.045 31.171 106.451 30.562V32.3737H108.434V26.0015C108.434 25.3785 108.332 24.8128 108.129 24.3044C107.926 23.796 107.626 23.3604 107.232 22.9977L107.236 22.996ZM106.453 28.6132C106.288 28.9568 106.074 29.2623 105.814 29.5295C105.554 29.7967 105.264 30.0223 104.947 30.2063C104.629 30.3902 104.29 30.5342 103.935 30.6349C103.579 30.7372 103.216 30.7876 102.846 30.7876C102.159 30.7876 101.658 30.6609 101.34 30.4058C101.023 30.1524 100.863 29.8019 100.863 29.3559C100.863 28.8475 101.07 28.4536 101.483 28.1724C101.896 27.8931 102.579 27.7524 103.534 27.7524H106.453V28.6115V28.6132Z" fill="white"/>
<path d="M110.746 32.3723H112.825V17.3408L110.746 18.2328V32.3723Z" fill="white"/>
</g>
<defs>
<clipPath id="clip0_589_104">
<rect width="160" height="36.6879" fill="white"/>
</clipPath>
</defs>
</svg>
