<svg width="243" height="47" viewBox="0 0 243 47" fill="none" xmlns="http://www.w3.org/2000/svg">
    <path d="M49.22 46.8048C48.6704 46.5413 48.432 46.0668 48.2053 45.5324C46.8185 42.2676 45.3954 39.0175 43.9936 35.759C40.3261 27.2348 36.6651 18.7074 32.9965 10.1832C32.8308 9.79902 32.649 9.4169 32.4277 9.06207C32.0246 8.41436 31.4248 7.98815 30.6442 7.9724C29.6862 7.95351 28.7207 7.98395 27.768 8.08263C26.7896 8.18446 26.1877 8.82378 25.8252 9.68249C23.536 15.1067 21.2467 20.5309 18.9746 25.9625C18.8153 26.3435 18.6335 26.479 18.2037 26.4758C15.3724 26.4538 12.541 26.4643 9.63379 26.4643C9.70864 26.2679 9.75889 26.1105 9.82518 25.9604C13.4296 17.8634 17.0446 9.77068 20.6276 1.66533C21.0585 0.69114 21.7247 0.306921 22.7747 0.31112C27.3168 0.331066 31.8589 0.340514 36.3999 0.304821C37.4574 0.296423 38.0711 0.682742 38.4817 1.63699C41.7151 9.15026 44.9752 16.6509 48.2331 24.1537C51.3446 31.3195 54.4646 38.4821 57.5697 45.65C57.7268 46.0122 57.7771 46.4184 57.8765 46.8037H56.9142C56.8287 46.7827 56.7442 46.7439 56.6587 46.7428C54.8688 46.7334 53.0778 46.7271 51.2879 46.726C51.1682 46.726 51.0495 46.7764 50.9297 46.8037H49.22V46.8048Z" fill="black"/>
    <path d="M0.484375 46.8072C0.534629 46.6245 0.56136 46.4324 0.638345 46.2613C2.31597 42.5136 4.00322 38.7701 5.67443 35.0203C5.82092 34.6927 5.98879 34.5594 6.37264 34.5626C9.13233 34.5815 11.891 34.5731 14.6506 34.5731H15.1885C14.9404 35.1494 14.7212 35.6585 14.502 36.1687C13.1751 39.2488 11.8386 42.3246 10.5309 45.4131C10.2775 46.0114 9.97168 46.5248 9.35474 46.8072H0.484375Z" fill="black"/>
    <path d="M154.327 15.0871C156.073 17.9289 157.795 20.7318 159.552 23.5924C159.372 23.6092 159.244 23.6323 159.116 23.6323C157.745 23.6344 156.373 23.6197 155.004 23.6439C154.648 23.6502 154.47 23.5263 154.3 23.2376C152.857 20.7937 151.39 18.3635 149.95 15.9175C149.756 15.5879 149.544 15.463 149.155 15.4672C147.303 15.4871 145.452 15.4756 143.6 15.4777C143.427 15.4777 143.254 15.4944 143.019 15.507V23.605H138.41V0.657927C138.596 0.649529 138.769 0.633782 138.942 0.633782C142.805 0.632733 146.67 0.583393 150.532 0.660027C151.848 0.686271 153.183 0.931919 154.466 1.24685C156.107 1.64997 157.171 2.78163 157.645 4.3542C158.363 6.74035 158.42 9.16533 157.788 11.584C157.349 13.2626 156.269 14.3869 154.594 14.9591C154.529 14.9811 154.469 15.0189 154.328 15.0882L154.327 15.0871ZM143.042 12.5992C143.223 12.6139 143.378 12.638 143.533 12.638C145.651 12.6401 147.77 12.6548 149.888 12.6317C150.633 12.6233 151.383 12.5698 152.116 12.4469C152.957 12.3052 153.33 11.8118 153.333 10.9794C153.34 9.07715 153.341 7.176 153.333 5.2738C153.33 4.46757 152.999 4.01932 152.198 3.8545C151.576 3.72643 150.93 3.65714 150.295 3.6498C148.07 3.62565 145.843 3.64035 143.618 3.6414C143.43 3.6414 143.242 3.65819 143.042 3.66764V12.6002V12.5992Z" fill="black"/>
    <path d="M78.7887 23.6077H74.1729V0.631201C74.3685 0.631201 74.5407 0.631201 74.7139 0.631201C78.5065 0.631201 82.299 0.58711 86.0905 0.655345C87.3565 0.678441 88.6417 0.888396 89.8745 1.18758C91.7265 1.63689 92.8641 2.90397 93.3207 4.69594C93.9195 7.04955 93.9451 9.4231 93.3496 11.7882C92.769 14.0946 91.2218 15.3932 88.8716 15.7732C87.9285 15.9254 86.963 15.9968 86.0071 16.0115C83.8002 16.0462 81.5923 16.0336 79.3843 16.0136C78.9288 16.0094 78.7716 16.1165 78.777 16.592C78.8037 18.7199 78.7887 20.8489 78.7887 22.9778V23.6067V23.6077ZM78.8091 13.1561C78.9716 13.1698 79.0753 13.1855 79.179 13.1855C81.3517 13.1855 83.5244 13.2002 85.6971 13.175C86.3867 13.1666 87.0871 13.1057 87.7617 12.9703C88.5797 12.8065 88.8876 12.3688 88.8887 11.552C88.8941 9.47454 88.8941 7.39807 88.8887 5.32056C88.8866 4.44715 88.5679 4.01779 87.6965 3.84247C87.0903 3.71965 86.4626 3.65456 85.8446 3.64826C83.6901 3.62517 81.5345 3.63882 79.38 3.64092C79.1929 3.64092 79.0069 3.65981 78.808 3.67031V13.1561H78.8091Z" fill="black"/>
    <path d="M209.794 23.5969V0.671875H225.63C225.467 1.65027 225.303 2.62026 225.132 3.6417H214.454V11.1718H223.751C223.751 12.0966 223.763 12.9606 223.728 13.8225C223.725 13.8991 223.401 14.023 223.225 14.024C220.554 14.0366 217.883 14.0335 215.212 14.0335C214.967 14.0335 214.723 14.0335 214.426 14.0335V23.5959H209.795L209.794 23.5969Z" fill="black"/>
    <path d="M105.393 13.6991C105.529 13.3715 105.638 13.1007 105.755 12.833C107.363 9.13149 108.971 5.43102 110.581 1.73055C110.946 0.889679 111.034 0.844539 111.98 0.846638C114.028 0.850837 116.074 0.860285 118.122 0.836141C118.717 0.828792 119.068 1.01985 119.303 1.57833C122.332 8.75462 125.38 15.9246 128.421 23.0956C128.493 23.2668 128.548 23.4452 128.647 23.7224C128.105 23.7224 127.652 23.7203 127.199 23.7224C126.415 23.7266 125.632 23.7224 124.849 23.7434C124.416 23.7549 124.168 23.5859 124.002 23.187C121.572 17.3891 119.13 11.5953 116.692 5.79949C116.186 4.5975 114.957 4.13874 113.786 4.77911C113.494 4.93868 113.251 5.2914 113.118 5.60843C112.057 8.11741 111.017 10.6358 109.999 13.1616C109.827 13.5899 109.602 13.7222 109.141 13.7096C107.916 13.6749 106.69 13.698 105.394 13.698L105.393 13.6991Z" fill="black"/>
    <path d="M174.95 13.6923C175.531 12.3622 176.077 11.1182 176.619 9.87214C177.803 7.14796 178.982 4.42379 180.166 1.69961C180.517 0.893381 180.62 0.838792 181.529 0.839842C183.594 0.842992 185.66 0.855589 187.724 0.828295C188.333 0.820946 188.658 1.0519 188.888 1.59568C191.906 8.73838 194.941 15.8758 197.971 23.0143C198.051 23.2033 198.116 23.3996 198.217 23.6704C197.988 23.6883 197.822 23.7114 197.656 23.7124C196.588 23.7208 195.52 23.7124 194.452 23.7376C193.994 23.7481 193.739 23.5749 193.564 23.1571C191.131 17.3413 188.686 11.5308 186.242 5.71921C185.769 4.5928 184.34 4.1288 183.291 4.80696C183.02 4.98227 182.811 5.3203 182.682 5.62683C181.631 8.12111 180.595 10.6217 179.584 13.1317C179.405 13.5779 179.172 13.7196 178.689 13.7038C177.481 13.666 176.272 13.6912 174.95 13.6912V13.6923Z" fill="black"/>
    <path d="M238.122 0.664062H242.606V23.607H238.122V0.664062Z" fill="black"/>
    <path d="M107.956 17.6024C107.394 18.9462 106.865 20.2153 106.335 21.4845C106.106 22.0314 105.872 22.5773 105.65 23.1274C105.508 23.4801 105.252 23.6376 104.87 23.6366C103.573 23.6324 102.275 23.6355 100.917 23.6355C100.979 23.456 101.017 23.3122 101.076 23.1768C101.82 21.4646 102.576 19.7566 103.308 18.0381C103.443 17.7211 103.594 17.5867 103.965 17.594C105.262 17.6203 106.56 17.6045 107.956 17.6045V17.6024Z" fill="black"/>
    <path d="M177.612 17.6035C177.541 17.8071 177.493 17.9709 177.428 18.1284C176.761 19.7209 176.076 21.3071 175.431 22.908C175.218 23.4381 174.91 23.6628 174.314 23.6439C173.092 23.6061 171.869 23.6323 170.6 23.6323C170.659 23.4591 170.696 23.3279 170.749 23.203C171.501 21.4751 172.263 19.7513 172.999 18.0171C173.138 17.6896 173.314 17.5877 173.67 17.594C174.966 17.6161 176.262 17.6024 177.611 17.6024L177.612 17.6035Z" fill="black"/>
    <path d="M119.865 46.166C119.759 46.25 119.646 46.4085 119.527 46.4127C119.396 46.4169 119.19 46.3109 119.137 46.1986C118.849 45.5823 118.577 44.9567 118.342 44.3194C118.209 43.9573 118.028 43.8103 117.613 43.8187C116.298 43.8481 114.981 43.846 113.666 43.8187C113.274 43.8114 113.1 43.9499 112.974 44.2932C112.751 44.8979 112.487 45.4889 112.232 46.082C112.134 46.3056 112.041 46.5586 111.693 46.4127C111.364 46.2752 111.434 46.0505 111.537 45.807C112.747 42.9274 113.951 40.0458 115.174 37.1726C115.244 37.0098 115.472 36.7936 115.606 36.8051C115.784 36.8209 116.024 37.0056 116.097 37.1757C117.329 40.0647 118.539 42.9631 119.753 45.8595C119.786 45.9393 119.813 46.0222 119.865 46.166ZM113.492 43.0408H117.793C117.076 41.3328 116.385 39.6836 115.644 37.9168C114.902 39.6836 114.21 41.3328 113.492 43.0408Z" fill="black"/>
    <path d="M208.248 46.1634C208.141 46.2474 208.025 46.4007 207.885 46.4279C207.781 46.4479 207.581 46.3324 207.533 46.2285C207.241 45.5944 206.96 44.9541 206.716 44.3011C206.588 43.9589 206.418 43.8182 206.027 43.8255C204.693 43.8507 203.359 43.8486 202.026 43.8255C201.658 43.8192 201.491 43.9463 201.371 44.2749C201.142 44.8963 200.887 45.5104 200.596 46.1057C200.523 46.2558 200.259 46.4269 200.11 46.4059C199.773 46.3587 199.807 46.0941 199.915 45.8369C201.133 42.9416 202.343 40.0442 203.573 37.1542C203.64 36.9957 203.86 36.8256 204.027 36.8057C204.161 36.7899 204.397 36.9652 204.458 37.1091C205.707 40.0484 206.937 42.9941 208.171 45.9398C208.191 45.9881 208.205 46.0374 208.249 46.1624L208.248 46.1634ZM204.029 37.9195C203.28 39.7115 202.591 41.3565 201.889 43.0319H206.175C205.461 41.3292 204.774 39.6926 204.029 37.9195Z" fill="black"/>
    <path d="M86.9689 41.5589C86.9689 40.8955 86.9411 40.231 86.9743 39.5696C87.0534 38.0285 87.6842 36.9441 89.3747 36.836C90.5391 36.7615 91.7281 36.7478 92.8818 36.8927C94.0815 37.0438 94.7112 37.9194 94.7048 39.114C94.7048 39.2599 94.5348 39.4058 94.4429 39.5518C94.2953 39.4415 94.0569 39.3576 94.0141 39.2169C93.5629 37.7115 93.3244 37.511 91.7206 37.4994C90.9561 37.4942 90.1895 37.5162 89.426 37.5624C88.4797 37.6202 87.8371 38.1283 87.7986 39.0521C87.727 40.7737 87.7377 42.5016 87.8008 44.2243C87.8307 45.0421 88.4135 45.5806 89.2624 45.6342C90.3595 45.7035 91.4672 45.7098 92.5653 45.6541C93.4175 45.6111 93.7757 45.2069 93.9318 44.3723C93.951 44.2695 93.9414 44.1445 93.9981 44.069C94.1082 43.923 94.2557 43.8055 94.3883 43.6763C94.4974 43.8422 94.7038 44.0102 94.7005 44.1739C94.6685 45.5103 93.8452 46.3501 92.4113 46.4436C91.4896 46.5034 90.5562 46.5013 89.6356 46.4268C87.8286 46.2808 87.0512 45.4442 86.9785 43.6532C86.9507 42.9562 86.9743 42.257 86.9743 41.5589C86.9721 41.5589 86.9711 41.5589 86.9689 41.5589Z" fill="black"/>
    <path d="M136.773 41.6218C136.773 40.2098 136.785 38.7979 136.767 37.3859C136.76 36.9377 136.92 36.7508 137.386 36.7665C138.751 36.8127 140.122 36.7833 141.482 36.8915C142.39 36.9628 142.983 37.5801 143.117 38.4483C143.227 39.159 143.234 39.9096 143.134 40.6224C142.981 41.7215 142.159 42.3661 141.024 42.3902C140.011 42.4123 138.997 42.4101 137.984 42.3913C137.617 42.385 137.482 42.4941 137.49 42.8658C137.511 43.8588 137.498 44.853 137.495 45.8461C137.495 46.119 137.549 46.4686 137.121 46.4507C136.754 46.4361 136.772 46.1253 136.772 45.8576C136.774 44.4457 136.772 43.0337 136.772 41.6218H136.773ZM137.498 39.5957C137.498 40.1699 137.479 40.7463 137.513 41.3194C137.521 41.4454 137.713 41.6617 137.824 41.6638C138.872 41.6848 139.923 41.711 140.968 41.6512C141.954 41.5945 142.362 41.1882 142.474 40.2182C142.53 39.7406 142.508 39.243 142.435 38.7664C142.32 38.0126 141.894 37.6064 141.122 37.5633C140.041 37.5035 138.957 37.5224 137.873 37.4993C137.555 37.4919 137.489 37.6547 137.494 37.9244C137.505 38.4819 137.497 39.0393 137.498 39.5967V39.5957Z" fill="black"/>
    <path d="M182.481 37.4963C182.481 38.1303 182.481 38.6699 182.481 39.2095C182.481 41.3742 182.481 43.5388 182.481 45.7034C182.481 45.8599 182.516 46.0352 182.456 46.1685C182.402 46.2892 182.243 46.4372 182.129 46.4383C182.012 46.4393 181.846 46.2987 181.79 46.179C181.728 46.0478 181.761 45.8714 181.761 45.7139C181.761 43.1651 181.747 40.6162 181.771 38.0684C181.776 37.595 181.625 37.469 181.164 37.4868C180.346 37.5194 179.526 37.4952 178.706 37.4942C178.448 37.4942 178.159 37.4889 178.155 37.153C178.152 36.8024 178.433 36.7656 178.724 36.7656C180.987 36.7688 183.248 36.7688 185.511 36.7656C185.798 36.7656 186.087 36.7887 186.085 37.1446C186.083 37.5225 185.76 37.4931 185.493 37.4931C184.517 37.4952 183.542 37.4931 182.481 37.4931V37.4963Z" fill="black"/>
    <path d="M225.265 41.5686C225.265 40.2249 225.261 38.8812 225.269 37.5375C225.271 37.2446 225.145 36.8142 225.618 36.7974C226.119 36.7796 225.983 37.2236 225.984 37.5081C225.992 40.0559 225.999 42.6048 225.98 45.1526C225.976 45.604 226.092 45.7646 226.573 45.7531C227.837 45.7237 229.102 45.7405 230.366 45.7457C230.621 45.7468 230.958 45.6859 230.974 46.0722C230.991 46.4753 230.668 46.4722 230.371 46.4711C228.875 46.4701 227.379 46.4606 225.883 46.4764C225.423 46.4816 225.251 46.3157 225.257 45.8612C225.276 44.4303 225.263 42.9995 225.263 41.5676L225.265 41.5686Z" fill="black"/>
    <path d="M160.286 41.5619C160.286 40.1668 160.286 38.7716 160.286 37.3764C160.286 37.1056 160.284 36.7781 160.638 36.8064C160.772 36.8169 160.976 37.178 160.977 37.3796C161 40.2045 160.992 43.0305 160.993 45.8555C160.993 46.1263 160.993 46.4539 160.64 46.4266C160.508 46.4161 160.307 46.056 160.303 45.8524C160.273 44.4226 160.287 42.9928 160.287 41.5619H160.286Z" fill="black"/>
    </svg>
    