<svg id="Road_Capital_Full_Logotype_White_RGB_" data-name="Road Capital Full Logotype White (RGB)" xmlns="http://www.w3.org/2000/svg" width="436.868" height="89.43" viewBox="0 0 436.868 89.43">
  <g id="Group_1" data-name="Group 1" transform="translate(0)">
    <path id="Path_1" data-name="Path 1" d="M56.014,86.085H16.065A16.112,16.112,0,0,1,0,70.02V47.1H13.281V69.913A2.88,2.88,0,0,0,16.172,72.8H56.121V86.085Z" transform="translate(0 3.345)" fill="#000"/>
    <path id="Path_2" data-name="Path 2" d="M80.314,86.085H67.034V63.272a2.88,2.88,0,0,0-2.892-2.892H24.3V47.1H64.249A16.112,16.112,0,0,1,80.314,63.165Z" transform="translate(1.726 3.345)" fill="#000"/>
    <path id="Path_3" data-name="Path 3" d="M56.014,0H16.065A16.112,16.112,0,0,0,0,16.065V38.878H13.281V16.065a2.88,2.88,0,0,1,2.892-2.892H56.121V0Z" transform="translate(0)" fill="#000"/>
    <path id="Path_4" data-name="Path 4" d="M80.314,0H67.034V22.813A2.88,2.88,0,0,1,64.142,25.7H24.3V38.985H64.249A16.112,16.112,0,0,0,80.314,22.92Z" transform="translate(1.726)" fill="#000"/>
  </g>
  <g id="Group_2" data-name="Group 2" transform="translate(109.887 19.814)">
    <path id="Path_5" data-name="Path 5" d="M404.86,61.341V18.5H393.4v4.284l4.07.75V61.341l-4.07.536v3.856h15.53V61.876Z" transform="translate(-81.948 -18.5)" fill="#000"/>
    <path id="Path_6" data-name="Path 6" d="M221.475,18.5H210.123v4.284l3.963.75V35.422c-2.035-1.928-4.284-3.427-7.6-3.427-6.533,0-11.781,4.284-11.781,17.243,0,12.745,4.605,17.35,11.567,17.35a10.4,10.4,0,0,0,8.354-4.07l.857,3.213h9.96V61.876l-3.963-.643Zm-7.283,40.27a9.3,9.3,0,0,1-6,2.57c-3.963,0-5.462-3-5.462-11.781,0-9,1.392-12,5.891-12,2.57,0,3.856,1.178,5.676,2.785V58.77Z" transform="translate(-96.059 -18.5)" fill="#000"/>
    <path id="Path_7" data-name="Path 7" d="M132.16,51.66c-1.607-4.177-4.07-6.426-6.747-6.962v-.107c6-.75,9.96-4.5,9.96-11.353,0-8.568-5.462-12.638-13.923-12.638H102.6v4.177l4.5.75V60.87l-4.5.75v3.963h16.708V61.62l-4.391-.75V46.412h3.106c2.678,0,4.177,1.285,6,6l4.927,13.174h10.71V61.62l-3.749-.536ZM119.843,41.7h-4.927V25.527h4.927c5.569,0,7.39,2.678,7.39,7.818,0,5.569-1.607,8.354-7.39,8.354" transform="translate(-102.6 -18.351)" fill="#000"/>
    <path id="Path_8" data-name="Path 8" d="M336.9,28.018a4.661,4.661,0,1,0-4.5-4.605,4.482,4.482,0,0,0,4.5,4.605" transform="translate(-86.28 -18.486)" fill="#000"/>
    <path id="Path_9" data-name="Path 9" d="M262.712,60.392a13.419,13.419,0,0,1-5.676,1.178c-7.925,0-9.96-6.319-9.96-18.529s2.035-18.207,10.068-18.207a10.9,10.9,0,0,1,4.712.857l1.392,6.533H268.5V22.692c-2.785-1.928-7.176-2.892-11.674-2.892-13.6,0-18.422,9.318-18.422,23.455,0,14.566,5.355,23.134,18.422,23.134a24.23,24.23,0,0,0,12-2.892V54.073H264Z" transform="translate(-92.956 -18.408)" fill="#000"/>
    <path id="Path_10" data-name="Path 10" d="M359.923,61.028c-1.928,0-2.892-1.071-2.892-3.534V37.573h6.426V32.539h-6.426V22.9l-7.39,1.392v8.247H346v5.034h3.641V58.565c0,5.569,3.213,7.711,7.711,7.711a14.314,14.314,0,0,0,7.069-1.607l-1.178-4.391a7.245,7.245,0,0,1-3.32.75" transform="translate(-85.314 -18.188)" fill="#000"/>
    <path id="Path_11" data-name="Path 11" d="M389.433,57.761V41.482c0-7.5-3.641-10.282-10.6-10.282a23.7,23.7,0,0,0-12.959,3.749l2.142,4.605a20.071,20.071,0,0,1,9.211-2.463c3.856,0,4.82,2.035,4.82,5.676v2.57h-2.249c-10.6,0-14.994,3-14.994,10.5,0,6.962,3.856,9.96,9.532,9.96a10.425,10.425,0,0,0,8.247-3.749c.643,2.678,2.677,3.749,5.569,3.749a10.844,10.844,0,0,0,5.248-1.285l-.428-3.641c-2.892,0-3.534-.535-3.534-3.106m-7.39.428a7.194,7.194,0,0,1-5.569,2.463c-2.785,0-4.177-1.392-4.177-5.355,0-4.712,2.035-6,7.6-6h2.142Z" transform="translate(-83.979 -17.598)" fill="#000"/>
    <path id="Path_12" data-name="Path 12" d="M318.228,31.1c-3.749,0-7.069,2.249-9.1,4.605l-.857-3.749H298.2v4.5l3.856.857V73.405l-3.856.536v3.641h15.316V73.941l-3.963-.536V62.374a10.532,10.532,0,0,0,7.819,3.213c7.176,0,12-4.5,12-17.565-.214-13.281-5.141-16.922-11.139-16.922M315.55,60.553a9.212,9.212,0,0,1-6.1-2.678V39.347a9.25,9.25,0,0,1,6.426-2.678c4.284,0,5.462,3,5.462,11.781,0,8.568-1.285,12.1-5.784,12.1" transform="translate(-88.709 -17.605)" fill="#000"/>
    <path id="Path_13" data-name="Path 13" d="M294.833,57.761V41.482c0-7.5-3.641-10.282-10.6-10.282a23.7,23.7,0,0,0-12.959,3.749l2.142,4.605a20.072,20.072,0,0,1,9.211-2.463c3.856,0,4.82,2.035,4.82,5.676v2.57h-2.249c-10.6,0-14.994,3-14.994,10.5,0,6.962,3.856,9.96,9.532,9.96a10.425,10.425,0,0,0,8.247-3.749c.643,2.678,2.678,3.749,5.569,3.749a10.844,10.844,0,0,0,5.248-1.285l-.428-3.641c-2.892,0-3.534-.535-3.534-3.106m-7.39.428a7.367,7.367,0,0,1-5.569,2.463c-2.785,0-4.177-1.392-4.177-5.355,0-4.712,2.035-6,7.6-6h2.142Z" transform="translate(-90.697 -17.598)" fill="#000"/>
    <path id="Path_14" data-name="Path 14" d="M190.733,57.761V41.482c0-7.5-3.641-10.282-10.6-10.282a23.7,23.7,0,0,0-12.959,3.749l2.142,4.605a20.072,20.072,0,0,1,9.211-2.463c3.856,0,4.82,2.035,4.82,5.676v2.57h-2.249c-10.6,0-14.994,3-14.994,10.5,0,6.962,3.856,9.96,9.532,9.96a10.425,10.425,0,0,0,8.247-3.749c.643,2.678,2.678,3.749,5.569,3.749a10.844,10.844,0,0,0,5.248-1.285l-.428-3.641c-3,0-3.534-.535-3.534-3.106m-7.5.428a7.366,7.366,0,0,1-5.569,2.463c-2.785,0-4.177-1.392-4.177-5.355,0-4.712,2.035-6,7.6-6h2.142V58.19Z" transform="translate(-98.09 -17.598)" fill="#000"/>
    <path id="Path_15" data-name="Path 15" d="M151.73,31.1c-8.461,0-14.03,4.82-14.03,17.136,0,12.424,5.569,17.458,14.137,17.458s14.137-4.927,14.137-17.243C165.868,36.027,160.3,31.1,151.73,31.1m.107,29.989c-4.712,0-6.212-3.427-6.212-12.745,0-9.211,1.392-12.531,6.1-12.531s6.212,3.427,6.212,12.531c0,9.318-1.392,12.745-6.1,12.745" transform="translate(-100.107 -17.605)" fill="#000"/>
    <path id="Path_16" data-name="Path 16" d="M341.253,31.9H329.9v4.605l3.963.857V60.389l-3.963.536V64.78h15.208V60.925l-3.856-.536Z" transform="translate(-86.457 -17.548)" fill="#000"/>
  </g>
</svg>
