<svg width="180" height="33" viewBox="0 0 180 33" fill="none" xmlns="http://www.w3.org/2000/svg">
<g clip-path="url(#clip0_541_787)">
<path d="M22.7038 8.5687C21.8589 7.45908 20.7864 6.60726 19.4913 6.01042C18.1936 5.41357 16.8541 5.11375 15.4758 5.11375C13.7834 5.11375 12.255 5.43319 10.8878 6.07207C9.52056 6.71093 8.35064 7.58518 7.37802 8.6948C6.4054 9.80443 5.65231 11.1046 5.11598 12.5953C4.57965 14.0888 4.31287 15.686 4.31287 17.3924C4.31287 18.9839 4.56576 20.4915 5.07429 21.9121C5.58284 23.3328 6.31369 24.5853 7.27242 25.6641C8.23115 26.7457 9.40107 27.5975 10.7822 28.2225C12.1633 28.8473 13.7278 29.1611 15.4758 29.1611C17.2237 29.1611 18.7022 28.8053 19.9998 28.0963C21.2949 27.3874 22.3953 26.3899 23.2984 25.1122L26.722 27.7124C26.4969 28.0263 26.1024 28.4718 25.5382 29.0546C24.9742 29.6374 24.2265 30.2203 23.2984 30.8031C22.3675 31.3859 21.2476 31.8987 19.936 32.3387C18.6244 32.7787 17.1098 33 15.3896 33C13.022 33 10.8878 32.546 8.98424 31.6354C7.08067 30.7246 5.46056 29.5309 4.12113 28.0544C2.78169 26.5776 1.75905 24.9076 1.05599 23.0442C0.350144 21.1836 0 19.3006 0 17.3952C0 15.0639 0.380711 12.9119 1.14213 10.9365C1.90356 8.961 2.96787 7.25734 4.33511 5.81988C5.70233 4.38522 7.34467 3.26998 9.26213 2.47421C11.1796 1.67841 13.2915 1.28052 15.6036 1.28052C17.5766 1.28052 19.5135 1.6644 21.4171 2.43217C23.3207 3.19993 24.8769 4.37961 26.0884 5.97118L22.7065 8.57151L22.7038 8.5687Z" fill="white"/>
<path d="M28.7229 22.1278C28.7229 20.6511 28.998 19.2724 29.5482 17.9919C30.0985 16.7114 30.8516 15.5906 31.8104 14.6239C32.7691 13.6571 33.8973 12.8978 35.1922 12.343C36.4873 11.7882 37.8822 11.5107 39.3773 11.5107C40.8724 11.5107 42.2673 11.7882 43.5624 12.343C44.8573 12.8978 45.9854 13.6571 46.9442 14.6239C47.9029 15.5906 48.656 16.7142 49.2064 17.9919C49.7565 19.2697 50.0316 20.6511 50.0316 22.1278C50.0316 23.6046 49.7565 24.9915 49.2064 26.2833C48.656 27.5778 47.9029 28.6987 46.9442 29.6513C45.9854 30.6041 44.8573 31.3577 43.5624 31.9098C42.2645 32.4647 40.8696 32.7421 39.3773 32.7421C37.8851 32.7421 36.4873 32.4647 35.1922 31.9098C33.8945 31.355 32.7662 30.6041 31.8104 29.6513C30.8516 28.6987 30.0985 27.5778 29.5482 26.2833C28.998 24.9915 28.7229 23.6046 28.7229 22.1278ZM32.7829 22.1278C32.7829 23.1505 32.9385 24.0948 33.2469 24.9634C33.5554 25.8321 33.9945 26.5691 34.5587 27.18C35.1227 27.7908 35.812 28.2755 36.6316 28.6286C37.4487 28.9845 38.3658 29.161 39.38 29.161C40.3944 29.161 41.3114 28.9845 42.1284 28.6286C42.9454 28.2728 43.6373 27.7908 44.2014 27.18C44.7656 26.5691 45.2018 25.8293 45.5131 24.9634C45.8244 24.0976 45.9773 23.1505 45.9773 22.1278C45.9773 21.105 45.8216 20.1607 45.5131 19.292C45.2018 18.4263 44.7656 17.6865 44.2014 17.0757C43.6373 16.4648 42.9482 15.9829 42.1284 15.627C41.3114 15.2711 40.3944 15.0946 39.38 15.0946C38.3658 15.0946 37.4487 15.2711 36.6316 15.627C35.8147 15.9829 35.1227 16.4648 34.5587 17.0757C33.9945 17.6865 33.5582 18.4263 33.2469 19.292C32.9358 20.1579 32.7829 21.105 32.7829 22.1278Z" fill="white"/>
<path d="M53.205 4.77471C53.205 4.00695 53.48 3.34567 54.0302 2.79365C54.5806 2.23885 55.2364 1.96143 55.9977 1.96143C56.7591 1.96143 57.415 2.23885 57.9624 2.79365C58.5126 3.34845 58.7879 4.00975 58.7879 4.77471C58.7879 5.53967 58.5126 6.20378 57.9624 6.75858C57.4122 7.31338 56.7564 7.5908 55.9977 7.5908C55.2391 7.5908 54.5806 7.31338 54.0302 6.75858C53.48 6.20378 53.205 5.54248 53.205 4.77471ZM54.0915 12.0237H57.8957V32.2323H54.0915V12.0237Z" fill="white"/>
<path d="M63.1649 12.0235H66.9693V15.1366H67.0527C67.5306 14.0578 68.3644 13.1836 69.5482 12.5139C70.732 11.847 72.0991 11.5107 73.6498 11.5107C74.6086 11.5107 75.5311 11.6593 76.4204 11.9591C77.3096 12.2561 78.0822 12.7185 78.7464 13.3433C79.4076 13.9682 79.9356 14.7724 80.3331 15.7531C80.7276 16.7338 80.9249 17.8911 80.9249 19.2277V32.2321H77.1207V20.2952C77.1207 19.3566 76.9929 18.5552 76.74 17.8855C76.4871 17.2186 76.148 16.6778 75.7256 16.2659C75.3033 15.854 74.8169 15.5569 74.2667 15.3692C73.7166 15.1843 73.1467 15.0918 72.5549 15.0918C71.7656 15.0918 71.032 15.2207 70.3567 15.4757C69.6815 15.7307 69.0896 16.137 68.5811 16.6918C68.0726 17.2466 67.6778 17.9499 67.3973 18.8018C67.1138 19.6536 66.9749 20.6623 66.9749 21.8279V32.2293H63.1706V12.0235H63.1649Z" fill="white"/>
<path d="M86.5689 2.04541H106.652V8.18475H93.1633V14.3241H105.635V20.4634H93.1633V32.2294H86.566V2.04541H86.5689Z" fill="white"/>
<path d="M129.567 32.2321H123.478V29.4188H123.395C123.17 29.8166 122.881 30.2147 122.528 30.6125C122.175 31.0103 121.747 31.3662 121.238 31.6773C120.73 31.9912 120.152 32.246 119.504 32.4451C118.857 32.644 118.151 32.7448 117.389 32.7448C115.783 32.7448 114.48 32.4955 113.48 31.9994C112.479 31.5035 111.704 30.8142 111.154 29.9316C110.603 29.0518 110.237 28.0121 110.053 26.8184C109.87 25.6247 109.778 24.3302 109.778 22.9376V11.5107H116.119V21.657C116.119 22.254 116.142 22.8731 116.183 23.512C116.225 24.1509 116.353 24.7422 116.564 25.2801C116.775 25.8209 117.101 26.2609 117.537 26.6026C117.973 26.9445 118.601 27.1154 119.418 27.1154C120.235 27.1154 120.899 26.9669 121.405 26.6672C121.914 26.3674 122.3 25.9723 122.566 25.4735C122.833 24.9776 123.011 24.4144 123.095 23.7894C123.178 23.1646 123.222 22.5117 123.222 21.8279V11.5107H129.564V32.2321H129.567Z" fill="white"/>
<path d="M133.805 11.5111H139.893V14.3244H139.977C140.174 13.9265 140.455 13.5286 140.821 13.1307C141.188 12.7328 141.625 12.3769 142.133 12.0659C142.642 11.752 143.217 11.4971 143.867 11.2981C144.515 11.0992 145.22 10.9983 145.982 10.9983C147.588 10.9983 148.886 11.2477 149.872 11.7437C150.859 12.2424 151.626 12.9317 152.176 13.8116C152.726 14.6942 153.099 15.731 153.296 16.9247C153.493 18.1184 153.593 19.4129 153.593 20.8055V32.2325H147.252V22.0861C147.252 21.4893 147.229 20.87 147.188 20.2311C147.146 19.5922 147.018 19.0009 146.807 18.463C146.596 17.9222 146.271 17.4823 145.835 17.1404C145.398 16.7986 144.77 16.6277 143.953 16.6277C143.136 16.6277 142.472 16.7762 141.966 17.076C141.458 17.3758 141.071 17.7737 140.805 18.2697C140.535 18.7685 140.36 19.3289 140.277 19.9537C140.193 20.5785 140.149 21.2316 140.149 21.9152V32.2325H133.807V11.5111H133.805Z" fill="white"/>
<path d="M179.137 32.2322H173.302V29.5031H173.218C172.965 29.8729 172.632 30.2484 172.223 30.6323C171.815 31.0162 171.334 31.3636 170.787 31.6774C170.236 31.9913 169.631 32.2463 168.969 32.4452C168.308 32.6441 167.624 32.745 166.918 32.745C165.396 32.745 164.014 32.4815 162.775 31.9548C161.536 31.4281 160.471 30.6911 159.582 29.7383C158.693 28.7857 158.009 27.6564 157.531 26.3479C157.05 25.0421 156.811 23.6047 156.811 22.0411C156.811 20.5924 157.028 19.2055 157.467 17.8856C157.904 16.563 158.523 15.3918 159.326 14.369C160.129 13.3463 161.108 12.5281 162.266 11.9172C163.422 11.3064 164.731 11.0009 166.199 11.0009C167.524 11.0009 168.758 11.2083 169.897 11.6202C171.04 12.0321 171.976 12.7354 172.71 13.7301H172.793V0H179.134V32.2322H179.137ZM173.302 21.873C173.302 20.3095 172.857 19.0458 171.97 18.079C171.081 17.1123 169.836 16.6303 168.23 16.6303C166.624 16.6303 165.376 17.115 164.487 18.079C163.598 19.0458 163.156 20.3095 163.156 21.873C163.156 23.4366 163.6 24.7003 164.487 25.667C165.376 26.6338 166.621 27.1157 168.23 27.1157C169.839 27.1157 171.084 26.6338 171.97 25.667C172.86 24.7003 173.302 23.4366 173.302 21.873Z" fill="white"/>
</g>
<defs>
<clipPath id="clip0_541_787">
<rect width="180" height="33" fill="white"/>
</clipPath>
</defs>
</svg>
