<svg width="160" height="50" viewBox="0 0 160 50" fill="none" xmlns="http://www.w3.org/2000/svg">
<g clip-path="url(#clip0_543_451)">
<path d="M109.602 0.0581055H104.906V15.1453H109.602V0.0581055Z" fill="white"/>
<path d="M159.997 15.4251H126.755L127.457 13.7323L131.1 4.92072L135.657 15.1451H140.446L134.041 0.395846H128.216L122.539 13.7323L121.819 15.4251H95.0619L93.7521 13.7323L83.1865 0.0579287H78.3784V15.586H73.8503V0H69.1002V15.7083L47.776 15.6118V0H43.0258V15.5925L37.1267 15.5667C37.3939 14.9971 37.6127 14.3856 37.7768 13.7323C37.9989 12.8409 38.1598 11.9044 38.1598 10.8616C38.1566 4.24167 33.1779 0.0579287 26.278 0.0579287H11.12V4.10328L15.8154 4.07432H25.7148C30.1817 4.07432 33.2938 6.84524 33.2938 10.9743C33.2938 11.9752 33.1007 12.902 32.7531 13.7323C32.4699 14.4049 32.0805 15.01 31.601 15.541L5.95144 15.4251C5.90316 15.3415 -0.0828057 21.8938 0.000869116 21.8488L11.1167 21.8938V36.2022H15.8122V21.9131L23.4266 21.9453L32.9494 36.2022H38.4913L28.711 21.9679L43.0644 22.0258C43.5729 30.7473 48.7479 36.3277 58.4059 36.3277C68.0639 36.3277 73.1101 30.9951 73.7731 22.4957H78.3752V36.0896H83.0707V22.4957H94.6661L105.074 36.0896H109.599V22.1416H118.958L112.997 36.1443H118.372L124.078 22H138.219L143.825 36.1443H149.2L142.998 22H156.614L160 15.4251H159.997ZM58.4091 32.0088C51.9919 32.0088 48.3681 28.1759 47.8436 22.0451L69.0229 22.132C68.4662 28.2145 64.7974 32.0088 58.4091 32.0088ZM83.0739 15.5828V7.35051L87.9592 13.7291L89.3785 15.5828H83.0771H83.0739ZM104.907 28.1694L100.25 22.1416H104.907V28.1694Z" fill="white"/>
<path d="M16.3464 42.7933H11.136V49.4294H12.3171V46.9352H16.3206C17.064 46.9352 17.4116 47.0285 17.4116 47.8782V49.4261H18.5412V47.6497C18.5412 47.0865 18.332 46.7035 17.8943 46.4814C18.2837 46.327 18.6184 45.9923 18.6184 45.2521V44.7371C18.6184 43.4724 18.258 42.7869 16.3464 42.7869V42.7933ZM17.4406 44.5859V45.1619C17.4406 45.6382 17.2475 45.915 16.253 45.915H12.3203V43.8199H16.0438C17.3086 43.8199 17.4406 44.0549 17.4406 44.5891V44.5859Z" fill="white"/>
<path d="M26.3455 47.6723C26.3455 48.1422 26.2586 48.4769 25.1387 48.4769H22.1746C21.0547 48.4769 20.971 48.1422 20.971 47.6723V42.7935H19.7899V47.682C19.7899 49.1978 20.7136 49.5003 22.2036 49.5003H25.1129C26.603 49.5003 27.5266 49.1946 27.5266 47.682V42.7935H26.3455V47.6723Z" fill="white"/>
<path d="M35.8683 48.1165L30.32 42.7935H28.8203V49.4295H29.9982V44.1065L35.5497 49.4295H37.0494V42.7935H35.8683V48.1165Z" fill="white"/>
<path d="M41.4552 42.7935L37.5128 49.4295H38.8613L39.6465 48.0972H44.5158L45.301 49.4295H46.6495L42.7071 42.7935H41.4584H41.4552ZM43.9107 47.0737H40.2483L42.0795 43.9746L43.9107 47.0737Z" fill="white"/>
<path d="M56.5714 42.7935H51.3096V49.4295H56.5457C58.7019 49.4295 59.4293 48.5928 59.4293 46.1115C59.4293 43.6302 58.7888 42.7935 56.5714 42.7935ZM58.2481 45.8058V46.4494C58.2481 48.2645 57.5916 48.4029 56.6615 48.4029H52.4939V43.8136H56.7999C57.6496 43.8136 58.2481 43.9553 58.2481 45.8025V45.8058Z" fill="white"/>
<path d="M61.8139 42.7935H60.6328V49.4295H61.8139V42.7935Z" fill="white"/>
<path d="M66.8409 46.9997H70.0753V47.4728C70.0753 48.1776 69.7116 48.4769 68.862 48.4769H65.5247C64.5882 48.4769 64.2052 48.1357 64.2052 47.299V44.9271C64.2052 44.0904 64.5882 43.7492 65.5247 43.7492H67.7388C69.9144 43.7492 70.0431 43.8748 70.0431 44.8499V45.014H71.1727V44.6246C71.1727 43.3663 70.3295 42.7258 68.6657 42.7258H65.441C63.7289 42.7258 63.0305 43.4564 63.0305 45.2522V46.9772C63.0305 48.7697 63.7289 49.5035 65.441 49.5035H68.9618C70.6385 49.5035 71.2596 48.8277 71.2596 47.0126V45.9763H66.8442V46.9997H66.8409Z" fill="white"/>
<path d="M73.6411 42.7935H72.46V49.4295H73.6411V42.7935Z" fill="white"/>
<path d="M81.8831 42.7935H74.3234V43.8169H77.5159V49.4295H78.6938V43.8169H81.8831V42.7935Z" fill="white"/>
<path d="M84.8535 42.7935L80.9111 49.4295H82.2596L83.0448 48.0972H87.9141L88.6993 49.4295H90.0478L86.1054 42.7935H84.8567H84.8535ZM87.309 47.0737H83.6467L85.4778 43.9746L87.309 47.0737Z" fill="white"/>
<path d="M91.7405 42.7935H90.5594V49.4295H96.6387V48.4061H91.7405V42.7935Z" fill="white"/>
<path d="M104.54 42.7935L100.597 49.4295H101.946L102.731 48.0972H107.6L108.385 49.4295H109.734L105.791 42.7935H104.543H104.54ZM106.995 47.0737H103.333L105.164 43.9746L106.995 47.0737Z" fill="white"/>
<path d="M115.141 45.5482H112.611C111.263 45.5482 111.205 45.2908 111.205 44.7083C111.205 43.8908 111.514 43.746 113.274 43.746H114.181C116.36 43.746 116.363 43.9037 116.38 44.7726V44.9336H117.509V44.5538C117.509 43.2214 116.746 42.7258 114.696 42.7258H112.859C111.098 42.7258 110.081 43.0412 110.081 44.6504C110.081 46.5588 111.256 46.6425 113.705 46.6425H115.327C116.383 46.6425 116.54 46.8291 116.54 47.4728C116.54 48.2258 116.331 48.4769 115.099 48.4769H112.45C111.314 48.4769 111.217 48.1196 111.217 47.7238V47.1155H110.088V47.7399C110.088 49.2879 111.356 49.4971 112.595 49.4971H114.967C115.977 49.4971 117.667 49.4971 117.667 47.6691V47.2604C117.667 46.076 116.888 45.545 115.141 45.545V45.5482Z" fill="white"/>
<path d="M123.743 45.5482H121.213C119.865 45.5482 119.807 45.2908 119.807 44.7083C119.807 43.8908 120.116 43.746 121.876 43.746H122.784C124.963 43.746 124.966 43.9037 124.982 44.7726V44.9336H126.112V44.5538C126.112 43.2214 125.349 42.7258 123.299 42.7258H121.461C119.701 42.7258 118.684 43.0412 118.684 44.6504C118.684 46.5588 119.859 46.6425 122.308 46.6425H123.93C124.985 46.6425 125.143 46.8291 125.143 47.4728C125.143 48.2258 124.934 48.4769 123.701 48.4769H121.052C119.916 48.4769 119.82 48.1196 119.82 47.7238V47.1155H118.69V47.7399C118.69 49.2879 119.958 49.4971 121.197 49.4971H123.569C124.58 49.4971 126.269 49.4971 126.269 47.6691V47.2604C126.269 46.076 125.49 45.545 123.743 45.545V45.5482Z" fill="white"/>
<path d="M128.628 46.5266H133.761V45.5032H128.628V43.8169H133.971V42.7935H127.447V49.4295H134.006V48.4061H128.628V46.5266Z" fill="white"/>
<path d="M134.286 43.8169H137.479V49.4295H138.66V43.8169H141.849V42.7935H134.286V43.8169Z" fill="white"/>
<path d="M147.4 45.5482H144.874C143.526 45.5482 143.468 45.2908 143.468 44.7083C143.468 43.8908 143.777 43.746 145.534 43.746H146.441C148.62 43.746 148.623 43.9037 148.639 44.7726V44.9336H149.769V44.5538C149.769 43.2214 149.006 42.7258 146.956 42.7258H145.119C143.358 42.7258 142.341 43.0412 142.341 44.6504C142.341 46.5588 143.519 46.6425 145.965 46.6425H147.587C148.643 46.6425 148.8 46.8291 148.8 47.4728C148.8 48.2258 148.591 48.4769 147.359 48.4769H144.71C143.574 48.4769 143.477 48.1196 143.477 47.7238V47.1155H142.348V47.7399C142.348 49.2879 143.616 49.4971 144.855 49.4971H147.223C148.234 49.4971 149.924 49.4971 149.924 47.6691V47.2604C149.924 46.076 149.145 45.545 147.397 45.545L147.4 45.5482Z" fill="white"/>
</g>
<defs>
<clipPath id="clip0_543_451">
<rect width="160" height="49.5033" fill="white"/>
</clipPath>
</defs>
</svg>
