<svg width="180" height="51" viewBox="0 0 180 51" fill="none" xmlns="http://www.w3.org/2000/svg">
<path fill-rule="evenodd" clip-rule="evenodd" d="M22.336 0L0 12.961V38.883L4.09389 41.2603V15.3382L22.336 4.75116L26.6365 7.24709L8.39445 17.8309V43.7529L12.4883 46.1268V20.2081L30.7304 9.62102L35.031 12.117L16.7889 22.704V48.6261L20.8828 51V25.078L43.2188 12.117C36.2578 8.07797 29.2969 4.03898 22.336 0ZM40.5781 21.7742L27.8831 29.14V43.8716L40.5781 36.5058V31.514L44.672 29.14V38.883L23.7892 51V26.7661L44.672 14.6491V24.3922L40.5781 26.7661V21.7742Z" fill="white"/>
<path d="M53.8898 7.73193V43.2717H55.4873V7.73193H53.8898ZM75.4188 39.2063L74.5036 38.3029C73.9164 38.87 73.3194 39.3085 72.7092 39.6218C72.0991 39.935 71.3708 40.09 70.5278 40.09C69.8487 40.09 69.2156 39.9581 68.635 39.691C68.0544 39.4272 67.5492 39.0646 67.1227 38.603C66.6963 38.1447 66.3617 37.6006 66.119 36.9775C65.8795 36.3543 65.7581 35.6817 65.7581 34.9629C65.7581 34.2442 65.8795 33.5748 66.119 32.955C66.3584 32.3351 66.693 31.7977 67.1227 31.3361C67.5525 30.8778 68.0544 30.5184 68.635 30.2579C69.2156 29.9975 69.8454 29.8689 70.5278 29.8689C71.3708 29.8689 72.0958 30.0271 72.6994 30.3469C73.3029 30.6668 73.8705 31.0723 74.3986 31.5669L75.3499 30.5415C75.0448 30.248 74.7266 29.9777 74.3986 29.737C74.0706 29.4963 73.713 29.2886 73.3259 29.1171C72.9388 28.9457 72.5189 28.8138 72.0695 28.7182C71.6168 28.6225 71.1117 28.5764 70.5474 28.5764C69.6453 28.5764 68.8121 28.7445 68.0511 29.0809C67.29 29.4172 66.6307 29.8755 66.0796 30.459C65.5285 31.0426 65.0988 31.7251 64.7871 32.5C64.4755 33.2781 64.3213 34.109 64.3213 34.9926C64.3213 35.8762 64.4755 36.7269 64.7871 37.505C65.0988 38.2831 65.5285 38.9591 66.0796 39.5295C66.6307 40.0999 67.2835 40.5516 68.0314 40.8813C68.7826 41.211 69.6027 41.3758 70.495 41.3758C71.0592 41.3758 71.5676 41.3231 72.0269 41.2176C72.4829 41.1121 72.9126 40.9637 73.3095 40.7758C73.7097 40.5878 74.0804 40.3603 74.4281 40.0966C74.7726 39.8295 75.1071 39.5328 75.4221 39.203L75.4188 39.2063ZM87.4971 28.7017H86.1948L80.5821 41.1681H82.0058L83.4655 37.8974H90.1673L91.6106 41.1681H93.1065L87.4938 28.7017H87.4971ZM89.626 36.6412H84.0133L86.8279 30.3272L89.626 36.6412ZM108.547 32.7341C108.547 32.1208 108.439 31.5702 108.222 31.0789C108.006 30.5909 107.694 30.1755 107.291 29.8425C106.887 29.5062 106.399 29.2457 105.831 29.0644C105.264 28.883 104.63 28.7907 103.938 28.7907H99.3293V41.1681H100.72V36.7994H103.712C104.368 36.7994 104.991 36.7137 105.578 36.5423C106.166 36.3708 106.677 36.1136 107.117 35.774C107.556 35.4311 107.904 35.0091 108.163 34.5013C108.423 33.9936 108.55 33.4034 108.55 32.7341H108.547ZM107.14 32.7868C107.14 33.199 107.061 33.5748 106.904 33.9079C106.746 34.2442 106.517 34.5343 106.218 34.775C105.92 35.0157 105.562 35.2036 105.145 35.3322C104.729 35.4608 104.27 35.5267 103.764 35.5267H100.72V30.0799H103.833C104.831 30.0799 105.631 30.3074 106.235 30.7591C106.838 31.2141 107.14 31.8867 107.14 32.7835V32.7868ZM114.996 28.7907V41.1681H116.387V28.7907H114.996ZM128.446 30.0799H132.579V28.7874H122.902V30.0799H127.035V41.1681H128.443V30.0799H128.446ZM143.253 28.7017H141.951L136.338 41.1681H137.762L139.222 37.8974H145.924L147.367 41.1681H148.863L143.25 28.7017H143.253ZM145.382 36.6412H139.77L142.584 30.3272L145.382 36.6412ZM155.086 41.1681H163.408V39.879H156.477V28.7907H155.086V41.1681ZM177.143 13.0271C177.143 13.7294 176.89 14.2866 176.385 14.7054C175.88 15.1208 175.201 15.3285 174.348 15.3285H170.854V10.7455H174.328C175.221 10.7455 175.913 10.9367 176.405 11.3192C176.897 11.7017 177.143 12.2721 177.143 13.0271ZM179.997 22.2129L176.329 17.0463C176.808 16.9144 177.244 16.7298 177.638 16.4891C178.032 16.2484 178.373 15.955 178.658 15.6121C178.944 15.2659 179.167 14.8702 179.328 14.4218C179.488 13.9734 179.57 13.4623 179.57 12.8919C179.57 12.2292 179.455 11.6291 179.223 11.0884C178.99 10.5477 178.655 10.0927 178.222 9.7234C177.789 9.35412 177.258 9.06727 176.631 8.86615C176.005 8.66502 175.303 8.56281 174.525 8.56281H168.473V22.2129H170.861V17.4552H173.849L177.185 22.2129H180H179.997ZM159.163 16.7924H154.485L156.814 11.3324L159.163 16.7924ZM157.959 8.4639H155.748L149.771 22.2129H152.215L153.613 18.9158H160.036L161.413 22.2129H163.936L157.959 8.4639ZM136.722 22.2129H146.248V20.0302H139.107V8.56281H136.722V22.2129ZM131.237 8.56281H128.849V16.4232C128.849 17.686 128.548 18.6322 127.937 19.2719C127.331 19.9082 126.494 20.2281 125.434 20.2281C124.375 20.2281 123.519 19.895 122.912 19.2323C122.305 18.5696 122 17.6002 122 16.3276V8.56611H119.615V16.4265C119.615 17.4156 119.75 18.2828 120.022 19.0312C120.294 19.7796 120.681 20.4061 121.186 20.9139C121.692 21.4216 122.298 21.8008 123.01 22.0547C123.722 22.3085 124.516 22.4338 125.395 22.4338C126.274 22.4338 127.094 22.3085 127.813 22.0547C128.531 21.8008 129.141 21.4183 129.646 20.904C130.152 20.3896 130.542 19.75 130.821 18.985C131.1 18.2168 131.237 17.3266 131.237 16.3144V8.5727V8.56281ZM112.228 15.4077C112.228 16.0836 112.116 16.7034 111.89 17.2705C111.663 17.8343 111.345 18.3223 110.939 18.7345C110.532 19.1433 110.036 19.4631 109.456 19.6906C108.875 19.9181 108.226 20.0302 107.514 20.0302H104.837V10.7455H107.514C108.226 10.7455 108.872 10.8642 109.456 11.095C110.036 11.3291 110.532 11.6522 110.939 12.071C111.345 12.4864 111.663 12.9777 111.89 13.5448C112.116 14.1086 112.228 14.7317 112.228 15.4077ZM114.731 15.3681C114.731 14.4053 114.557 13.5085 114.206 12.6776C113.858 11.8468 113.363 11.1247 112.723 10.5114C112.083 9.90144 111.319 9.42336 110.433 9.07716C109.548 8.73096 108.573 8.55951 107.514 8.55951H102.449V22.2096H107.514C108.573 22.2096 109.548 22.0349 110.433 21.6821C111.319 21.3326 112.083 20.8512 112.723 20.2379C113.363 19.628 113.858 18.9026 114.206 18.0618C114.557 17.2244 114.731 16.3243 114.731 15.3615V15.3681ZM94.8516 15.4077C94.8516 16.0704 94.7401 16.6968 94.5105 17.2903C94.2841 17.8805 93.9692 18.3949 93.569 18.8301C93.1688 19.2653 92.6866 19.6082 92.1224 19.8621C91.5582 20.116 90.9415 20.2412 90.269 20.2412C89.5965 20.2412 88.9765 20.1094 88.4057 19.8522C87.8382 19.5917 87.3495 19.2422 86.9394 18.7971C86.5326 18.3553 86.2145 17.8376 85.9881 17.2475C85.7618 16.6573 85.6469 16.0275 85.6469 15.3648C85.6469 14.7021 85.7618 14.0756 85.9881 13.4821C86.2145 12.8919 86.5294 12.3776 86.9296 11.9424C87.3298 11.5071 87.812 11.1642 88.3762 10.9104C88.9404 10.6565 89.5571 10.5312 90.2296 10.5312C90.9021 10.5312 91.5221 10.6631 92.0929 10.9203C92.6636 11.1807 93.1491 11.5302 93.5592 11.972C93.9659 12.4139 94.2841 12.9315 94.5105 13.5217C94.7368 14.1119 94.8516 14.7416 94.8516 15.4044V15.4077ZM97.3546 15.3681C97.3546 14.4053 97.1807 13.4953 96.8297 12.6381C96.482 11.7808 95.9965 11.0324 95.3732 10.396C94.7532 9.75967 94.0086 9.25521 93.1426 8.88593C92.2766 8.51335 91.3187 8.32871 90.2723 8.32871C89.2258 8.32871 88.268 8.51665 87.3987 8.89582C86.5326 9.27169 85.7814 9.78275 85.1483 10.4257C84.5152 11.0686 84.0232 11.8204 83.6755 12.6776C83.3277 13.5349 83.1506 14.4449 83.1506 15.4077C83.1506 16.3704 83.3245 17.2804 83.6755 18.1377C84.0265 18.9949 84.5087 19.7434 85.1319 20.3797C85.7519 21.0161 86.4966 21.5205 87.3626 21.8898C88.2286 22.2591 89.1865 22.447 90.2329 22.447C91.2793 22.447 92.2372 22.2591 93.1032 21.8799C93.9692 21.504 94.7204 20.993 95.3535 20.3501C95.9866 19.7071 96.4787 18.9554 96.8297 18.0981C97.1807 17.2409 97.3546 16.3308 97.3546 15.3681ZM75.6681 12.4237V22.2129H78.0562V8.56281H75.5139L71.3807 15.0186L67.2474 8.56281H64.7051V22.2129H67.0539V12.4633L71.3019 18.8597H71.3807L75.6681 12.4237Z" fill="white"/>
</svg>
