<svg width="168" height="48" viewBox="0 0 168 48" fill="none" xmlns="http://www.w3.org/2000/svg">
<g clip-path="url(#clip0_587_68)">
<path d="M75.1836 0.289097H78.6988C75.7282 7.2205 72.7947 14.0603 69.8662 20.8977H66.8931C65.9673 18.6648 65.0414 16.4393 64.0017 13.9341C62.9447 16.37 61.9817 18.5954 60.9965 20.8704H58.0011C55.1048 14.1197 52.1738 7.28239 49.1908 0.326229H52.7629C54.9835 5.74015 57.2164 11.1813 59.5607 16.8923C60.5336 14.3871 61.4 12.1567 62.2837 9.87672C60.9841 6.7155 59.682 3.54438 58.3427 0.286621H61.9C64.0314 5.70797 66.1678 11.1417 68.3042 16.5754C68.3858 16.5853 68.4675 16.5928 68.5492 16.6027C70.7574 11.1739 72.968 5.7451 75.1861 0.291572L75.1836 0.289097Z" fill="white"/>
<path d="M98.9979 9.0701V12.0283H84.5558V17.9522H99.2207V20.8386H81.1322V0.329102H99.2108V3.15117H84.5583V9.0701H98.9979Z" fill="white"/>
<path d="M102.919 0.272147C107.172 0.272147 111.331 0.195406 115.487 0.299377C118.151 0.366216 120.223 2.21047 120.792 4.67854C121.406 7.33723 120.357 9.9068 118.094 11.2758C117.851 11.4218 117.591 11.5431 117.205 11.7486C118.436 14.7563 119.653 17.7319 120.923 20.8361H117.48C116.284 17.9794 115.069 15.0757 113.834 12.1224H106.251V20.8386H102.919V0.272147ZM106.298 3.20562V9.09979C109.214 9.09979 112.041 9.14682 114.868 9.08246C116.576 9.04285 117.629 7.8051 117.604 6.08958C117.579 4.44089 116.529 3.2576 114.863 3.22295C112.036 3.16353 109.209 3.20562 106.298 3.20562Z" fill="white"/>
<path d="M38.5362 -0.000103974C44.72 0.0518816 49.1288 4.50036 49.0595 10.6198C48.9927 16.4793 44.064 21.2397 38.1302 21.1753C31.9389 21.1085 27.587 16.7071 27.6217 10.548C27.6538 4.69097 32.5603 -0.049614 38.5362 -0.000103974ZM31.0502 10.5307C31.0304 14.8158 34.2659 18.1998 38.3753 18.1899C42.4103 18.18 45.6458 14.796 45.6458 10.5876C45.6458 6.38174 42.4054 2.99773 38.3728 2.98783C34.3204 2.97793 31.0725 6.32481 31.0527 10.5307H31.0502Z" fill="white"/>
<path d="M154.855 10.4539C157.509 13.4591 157.665 16.863 155.301 19.2766C152.969 21.658 148.577 21.8263 146.045 19.6207C144.654 18.4101 144.072 16.8283 144.059 15.0237C144.047 13.172 145.008 11.7659 146.258 10.5356C143.72 7.612 143.661 4.13145 146.067 1.77477C148.392 -0.502695 152.568 -0.586862 154.971 1.59901C157.422 3.82448 157.395 7.27781 154.853 10.4564L154.855 10.4539ZM150.59 12.0333C148.694 12.011 147.335 13.3032 147.349 15.1153C147.364 16.8778 148.686 18.1923 150.476 18.222C152.345 18.2517 153.692 16.957 153.697 15.1177C153.702 13.3354 152.414 12.0531 150.59 12.0308V12.0333ZM150.538 9.10226C152.256 9.10226 153.578 7.79519 153.607 6.06481C153.637 4.28493 152.293 2.93825 150.503 2.95558C148.768 2.97044 147.51 4.27007 147.52 6.03758C147.53 7.78776 148.825 9.10226 150.538 9.10226Z" fill="white"/>
<path d="M20.173 3.23544V20.8412H16.8905V3.23544H9.35999V0.304443H27.7233V3.23544H20.1755H20.173Z" fill="white"/>
<path d="M69.9578 31.8053C73.2601 31.8053 76.5079 31.7087 79.7459 31.8374C82.1768 31.9315 83.8874 33.9614 83.8627 36.3726C83.8354 38.8431 82.0555 40.7468 79.5454 40.8582C77.6566 40.9399 75.7603 40.8854 73.8691 40.8904C73.4284 40.8904 72.9878 40.8904 72.4456 40.8904V47.7005H69.9602V31.8053H69.9578ZM72.4753 38.6203C74.7602 38.6203 76.8991 38.6797 79.0354 38.6005C80.7089 38.5386 81.6496 37.1276 81.1693 35.5953C80.8549 34.5952 80.0875 34.0654 78.773 34.0431C76.961 34.0134 75.1489 34.0307 73.3393 34.0382C73.0645 34.0382 72.7922 34.1001 72.4778 34.1397V38.6203H72.4753Z" fill="white"/>
<path d="M119.762 47.7397H117.24C116.906 47.0193 116.581 46.3237 116.247 45.6083H107.306C106.984 46.3237 106.669 47.0243 106.345 47.7447H103.79C106.093 42.3703 108.355 37.0851 110.615 31.8074H112.93C115.185 37.0678 117.453 42.358 119.76 47.7397H119.762ZM111.766 34.7706C110.591 37.7857 109.35 40.4246 108.36 43.2046H115.257C114.091 40.385 112.984 37.7114 111.766 34.7706Z" fill="white"/>
<path d="M58.8329 31.8052H61.1475C63.3977 37.0533 65.6529 42.3137 67.9601 47.693H65.4375C65.1256 47.0221 64.7964 46.3216 64.4696 45.6185H55.5182C55.189 46.3488 54.8721 47.0494 54.5577 47.7425H52.0079C54.3027 42.3855 56.5554 37.1201 58.8329 31.8027V31.8052ZM56.5034 43.2297H63.4868C62.3258 40.4348 61.2119 37.7538 59.9865 34.8055C58.7537 37.7885 57.6521 40.4521 56.5034 43.2297Z" fill="white"/>
<path d="M135.987 5.40136C134.89 6.41136 133.964 7.26046 132.883 8.25561C132.236 7.49068 131.588 6.7208 130.895 5.90141C132.647 4.10172 134.504 2.19558 136.371 0.279541H139.168V20.8609H135.987V5.40136Z" fill="white"/>
<path d="M49.728 44.0045C50.2974 44.5367 50.8024 45.012 51.2999 45.4774C49.0299 48.552 43.2991 48.849 40.1453 46.1903C36.739 43.3212 36.3058 38.0138 39.2962 34.4936C42.3807 30.862 47.6882 30.5105 51.3866 33.7906C50.8444 34.3723 50.3023 34.9516 49.7701 35.5209C46.4232 33.3054 43.4402 33.4143 41.4128 35.7734C39.4373 38.0682 39.4745 41.6651 41.497 43.8956C43.559 46.173 46.5544 46.2225 49.7305 44.002L49.728 44.0045Z" fill="white"/>
<path d="M96.6215 34.0178H90.7446V31.874H104.924V33.9733H99.1737V47.7172H96.6215V34.0178Z" fill="white"/>
<path d="M124.154 45.5096H130.912V47.7128H121.631V31.8374H124.154V45.5121V45.5096Z" fill="white"/>
<path d="M139.621 36.3895V35.0156H167.569V36.3895H139.621Z" fill="white"/>
<path d="M27.5746 35.0232V36.3971H0V35.0232H27.5746Z" fill="white"/>
<path d="M88.3855 47.7473H86.0139V31.8496H88.3855V47.7473Z" fill="white"/>
</g>
<defs>
<clipPath id="clip0_587_68">
<rect width="167.567" height="48" fill="white"/>
</clipPath>
</defs>
</svg>
