<svg width="180" height="31" viewBox="0 0 180 31" fill="none" xmlns="http://www.w3.org/2000/svg">
<g clip-path="url(#clip0_1589_3512)">
<path fill-rule="evenodd" clip-rule="evenodd" d="M26.6665 0.0952148H30.2141V30.4524H26.6665V0.0952148ZM43.5475 8.07141C45.5475 8.07141 47.4998 8.57141 49.2379 9.49998C50.8808 10.4285 52.2379 11.8095 53.1189 13.5C54.0236 15.2143 54.4998 17.1666 54.4998 19.4047C54.4998 21.6428 54.0475 23.5952 53.1189 25.3095C52.2379 26.9762 50.8808 28.3571 49.2379 29.3095C47.476 30.2381 45.5236 30.7381 43.5475 30.7381C41.5713 30.7381 39.5951 30.2381 37.857 29.3095C36.2141 28.3809 34.857 27 33.976 25.3095C33.0475 23.5952 32.5951 21.6428 32.5951 19.4047C32.5951 17.1905 33.0475 15.2143 33.976 13.5C34.857 11.8333 36.2141 10.4524 37.857 9.49998C39.5951 8.57141 41.5475 8.07141 43.5475 8.07141ZM47.3808 26.5C48.4998 25.8095 49.4046 24.7857 49.9522 23.5952C50.5713 22.2857 50.8808 20.8333 50.857 19.3809C50.8808 17.9285 50.5713 16.5 49.9522 15.1666C49.3808 13.9762 48.4998 12.9524 47.3808 12.2619C46.2141 11.5714 44.8808 11.2143 43.5475 11.2143C42.1903 11.2143 40.8808 11.5714 39.7141 12.2619C38.5951 12.9524 37.6903 13.9762 37.1427 15.1666C36.5236 16.4762 36.2141 17.9285 36.2379 19.3809C36.2141 20.8333 36.5236 22.2857 37.1427 23.5952C37.7141 24.7857 38.5951 25.8095 39.7141 26.5C40.8808 27.1905 42.2141 27.5476 43.5475 27.5476C44.8808 27.5476 46.2141 27.1905 47.3808 26.5ZM105.047 11.7143C104.309 10.5714 103.286 9.64283 102.047 9.0476C100.786 8.40474 99.2379 8.07141 97.4522 8.07141C95.5236 8.0476 93.6427 8.5476 91.9998 9.49998C90.3808 10.4524 89.0713 11.8333 88.1903 13.5C87.2856 15.2143 86.8332 17.1666 86.8332 19.4047C86.8332 21.7381 87.2856 23.7619 88.1903 25.4762C89.0475 27.119 90.357 28.4762 91.9522 29.3809C93.6427 30.2857 95.5236 30.7619 97.4284 30.7143C100.643 30.7143 103.167 29.4524 105.024 26.9047L105.5 30.4524H108.571V0.0952148H105.024V11.7143H105.047ZM104.167 23.6428C103.595 24.8333 102.714 25.8095 101.595 26.5C100.452 27.1905 99.1427 27.5476 97.8094 27.5238C95.6189 27.5238 93.8332 26.7619 92.4998 25.2381C91.1665 23.7143 90.476 21.7619 90.476 19.3571C90.476 16.9762 91.1427 15 92.4998 13.5C93.857 12 95.6189 11.2143 97.8094 11.2143C99.1427 11.1905 100.452 11.5476 101.595 12.2619C102.714 12.9762 103.619 13.9762 104.167 15.1905C104.786 16.5238 105.095 17.9762 105.071 19.4524C105.119 20.9285 104.809 22.3571 104.167 23.6428ZM121.309 8.07141C123.19 8.02379 125.024 8.47617 126.69 9.33331C128.238 10.1666 129.524 11.4285 130.357 12.9762C131.262 14.5714 131.738 16.4285 131.786 18.5714C131.786 18.8809 131.762 19.4047 131.69 20.0952H114.524V20.4047C114.571 22.5714 115.238 24.3095 116.524 25.619C117.786 26.9285 119.452 27.5714 121.524 27.5714C123.119 27.5714 124.476 27.1666 125.571 26.3809C126.69 25.5714 127.476 24.4047 127.809 23.0714H131.405C131.024 25.2381 129.857 27.2143 128.143 28.5952C126.405 30.0238 124.286 30.7381 121.762 30.7381C119.571 30.7381 117.643 30.2619 116 29.3333C114.357 28.4047 113.024 27.0238 112.167 25.3333C111.262 23.619 110.809 21.6428 110.809 19.4047C110.809 17.1428 111.262 15.1666 112.143 13.4524C112.976 11.8095 114.262 10.4285 115.857 9.47617C117.5 8.52379 119.405 8.02379 121.309 8.07141ZM115.405 14.7619C115.024 15.5 114.809 16.3095 114.762 17.119H128.119C127.952 15.2381 127.238 13.7857 126.024 12.7381C124.786 11.6905 123.238 11.1666 121.357 11.1666C119.738 11.1428 118.143 11.7381 116.928 12.8095C116.309 13.3571 115.786 14.0238 115.405 14.7619ZM147.476 18.4285C145.905 17.9524 144.309 17.6428 142.69 17.4762C141.309 17.3095 140.262 17.1428 139.595 17C138.976 16.8809 138.405 16.5952 137.928 16.1666C137.5 15.7619 137.286 15.1905 137.286 14.4285C137.286 13.4285 137.738 12.5952 138.667 11.9762C139.595 11.3571 140.809 11.0476 142.309 11.0476C143.786 11.0476 145.024 11.4285 146 12.1666C146.476 12.5 146.857 12.9285 147.143 13.4285C147.428 13.9285 147.619 14.4762 147.69 15.0476H151.238C151.071 12.7857 150.167 11.0476 148.524 9.83331C146.881 8.61902 144.762 7.99998 142.166 7.99998C140.69 7.97617 139.214 8.26188 137.857 8.85712C136.667 9.35712 135.619 10.1905 134.857 11.2143C134.119 12.2143 133.738 13.4285 133.762 14.6905C133.762 16.1428 134.143 17.2619 134.881 18.0952C135.69 18.9524 136.69 19.5714 137.833 19.9047C139.357 20.3333 140.928 20.6428 142.524 20.8095C143.881 20.9762 144.928 21.1666 145.667 21.3333C146.333 21.4762 146.976 21.8095 147.476 22.2857C147.928 22.7381 148.167 23.4047 148.167 24.2857C148.167 25.3095 147.69 26.119 146.714 26.7381C145.738 27.3571 144.476 27.6666 142.928 27.6666C141.167 27.6666 139.738 27.2381 138.619 26.4047C138.095 26.0476 137.667 25.5476 137.357 24.9762C137.047 24.4047 136.881 23.7857 136.857 23.1428H133.309C133.333 25.5238 134.238 27.3571 135.976 28.6905C137.714 30.0238 140.047 30.6905 142.928 30.6905C144.452 30.7143 145.952 30.4285 147.357 29.8571C148.595 29.3809 149.69 28.5714 150.524 27.5238C151.309 26.5238 151.714 25.2857 151.69 24.0238C151.69 22.5 151.309 21.2857 150.547 20.3809C149.714 19.4524 148.643 18.7857 147.476 18.4285ZM153.809 0.0952148H157.405V30.4524H153.809V0.0952148ZM163.167 18.4762L173.024 8.33331H168.024L160.595 15.9762C159.69 16.8809 159.19 18.119 159.19 19.4047C159.19 20.6905 159.69 21.9047 160.595 22.8333L168 30.4762H173L163.167 20.3333C162.928 20.0952 162.786 19.7619 162.786 19.4047C162.786 19.0476 162.928 18.7143 163.167 18.4762ZM57.976 8.28569H54.2856L61.3808 30.4285H65.1903L70.7617 13.9285L76.0713 30.4285H79.8332L87.2379 8.28569H83.6665L77.9522 26.119L72.4998 8.28569H69.2379L63.476 26.119L57.976 8.28569Z" fill="white"/>
<path d="M175.857 8.33325H177.452V8.69039H176.857V10.119H176.452V8.69039H175.857V8.33325ZM177.666 8.33325H178.214L178.809 9.64278L179.381 8.33325H179.928V10.1428H179.547V8.78563L178.952 10.1428H178.619L178.024 8.78563V10.1428H177.643V8.33325H177.666Z" fill="white"/>
<path d="M11.9764 3.40474C10.1669 3.40474 8.69071 4.88093 8.69071 6.69045C8.69071 8.49998 10.1669 9.97617 11.9764 9.97617H23.7383V13.2857H10.7383C11.4764 13.3333 12.1431 13.5 12.6907 13.8571C13.3336 14.2857 13.7145 14.9524 13.7145 15.8809V30.4524H10.0717V15.4285C10.0717 15.1666 9.85737 14.9285 9.57166 14.9285H0.0478516V11.6428H10.0717C8.76214 11.5952 7.54785 11.1905 6.64309 10.4524C5.6669 9.66664 5.04785 7.76188 5.04785 6.28569C5.04785 2.85712 7.80976 0.0952148 11.2145 0.0952148H23.7145V3.40474H11.9764Z" fill="white"/>
</g>
<defs>
<clipPath id="clip0_1589_3512">
<rect width="180" height="30.7143" fill="white"/>
</clipPath>
</defs>
</svg>
