<svg width="222" height="67" viewBox="0 0 222 67" fill="none" xmlns="http://www.w3.org/2000/svg">
    <g clip-path="url(#clip0_704_10153)">
    <path d="M81.4512 16.5449C82.0198 16.3171 82.581 15.9185 83.1569 15.8946C84.5618 15.8359 85.9907 15.834 87.3826 16.0196C90.0741 16.3796 91.8962 18.854 91.7282 21.7233C91.5528 24.701 89.5056 26.8649 86.7235 26.9586C85.4036 27.0027 84.08 27.0119 82.7619 26.9439C82.317 26.9219 81.8868 26.617 81.4512 26.4406C81.4512 23.1414 81.4512 19.8423 81.4512 16.5449ZM83.6092 25.0243C84.5636 25.0243 85.4479 25.0372 86.3322 25.0225C88.1229 24.9912 89.4834 23.608 89.5868 21.727C89.7049 19.6016 88.5548 18.0071 86.6922 17.8418C85.6934 17.7536 84.6781 17.8253 83.6074 17.8253V25.0261L83.6092 25.0243Z" fill="white"/>
    <path d="M107.645 27.358C107.065 27.1743 106.469 27.0329 105.913 26.7941C105.472 26.6049 104.935 26.3863 104.711 26.017C104.494 25.6588 104.453 25.0159 104.632 24.6393C104.865 24.1507 105.4 24.2131 105.917 24.4666C106.596 24.7991 107.318 25.0692 108.047 25.2767C108.446 25.3906 108.904 25.3741 109.325 25.3245C110.155 25.2253 110.818 24.823 110.927 23.9413C111.031 23.1018 110.346 22.784 109.705 22.5489C108.815 22.2219 107.889 21.9959 106.995 21.6781C105.143 21.0187 104.451 20.102 104.532 18.4984C104.606 17.0527 105.627 15.9542 107.37 15.5721C108.786 15.2598 110.181 15.3627 111.47 16.103C112.037 16.4281 112.515 16.8708 112.133 17.5799C111.763 18.2669 111.215 17.9822 110.619 17.8077C109.727 17.5487 108.788 17.3686 107.863 17.3448C107.183 17.3282 106.646 17.8095 106.554 18.5406C106.462 19.2754 106.971 19.6648 107.577 19.8834C108.756 20.3096 109.986 20.6109 111.136 21.1013C112.906 21.8563 113.502 23.5022 112.729 25.1794C112.225 26.2724 111.276 26.7867 110.183 27.1137C109.891 27.2019 109.598 27.2772 109.304 27.358H107.645Z" fill="white"/>
    <path d="M161.956 20.9794C163.056 21.582 163.693 22.4857 163.63 23.7753C163.541 25.5847 162.317 26.8632 160.457 26.9422C158.647 27.0193 156.835 26.9697 155.022 26.9661C154.296 26.9661 153.968 26.5564 153.968 25.8639C153.966 22.9046 153.968 19.9452 153.968 16.9859C153.968 16.2162 154.4 15.8764 155.123 15.869C156.596 15.8562 158.071 15.8562 159.545 15.869C161.884 15.8856 163.73 18.2148 161.957 20.9813L161.956 20.9794ZM156.102 25.0189C157.505 25.0189 158.847 25.0575 160.185 25.0042C160.985 24.973 161.35 24.4256 161.368 23.6522C161.389 22.8311 160.948 22.2286 160.185 22.2028C158.847 22.1569 157.505 22.19 156.104 22.19V25.0189H156.102ZM156.102 20.23C157.296 20.23 158.398 20.252 159.498 20.2226C160.253 20.2024 160.588 19.7046 160.591 19.0121C160.595 18.2993 160.193 17.8474 159.471 17.8199C158.37 17.7795 157.268 17.8088 156.102 17.8088V20.23Z" fill="white"/>
    <path d="M213.995 26.9712C213.319 26.9712 212.646 26.9748 211.97 26.9712C211.191 26.9675 210.777 26.6074 210.779 25.801C210.787 22.906 210.789 20.0091 210.779 17.114C210.776 16.3113 211.222 15.8888 211.953 15.8851C213.545 15.8778 215.154 15.83 216.725 16.0321C219.4 16.3774 221.219 18.8922 221.036 21.7505C220.846 24.7301 218.8 26.8628 216.022 26.9656C215.348 26.9914 214.673 26.9693 213.997 26.9693L213.995 26.9712ZM212.91 25.0277C213.899 25.0277 214.783 25.0423 215.67 25.024C217.416 24.9909 218.762 23.6316 218.893 21.7909C219.04 19.7152 217.964 18.0931 216.153 17.8709C215.105 17.7423 214.028 17.847 212.91 17.847V25.0258V25.0277Z" fill="white"/>
    <path d="M138.64 22.6967C139.258 23.4462 139.844 24.1497 140.421 24.8588C141.084 25.6744 141.117 26.2365 140.545 26.6829C139.964 27.1366 139.33 26.9327 138.717 26.0804C138.182 25.3364 137.599 24.6182 137.15 23.8246C136.727 23.077 136.168 22.8345 135.356 22.9318C134.939 22.9814 134.51 22.941 133.971 22.941C133.971 23.865 133.982 24.7082 133.968 25.5513C133.951 26.4496 133.526 26.975 132.834 26.907C132.024 26.828 131.817 26.2843 131.822 25.544C131.843 22.7996 131.826 20.0533 131.832 17.3089C131.833 16.2049 132.086 15.9459 133.176 15.9349C134.464 15.922 135.754 15.9128 137.043 15.9367C138.843 15.9698 140.141 16.9121 140.575 18.4625C141.019 20.0497 140.438 21.4568 138.928 22.4561C138.852 22.5057 138.786 22.57 138.638 22.693L138.64 22.6967ZM134.012 21.1518C135.127 21.1518 136.135 21.1812 137.141 21.1426C138.025 21.1077 138.614 20.496 138.69 19.6327C138.769 18.7362 138.298 17.9408 137.468 17.8729C136.325 17.7792 135.169 17.849 134.012 17.849V21.1518Z" fill="white"/>
    <path d="M199.869 17.9938V20.424C200.994 20.424 202.118 20.4204 203.244 20.4259C203.55 20.4259 203.944 20.3377 204.143 20.4902C204.466 20.7345 204.891 21.1754 204.852 21.4785C204.806 21.8367 204.344 22.3657 204.003 22.4153C203.069 22.5512 202.105 22.4759 201.152 22.4833C200.757 22.4869 200.364 22.4833 199.899 22.4833V24.9172C201.143 24.9172 202.367 24.9172 203.589 24.9172C203.958 24.9172 204.328 24.9117 204.695 24.9283C205.365 24.9595 205.832 25.2497 205.828 25.9772C205.825 26.7175 205.337 26.9728 204.665 26.9746C203.65 26.9783 202.637 26.9746 201.621 26.9765C200.73 26.9765 199.838 26.9636 198.946 26.9801C198.112 26.9967 197.682 26.633 197.684 25.7843C197.687 22.8819 197.687 19.9813 197.684 17.0789C197.684 16.3754 198.023 15.9602 198.728 15.9529C200.634 15.9308 202.541 15.9345 204.446 15.9511C205.079 15.9566 205.533 16.267 205.529 16.9412C205.526 17.6411 205.088 17.9864 204.398 17.9919C202.925 18.0011 201.451 17.9938 199.868 17.9938H199.869Z" fill="white"/>
    <path d="M168.725 20.0372C168.725 19.1517 168.721 18.2663 168.725 17.3809C168.728 16.3614 169.081 15.8599 169.777 15.8673C170.471 15.8746 170.79 16.3467 170.794 17.4103C170.8 19.0599 170.787 20.7076 170.8 22.3572C170.816 24.6442 173.017 25.9485 175.07 24.8922C175.978 24.4238 176.382 23.6523 176.382 22.6493C176.379 20.9703 176.382 19.2914 176.382 17.6105C176.382 17.3662 176.373 17.1201 176.401 16.8794C176.471 16.2402 176.827 15.8562 177.484 15.8746C178.11 15.893 178.439 16.3045 178.442 16.8941C178.457 19.0305 178.538 21.1742 178.406 23.3033C178.256 25.6748 176.092 27.3078 173.467 27.2288C170.731 27.1462 168.821 25.4396 168.732 22.9689C168.697 21.9935 168.727 21.0144 168.725 20.0372Z" fill="white"/>
    <path d="M121.169 17.8384C120.185 17.8384 119.328 17.842 118.472 17.8384C117.828 17.8347 117.386 17.5536 117.379 16.874C117.372 16.1576 117.811 15.8398 118.503 15.8379C120.959 15.8379 123.416 15.8324 125.871 15.8398C126.532 15.8416 127.023 16.0896 127.017 16.8464C127.012 17.5977 126.53 17.8365 125.862 17.8384C125.042 17.842 124.221 17.8384 123.301 17.8384C123.301 19.7433 123.301 21.5343 123.301 23.3254C123.301 24.1483 123.299 24.9731 123.301 25.7961C123.301 26.4647 123.039 26.9515 122.315 26.9791C121.534 27.0103 121.235 26.518 121.234 25.8052C121.23 23.487 121.232 21.1688 121.226 18.8505C121.226 18.5511 121.195 18.2535 121.171 17.8347L121.169 17.8384Z" fill="white"/>
    <path d="M188.971 17.8378C188.971 20.2828 188.971 22.5955 188.971 24.9082C188.971 25.2131 188.971 25.5181 188.971 25.823C188.967 26.4972 188.678 26.9638 187.958 26.9803C187.234 26.9968 186.913 26.5468 186.907 25.8671C186.896 24.4343 186.9 22.9996 186.9 21.5668C186.9 20.3562 186.9 19.1457 186.9 17.8378C185.942 17.8378 185.12 17.8323 184.299 17.8396C183.599 17.8469 183.045 17.6394 183.051 16.8403C183.056 16.0596 183.586 15.8263 184.295 15.8281C186.689 15.8355 189.084 15.8281 191.478 15.8336C192.172 15.8336 192.706 16.0578 192.685 16.8715C192.667 17.6284 192.161 17.8359 191.502 17.8359C190.708 17.8359 189.914 17.8359 188.969 17.8359L188.971 17.8378Z" fill="white"/>
    <path d="M97.1524 21.4989C97.1524 20.0642 97.1671 18.6295 97.1468 17.1949C97.1358 16.4436 97.385 15.8888 98.2009 15.8906C99.0335 15.8925 99.2329 16.4858 99.2292 17.2169C99.2181 20.0256 99.2292 22.8325 99.2218 25.6412C99.22 26.5854 98.8471 27.041 98.1289 26.9858C97.2705 26.9216 97.1395 26.3301 97.1468 25.6173C97.1634 24.2433 97.1524 22.8711 97.1524 21.497V21.4989Z" fill="white"/>
    <path d="M148.29 21.4828C148.29 22.9174 148.284 24.3521 148.292 25.7867C148.295 26.5087 148.007 26.9936 147.232 26.9844C146.447 26.9753 146.211 26.4627 146.213 25.75C146.222 22.8807 146.226 20.0114 146.213 17.142C146.209 16.4219 146.473 15.9076 147.228 15.8911C148.053 15.8727 148.301 16.4348 148.293 17.1788C148.279 18.6134 148.29 20.0481 148.29 21.4828Z" fill="white"/>
    <path d="M133.18 45.68C134.29 46.2697 134.925 47.1771 134.871 48.463C134.794 50.3018 133.525 51.5895 131.622 51.6556C129.842 51.7181 128.061 51.674 126.279 51.6722C125.558 51.6722 125.209 51.2809 125.209 50.5847C125.203 47.6254 125.209 44.666 125.205 41.7067C125.205 40.9407 125.617 40.5806 126.344 40.5733C127.849 40.5586 129.355 40.5384 130.858 40.577C133.306 40.6412 134.899 43.1193 133.182 45.6782L133.18 45.68ZM127.335 49.7232C128.757 49.7232 130.099 49.7654 131.437 49.7066C132.237 49.6717 132.593 49.1151 132.606 48.3436C132.619 47.5758 132.287 46.9714 131.498 46.9236C130.134 46.8428 128.762 46.9016 127.335 46.9016V49.7232ZM127.335 44.9287C128.545 44.9287 129.704 44.9728 130.858 44.9122C131.559 44.8754 131.842 44.3372 131.834 43.6906C131.825 43.0219 131.45 42.5645 130.777 42.5333C129.65 42.4819 128.521 42.5186 127.335 42.5186V44.9269V44.9287Z" fill="white"/>
    <path d="M114.136 51.8646C110.658 51.8646 108.236 49.4967 108.234 46.0928C108.233 42.6871 110.747 40.1797 114.162 40.1797C117.498 40.1797 120.058 42.711 120.081 46.0286C120.105 49.4618 117.657 51.8627 114.136 51.8627V51.8646ZM114.168 49.9192C116.376 49.9064 118.004 48.2825 118.009 46.0892C118.015 43.8646 116.333 42.2132 114.096 42.2407C111.888 42.2701 110.293 43.9014 110.309 46.1149C110.326 48.3137 111.965 49.9303 114.168 49.9174V49.9192Z" fill="white"/>
    <path d="M89.0005 47.2541C88.2898 47.2541 87.5569 47.2706 86.8258 47.2486C86.2111 47.2302 85.72 47.0025 85.7403 46.286C85.7588 45.6082 86.1945 45.3216 86.8332 45.3161C87.8467 45.3069 88.8602 45.2922 89.8718 45.3235C90.6324 45.3474 91.0515 45.7405 91.0367 46.5451C91.0201 47.4911 91.1106 48.4445 91.0016 49.3776C90.9444 49.8608 90.673 50.4523 90.302 50.7462C88.2399 52.3792 84.5053 52.2047 82.6039 50.4596C80.7597 48.7659 80.3775 45.3823 81.775 43.0989C83.202 40.766 86.2628 39.7355 88.862 40.7476C89.366 40.9442 89.8368 41.2565 90.2798 41.5779C90.8558 41.9949 91.0552 42.5589 90.5383 43.1448C90.0675 43.6812 89.5174 43.6169 89.006 43.1559C86.8406 41.1977 83.9109 42.7517 83.2131 44.8734C82.7276 46.354 83.1189 48.1377 84.2303 49.0819C85.5096 50.1694 86.9643 50.2043 88.4651 49.6275C89.2516 49.3244 89.3531 48.8229 89.0023 47.256L89.0005 47.2541Z" fill="white"/>
    <path d="M139.309 50.621C139.37 50.452 139.438 50.1838 139.56 49.945C141.025 47.0977 142.478 44.243 143.992 41.4215C144.19 41.0541 144.712 40.6316 145.074 40.6408C145.441 40.65 145.934 41.0908 146.132 41.4656C147.603 44.2761 149.032 47.1087 150.426 49.9578C150.601 50.316 150.631 50.8726 150.472 51.2235C150.355 51.4807 149.761 51.7415 149.488 51.657C149.119 51.5413 148.712 51.1518 148.57 50.7844C148.238 49.9339 147.714 49.6712 146.818 49.73C145.565 49.8109 144.3 49.798 143.045 49.7319C142.283 49.6915 141.847 49.9431 141.587 50.6467C141.385 51.1941 141.123 51.7139 140.381 51.7213C139.678 51.7286 139.39 51.3576 139.309 50.621ZM145.033 43.6736C144.313 45.1229 143.702 46.3537 143.071 47.6286H146.857C146.246 46.3041 145.681 45.0789 145.033 43.6736Z" fill="white"/>
    <path d="M98.5677 49.6179C99.9043 49.6179 101.099 49.6142 102.291 49.6197C102.598 49.6197 102.974 49.5426 103.194 49.6877C103.558 49.9283 104.058 50.3196 104.058 50.6466C104.058 50.9828 103.541 51.5963 103.227 51.611C101.298 51.701 99.3597 51.701 97.4287 51.611C97.1407 51.5981 96.6552 50.9534 96.6478 50.5933C96.5851 47.6046 96.6091 44.614 96.6146 41.6235C96.6146 40.9695 96.9764 40.5525 97.6262 40.5709C98.2982 40.5893 98.5622 41.0834 98.564 41.7061C98.5714 43.9344 98.5677 46.1608 98.5677 48.389C98.5677 48.7509 98.5677 49.1146 98.5677 49.6197V49.6179Z" fill="white"/>
    <path d="M157.228 49.6136C158.563 49.6136 159.755 49.6099 160.948 49.6172C161.284 49.6191 161.69 49.5474 161.939 49.7054C162.282 49.9203 162.755 50.3483 162.722 50.6331C162.679 51.0005 162.203 51.592 161.891 51.6067C159.962 51.6985 158.024 51.6985 156.093 51.6067C155.805 51.5938 155.317 50.9509 155.308 50.5908C155.245 47.6021 155.269 44.6115 155.275 41.621C155.275 40.967 155.633 40.5482 156.283 40.5629C156.955 40.5776 157.22 41.0717 157.222 41.6944C157.23 43.9227 157.226 46.1491 157.226 48.3773C157.226 48.7392 157.226 49.101 157.226 49.6117L157.228 49.6136Z" fill="white"/>
    <path d="M37.6258 0.554688C37.7735 0.668579 37.9138 0.865133 38.0726 0.881666C42.6416 1.3703 46.8063 3.02723 50.6757 5.38037C53.9266 7.35877 56.7419 9.86254 59.1399 12.8494C60.9564 15.1089 62.4776 17.5318 63.6683 20.1421C64.3772 21.6944 64.7722 23.3881 65.3205 25.0138C66.6589 28.9761 66.5648 33.078 66.3082 37.1469C66.1808 39.1693 65.4867 41.1643 64.9846 43.1574C64.1907 46.3059 62.6917 49.1348 60.9066 51.8333C59.0661 54.6145 56.8231 57.0282 54.2478 59.1407C51.9661 61.0126 49.472 62.5777 46.7583 63.7405C45.1781 64.4165 43.5037 64.8739 41.8681 65.4194C38.187 66.6447 34.3712 66.6667 30.5739 66.4536C28.606 66.3434 26.6528 65.8493 24.7126 65.436C21.6075 64.7747 18.7757 63.4557 16.0527 61.8411C12.5433 59.7598 9.53978 57.1311 7.03282 53.9513C4.76216 51.071 2.94932 47.9353 1.79184 44.4322C1.13464 42.4465 0.442365 40.4754 0.342678 38.3703C0.207915 35.5248 -0.065303 32.6665 0.100843 29.8358C0.218991 27.8133 0.931573 25.8202 1.43555 23.8289C2.0909 21.2406 3.27239 18.8783 4.63663 16.584C6.73191 13.0625 9.40871 10.0573 12.6319 7.54247C15.2404 5.50712 18.076 3.84651 21.2198 2.7076C23.5367 1.86811 25.8516 1.09108 28.3272 0.881666C28.4841 0.868807 28.6244 0.668579 28.774 0.554688C31.7258 0.554688 34.6777 0.554688 37.6295 0.554688L37.6258 0.554688ZM23.7896 63.7074C23.8505 63.599 23.9114 63.4906 23.9723 63.3823C23.8413 63.2812 23.7157 63.1728 23.5791 63.0792C19.7338 60.4192 17.4077 56.7104 16.7025 52.197C16.1653 48.7546 16.5678 45.2864 18.2477 42.0846C18.4046 41.7852 18.4138 41.3167 18.3086 40.9861C17.7862 39.3549 16.9074 37.7806 16.7007 36.1182C16.2742 32.7124 16.5844 29.3306 18.1905 26.1729C18.3603 25.8386 18.3455 25.3279 18.2329 24.9513C17.7345 23.2778 16.8853 21.654 16.697 19.9548C16.4275 17.5153 16.4478 15.0446 17.2619 12.6088C18.2218 9.74131 19.7153 7.29081 21.973 5.28852C22.6284 4.70805 23.3114 4.15696 23.9797 3.59118C23.904 3.503 23.8302 3.41483 23.7545 3.32665C15.353 5.93697 8.87335 11.13 4.95969 18.9279C-0.897879 30.5999 0.0546914 42.0607 7.84325 52.6416C11.8437 58.0753 17.225 61.8429 23.7896 63.7092V63.7074ZM42.4625 3.30461C42.4625 3.65914 42.4496 3.70323 42.4644 3.71425C42.577 3.80426 42.6933 3.89244 42.8133 3.9751C46.6531 6.63685 48.9828 10.3402 49.6936 14.8536C50.2363 18.2978 49.808 21.7587 48.1576 24.966C47.9952 25.282 48.0229 25.7743 48.1355 26.1325C48.645 27.7692 49.5182 29.3526 49.7028 31.0169C50.0831 34.4447 49.8708 37.8669 48.0801 40.9971C47.9361 41.2488 47.9417 41.6639 48.034 41.956C48.4881 43.3907 49.1139 44.7812 49.4591 46.2398C50.1034 48.9511 49.9373 51.6478 49.1471 54.3481C48.2057 57.5683 46.3559 60.1382 43.8692 62.315C43.4077 62.7191 42.8853 63.0553 42.1985 63.5659C46.8451 63.0498 55.8225 58.2222 60.6758 49.5151C67.3457 37.5491 66.7032 25.6732 58.6045 14.5119C54.6115 9.00836 49.1933 5.25546 42.4625 3.30461ZM46.9946 43.1868C46.7989 43.3649 46.6125 43.5266 46.4353 43.6993C45.4735 44.6324 44.5634 45.6226 43.5462 46.4914C41.2589 48.446 38.536 49.6179 35.5878 49.9412C32.7245 50.2554 29.8299 50.147 27.0756 48.9475C24.5686 47.8545 22.3072 46.4823 20.5866 44.3165C20.2488 43.8903 19.7984 43.5542 19.3775 43.1555C17.7326 46.6568 17.5683 50.158 18.4895 53.6317C19.4033 57.0778 21.4266 59.9251 24.4062 61.9568C29.865 65.6785 36.5348 65.6895 41.9862 61.9549C45.3461 59.6532 47.4838 56.3871 48.1872 52.4267C48.7318 49.3571 48.5896 46.2214 46.9946 43.1886V43.1868ZM46.9983 23.9924C50.3822 16.1504 47.2937 8.83017 42.0195 5.13973C36.6659 1.39601 29.7413 1.38867 24.3803 5.13789C19.0544 8.8614 16.025 16.2276 19.4015 23.9887C22.9865 19.6388 27.3562 17.0248 33.1473 17.012C38.9772 16.9991 43.3874 19.6039 46.9983 23.9924ZM32.5473 18.4338C31.1332 18.3456 29.1912 18.781 27.2989 19.5764C24.4671 20.7667 22.2038 22.6147 20.5091 25.1515C20.3947 25.3224 20.354 25.6806 20.4574 25.8312C23.4905 30.2675 27.7992 32.4902 33.1177 32.7033C34.6537 32.7639 36.2671 32.4442 37.7495 31.9924C40.6442 31.1069 43.0754 29.4371 45.012 27.0914C46.2027 25.6475 46.2156 25.6567 45.1264 24.1467C45.0064 23.9795 44.892 23.805 44.7553 23.6526C41.6687 20.2358 37.8603 18.397 32.5473 18.4356V18.4338ZM34.0223 48.6407C35.2518 48.7178 37.192 48.2862 39.0861 47.4889C41.9179 46.2967 44.1886 44.4579 45.8778 41.9156C45.9922 41.7429 46.0291 41.4104 45.9405 41.2341C45.743 40.8465 45.455 40.5011 45.1781 40.1595C42.0472 36.3184 37.9157 34.5145 33.0162 34.329C32.335 34.3032 31.6446 34.4924 30.9615 34.6063C30.1585 34.7404 29.3241 34.8066 28.5635 35.0693C25.8221 36.019 23.4702 37.5638 21.5484 39.7553C20.1639 41.3351 20.1344 41.3094 21.3158 42.9792C21.434 43.1445 21.5632 43.3025 21.6998 43.455C24.7569 46.8754 28.569 48.6388 34.0242 48.6407H34.0223ZM19.3442 39.9794C19.7005 39.6727 20.0014 39.4945 20.1934 39.2355C22.1023 36.6601 24.6868 35.027 27.646 33.9009C27.814 33.8367 27.9469 33.6842 28.0964 33.574C27.9451 33.4344 27.8177 33.2305 27.6405 33.1625C24.6849 32.0309 22.1041 30.3979 20.1934 27.828C19.9922 27.5579 19.6599 27.3853 19.3332 27.1226C17.5185 31.4541 17.5388 35.6093 19.3461 39.9794H19.3442ZM47.05 39.9794C48.8647 35.5891 48.8684 31.4266 47.0426 27.0914C46.6974 27.3871 46.3947 27.5634 46.2045 27.8206C44.3012 30.4071 41.7057 32.0291 38.7482 33.1625C38.5803 33.2268 38.4473 33.3793 38.2978 33.4895C38.4492 33.6291 38.5766 33.8311 38.7556 33.9009C41.7093 35.0344 44.2975 36.6619 46.2027 39.241C46.3928 39.5 46.6956 39.6763 47.05 39.9776V39.9794Z" fill="white"/>
    </g>
    <defs>
    <clipPath id="clip0_704_10153">
    <rect width="221" height="66" fill="white" transform="translate(0.0449219 0.554688)"/>
    </clipPath>
    </defs>
    </svg>
    