<svg width="150" height="27" viewBox="0 0 150 27" fill="none" xmlns="http://www.w3.org/2000/svg">
<g clip-path="url(#clip0_1590_3545)">
<path d="M136.566 21.0202C132.079 21.0202 128.684 17.6201 128.684 13.125C128.684 8.62995 132.079 5.18661 136.566 5.18661C141.054 5.18661 144.491 8.58675 144.491 13.125C144.491 17.6633 141.097 21.0202 136.566 21.0202ZM109.396 26.25C113.452 26.25 117.02 24.6796 119.408 22.0575L115.625 18.4413C114.1 20.0116 111.928 21.0634 109.396 21.0634C104.909 21.0634 101.515 17.6633 101.515 13.125C101.515 8.58675 104.909 5.18661 109.396 5.18661C111.928 5.18661 114.1 6.23834 115.625 7.8087L119.408 4.19251C117.005 1.57039 113.438 0 109.396 0C101.774 0 96.0352 5.63323 96.0352 13.125C96.0352 20.6168 101.788 26.25 109.396 26.25ZM64.6802 25.9043H69.9444V6.71378H70.1601L79.437 25.9043H89.4907V0.345774H84.2265V23.3398H84.0112L74.3024 3.27044C73.2956 1.18139 71.4258 0.129665 69.4266 0.129665C66.55 0.129665 64.6802 2.13227 64.6802 5.14339V25.9043ZM44.731 21.0202C40.2436 21.0202 36.8491 17.6201 36.8491 13.125C36.8491 8.62995 40.2436 5.18661 44.731 5.18661C49.2185 5.18661 52.6561 8.58675 52.6561 13.125C52.6561 17.6633 49.2616 21.0202 44.731 21.0202ZM44.731 26.25C52.3972 26.25 58.1503 20.6168 58.1503 13.125C58.1503 5.63323 52.3828 0 44.7167 0C37.0505 0 31.3549 5.63323 31.3549 13.125C31.3549 20.6168 37.108 26.25 44.7167 26.25H44.731ZM0.014383 25.9043H5.26417V6.71378H5.47991L14.7569 25.9043H24.8106V0.345774H19.5464V23.3398H19.3307L9.6222 3.27044C8.6154 1.18139 6.74561 0.129665 4.74638 0.129665C1.86979 0.129665 0 2.13227 0 5.14339V25.9043H0.014383ZM136.581 26.25C144.247 26.25 150 20.6168 150 13.125C150 5.63323 144.232 0 136.566 0C128.9 0 123.205 5.63323 123.205 13.125C123.205 20.6168 128.958 26.25 136.566 26.25H136.581Z" fill="white"/>
</g>
<defs>
<clipPath id="clip0_1590_3545">
<rect width="150" height="26.25" fill="white"/>
</clipPath>
</defs>
</svg>
