<svg width="180" height="32" viewBox="0 0 180 32" fill="none" xmlns="http://www.w3.org/2000/svg">
<g clip-path="url(#clip0_541_780)">
<path fill-rule="evenodd" clip-rule="evenodd" d="M40.0792 27.7758H42.0216L42.4101 28.9918H43.3813L41.6331 23.8078H40.5971L38.7842 28.9918H39.6907L40.0792 27.7758ZM41.7626 26.9438H40.3381L41.0504 24.8958L41.7626 26.9438ZM47.4605 28.9918H49.5971C51.4748 28.9918 52.0576 27.7758 52.0576 26.3678C52.0576 24.8958 51.2806 23.8078 49.5971 23.8078H47.4605V28.9918ZM48.4317 24.5758H49.6619C50.5684 24.5758 51.0864 25.2158 51.0864 26.3038C51.0864 27.5198 50.5684 28.0958 49.6619 28.0958H48.4317V24.5758ZM57.2374 26.4958C57.8202 26.3678 58.2087 25.9838 58.2087 25.2158C58.2087 24.1918 57.3669 23.7438 56.3957 23.7438H53.9353V28.9278H54.9065V26.8158H56.072C56.8489 26.8158 57.0432 27.1358 57.1079 27.9038C57.1727 28.5438 57.2374 28.7998 57.3022 28.9918H58.2734C58.1439 28.7998 58.0792 28.4798 58.0144 27.8398C58.0144 27.0718 57.6907 26.6878 57.2374 26.4958ZM54.8417 25.9838V24.5758H56.3957C56.8489 24.5758 57.2374 24.7678 57.2374 25.2158C57.2374 25.7278 56.9137 25.9198 56.331 25.9198C56.331 25.9838 54.8417 25.9838 54.8417 25.9838ZM63.0648 25.0238L64.1655 28.9278H65.1367L66.6259 23.7438H65.6547L64.6187 27.5198L63.5828 23.7438H62.5468L61.5108 27.5198L60.5396 23.7438H59.5036L60.9281 28.9278H61.964C61.964 28.9918 63.0648 25.0238 63.0648 25.0238ZM75.1727 27.6478L74.331 27.1998C74.1367 27.7758 73.7482 28.1598 72.9712 28.1598C71.8058 28.1598 71.4173 27.4558 71.4173 26.3038C71.4173 25.2158 71.8705 24.4478 72.9712 24.4478C73.7482 24.4478 74.072 24.8958 74.2662 25.4718L75.1079 25.0238C74.7842 24.1278 74.072 23.6158 72.9712 23.6158C71.2878 23.6158 70.3813 24.7678 70.3813 26.3038C70.3813 27.9038 71.223 28.9918 72.9065 28.9918C74.2662 29.0558 74.9137 28.4158 75.1727 27.6478ZM76.5971 26.3678C76.5971 27.9678 77.6331 29.0558 79.2518 29.0558C80.9353 29.0558 81.8417 27.9038 81.8417 26.3678C81.8417 24.8318 80.8058 23.6798 79.1871 23.6798C77.6331 23.6798 76.5971 24.8318 76.5971 26.3678ZM79.2518 24.5118C80.2878 24.5118 80.8705 25.2158 80.8705 26.3038C80.8705 27.5838 80.3525 28.1598 79.2518 28.1598C78.2158 28.1598 77.6331 27.4558 77.6331 26.3038C77.6331 25.2798 78.2158 24.5118 79.2518 24.5118ZM88.8993 23.7438H87.6043L86.2446 27.3278L84.9497 23.7438H83.59V28.9278H84.4317V25.0238L85.8561 28.9278H86.5036L87.9281 25.0238V28.9278H88.8346V23.7438H88.8993ZM93.8202 23.7438H91.1655V28.9278H92.1367V26.7518H93.8202C94.8561 26.7518 95.5684 26.2398 95.5684 25.2158C95.5684 24.2558 94.7266 23.7438 93.8202 23.7438ZM92.1367 25.9838V24.6398H93.7554C94.2087 24.6398 94.5324 24.8318 94.5324 25.2798C94.5324 25.7918 94.2087 25.9838 93.7554 25.9838H92.1367ZM97.5756 27.7758H99.518L99.9065 28.9918H100.878L99.1295 23.8078H98.0935L96.2806 28.9918H97.1871L97.5756 27.7758ZM99.259 26.9438H97.8993L98.6115 24.8958L99.259 26.9438ZM105.928 27.3278L103.662 23.7438H102.561V28.9278H103.403V25.0238L105.863 28.9278H106.835V23.7438H105.993L105.928 27.3278ZM110.266 27.0078V28.9278H111.237V26.9438L113.05 23.7438H112.014L110.784 25.9838L109.489 23.7438H108.389L110.266 27.0078ZM44.0935 16.3198C47.1367 16.3198 48.6907 14.9118 49.7266 13.1198L47.0072 11.5198C46.4892 12.7358 45.518 13.5678 44.0935 13.5678C42.2158 13.5678 40.9209 12.3518 40.9209 9.98384C40.9209 7.67984 42.1511 6.46384 44.0288 6.46384C45.4533 6.46384 46.295 7.10384 46.8777 8.44784L49.4676 6.91184C48.4964 5.11984 46.9425 3.83984 44.0288 3.83984C40.2734 3.83984 37.6835 6.46384 37.6835 10.0478C37.6835 13.6318 39.8849 16.3198 44.0935 16.3198ZM57.8849 16.3198C61.4461 16.3198 63.7122 14.7198 63.7122 11.1358V4.09584H60.6043V10.9438C60.6043 12.8638 60.0216 13.5678 57.9497 13.5678C55.8777 13.5678 55.295 12.7998 55.295 10.9438V4.03184H52.1871V11.0718C52.0576 14.5918 54.0648 16.3198 57.8849 16.3198ZM66.9497 16.0638H69.7986V7.99984L72.9065 15.9998H75.1079L78.2158 7.99984V15.9998H81.259V4.03184H76.9856L74.072 11.9038L71.223 4.03184H66.9497V16.0638ZM84.6259 16.0638H91.6835C95.1151 16.0638 96.1511 14.6558 96.1511 12.6078C96.1511 11.0078 95.4389 10.3038 94.3382 9.85584C95.4389 9.34384 95.8921 8.63984 95.8921 7.29584C95.8921 5.75984 94.9209 4.03184 91.6187 4.03184H84.5612L84.6259 16.0638ZM87.7986 11.0718H91.4892C92.7842 11.0718 93.1727 11.4558 93.1727 12.2878C93.1727 13.1198 92.8489 13.5038 91.6187 13.5038H87.7986V11.0718ZM87.7986 8.70384V6.65584H91.4892C92.6547 6.65584 92.9784 6.97584 92.9784 7.67984C92.9784 8.51184 92.59 8.70384 91.4892 8.70384H87.7986ZM99.1295 16.0638H109.878V13.6318H102.302V11.0718H107.806V8.70384H102.302V6.39984H109.619V4.03184H99.1295V16.0638ZM115.705 11.7118H118.424C119.978 11.7118 120.561 12.2238 120.561 13.6318C120.626 15.1678 120.691 15.6798 120.82 16.0638H124.058V15.9358C123.928 15.8078 123.863 15.4878 123.799 14.9758C123.669 13.8878 123.669 12.6718 123.345 11.7758C123.151 11.2638 122.504 10.7518 121.791 10.6238C122.957 10.3038 123.993 9.47184 123.993 7.67984C123.993 5.37584 122.633 4.15984 119.396 4.15984H112.597V16.1278H115.77L115.705 11.7118ZM115.705 9.21584V6.59184H119.137C120.367 6.59184 120.82 6.97584 120.82 7.80784C120.82 8.70384 120.367 9.21584 119.137 9.21584H115.705ZM126.907 16.0638H135.453L136.36 13.5678H130.014V4.03184H126.907V16.0638ZM141.604 13.8238H146.59L147.367 16.0638H150.669L146.072 4.09584H142.317L137.719 16.0638H140.763L141.604 13.8238ZM145.683 11.5198H142.381L144 6.91184L145.683 11.5198ZM152.871 16.0638H155.849L155.719 7.61584L160.899 16.0638H164.59V4.03184H161.612L161.741 12.0318L156.885 4.03184H152.935L152.871 16.0638ZM167.957 16.0638H173.201C177.54 16.0638 179.806 13.5678 179.806 9.98384C179.806 6.27184 177.281 4.09584 173.266 4.09584H167.957V16.0638ZM171.13 13.5038V6.59184H173.46C175.273 6.59184 176.568 7.61584 176.568 9.98384C176.568 12.3518 175.338 13.4398 173.46 13.4398H171.13V13.5038Z" fill="white"/>
<path fill-rule="evenodd" clip-rule="evenodd" d="M2.97848 18.688H13.4677L6.53963 25.536C8.41732 27.456 10.813 28.8 13.4029 29.376V22.656H14.7626L17.4821 25.344L14.7626 28.032H16.9641C17.6116 27.712 18.1943 27.328 18.777 26.88V22.72H17.4821V21.376H14.7626L17.4821 18.688L14.7626 16H18.777V22.656H20.1367L21.5612 24.064C22.2087 23.232 22.7267 22.336 23.1152 21.376H20.2015L22.9209 18.688L20.2015 16H24.2159V13.312H13.4677L24.2159 2.75195H13.4677V9.40795H12.108L9.38855 6.71995L12.108 4.03195H9.38855V2.75195H8.02883V9.40795H9.38855V10.752H12.108L9.38855 13.44L12.108 16.128H8.09358V9.40795H6.73387L4.01445 6.71995L6.73387 4.03195H4.01445V2.75195H2.71948V9.40795H4.07919V10.752H6.79862L4.07919 13.44L6.79862 16.128H2.71948C2.71948 16.96 2.78423 17.856 2.97848 18.688Z" fill="white"/>
<path fill-rule="evenodd" clip-rule="evenodd" d="M25.5755 16.064C25.5755 23.296 20.3957 29.312 13.4676 30.656C6.53957 29.248 1.35971 23.232 1.35971 16.064V1.40797H25.5755V16.064ZM0 0.0639648V16C0 19.84 1.35971 23.488 3.7554 26.368C4.92086 27.776 6.34532 28.992 7.96403 29.888C9.58273 30.848 11.3309 31.552 13.2086 31.872L13.4676 31.936L13.7266 31.872C15.6043 31.488 17.3525 30.848 18.9712 29.888C20.5252 28.928 21.9496 27.776 23.1799 26.368C25.6403 23.488 26.9353 19.776 26.9353 16V0.0639648H0Z" fill="white"/>
</g>
<defs>
<clipPath id="clip0_541_780">
<rect width="180" height="32" fill="white"/>
</clipPath>
</defs>
</svg>
