<svg xmlns:inkscape="http://www.inkscape.org/namespaces/inkscape" xmlns:sodipodi="http://sodipodi.sourceforge.net/DTD/sodipodi-0.dtd" xmlns="http://www.w3.org/2000/svg" xmlns:svg="http://www.w3.org/2000/svg" version="1.1" id="svg2" sodipodi:docname="Modular Capital.eps" viewBox="162.19 304.88 731.61 206.25">
  <defs id="defs6"/>
  <sodipodi:namedview id="namedview4" pagecolor="#ffffff" bordercolor="#000000" borderopacity="0.25" inkscape:showpageshadow="2" inkscape:pageopacity="0.0" inkscape:pagecheckerboard="0" inkscape:deskcolor="#d1d1d1"/>
  <g id="g8" inkscape:groupmode="layer" inkscape:label="ink_ext_XXXXXX" transform="matrix(1.3333333,0,0,-1.3333333,0,816)">
    <g id="g10" transform="scale(0.1)">
      <path d="m 1897.35,3833.43 -680.89,-393.12 v -786.22 l 124.79,-72.05 v 144.1 642.13 l 556.1,321.06 131.1,-75.69 -556.1,-321.06 v -786.22 l 124.79,-72.06 v 144.1 642.13 l 556.1,321.07 131.09,-75.69 -556.1,-321.07 v -786.22 l 124.79,-72.05 v 144.1 642.13 l 680.89,393.11 c -212.18,122.5 -424.37,245.01 -636.56,367.52 z m 556.1,-660.45 -386.98,-223.42 v -446.85 l 386.98,223.43 v 151.38 l 124.79,72.04 v -295.47 l -636.56,-367.52 v 735.03 l 636.56,367.52 v -295.47 l -124.79,-72.04 v 151.37" style="fill:#000;fill-opacity:1;fill-rule:evenodd;stroke:none" id="path12"/>
      <path d="M 2859.21,3598.97 V 2521.04 h 48.72 v 1077.93 z m 656.35,-954.62 -27.88,27.35 c -17.88,-17.16 -36.12,-30.47 -54.7,-39.96 -18.6,-9.46 -40.77,-14.2 -66.51,-14.2 -20.75,0 -39.96,4.03 -57.66,12.07 -17.7,8.05 -33.06,19.03 -46.12,32.98 -13.05,13.94 -23.23,30.39 -30.57,49.34 -7.33,18.95 -10.99,39.33 -10.99,61.14 0,21.81 3.66,42.1 10.99,60.87 7.34,18.77 17.52,35.13 30.57,49.08 13.06,13.94 28.42,24.84 46.12,32.71 17.7,7.87 36.91,11.8 57.66,11.8 25.74,0 47.82,-4.83 66.23,-14.48 18.42,-9.66 35.68,-22 51.75,-37.01 l 28.97,31.1 c -9.29,8.94 -18.96,17.07 -28.97,24.41 -10.01,7.33 -20.9,13.58 -32.71,18.78 -11.8,5.18 -24.58,9.2 -38.34,12.06 -13.77,2.86 -29.23,4.29 -46.4,4.29 -27.53,0 -52.91,-5.09 -76.14,-15.28 -23.25,-10.2 -43.27,-24.14 -60.08,-41.84 -16.8,-17.7 -29.94,-38.35 -39.42,-61.95 -9.47,-23.59 -14.22,-48.8 -14.22,-75.61 0,-27.18 4.75,-52.57 14.22,-76.16 9.48,-23.6 22.62,-44.07 39.42,-61.4 16.81,-17.35 36.66,-31.03 59.52,-41.04 22.9,-10.01 47.92,-15.01 75.09,-15.01 17.17,0 32.72,1.61 46.67,4.82 13.94,3.23 26.99,7.7 39.14,13.42 12.16,5.71 23.51,12.59 34.06,20.63 10.55,8.05 20.65,17.08 30.3,27.09 z m 368.2,318.58 h -39.69 l -171.08,-378.1 h 43.44 l 44.51,99.21 h 204.35 l 43.97,-99.21 h 45.59 z m 64.9,-240.81 h -171.09 l 85.81,191.47 z m 576.82,118.52 c 0,18.59 -3.31,35.32 -9.92,50.16 -6.61,14.83 -16.09,27.35 -28.42,37.53 -12.33,10.19 -27.18,18.06 -44.52,23.6 -17.34,5.54 -36.56,8.31 -57.65,8.31 h -140.52 v -375.41 h 42.37 v 132.46 h 91.17 c 20.02,0 38.98,2.59 56.86,7.78 17.87,5.18 33.52,12.96 46.92,23.32 13.41,10.38 24.05,23.25 31.92,38.63 7.86,15.37 11.79,33.25 11.79,53.62 z m -42.9,-1.61 c 0,-12.51 -2.41,-23.86 -7.24,-34.05 -4.84,-10.19 -11.8,-18.96 -20.93,-26.28 -9.11,-7.33 -20.02,-12.95 -32.71,-16.9 -12.69,-3.93 -26.72,-5.89 -42.1,-5.89 h -92.78 v 165.18 h 94.93 c 30.39,0 54.79,-6.88 73.21,-20.64 18.42,-13.77 27.62,-34.24 27.62,-61.42 z m 239.49,121.21 v -375.41 h 42.36 v 375.41 z m 410.03,-39.15 h 126.03 v 39.15 h -294.97 v -39.15 h 126.03 v -336.26 h 42.91 z m 451.32,41.84 h -39.68 l -171.09,-378.1 h 43.45 l 44.51,99.21 h 204.34 l 43.97,-99.21 h 45.58 z m 64.9,-240.81 h -171.08 l 85.81,191.47 z m 295.79,-137.29 h 253.68 v 39.14 h -211.3 v 336.27 h -42.38 z m 672.48,853.49 c 0,-21.29 -7.68,-38.25 -23.07,-50.86 -15.38,-12.62 -36.09,-18.93 -62.11,-18.93 h -106.47 v 139 h 105.87 c 27.22,0 48.32,-5.81 63.3,-17.44 15,-11.63 22.48,-28.9 22.48,-51.77 z m 86.96,-278.58 -111.8,156.73 c 14.58,3.96 27.9,9.57 39.91,16.86 12.05,7.29 22.39,16.17 31.05,26.63 8.7,10.45 15.5,22.47 20.41,36.08 4.95,13.6 7.41,29.07 7.41,46.42 0,20.13 -3.55,38.35 -10.65,54.73 -7.1,16.35 -17.25,30.17 -30.47,41.4 -13.21,11.23 -29.37,19.9 -48.49,26.03 -19.13,6.11 -40.53,9.15 -64.2,9.15 h -184.54 v -414.03 h 72.76 v 144.31 h 91.1 l 101.73,-144.31 z m -635.07,164.41 h -142.56 l 70.99,165.64 z m -36.68,252.58 h -67.42 l -182.17,-416.99 h 74.52 l 42.58,99.95 h 195.79 l 42,-99.95 h 76.9 z m -647.46,-416.99 h 290.42 v 66.23 h -217.68 v 347.8 h -72.74 z m -167.19,414.03 h -72.76 V 3335.4 c 0,-38.26 -9.25,-67.04 -27.8,-86.36 -18.52,-19.32 -43.95,-28.98 -76.28,-28.98 -32.75,0 -58.38,10.06 -76.91,30.17 -18.52,20.11 -27.81,49.48 -27.81,88.12 v 235.42 h -72.73 V 3335.4 c 0,-29.97 4.12,-56.29 12.41,-78.97 8.27,-22.68 20.12,-41.7 35.49,-57.06 15.37,-15.39 33.92,-26.93 55.6,-34.62 21.69,-7.69 45.94,-11.54 72.74,-11.54 27.21,0 51.78,3.85 73.66,11.54 21.88,7.69 40.52,19.34 55.89,34.91 15.39,15.57 27.3,34.98 35.78,58.25 8.48,23.27 12.72,50.28 12.72,81.04 z M 4637.7,3366.16 c 0,-20.5 -3.44,-39.33 -10.34,-56.48 -6.92,-17.15 -16.58,-31.95 -29,-44.36 -12.42,-12.42 -27.5,-22.1 -45.24,-29 -17.75,-6.89 -37.46,-10.35 -59.17,-10.35 h -81.62 v 281.56 h 81.62 c 21.71,0 41.42,-3.55 59.17,-10.65 17.74,-7.09 32.82,-16.95 45.24,-29.56 12.42,-12.62 22.08,-27.52 29,-44.67 6.9,-17.15 10.34,-35.99 10.34,-56.49 z m 76.3,1.19 c 0,29.17 -5.32,56.39 -15.97,81.62 -10.64,25.23 -25.73,47.12 -45.24,65.66 -19.52,18.53 -42.79,33.01 -69.8,43.47 -27.02,10.45 -56.7,15.67 -89.04,15.67 h -154.36 v -414.03 h 154.36 c 32.34,0 62.02,5.31 89.04,15.96 27.01,10.65 50.28,25.24 69.8,43.76 19.51,18.55 34.6,40.52 45.24,65.97 10.65,25.41 15.97,52.74 15.97,81.92 z m -606.06,-1.19 c 0,-20.12 -3.45,-39.14 -10.35,-57.08 -6.91,-17.94 -16.48,-33.52 -28.7,-46.73 -12.22,-13.21 -26.91,-23.65 -44.07,-31.35 -17.16,-7.68 -35.98,-11.54 -56.48,-11.54 -20.51,0 -39.44,3.95 -56.8,11.83 -17.34,7.89 -32.22,18.55 -44.65,31.95 -12.41,13.41 -22.08,29.1 -28.98,47.02 -6.91,17.94 -10.36,36.97 -10.36,57.09 0,20.11 3.45,39.12 10.36,57.08 6.9,17.95 16.47,33.51 28.69,46.73 12.22,13.21 26.91,23.64 44.07,31.34 17.15,7.69 35.98,11.55 56.48,11.55 20.51,0 39.44,-3.96 56.79,-11.85 17.36,-7.88 32.23,-18.52 44.66,-31.93 12.42,-13.41 22.08,-29.09 28.99,-47.02 6.9,-17.95 10.35,-36.98 10.35,-57.09 z m 76.29,1.19 c 0,29.17 -5.31,56.78 -15.96,82.81 -10.65,26.02 -25.43,48.69 -44.37,68.02 -18.92,19.32 -41.6,34.59 -68.02,45.83 -26.42,11.25 -55.61,16.87 -87.54,16.87 -31.95,0 -61.13,-5.73 -87.55,-17.15 -26.41,-11.43 -49.28,-26.92 -68.62,-46.44 -19.32,-19.52 -34.29,-42.29 -44.95,-68.32 -10.65,-26.03 -15.96,-53.61 -15.96,-82.81 0,-29.17 5.31,-56.77 15.96,-82.8 10.66,-26.03 25.43,-48.72 44.37,-68.04 18.93,-19.32 41.58,-34.6 68.03,-45.83 26.42,-11.25 55.59,-16.87 87.53,-16.87 31.94,0 61.12,5.72 87.54,17.16 26.42,11.45 49.29,26.91 68.61,46.44 19.33,19.52 34.32,42.29 44.97,68.32 10.65,26.01 15.96,53.63 15.96,82.81 z m -661.09,89.31 v -296.92 h 72.76 v 414.03 h -77.47 l -126,-195.77 -125.98,195.77 h -77.5 v -414.03 h 71.57 v 295.73 l 129.54,-193.99 h 2.37 l 130.71,195.18" style="fill:#28314a;fill-opacity:1;fill-rule:nonzero;stroke:none" id="path14"/>
    </g>
  </g>
</svg>
