<?xml version="1.0" encoding="UTF-8"?>
<svg xmlns="http://www.w3.org/2000/svg" width="99" height="18" viewBox="0 0 99 18" fill="none">
    <path
        d="M12.4871 4.67386C12.0224 4.06861 11.4325 3.60398 10.7202 3.27843C10.0065 2.95288 9.26976 2.78934 8.51168 2.78934C7.58088 2.78934 6.74026 2.96358 5.98828 3.31206C5.23631 3.66053 4.59285 4.13739 4.05791 4.74264C3.52297 5.34789 3.10877 6.05707 2.81379 6.87018C2.51881 7.68482 2.37208 8.55601 2.37208 9.4868C2.37208 10.3549 2.51117 11.1772 2.79086 11.9521C3.07056 12.727 3.47253 13.4102 3.99983 13.9986C4.52713 14.5886 5.17059 15.0532 5.9302 15.3941C6.68982 15.7349 7.55031 15.9061 8.51168 15.9061C9.47304 15.9061 10.2862 15.712 10.9999 15.3253C11.7122 14.9386 12.3174 14.3945 12.8141 13.6976L14.6971 15.1159C14.5733 15.2871 14.3563 15.5301 14.046 15.848C13.7358 16.1659 13.3246 16.4838 12.8141 16.8017C12.3021 17.1196 11.6862 17.3993 10.9648 17.6393C10.2434 17.8793 9.41038 18 8.4643 18C7.1621 18 5.98828 17.7524 4.94133 17.2557C3.89437 16.7589 3.00331 16.1078 2.26662 15.3024C1.52993 14.4969 0.967479 13.586 0.580793 12.5696C0.192579 11.5547 0 10.5276 0 9.48833C0 8.2167 0.209391 7.04289 0.628174 5.96536C1.04696 4.88784 1.63233 3.95857 2.38431 3.1745C3.13628 2.39196 4.03957 1.78365 5.09417 1.34959C6.14877 0.91552 7.31035 0.698486 8.58198 0.698486C9.66715 0.698486 10.7324 0.907878 11.7794 1.32666C12.8264 1.74544 13.6823 2.3889 14.3486 3.25703L12.4886 4.67539L12.4871 4.67386Z"
        fill="#161514"></path>
    <path
        d="M15.7976 12.0697C15.7976 11.2642 15.9489 10.5122 16.2515 9.81376C16.5542 9.11528 16.9684 8.50392 17.4957 7.97662C18.023 7.44932 18.6435 7.03512 19.3557 6.7325C20.068 6.42988 20.8352 6.27856 21.6575 6.27856C22.4798 6.27856 23.247 6.42988 23.9593 6.7325C24.6715 7.03512 25.292 7.44932 25.8193 7.97662C26.3466 8.50392 26.7608 9.11681 27.0635 9.81376C27.3661 10.5107 27.5174 11.2642 27.5174 12.0697C27.5174 12.8752 27.3661 13.6317 27.0635 14.3363C26.7608 15.0424 26.3466 15.6538 25.8193 16.1734C25.292 16.6931 24.6715 17.1042 23.9593 17.4053C23.2455 17.708 22.4783 17.8593 21.6575 17.8593C20.8368 17.8593 20.068 17.708 19.3557 17.4053C18.642 17.1027 18.0214 16.6931 17.4957 16.1734C16.9684 15.6538 16.5542 15.0424 16.2515 14.3363C15.9489 13.6317 15.7976 12.8752 15.7976 12.0697ZM18.0306 12.0697C18.0306 12.6275 18.1162 13.1426 18.2858 13.6164C18.4555 14.0902 18.697 14.4922 19.0073 14.8254C19.3175 15.1586 19.6966 15.423 20.1474 15.6156C20.5968 15.8097 21.1012 15.906 21.659 15.906C22.2169 15.906 22.7213 15.8097 23.1706 15.6156C23.62 15.4215 24.0005 15.1586 24.3108 14.8254C24.6211 14.4922 24.861 14.0887 25.0322 13.6164C25.2034 13.1441 25.2875 12.6275 25.2875 12.0697C25.2875 11.5118 25.2019 10.9967 25.0322 10.5229C24.861 10.0507 24.6211 9.64716 24.3108 9.31397C24.0005 8.98078 23.6215 8.7179 23.1706 8.52379C22.7213 8.32968 22.2169 8.23339 21.659 8.23339C21.1012 8.23339 20.5968 8.32968 20.1474 8.52379C19.6981 8.7179 19.3175 8.98078 19.0073 9.31397C18.697 9.64716 18.457 10.0507 18.2858 10.5229C18.1147 10.9952 18.0306 11.5118 18.0306 12.0697Z"
        fill="#161514"></path>
    <path
        d="M29.2627 2.60434C29.2627 2.18556 29.414 1.82486 29.7166 1.52376C30.0193 1.22114 30.38 1.06982 30.7987 1.06982C31.2175 1.06982 31.5782 1.22114 31.8793 1.52376C32.1819 1.82638 32.3333 2.18709 32.3333 2.60434C32.3333 3.02159 32.1819 3.38383 31.8793 3.68645C31.5767 3.98907 31.216 4.14039 30.7987 4.14039C30.3815 4.14039 30.0193 3.98907 29.7166 3.68645C29.414 3.38383 29.2627 3.02312 29.2627 2.60434ZM29.7503 6.55832H31.8426V17.5812H29.7503V6.55832Z"
        fill="#161514"></path>
    <path
        d="M34.7407 6.55826H36.8331V8.25632H36.879C37.1418 7.66788 37.6004 7.19102 38.2515 6.82573C38.9026 6.46197 39.6545 6.27856 40.5074 6.27856C41.0347 6.27856 41.5421 6.35957 42.0312 6.52311C42.5203 6.68512 42.9452 6.93731 43.3105 7.27814C43.6742 7.61897 43.9646 8.05763 44.1832 8.59257C44.4002 9.12751 44.5087 9.75874 44.5087 10.4878V17.5811H42.4164V11.0701C42.4164 10.5581 42.3461 10.121 42.207 9.75568C42.0679 9.39192 41.8814 9.09694 41.6491 8.87226C41.4168 8.64759 41.1493 8.48558 40.8467 8.38317C40.5441 8.2823 40.2307 8.23186 39.9052 8.23186C39.4711 8.23186 39.0676 8.30217 38.6962 8.44125C38.3248 8.58034 37.9993 8.80196 37.7196 9.10458C37.4399 9.4072 37.2228 9.79083 37.0685 10.2555C36.9126 10.7201 36.8362 11.2703 36.8362 11.9061V17.5796H34.7438V6.55826H34.7407Z"
        fill="#161514"></path>
    <path d="M47.6129 1.11572H58.6586V4.46445H51.2398V7.81318H58.0992V11.1619H51.2398V17.5797H47.6113V1.11572H47.6129Z"
        fill="#161514"></path>
    <path
        d="M71.2617 17.5811H67.913V16.0466H67.8671C67.7433 16.2636 67.5844 16.4807 67.3902 16.6977C67.1961 16.9147 66.9608 17.1088 66.6811 17.2785C66.4014 17.4497 66.0835 17.5887 65.7273 17.6973C65.3712 17.8058 64.983 17.8608 64.5642 17.8608C63.6808 17.8608 62.964 17.7248 62.4138 17.4542C61.8635 17.1837 61.4371 16.8077 61.1345 16.3263C60.8319 15.8464 60.6301 15.2793 60.5292 14.6282C60.4284 13.9771 60.3779 13.271 60.3779 12.5114V6.27856H63.8657V11.8129C63.8657 12.1385 63.878 12.4762 63.9009 12.8247C63.9238 13.1732 63.9941 13.4957 64.1103 13.7891C64.2265 14.0841 64.4053 14.3241 64.6452 14.5105C64.8852 14.697 65.2306 14.7902 65.68 14.7902C66.1293 14.7902 66.4946 14.7092 66.7728 14.5457C67.0525 14.3822 67.2649 14.1667 67.4116 13.8946C67.5584 13.6241 67.6562 13.3169 67.702 12.976C67.7479 12.6352 67.7723 12.2791 67.7723 11.9061V6.27856H71.2602V17.5811H71.2617Z"
        fill="#161514"></path>
    <path
        d="M73.5925 6.27872H76.9413V7.81324H76.9871C77.0956 7.5962 77.25 7.37917 77.4517 7.16214C77.6535 6.9451 77.8935 6.751 78.1732 6.58135C78.4529 6.41016 78.7692 6.27108 79.1269 6.16256C79.483 6.05405 79.8712 5.99902 80.29 5.99902C81.1734 5.99902 81.8872 6.13505 82.4298 6.40558C82.9723 6.67763 83.3942 7.05362 83.6968 7.53354C83.9994 8.01499 84.2042 8.5805 84.3127 9.2316C84.4213 9.8827 84.4763 10.5888 84.4763 11.3484V17.5813H80.9885V12.0469C80.9885 11.7214 80.9762 11.3836 80.9533 11.0351C80.9304 10.6866 80.8601 10.3641 80.7439 10.0707C80.6278 9.77571 80.4489 9.53575 80.209 9.34928C79.969 9.16282 79.6236 9.06958 79.1743 9.06958C78.7249 9.06958 78.3596 9.15059 78.0814 9.31413C77.8018 9.47767 77.5893 9.6947 77.4426 9.96523C77.2943 10.2373 77.198 10.543 77.1522 10.8838C77.1063 11.2246 77.0819 11.5808 77.0819 11.9537V17.5813H73.5941V6.27872H73.5925Z"
        fill="#161514"></path>
    <path
        d="M98.5255 17.5812H95.3159V16.0926H95.27C95.131 16.2943 94.9475 16.4991 94.7229 16.7085C94.4982 16.9179 94.2338 17.1074 93.9327 17.2786C93.6301 17.4498 93.2969 17.5889 92.9331 17.6974C92.5693 17.8059 92.1934 17.8609 91.8051 17.8609C90.9676 17.8609 90.208 17.7172 89.5263 17.4299C88.8446 17.1426 88.2592 16.7406 87.7702 16.2209C87.2811 15.7013 86.9051 15.0853 86.6422 14.3716C86.3778 13.6593 86.2463 12.8753 86.2463 12.0224C86.2463 11.2322 86.3656 10.4757 86.607 9.7558C86.847 9.03439 87.1878 8.39552 87.6295 7.83765C88.0712 7.27978 88.6092 6.83349 89.2466 6.5003C89.8824 6.16711 90.6023 6.00051 91.4093 6.00051C92.1383 6.00051 92.8169 6.11361 93.4436 6.33829C94.0718 6.56296 94.5868 6.94659 94.9903 7.48917H95.0362V0H98.524V17.5812H98.5255ZM95.3159 11.9307C95.3159 11.0779 95.0713 10.3886 94.5838 9.86125C94.0947 9.33396 93.41 9.07107 92.5265 9.07107C91.6431 9.07107 90.9569 9.33548 90.4678 9.86125C89.9787 10.3886 89.7357 11.0779 89.7357 11.9307C89.7357 12.7836 89.9802 13.4729 90.4678 14.0002C90.9569 14.5275 91.6416 14.7904 92.5265 14.7904C93.4115 14.7904 94.0962 14.5275 94.5838 14.0002C95.0729 13.4729 95.3159 12.7836 95.3159 11.9307Z"
        fill="#161514"></path>
</svg>