<svg width="160" height="42" viewBox="0 0 160 42" fill="none" xmlns="http://www.w3.org/2000/svg">
<g clip-path="url(#clip0_600_918)">
<path fill-rule="evenodd" clip-rule="evenodd" d="M35.2184 13.1935C35.2184 35.197 17.6092 41.1881 17.6092 41.1881C17.6092 41.1881 0 35.197 0 13.1935V5.27311C0 4.40497 0.675214 3.70832 1.52191 3.64402C4.71579 3.49397 12.3039 2.85091 17.6092 0C22.9251 2.85091 30.5025 3.49397 33.6965 3.65473C34.5432 3.70832 35.2184 4.40497 35.2184 5.27311V13.1935ZM19.8384 12.6147C22.4535 12.8612 24.5114 13.6865 24.7257 16.0873C24.8865 17.8449 24.147 18.8954 22.9681 19.4954C24.9079 19.9671 26.1084 21.1246 25.8511 23.7076C25.5295 26.9014 23.1289 27.7481 19.7206 27.9197L19.7313 31.2743H17.6843L17.6949 27.9517C17.1697 27.9411 16.6338 27.9303 16.0765 27.9197L16.0551 31.2743L14.0402 31.2635L14.0295 27.8875C13.5579 27.8875 10.3426 27.8981 10.3426 27.8981L10.364 25.4546L12.6362 25.4438L12.6469 14.7261H10.0532V12.5933C10.0532 12.5933 13.7079 12.5933 14.1474 12.5826L14.1367 9.24938L16.1838 9.23865V12.529C16.7303 12.5183 17.2982 12.5183 17.8341 12.5183L17.8235 9.27081L19.8492 9.26009L19.8384 12.6147ZM16.5565 25.472C18.2109 25.5076 21.8229 25.5853 21.8427 23.2681C21.862 20.9072 18.3723 20.9636 16.663 20.9912C16.4711 20.9944 16.3018 20.9971 16.1622 20.996L16.173 25.4652C16.2836 25.4661 16.4127 25.4688 16.5565 25.472ZM16.5448 18.9662C17.9124 19.0002 20.9226 19.0752 20.9424 16.9662C20.9521 14.8021 18.0008 14.8698 16.5991 14.902C16.4528 14.9053 16.3233 14.9083 16.2159 14.9083L16.2265 18.9597C16.3181 18.9605 16.4252 18.9632 16.5448 18.9662Z" fill="white"/>
<path d="M70.233 27.2979C70.233 29.0557 69.8901 30.5241 69.1935 31.7138C68.4968 32.9033 67.5751 33.8679 66.4282 34.586C65.2814 35.3149 63.9739 35.8293 62.5057 36.1508C61.0373 36.4724 59.5368 36.6224 57.9935 36.6224H45.2179V4.55505H57.9935C59.2367 4.55505 60.5014 4.68367 61.7982 4.94089C63.0951 5.19811 64.2741 5.63754 65.3351 6.25916C66.396 6.88079 67.2535 7.71676 67.9181 8.77782C68.5825 9.83887 68.9148 11.1786 68.9148 12.8077C68.9148 14.5868 68.4325 16.0659 67.4679 17.2233C66.5033 18.3916 65.2279 19.2276 63.663 19.742V19.8278C64.5741 19.9778 65.4208 20.2565 66.2246 20.6638C67.0284 21.0711 67.7251 21.5962 68.3038 22.2285C68.8933 22.8609 69.3649 23.6003 69.7079 24.4471C70.0616 25.2938 70.233 26.2476 70.233 27.2979ZM61.4446 13.8473C61.4446 12.7648 61.0265 11.9717 60.2013 11.468C59.3652 10.9642 58.1435 10.7177 56.5036 10.7177H52.6989V17.3306H56.8681C58.3149 17.3306 59.4403 17.0411 60.2441 16.4517C61.0479 15.8622 61.4446 14.9941 61.4446 13.8473ZM62.4841 26.58C62.4841 25.2509 61.9911 24.3292 60.9836 23.8147C59.9868 23.3003 58.6579 23.043 56.9967 23.043H52.6882V30.3847H57.0395C57.6398 30.3847 58.2722 30.3311 58.9152 30.2239C59.5689 30.1168 60.1584 29.9346 60.6836 29.6559C61.2087 29.3879 61.6374 29.0022 61.9697 28.4984C62.3233 28.0054 62.4841 27.3622 62.4841 26.58Z" fill="white"/>
<path d="M80.5328 6.87009C80.5328 7.44885 80.4149 7.98474 80.1898 8.47774C79.9647 8.98147 79.6646 9.41018 79.2787 9.76387C78.9036 10.1283 78.4428 10.4177 77.9176 10.6213C77.3925 10.8356 76.8352 10.9428 76.2671 10.9428C75.056 10.9428 74.0485 10.5463 73.2339 9.74244C72.4195 8.93861 72.0122 7.98474 72.0122 6.87009C72.0122 6.32349 72.1193 5.80904 72.3336 5.30531C72.548 4.80158 72.8482 4.37287 73.2447 4.01918C73.6412 3.65477 74.0914 3.3654 74.6058 3.14033C75.1203 2.91526 75.6776 2.79736 76.2779 2.79736C76.8566 2.79736 77.4031 2.90455 77.9284 3.1189C78.4536 3.33325 78.9144 3.61191 79.2895 3.97631C79.6646 4.34071 79.9647 4.76942 80.2006 5.26244C80.4255 5.75545 80.5328 6.29134 80.5328 6.87009ZM72.5587 36.6331V14.0724H79.9861V36.6331H72.5587Z" fill="white"/>
<path d="M93.4584 19.6027V28.2411C93.4584 29.3022 93.6619 30.0954 94.0692 30.6312C94.4765 31.1671 95.2054 31.4243 96.2664 31.4243C96.6308 31.4243 97.0167 31.3922 97.424 31.3386C97.8311 31.2743 98.1741 31.1885 98.4421 31.0706L98.5278 36.5046C98.0135 36.6868 97.3703 36.8474 96.5773 36.976C95.7948 37.1154 95.0017 37.1798 94.2194 37.1798C92.7081 37.1798 91.4435 36.9868 90.4146 36.6117C89.3857 36.2365 88.5603 35.69 87.9495 34.9719C87.3278 34.2646 86.8884 33.4071 86.6097 32.4317C86.3419 31.4457 86.2024 30.3525 86.2024 29.1414V19.6027H82.58V14.0724H86.1597V8.13477H93.4584V14.0724H98.7636V19.6027H93.4584Z" fill="white"/>
<path d="M125.654 36.676C123.554 37.1903 121.271 37.4476 118.784 37.4476C116.212 37.4476 113.854 37.0403 111.689 36.2257C109.524 35.4113 107.67 34.2646 106.116 32.7854C104.562 31.3065 103.34 29.5273 102.472 27.4587C101.593 25.3903 101.154 23.0859 101.154 20.5459C101.154 17.9735 101.604 15.6478 102.493 13.5686C103.383 11.4894 104.615 9.71022 106.191 8.2419C107.756 6.77358 109.599 5.64822 111.721 4.86584C113.833 4.08344 116.115 3.68689 118.559 3.68689C121.099 3.68689 123.457 4.07273 125.633 4.8444C127.809 5.61608 129.577 6.64497 130.938 7.95252L126.04 13.5257C125.279 12.6469 124.282 11.9288 123.05 11.3715C121.807 10.8142 120.403 10.5355 118.838 10.5355C117.477 10.5355 116.223 10.782 115.076 11.2857C113.929 11.7787 112.932 12.4754 112.086 13.365C111.239 14.2545 110.585 15.3156 110.114 16.5373C109.642 17.7592 109.406 19.0989 109.406 20.5459C109.406 22.0249 109.621 23.386 110.039 24.6292C110.457 25.8725 111.089 26.9335 111.914 27.8232C112.739 28.7127 113.768 29.4094 114.99 29.9024C116.212 30.4062 117.605 30.6527 119.181 30.6527C120.092 30.6527 120.949 30.5884 121.764 30.4489C122.578 30.3097 123.339 30.0954 124.025 29.7952V23.9541H117.905V17.7057H131.142V34.6932C129.588 35.497 127.755 36.1616 125.654 36.676Z" fill="white"/>
<path d="M159.094 25.2616C159.094 27.1051 158.761 28.777 158.097 30.2667C157.432 31.7673 156.521 33.0319 155.375 34.0716C154.228 35.1111 152.899 35.9257 151.388 36.4937C149.876 37.0724 148.258 37.3511 146.543 37.3511C144.85 37.3511 143.242 37.0618 141.72 36.4937C140.198 35.9151 138.869 35.1111 137.733 34.0716C136.597 33.0319 135.697 31.7565 135.032 30.2667C134.368 28.7662 134.036 27.1051 134.036 25.2616C134.036 23.4181 134.368 21.757 135.032 20.2778C135.697 18.7989 136.597 17.5448 137.733 16.5159C138.869 15.487 140.198 14.7047 141.72 14.158C143.242 13.6115 144.85 13.3435 146.543 13.3435C148.269 13.3435 149.876 13.6115 151.388 14.158C152.899 14.7047 154.228 15.487 155.375 16.5159C156.521 17.5448 157.432 18.7989 158.097 20.2778C158.761 21.757 159.094 23.4181 159.094 25.2616ZM151.934 25.2616C151.934 24.5327 151.816 23.8254 151.57 23.1288C151.323 22.4321 150.98 21.8213 150.53 21.296C150.08 20.7708 149.523 20.3421 148.858 20.0099C148.194 19.6776 147.422 19.517 146.543 19.517C145.664 19.517 144.893 19.6884 144.228 20.0099C143.564 20.3421 143.017 20.7708 142.578 21.296C142.138 21.8213 141.806 22.4321 141.581 23.1288C141.356 23.8254 141.238 24.5327 141.238 25.2616C141.238 25.9905 141.356 26.6978 141.581 27.3943C141.806 28.0911 142.149 28.7127 142.599 29.27C143.049 29.8273 143.606 30.2775 144.271 30.6097C144.935 30.9419 145.707 31.1135 146.586 31.1135C147.465 31.1135 148.237 30.9527 148.901 30.6097C149.566 30.2775 150.123 29.8273 150.573 29.27C151.023 28.7127 151.366 28.0803 151.591 27.3943C151.827 26.6978 151.934 25.9905 151.934 25.2616Z" fill="white"/>
</g>
<defs>
<clipPath id="clip0_600_918">
<rect width="160" height="41.1881" fill="white"/>
</clipPath>
</defs>
</svg>
