<svg width="181" height="57" viewBox="0 0 181 57" fill="none" xmlns="http://www.w3.org/2000/svg">
<path d="M21.5232 46.6624C10.3014 40.1678 2.15364 35.4537 1.65003 35.1823C1.44574 35.0798 1.27499 34.9211 1.15779 34.7249C1.05003 34.5184 1.00113 34.2862 1.01641 34.0537C1.04259 32.7881 1.02515 31.5226 1.02515 30.3172L1.0155 29.9419L25.8418 44.2674L21.5232 46.6624Z" fill="white"/>
<path d="M37.6633 37.708C37.6633 39.1045 37.6564 40.4809 37.6633 41.8574C37.6633 42.395 37.2522 42.5443 36.8953 42.7529L19.9941 52.5362C19.7439 52.7088 19.4479 52.8028 19.144 52.8059C18.9412 52.7897 18.7465 52.7201 18.5793 52.6043C18.0861 52.2883 16.7184 51.4697 14.8611 50.3603L37.6633 37.708Z" fill="white"/>
<path d="M19.0759 48.0204L14.8611 50.3586C10.8837 48.0806 6.88359 45.8427 2.94284 43.5044C2.31788 43.2026 1.7966 42.7221 1.44509 42.1236C1.18529 41.5007 1.06611 40.828 1.096 40.1537C1.05025 39.3106 1.05171 38.4655 1.10037 37.6226L19.0759 48.0204Z" fill="white"/>
<path d="M37.6668 45.0747C37.6668 46.6929 37.6415 47.9951 37.6782 49.2956C37.6837 49.5278 37.6166 49.7558 37.4863 49.948C37.3559 50.1401 37.1688 50.2868 36.9511 50.3674C33.9041 52.1131 30.8789 53.8927 27.8119 55.6043C26.1989 56.5025 23.776 55.8793 22.1543 54.6399C22.0024 54.5238 21.8811 54.4182 21.7991 54.3431L37.6668 45.0747Z" fill="white"/>
<path d="M11.9124 15.1366C23.1403 8.65251 31.2889 3.94455 31.7777 3.64343C31.9687 3.51776 32.1915 3.44905 32.4201 3.44531C32.6525 3.45483 32.8778 3.5282 33.0712 3.65739C34.1535 4.31113 35.2585 4.92648 36.3058 5.52959L36.6366 5.70851L11.833 20.0742C11.858 18.428 11.8845 16.7822 11.9124 15.1366Z" fill="white"/>
<path d="M11.6167 33.5909C10.4061 32.8927 9.2174 32.2014 8.01903 31.5232C7.5512 31.2614 7.62712 30.825 7.62625 30.4113C7.61229 23.9007 7.59829 17.3901 7.58433 10.8795C7.55914 10.576 7.62543 10.272 7.77461 10.0066C7.88991 9.83922 8.04739 9.70523 8.2311 9.61823C8.75479 9.34853 10.14 8.57086 12.0313 7.51562C11.8934 16.2077 11.7552 24.8995 11.6167 33.5909Z" fill="white"/>
<path d="M11.9546 12.3371C11.9802 10.7306 12.0058 9.12401 12.0314 7.51745C15.9905 5.20886 19.926 2.8575 23.9191 0.610004C24.4921 0.21804 25.1687 0.00535424 25.8629 -0.000976562C26.532 0.084443 27.1739 0.316634 27.7429 0.678965C28.4962 1.05961 29.2276 1.48212 29.9337 1.94453L11.9546 12.3371Z" fill="white"/>
<path d="M5.23295 29.9173C3.83033 29.1099 2.71492 28.4335 1.56717 27.8225C1.36344 27.7114 1.19937 27.5395 1.09784 27.3308C0.99632 27.1222 0.962359 26.8871 1.00067 26.6582C1.01027 23.1477 0.976281 19.6364 1.02603 16.1259C1.05222 14.2799 2.8013 12.4916 4.68483 11.7051C4.85939 11.6327 5.01388 11.5794 5.12123 11.5454C5.15731 17.6685 5.19454 23.7924 5.23295 29.9173Z" fill="white"/>
<path d="M43.978 22.5673C43.999 35.5329 44.0138 44.9462 44.033 45.5179C44.0468 45.7461 43.9953 45.9734 43.8847 46.1734C43.7604 46.3702 43.5843 46.529 43.3758 46.6325C42.2691 47.2435 41.1851 47.8955 40.1403 48.5021L39.82 48.6993C39.792 39.1449 39.7629 29.5905 39.7327 20.0361L43.978 22.5673Z" fill="white"/>
<path d="M28.1287 13.1069C29.3358 12.4087 30.5298 11.72 31.7151 11.02C32.1777 10.746 32.5172 11.0296 32.875 11.2339L49.8259 20.9369C50.1006 21.0667 50.3304 21.2755 50.4858 21.5365C50.5732 21.7203 50.6105 21.9238 50.594 22.1266C50.5687 22.7123 50.5512 24.3042 50.5216 26.4688L28.1287 13.1069Z" fill="white"/>
<path d="M46.3828 24.0015L50.5216 26.4715C50.5487 31.0547 50.6238 35.6361 50.581 40.2201C50.6347 40.9119 50.4812 41.604 50.1403 42.2084C49.7325 42.7465 49.211 43.1879 48.6128 43.501C47.9067 43.9633 47.1753 44.3858 46.4221 44.7666L46.3828 24.0015Z" fill="white"/>
<path d="M34.4985 9.40717C35.895 8.59458 37.0366 7.96266 38.1416 7.2775C38.3392 7.15574 38.5699 7.09871 38.8015 7.11435C39.0331 7.13 39.254 7.21755 39.4334 7.36479C42.4708 9.12351 45.5326 10.8447 48.55 12.6383C50.1367 13.5818 50.8149 15.9899 50.5574 18.0149C50.533 18.2051 50.5033 18.364 50.4788 18.4713L34.4985 9.40717Z" fill="white"/>
<path d="M171.315 20.0181L171.297 29.1966L168.309 29.1791C168.314 24.3496 168.32 19.52 168.326 14.6904L171.173 14.6372L177.807 23.4448L177.719 14.6547H180.973L180.985 29.1268L178.105 29.1442L171.315 20.0181Z" fill="white"/>
<path d="M125.295 14.7302L128.568 14.6577V20.4768H134.317V14.7162L137.643 14.663C137.619 19.4733 137.595 24.2837 137.571 29.0941L134.353 29.1115C134.335 27.1954 134.317 25.279 134.299 23.3623H128.511C128.517 25.2959 128.523 27.2294 128.528 29.163L125.292 29.1272L125.295 14.7302Z" fill="white"/>
<path d="M115.997 29.1281C112.029 29.1168 109.397 27.2079 108.38 24.0265C107.887 22.5018 107.895 20.8592 108.402 19.3391C108.91 17.819 109.89 16.5012 111.2 15.5786C112.562 14.6733 114.166 14.2023 115.801 14.2275C117.436 14.2528 119.025 14.7731 120.358 15.72C120.688 15.9666 120.993 16.2452 121.268 16.5518L119.324 18.8394C118.864 18.3377 118.307 17.9345 117.687 17.6543C117.067 17.3741 116.396 17.2226 115.715 17.209C114.828 17.229 113.965 17.4952 113.22 17.9779C112.467 18.5368 111.903 19.314 111.607 20.204C111.31 21.094 111.294 22.0538 111.562 22.953C111.763 23.6708 112.132 24.3301 112.64 24.8758C113.148 25.4215 113.779 25.8378 114.48 26.0899C115.327 26.3397 116.228 26.3388 117.074 26.087C117.92 25.8353 118.675 25.3436 119.248 24.6715L121.246 26.652C121.041 26.9013 120.817 27.1347 120.576 27.3502C119.301 28.4539 117.683 29.0821 115.997 29.1281Z" fill="white"/>
<path d="M78.9944 14.6763H89.8505V17.5417L82.2456 17.5775L82.2631 20.4953L89.1251 20.4595C89.1135 21.4202 89.1016 22.3803 89.0894 23.3398L82.2631 23.4123L82.2456 29.1615L79.0092 29.1257L78.9944 14.6763Z" fill="white"/>
<path d="M93.9919 14.6763H104.852V17.5417L97.2467 17.5775L97.2641 20.4953L104.126 20.4595C104.115 21.4202 104.103 22.3803 104.09 23.3398L97.2632 23.4123L97.2458 29.1615L94.0094 29.1257L93.9919 14.6763Z" fill="white"/>
<path d="M163.247 29.144L160.029 29.1615C160.023 24.3447 160.017 19.5283 160.012 14.7121L163.23 14.6763C163.237 19.4994 163.243 24.322 163.247 29.144Z" fill="white"/>
<path d="M141.582 45.5959C140.913 45.525 140.268 45.3046 139.695 44.9509C139.49 44.8293 139.293 44.6924 139.108 44.5415L139.828 43.1974C140.04 43.3629 140.269 43.5051 140.511 43.6216C141.017 43.8586 141.568 43.981 142.127 43.9803C142.793 44.0021 142.994 43.8642 143.081 43.7865C143.197 43.6812 143.283 43.5468 143.329 43.3972C143.366 43.2536 143.362 43.1024 143.318 42.9608C143.247 42.8257 143.148 42.7073 143.028 42.6137C142.907 42.5202 142.768 42.4537 142.62 42.4188C141.695 42.0749 141.427 42.1683 140.817 41.9423C140.215 41.7628 139.699 41.3695 139.366 40.8364C139.184 40.4849 139.103 40.0895 139.134 39.6948C139.144 39.1494 139.343 38.6245 139.696 38.2085C140.049 37.7926 140.534 37.511 141.071 37.4115C142.069 37.1448 143.131 37.2716 144.038 37.7659C144.417 37.9837 144.756 38.265 145.039 38.5977L144.037 39.755C143.815 39.4758 143.533 39.2502 143.212 39.0952C142.941 38.9661 142.647 38.8926 142.347 38.8789C142.047 38.8653 141.747 38.9118 141.466 39.0157C141.355 39.0514 141.251 39.1092 141.163 39.1857C141.074 39.2622 141.002 39.3558 140.951 39.4609C140.921 39.5601 140.91 39.6643 140.92 39.7675C140.931 39.8707 140.961 39.9709 141.01 40.0622C141.285 40.5859 142.034 40.3878 143.105 40.7605C143.515 40.8673 143.899 41.056 144.233 41.3152C144.568 41.5744 144.847 41.8988 145.053 42.2687C145.225 42.7108 145.253 43.196 145.132 43.6547C144.782 45.2345 143.509 45.5732 141.582 45.5959Z" fill="white"/>
<path d="M95.3414 45.7683C95.3019 43.1196 95.2626 40.4721 95.2236 37.8257H97.0626C97.0702 39.8849 97.078 41.9442 97.0862 44.0035L101.048 43.9799C101.032 44.585 101.016 45.1902 101.001 45.7954L95.3414 45.7683Z" fill="white"/>
<path d="M67.2342 14.2485C66.2257 14.229 65.2233 14.4106 64.2857 14.7825C63.348 15.1545 62.4938 15.7093 61.7729 16.4149C61.0519 17.1204 60.4786 17.9624 60.0865 18.8918C59.6943 19.8211 59.4912 20.8193 59.4888 21.828C59.4638 23.3556 59.8933 24.8561 60.7229 26.1391C61.5526 27.422 62.7448 28.4293 64.1482 29.0331C65.5516 29.6369 67.1028 29.81 68.6048 29.5303C70.1067 29.2505 71.4917 28.5307 72.5836 27.4621C73.6755 26.3936 74.4252 25.0246 74.7373 23.529C75.0495 22.0334 74.9101 20.4788 74.3368 19.0627C73.7635 17.6466 72.7822 16.4328 71.5175 15.5756C70.2529 14.7184 68.762 14.2565 67.2342 14.2485ZM67.3695 26.1703C66.7836 26.198 66.1983 26.1037 65.6507 25.8934C65.1032 25.683 64.6054 25.3611 64.1888 24.9481C63.7723 24.5352 63.4461 24.0402 63.2309 23.4945C63.0158 22.9488 62.9164 22.3644 62.9391 21.7783C62.8916 21.2087 62.9618 20.6354 63.1454 20.0941C63.329 19.5528 63.6221 19.0551 64.0063 18.6319C64.3905 18.2088 64.8576 17.8692 65.3787 17.6343C65.8998 17.3994 66.4637 17.2743 67.0352 17.2667C67.621 17.2418 68.2056 17.3377 68.7528 17.5483C69.3 17.759 69.7981 18.0799 70.216 18.4911C70.634 18.9023 70.9629 19.3951 71.1823 19.9388C71.4018 20.4825 71.5071 21.0656 71.4918 21.6517C71.5326 22.2224 71.4569 22.7954 71.2693 23.3359C71.0817 23.8765 70.7862 24.3731 70.4005 24.7958C70.0149 25.2185 69.5474 25.5583 69.0263 25.7946C68.5052 26.0309 67.9415 26.1587 67.3695 26.1703Z" fill="white"/>
<path d="M150.224 14.3213L147.338 14.3283L140.842 29.153L144.441 29.1443L145.817 25.8782L151.674 25.8992L153.081 29.1085L156.724 29.1443L150.224 14.3213ZM146.961 23.0066L148.753 18.1076L150.613 23.0066H146.961Z" fill="white"/>
<path d="M131.279 42.5136C131.07 42.0561 130.714 41.6823 130.266 41.4532C130.559 41.2253 130.787 40.9243 130.926 40.5804C131.042 40.2372 131.077 39.872 131.029 39.5131C130.98 39.1542 130.85 38.8113 130.648 38.5109C130.427 38.2025 130.142 37.9468 129.811 37.7623C129.479 37.5779 129.112 37.4693 128.734 37.4443H124.534C124.55 40.2269 124.565 43.0094 124.582 45.7919L126.869 45.7684L129.44 45.7919C129.851 45.6893 130.232 45.4935 130.555 45.2195C130.878 44.9455 131.134 44.6008 131.302 44.2121C131.515 43.6644 131.507 43.0552 131.279 42.5136ZM126.397 38.9063L128.449 38.9299C128.623 39.0098 128.769 39.1378 128.872 39.2986C128.976 39.4595 129.03 39.6466 129.03 39.8376C129.03 40.0286 128.976 40.2157 128.872 40.3766C128.769 40.5374 128.623 40.6654 128.449 40.7453H126.373C126.382 40.1332 126.389 39.5202 126.397 38.9063ZM128.876 44.3003L126.421 44.3064L126.398 42.1872L128.593 42.1697C128.762 42.1665 128.93 42.1996 129.086 42.2668C129.241 42.3339 129.381 42.4336 129.495 42.559C129.662 42.7741 129.747 43.0421 129.734 43.3144C129.72 43.5866 129.61 43.8451 129.422 44.0428C129.271 44.1825 129.08 44.2723 128.876 44.3003Z" fill="white"/>
<path d="M113.36 37.6104H111.769L108.19 45.7816L110.174 45.7764L110.933 43.9767L114.163 43.988L114.938 45.7572L116.945 45.7764C115.749 43.0556 114.554 40.3335 113.36 37.6104ZM111.562 42.3977L112.55 39.6973L113.575 42.3977H111.562Z" fill="white"/>
</svg>
