<svg width="160" height="44" viewBox="0 0 160 44" fill="none" xmlns="http://www.w3.org/2000/svg">
<g clip-path="url(#clip0_597_75)">
<path fill-rule="evenodd" clip-rule="evenodd" d="M9.34985 23.5678C11.6335 18.3453 13.928 13.1274 16.1855 7.89383C16.4348 7.31591 16.7197 7.1036 17.3551 7.11103C20.2241 7.14614 23.094 7.13718 25.9632 7.11698C26.5012 7.11323 26.8487 7.19256 27.0915 7.7654C31.065 17.1398 35.0638 26.5034 39.0528 35.8713C39.0972 35.9759 39.0845 36.1047 39.1112 36.3288C37.4132 36.3288 35.7474 36.2924 34.0842 36.3448C33.3066 36.3693 33.2586 35.7873 33.0682 35.3399C29.9286 27.956 26.7786 20.5763 23.7048 13.1653C23.3026 12.1958 22.828 11.8523 21.8238 11.9416C20.8057 12.0321 19.8524 11.74 19.3174 13.1872C18.0201 16.697 16.4682 20.1133 15.0188 23.5674C13.1292 23.5675 11.2395 23.5676 9.34985 23.5678Z" fill="white"/>
<path fill-rule="evenodd" clip-rule="evenodd" d="M10.7886 28.6425C9.43425 28.6428 8.15851 28.6432 7.06817 28.6432C5.95631 31.1714 4.84364 33.7007 3.68726 36.3296C5.54965 36.3296 7.19971 36.3028 8.84801 36.3448C9.39473 36.3588 9.66092 36.1721 9.85742 35.7008C10.8396 33.3431 11.8431 30.9937 12.8395 28.6418C12.1518 28.6421 11.4639 28.6424 10.7886 28.6425Z" fill="white"/>
<path fill-rule="evenodd" clip-rule="evenodd" d="M68.3457 15.5575C69.4471 12.9815 70.5537 10.4078 71.6425 7.82639C71.7628 7.54133 71.9002 7.43661 72.2066 7.44028C73.5903 7.4576 74.9745 7.45318 76.3583 7.44321C76.6178 7.44137 76.7854 7.48049 76.9025 7.76304C78.8189 12.3869 80.7476 17.0054 82.6714 21.6261C82.6929 21.6777 82.6867 21.7412 82.6996 21.8517C81.8807 21.8517 81.0773 21.8338 80.2751 21.8597C79.9001 21.8717 79.8769 21.5846 79.7851 21.364C78.2709 17.7219 76.7516 14.0819 75.2691 10.4265C75.0751 9.94829 74.8462 9.7789 74.3619 9.82291C73.8709 9.86759 73.4111 9.72347 73.1531 10.4373C72.5274 12.1685 71.7789 13.8536 71.0798 15.5573C70.1685 15.5573 69.2571 15.5574 68.3457 15.5575Z" fill="white"/>
<path fill-rule="evenodd" clip-rule="evenodd" d="M111.21 15.5575C112.311 12.9815 113.418 10.4078 114.507 7.82639C114.627 7.54133 114.764 7.43661 115.071 7.44028C116.455 7.4576 117.839 7.45318 119.223 7.44321C119.482 7.44137 119.65 7.48049 119.767 7.76304C121.683 12.3869 123.612 17.0054 125.536 21.6261C125.557 21.6777 125.551 21.7412 125.564 21.8517C124.745 21.8517 123.941 21.8338 123.139 21.8597C122.764 21.8717 122.741 21.5846 122.649 21.364C121.135 17.7219 119.616 14.0819 118.133 10.4265C117.939 9.94829 117.71 9.7789 117.226 9.82291C116.735 9.86759 116.275 9.72347 116.017 10.4373C115.392 12.1685 114.643 13.8536 113.944 15.5573C113.033 15.5573 112.121 15.5574 111.21 15.5575Z" fill="white"/>
<path fill-rule="evenodd" clip-rule="evenodd" d="M56.2154 15.1888C56.9655 15.1888 57.4848 15.1192 57.7734 14.9801C58.0614 14.841 58.2059 14.5861 58.2059 14.2153V10.2057C58.2059 9.83477 58.0614 9.57999 57.7734 9.4409C57.4848 9.30181 56.9655 9.23226 56.2154 9.23226H52.004V15.1888H56.2154ZM52.004 21.7942H49.1194V7.30859H56.1868C57.4749 7.30859 58.4799 7.46318 59.2009 7.77221C59.922 8.08144 60.4414 8.58737 60.7589 9.29014C61.0761 9.99357 61.2346 10.9629 61.2346 12.199C61.2346 13.9297 60.8784 15.1656 60.1673 15.9072C59.4558 16.649 58.2731 17.0198 56.6193 17.0198H52.004V21.7942Z" fill="white"/>
<path fill-rule="evenodd" clip-rule="evenodd" d="M91.571 14.841H95.9196C96.6683 14.841 97.1867 14.7715 97.4748 14.6324C97.7625 14.4933 97.9066 14.2385 97.9066 13.8676V10.2057C97.9066 9.83477 97.7625 9.57999 97.4748 9.4409C97.1867 9.30181 96.6683 9.23226 95.9196 9.23226H91.571V14.841ZM98.6555 21.7942L95.6604 16.672H91.571V21.7942H88.6914V7.30859H95.8908C97.1768 7.30859 98.1801 7.46318 98.9001 7.77221C99.62 8.08144 100.138 8.58737 100.455 9.29014C100.772 9.99357 100.93 10.9628 100.93 12.1989C100.93 13.389 100.743 14.3196 100.369 14.9917C99.9945 15.6639 99.3849 16.1314 98.5403 16.3938L101.794 21.7942H98.6555Z" fill="white"/>
<path fill-rule="evenodd" clip-rule="evenodd" d="M135.56 21.7942H132.675V7.30859H142.486L142.168 9.23232H135.56V13.9372H141.331V15.7682H135.56V21.7942Z" fill="white"/>
<mask id="mask0_597_75" style="mask-type:luminance" maskUnits="userSpaceOnUse" x="38" y="0" width="122" height="44">
<path d="M38.9136 43.4568H160V0H38.9136V43.4568Z" fill="white"/>
</mask>
<g mask="url(#mask0_597_75)">
<path fill-rule="evenodd" clip-rule="evenodd" d="M150.123 21.7942H152.955V7.30859H150.123V21.7942Z" fill="white"/>
</g>
<mask id="mask1_597_75" style="mask-type:luminance" maskUnits="userSpaceOnUse" x="38" y="0" width="122" height="44">
<path d="M38.9136 43.4568H160V0H38.9136V43.4568Z" fill="white"/>
</mask>
<g mask="url(#mask1_597_75)">
<path fill-rule="evenodd" clip-rule="evenodd" d="M67.2098 17.976C66.6739 19.2293 66.1376 20.4831 65.5802 21.7864C66.4779 21.7864 67.2733 21.7731 68.0678 21.7939C68.3313 21.8008 68.4596 21.7083 68.5543 21.4747C69.0278 20.3059 69.5114 19.1412 69.9917 17.9753C69.6602 17.9755 69.3287 17.9756 69.0032 17.9757C68.3503 17.9758 67.7354 17.976 67.2098 17.976Z" fill="white"/>
</g>
<mask id="mask2_597_75" style="mask-type:luminance" maskUnits="userSpaceOnUse" x="38" y="0" width="122" height="44">
<path d="M38.9136 43.4568H160V0H38.9136V43.4568Z" fill="white"/>
</mask>
<g mask="url(#mask2_597_75)">
<path fill-rule="evenodd" clip-rule="evenodd" d="M111.947 17.9757C111.29 17.9758 110.671 17.976 110.143 17.976C109.606 19.2293 109.069 20.4831 108.51 21.7864C109.407 21.7864 110.201 21.7731 110.995 21.7939C111.258 21.8008 111.387 21.7086 111.481 21.4757C111.956 20.3065 112.44 19.1416 112.922 17.9753C112.595 17.9755 112.268 17.9755 111.947 17.9757Z" fill="white"/>
</g>
<mask id="mask3_597_75" style="mask-type:luminance" maskUnits="userSpaceOnUse" x="38" y="0" width="122" height="44">
<path d="M38.9136 43.4568H160V0H38.9136V43.4568Z" fill="white"/>
</mask>
<g mask="url(#mask3_597_75)">
<path fill-rule="evenodd" clip-rule="evenodd" d="M57.0206 34.1704V32.0024C57.0206 31.3116 57.1747 30.8092 57.4825 30.4954C57.7905 30.1815 58.2803 30.0247 58.9521 30.0247H60.0811C60.6534 30.0247 61.0796 30.1468 61.3595 30.3908C61.6393 30.6348 61.7948 31.0263 61.826 31.5651C61.8384 31.7299 61.7575 31.8122 61.5834 31.8122C61.4342 31.8122 61.3532 31.7299 61.3408 31.5651C61.3159 31.1785 61.2101 30.9075 61.0235 30.7521C60.8369 30.5968 60.5228 30.5191 60.0811 30.5191H58.9521C58.5913 30.5191 58.3067 30.5667 58.0984 30.6617C57.8899 30.7569 57.7392 30.9106 57.6459 31.123C57.5525 31.3354 57.5059 31.6285 57.5059 32.0024V34.1704C57.5059 34.5445 57.5525 34.8376 57.6459 35.0499C57.7392 35.2623 57.8899 35.416 58.0984 35.5111C58.3067 35.6061 58.5944 35.6538 58.9615 35.6538H60.0811C60.5228 35.6538 60.8369 35.5777 61.0235 35.4256C61.2101 35.2733 61.3159 35.0009 61.3408 34.6079C61.3532 34.443 61.4342 34.3606 61.5834 34.3606C61.7575 34.3606 61.8384 34.4461 61.826 34.6173C61.7948 35.1562 61.6393 35.5459 61.3595 35.7868C61.0796 36.0278 60.6534 36.1481 60.0811 36.1481H58.9615C58.2897 36.1481 57.7982 35.9898 57.4872 35.6727C57.1761 35.3558 57.0206 34.855 57.0206 34.1704Z" fill="white"/>
</g>
<mask id="mask4_597_75" style="mask-type:luminance" maskUnits="userSpaceOnUse" x="38" y="0" width="122" height="44">
<path d="M38.9136 43.4568H160V0H38.9136V43.4568Z" fill="white"/>
</mask>
<g mask="url(#mask4_597_75)">
<path fill-rule="evenodd" clip-rule="evenodd" d="M73.3852 33.9992H76.0139L74.6996 30.8043L73.3852 33.9992ZM77.3004 35.9199C77.3004 36.0024 77.2479 36.0689 77.143 36.1196C77.106 36.1386 77.0658 36.1481 77.0227 36.1481C76.9362 36.1481 76.8747 36.0974 76.8376 35.996L76.2175 34.4936H76.1897H73.1909L72.5708 35.996C72.5275 36.0974 72.4598 36.1481 72.3672 36.1481C72.3362 36.1481 72.2962 36.1386 72.2469 36.1196C72.1481 36.0815 72.0988 36.0119 72.0988 35.9104C72.0988 35.8598 72.1049 35.8217 72.1172 35.7964L74.4126 30.2148C74.462 30.0881 74.5545 30.0247 74.6902 30.0247H74.7088C74.8322 30.0247 74.9217 30.0881 74.9772 30.2148L77.2726 35.7964C77.2911 35.8406 77.3004 35.8819 77.3004 35.9199Z" fill="white"/>
</g>
<mask id="mask5_597_75" style="mask-type:luminance" maskUnits="userSpaceOnUse" x="38" y="0" width="122" height="44">
<path d="M38.9136 43.4568H160V0H38.9136V43.4568Z" fill="white"/>
</mask>
<g mask="url(#mask5_597_75)">
<path fill-rule="evenodd" clip-rule="evenodd" d="M91.2378 31.6696C91.2378 31.2703 91.1497 30.9788 90.9735 30.7949C90.7972 30.611 90.5111 30.5191 90.1155 30.5191H88.1861V33.1054H90.1155C90.5111 33.1054 90.7972 33.0151 90.9735 32.8344C91.1497 32.6538 91.2378 32.3607 91.2378 31.9549V31.6696ZM91.312 30.443C91.5841 30.7221 91.7202 31.131 91.7202 31.6696V31.9549C91.7202 32.4937 91.5857 32.9026 91.3167 33.1815C91.0477 33.4606 90.6473 33.5998 90.1155 33.5998H88.1861V35.9009C88.1861 36.0658 88.1056 36.1481 87.9448 36.1481C87.784 36.1481 87.7037 36.0658 87.7037 35.9009V30.2719C87.7037 30.1071 87.784 30.0247 87.9448 30.0247H90.1155C90.641 30.0247 91.0399 30.1641 91.312 30.443Z" fill="white"/>
</g>
<mask id="mask6_597_75" style="mask-type:luminance" maskUnits="userSpaceOnUse" x="38" y="0" width="122" height="44">
<path d="M38.9136 43.4568H160V0H38.9136V43.4568Z" fill="white"/>
</mask>
<g mask="url(#mask6_597_75)">
<path fill-rule="evenodd" clip-rule="evenodd" d="M102.251 36.0815C102.21 36.0373 102.189 35.9769 102.189 35.9009V30.2719C102.189 30.1959 102.21 30.1357 102.251 30.0912C102.293 30.047 102.349 30.0247 102.42 30.0247C102.491 30.0247 102.547 30.047 102.588 30.0912C102.63 30.1357 102.65 30.1959 102.65 30.2719V35.9009C102.65 35.9769 102.63 36.0373 102.588 36.0815C102.547 36.126 102.491 36.1481 102.42 36.1481C102.349 36.1481 102.293 36.126 102.251 36.0815Z" fill="white"/>
</g>
<mask id="mask7_597_75" style="mask-type:luminance" maskUnits="userSpaceOnUse" x="38" y="0" width="122" height="44">
<path d="M38.9136 43.4568H160V0H38.9136V43.4568Z" fill="white"/>
</mask>
<g mask="url(#mask7_597_75)">
<path fill-rule="evenodd" clip-rule="evenodd" d="M115.482 36.0769C115.435 36.0294 115.412 35.971 115.412 35.9013V30.5183H113.427C113.359 30.5183 113.302 30.4946 113.255 30.4472C113.208 30.3996 113.185 30.3412 113.185 30.2715C113.185 30.1955 113.208 30.1355 113.255 30.0911C113.302 30.047 113.359 30.0247 113.427 30.0247H117.881C117.956 30.0247 118.015 30.047 118.058 30.0911C118.102 30.1355 118.123 30.1955 118.123 30.2715C118.123 30.3412 118.102 30.3996 118.058 30.4472C118.015 30.4946 117.956 30.5183 117.881 30.5183H115.896V35.9013C115.896 35.971 115.875 36.0294 115.831 36.0769C115.788 36.1245 115.729 36.1481 115.654 36.1481C115.586 36.1481 115.528 36.1245 115.482 36.0769Z" fill="white"/>
</g>
<mask id="mask8_597_75" style="mask-type:luminance" maskUnits="userSpaceOnUse" x="38" y="0" width="122" height="44">
<path d="M38.9136 43.4568H160V0H38.9136V43.4568Z" fill="white"/>
</mask>
<g mask="url(#mask8_597_75)">
<path fill-rule="evenodd" clip-rule="evenodd" d="M127.838 33.9992H130.466L129.152 30.8043L127.838 33.9992ZM131.753 35.9199C131.753 36.0024 131.7 36.0689 131.596 36.1196C131.558 36.1386 131.518 36.1481 131.475 36.1481C131.389 36.1481 131.327 36.0974 131.29 35.996L130.67 34.4936H130.642H127.643L127.023 35.996C126.98 36.0974 126.912 36.1481 126.82 36.1481C126.789 36.1481 126.749 36.1386 126.699 36.1196C126.601 36.0815 126.551 36.0119 126.551 35.9104C126.551 35.8598 126.557 35.8217 126.57 35.7964L128.865 30.2148C128.914 30.0881 129.007 30.0247 129.143 30.0247H129.161C129.285 30.0247 129.374 30.0881 129.43 30.2148L131.725 35.7964C131.744 35.8406 131.753 35.8819 131.753 35.9199Z" fill="white"/>
</g>
<mask id="mask9_597_75" style="mask-type:luminance" maskUnits="userSpaceOnUse" x="38" y="0" width="122" height="44">
<path d="M38.9136 43.4568H160V0H38.9136V43.4568Z" fill="white"/>
</mask>
<g mask="url(#mask9_597_75)">
<path fill-rule="evenodd" clip-rule="evenodd" d="M142.222 35.9009V30.272C142.222 30.1071 142.302 30.0247 142.463 30.0247C142.624 30.0247 142.705 30.1071 142.705 30.272V35.6538H145.536C145.697 35.6538 145.778 35.7361 145.778 35.9009C145.778 36.0658 145.697 36.1481 145.536 36.1481H142.463C142.302 36.1481 142.222 36.0658 142.222 35.9009Z" fill="white"/>
</g>
</g>
<defs>
<clipPath id="clip0_597_75">
<rect width="160" height="43.4568" fill="white"/>
</clipPath>
</defs>
</svg>
