<svg width="180" height="47" viewBox="0 0 180 47" fill="none" xmlns="http://www.w3.org/2000/svg">
<g clip-path="url(#clip0_1594_3582)">
<path fill-rule="evenodd" clip-rule="evenodd" d="M101.365 16.839L104.863 13.3425C107.915 10.3005 107.915 5.34965 104.863 2.29595C104.141 1.56886 103.281 0.992524 102.334 0.600407C101.387 0.20829 100.371 0.00819783 99.3463 0.0117464C98.3216 0.0101815 97.3066 0.211179 96.3598 0.603182C95.413 0.995186 94.553 1.57046 93.8293 2.29595L90.3319 5.79335L90.3202 5.78165L90.3139 5.78795L86.8111 2.28425C86.0886 1.55716 85.2288 0.980824 84.2817 0.588707C83.3347 0.19659 82.3191 -0.00350217 81.2941 4.63845e-05C79.2151 4.63845e-05 77.2432 0.817246 75.7771 2.28425C72.7234 5.33705 72.7234 10.2897 75.7771 13.3308L79.2745 16.8282L75.7771 20.3256C75.05 21.0482 74.4737 21.9079 74.0816 22.855C73.6894 23.8021 73.4893 24.8176 73.4929 25.8426C73.4929 27.9216 74.3101 29.8935 75.7771 31.3596C76.4996 32.0867 77.3594 32.6631 78.3065 33.0552C79.2535 33.4473 80.2691 33.6474 81.2941 33.6438C83.3731 33.6438 85.345 32.8266 86.8111 31.3596L90.3139 27.8559L93.8293 31.3722C94.5518 32.0993 95.4116 32.6757 96.3587 33.0678C97.3057 33.4599 98.3213 33.66 99.3463 33.6564C100.371 33.658 101.386 33.457 102.333 33.065C103.28 32.673 104.14 32.0977 104.863 31.3722C105.59 30.6497 106.167 29.79 106.559 28.8429C106.951 27.8958 107.151 26.8803 107.147 25.8552C107.147 23.7762 106.33 21.8052 104.863 20.3382L101.365 16.8408V16.839ZM95.2954 3.75035C95.8266 3.21792 96.4582 2.79614 97.1535 2.50941C97.8489 2.22269 98.5942 2.07672 99.3463 2.07995C100.874 2.07995 102.315 2.66855 103.397 3.75035C104.471 4.82525 105.073 6.2822 105.073 7.80125C105.073 9.32029 104.471 10.7772 103.397 11.8521L99.8935 15.3549L91.7917 7.25495L95.2963 3.75125L95.2954 3.75035ZM90.3193 24.9174L82.2301 16.8282L90.3193 8.73905L98.4085 16.8282L90.3193 24.9174ZM77.2405 11.8521C75.0058 9.62825 75.0058 5.99765 77.2405 3.75035C77.7717 3.21792 78.4033 2.79614 79.0986 2.50941C79.794 2.22269 80.5393 2.07672 81.2914 2.07995C82.8178 2.07995 84.2605 2.66855 85.3432 3.75035L88.846 7.25315L80.746 15.354L77.2423 11.8512L77.2405 11.8521ZM85.3432 29.9052C84.8118 30.4378 84.1801 30.8596 83.4846 31.1464C82.7891 31.4331 82.0437 31.579 81.2914 31.5756C80.5395 31.5783 79.7945 31.432 79.0994 31.1453C78.4043 30.8586 77.7728 30.4372 77.2414 29.9052C76.7092 29.3738 76.2875 28.7422 76.0007 28.0469C75.7138 27.3516 75.5675 26.6065 75.5701 25.8543C75.5701 24.327 76.1596 22.8852 77.2405 21.8034L80.7568 18.2871L88.8577 26.3871L85.3432 29.9052ZM103.396 29.9052C102.865 30.4377 102.233 30.8595 101.538 31.1462C100.843 31.4329 100.098 31.5789 99.3454 31.5756C98.5933 31.5784 97.8482 31.4322 97.1529 31.1455C96.4577 30.8588 95.826 30.4373 95.2945 29.9052L91.7782 26.3898L99.88 18.2898L103.394 21.8043C103.927 22.3354 104.349 22.9669 104.636 23.6623C104.923 24.3576 105.07 25.103 105.067 25.8552C105.07 26.6075 104.923 27.3529 104.636 28.0482C104.349 28.7435 103.927 29.375 103.394 29.9061L103.396 29.9052Z" fill="white"/>
<path d="M7.488 16.6483L12.3678 23.6908H9.6993L6.1533 18.523L2.5956 23.6908H0L4.8564 16.696L0.2277 9.96403H2.898L6.2037 14.8204L9.5814 9.96403H12.1536L7.5015 16.6465H7.4907L7.488 16.6483ZM25.11 9.96403L30.3858 23.7025H28.017L26.6103 19.9045H21.357L19.9512 23.7025H17.595L22.8717 9.96403H25.11ZM22.0914 17.8732H25.8543L23.9679 12.7882L22.0815 17.8732H22.0932H22.0914ZM39.2211 18.5707V23.6917H36.8892V9.96313H42.201C45.0378 9.96313 46.9008 11.4418 46.9008 14.2786C46.9008 17.1136 45.0504 18.5806 42.201 18.5806H39.222L39.2211 18.5707ZM42.1668 11.9719H39.2337V16.5628H42.1668C43.7778 16.5628 44.6058 15.6016 44.6058 14.2795C44.6058 12.9565 43.7895 11.9836 42.1668 11.9836V11.9719ZM59.2344 23.9311C55.5192 23.9311 52.9119 20.9386 52.9119 16.8283C52.9119 12.718 55.5201 9.73633 59.2344 9.73633C62.9478 9.73633 65.592 12.7171 65.592 16.8283C65.592 20.9395 62.9478 23.9311 59.2344 23.9311ZM59.2344 11.8288C56.8188 11.8288 55.2438 13.9321 55.2438 16.8409C55.2438 19.7497 56.8062 21.8539 59.2344 21.8539C61.6626 21.8539 63.2367 19.7488 63.2367 16.8409C63.2367 13.933 61.6491 11.8288 59.2344 11.8288ZM125.588 19.7614C125.588 22.3336 123.796 23.6908 120.936 23.6908H115.682V9.96403H120.49C123.351 9.96403 125.142 11.2384 125.142 13.7026C125.142 15.1813 124.361 16.2505 123.352 16.6105C124.651 17.0317 125.588 18.3061 125.588 19.7605M120.467 15.7339C122.065 15.7339 122.907 15.1327 122.907 13.8349C122.907 12.5362 122.054 11.9836 120.467 11.9836H117.943V15.7456H120.467V15.7339ZM117.931 21.6829H120.888C122.45 21.6829 123.304 20.9017 123.304 19.6633C123.304 18.4258 122.45 17.6563 120.888 17.6563H117.931V21.6829ZM138.64 9.96403L143.917 23.7025H141.549L140.143 19.9045H134.89L133.483 23.7025H131.127L136.404 9.96403H138.64ZM139.387 17.8732L137.498 12.7882L135.612 17.8732H139.387ZM161.491 23.6908H159.7L152.68 13.6909V23.6908H150.444V9.96403H152.644L159.267 19.4959V9.96493H161.502V23.7025L161.491 23.6908ZM171.406 15.9391L176.911 9.96583H179.797L173.594 16.5403L180 23.7043H177.043L171.405 17.4178V23.7043H169.073V9.96583H171.405V15.9391H171.406Z" fill="white"/>
</g>
<defs>
<clipPath id="clip0_1594_3582">
<rect width="180" height="46.8" fill="white"/>
</clipPath>
</defs>
</svg>
