<svg width="24" height="24" viewBox="0 0 24 24" fill="none" xmlns="http://www.w3.org/2000/svg">
<rect width="24" height="24" fill="#707A75"/>
<path d="M18.75 6.375H14.25C13.8134 6.375 13.3827 6.47666 12.9922 6.67192C12.6017 6.86719 12.262 7.1507 12 7.5C11.738 7.1507 11.3983 6.86719 11.0078 6.67192C10.6173 6.47666 10.1866 6.375 9.75 6.375H5.25C4.95163 6.375 4.66548 6.49353 4.4545 6.7045C4.24353 6.91548 4.125 7.20163 4.125 7.5V16.5C4.125 16.7984 4.24353 17.0845 4.4545 17.2955C4.66548 17.5065 4.95163 17.625 5.25 17.625H9.75C10.1976 17.625 10.6268 17.8028 10.9432 18.1193C11.2597 18.4357 11.4375 18.8649 11.4375 19.3125C11.4375 19.4617 11.4968 19.6048 11.6023 19.7102C11.7077 19.8157 11.8508 19.875 12 19.875C12.1492 19.875 12.2923 19.8157 12.3977 19.7102C12.5032 19.6048 12.5625 19.4617 12.5625 19.3125C12.5625 18.8649 12.7403 18.4357 13.0568 18.1193C13.3732 17.8028 13.8024 17.625 14.25 17.625H18.75C19.0484 17.625 19.3345 17.5065 19.5455 17.2955C19.7565 17.0845 19.875 16.7984 19.875 16.5V7.5C19.875 7.20163 19.7565 6.91548 19.5455 6.7045C19.3345 6.49353 19.0484 6.375 18.75 6.375ZM9.75 16.5H5.25V7.5H9.75C10.1976 7.5 10.6268 7.67779 10.9432 7.99426C11.2597 8.31072 11.4375 8.73995 11.4375 9.1875V17.0625C10.9511 16.6965 10.3587 16.499 9.75 16.5ZM18.75 16.5H14.25C13.6413 16.499 13.0489 16.6965 12.5625 17.0625V9.1875C12.5625 8.73995 12.7403 8.31072 13.0568 7.99426C13.3732 7.67779 13.8024 7.5 14.25 7.5H18.75V16.5ZM14.25 9.1875H17.0625C17.2117 9.1875 17.3548 9.24676 17.4602 9.35225C17.5657 9.45774 17.625 9.60082 17.625 9.75C17.625 9.89918 17.5657 10.0423 17.4602 10.1477C17.3548 10.2532 17.2117 10.3125 17.0625 10.3125H14.25C14.1008 10.3125 13.9577 10.2532 13.8523 10.1477C13.7468 10.0423 13.6875 9.89918 13.6875 9.75C13.6875 9.60082 13.7468 9.45774 13.8523 9.35225C13.9577 9.24676 14.1008 9.1875 14.25 9.1875ZM17.625 12C17.625 12.1492 17.5657 12.2923 17.4602 12.3977C17.3548 12.5032 17.2117 12.5625 17.0625 12.5625H14.25C14.1008 12.5625 13.9577 12.5032 13.8523 12.3977C13.7468 12.2923 13.6875 12.1492 13.6875 12C13.6875 11.8508 13.7468 11.7077 13.8523 11.6023C13.9577 11.4968 14.1008 11.4375 14.25 11.4375H17.0625C17.2117 11.4375 17.3548 11.4968 17.4602 11.6023C17.5657 11.7077 17.625 11.8508 17.625 12ZM17.625 14.25C17.625 14.3992 17.5657 14.5423 17.4602 14.6477C17.3548 14.7532 17.2117 14.8125 17.0625 14.8125H14.25C14.1008 14.8125 13.9577 14.7532 13.8523 14.6477C13.7468 14.5423 13.6875 14.3992 13.6875 14.25C13.6875 14.1008 13.7468 13.9577 13.8523 13.8523C13.9577 13.7468 14.1008 13.6875 14.25 13.6875H17.0625C17.2117 13.6875 17.3548 13.7468 17.4602 13.8523C17.5657 13.9577 17.625 14.1008 17.625 14.25Z" fill="#E1E5E3"/>
</svg>
