<?xml version="1.0" standalone="no"?>
<!DOCTYPE svg PUBLIC "-//W3C//DTD SVG 20010904//EN"
 "http://www.w3.org/TR/2001/REC-SVG-20010904/DTD/svg10.dtd">
<svg version="1.0" xmlns="http://www.w3.org/2000/svg"
 width="521.000000pt" height="521.000000pt" viewBox="0 0 521.000000 521.000000"
 preserveAspectRatio="xMidYMid meet">
<metadata>
Created by potrace 1.14, written by Peter Selinger 2001-2017
</metadata>
<g transform="translate(0.000000,521.000000) scale(0.100000,-0.100000)"
fill="#000000" stroke="none">
<path d="M950 4184 c-155 -33 -150 -32 -166 -45 -8 -6 -14 -9 -14 -5 0 9 -144
-59 -214 -101 -232 -140 -422 -377 -501 -625 -53 -166 -54 -193 -51 -873 1
-346 5 -641 8 -655 3 -14 11 -52 17 -85 26 -125 98 -286 176 -390 219 -293
545 -441 945 -430 147 4 167 7 283 36 98 25 138 40 257 97 124 59 172 89 305
188 157 116 135 96 780 729 67 66 299 293 515 505 216 212 444 436 507 498
172 172 216 193 273 133 l27 -30 -1 -540 -1 -541 -28 -27 -27 -28 -473 -5
-472 -5 0 -505 0 -505 525 0 c289 0 548 3 575 8 254 38 485 155 665 336 95 95
115 121 176 220 73 118 133 280 151 411 5 30 8 336 8 680 0 549 -4 705 -20
730 -2 4 -7 21 -10 39 -17 98 -79 238 -158 356 -34 51 -165 188 -221 234 -104
82 -298 166 -471 203 -93 19 -371 16 -475 -6 -90 -19 -246 -71 -267 -88 -7 -6
-13 -8 -13 -5 0 11 -153 -74 -255 -141 -80 -53 -223 -164 -291 -227 -13 -11
-610 -595 -824 -805 -654 -641 -890 -872 -918 -895 -47 -39 -101 -44 -138 -12
l-29 25 0 546 0 546 28 27 27 28 473 5 472 5 1 508 0 508 -520 -2 c-511 -1
-523 -1 -636 -25z"/>
</g>
</svg>
